<?xml version="1.0" encoding="utf-8" standalone="no"?>
<!DOCTYPE svg PUBLIC "-//W3C//DTD SVG 1.1//EN"
  "http://www.w3.org/Graphics/SVG/1.1/DTD/svg11.dtd">
<!-- Created with matplotlib (https://matplotlib.org/) -->
<svg height="334.533203pt" version="1.1" viewBox="0 0 799.462578 334.533203" width="799.462578pt" xmlns="http://www.w3.org/2000/svg" xmlns:xlink="http://www.w3.org/1999/xlink">
 <defs>
  <style type="text/css">
*{stroke-linecap:butt;stroke-linejoin:round;}
  </style>
 </defs>
 <g id="figure_1">
  <g id="patch_1">
   <path d="M 0 334.533203 
L 799.462578 334.533203 
L 799.462578 0 
L 0 0 
z
" style="fill:none;"/>
  </g>
  <g id="axes_1">
   <g id="patch_2">
    <path d="M 65.552578 277.923437 
L 334.017578 277.923437 
L 334.017578 26.303437 
L 65.552578 26.303437 
z
" style="fill:none;"/>
   </g>
   <g id="line2d_1">
    <path clip-path="url(#pfc058c34f6)" d="M 65.552578 168.523437 
L 334.017578 168.523437 
" style="fill:none;stroke:#cccccc;stroke-dasharray:2.25,2.25;stroke-dashoffset:0;stroke-width:2.25;"/>
   </g>
   <g id="line2d_2">
    <path clip-path="url(#pfc058c34f6)" d="M 65.552578 31.773437 
L 334.017578 31.773437 
" style="fill:none;stroke:#66c2a5;stroke-dasharray:2.4,2.4;stroke-dashoffset:0;stroke-width:1.2;"/>
   </g>
   <g id="matplotlib.axis_1">
    <g id="xtick_1">
     <g id="line2d_3">
      <defs>
       <path d="M 0 0 
L 0 9 
" id="m3b2b006840" style="stroke:#262626;stroke-width:1.875;"/>
      </defs>
      <g>
       <use style="fill:#262626;stroke:#262626;stroke-width:1.875;" x="77.755533" xlink:href="#m3b2b006840" y="277.923437"/>
      </g>
     </g>
     <g id="text_1">
      <!-- 0.0 -->
      <defs>
       <path d="M 4.15625 35.296875 
Q 4.15625 48 6.765625 55.734375 
Q 9.375 63.484375 14.515625 67.671875 
Q 19.671875 71.875 27.484375 71.875 
Q 33.25 71.875 37.59375 69.546875 
Q 41.9375 67.234375 44.765625 62.859375 
Q 47.609375 58.5 49.21875 52.21875 
Q 50.828125 45.953125 50.828125 35.296875 
Q 50.828125 22.703125 48.234375 14.96875 
Q 45.65625 7.234375 40.5 3 
Q 35.359375 -1.21875 27.484375 -1.21875 
Q 17.140625 -1.21875 11.234375 6.203125 
Q 4.15625 15.140625 4.15625 35.296875 
z
M 13.1875 35.296875 
Q 13.1875 17.671875 17.3125 11.828125 
Q 21.4375 6 27.484375 6 
Q 33.546875 6 37.671875 11.859375 
Q 41.796875 17.71875 41.796875 35.296875 
Q 41.796875 52.984375 37.671875 58.78125 
Q 33.546875 64.59375 27.390625 64.59375 
Q 21.34375 64.59375 17.71875 59.46875 
Q 13.1875 52.9375 13.1875 35.296875 
z
" id="ArialMT-48"/>
       <path d="M 9.078125 0 
L 9.078125 10.015625 
L 19.09375 10.015625 
L 19.09375 0 
z
" id="ArialMT-46"/>
      </defs>
      <g style="fill:#262626;" transform="translate(66.288033 302.233828)scale(0.165 -0.165)">
       <use xlink:href="#ArialMT-48"/>
       <use x="55.615234" xlink:href="#ArialMT-46"/>
       <use x="83.398438" xlink:href="#ArialMT-48"/>
      </g>
     </g>
    </g>
    <g id="xtick_2">
     <g id="line2d_4">
      <g>
       <use style="fill:#262626;stroke:#262626;stroke-width:1.875;" x="138.770305" xlink:href="#m3b2b006840" y="277.923437"/>
      </g>
     </g>
     <g id="text_2">
      <!-- 0.5 -->
      <defs>
       <path d="M 4.15625 18.75 
L 13.375 19.53125 
Q 14.40625 12.796875 18.140625 9.390625 
Q 21.875 6 27.15625 6 
Q 33.5 6 37.890625 10.78125 
Q 42.28125 15.578125 42.28125 23.484375 
Q 42.28125 31 38.0625 35.34375 
Q 33.84375 39.703125 27 39.703125 
Q 22.75 39.703125 19.328125 37.765625 
Q 15.921875 35.84375 13.96875 32.765625 
L 5.71875 33.84375 
L 12.640625 70.609375 
L 48.25 70.609375 
L 48.25 62.203125 
L 19.671875 62.203125 
L 15.828125 42.96875 
Q 22.265625 47.46875 29.34375 47.46875 
Q 38.71875 47.46875 45.15625 40.96875 
Q 51.609375 34.46875 51.609375 24.265625 
Q 51.609375 14.546875 45.953125 7.46875 
Q 39.0625 -1.21875 27.15625 -1.21875 
Q 17.390625 -1.21875 11.203125 4.25 
Q 5.03125 9.71875 4.15625 18.75 
z
" id="ArialMT-53"/>
      </defs>
      <g style="fill:#262626;" transform="translate(127.302805 302.233828)scale(0.165 -0.165)">
       <use xlink:href="#ArialMT-48"/>
       <use x="55.615234" xlink:href="#ArialMT-46"/>
       <use x="83.398438" xlink:href="#ArialMT-53"/>
      </g>
     </g>
    </g>
    <g id="xtick_3">
     <g id="line2d_5">
      <g>
       <use style="fill:#262626;stroke:#262626;stroke-width:1.875;" x="199.785078" xlink:href="#m3b2b006840" y="277.923437"/>
      </g>
     </g>
     <g id="text_3">
      <!-- 1.0 -->
      <defs>
       <path d="M 37.25 0 
L 28.46875 0 
L 28.46875 56 
Q 25.296875 52.984375 20.140625 49.953125 
Q 14.984375 46.921875 10.890625 45.40625 
L 10.890625 53.90625 
Q 18.265625 57.375 23.78125 62.296875 
Q 29.296875 67.234375 31.59375 71.875 
L 37.25 71.875 
z
" id="ArialMT-49"/>
      </defs>
      <g style="fill:#262626;" transform="translate(188.317578 302.233828)scale(0.165 -0.165)">
       <use xlink:href="#ArialMT-49"/>
       <use x="55.615234" xlink:href="#ArialMT-46"/>
       <use x="83.398438" xlink:href="#ArialMT-48"/>
      </g>
     </g>
    </g>
    <g id="xtick_4">
     <g id="line2d_6">
      <g>
       <use style="fill:#262626;stroke:#262626;stroke-width:1.875;" x="260.799851" xlink:href="#m3b2b006840" y="277.923437"/>
      </g>
     </g>
     <g id="text_4">
      <!-- 1.5 -->
      <g style="fill:#262626;" transform="translate(249.332351 302.233828)scale(0.165 -0.165)">
       <use xlink:href="#ArialMT-49"/>
       <use x="55.615234" xlink:href="#ArialMT-46"/>
       <use x="83.398438" xlink:href="#ArialMT-53"/>
      </g>
     </g>
    </g>
    <g id="xtick_5">
     <g id="line2d_7">
      <g>
       <use style="fill:#262626;stroke:#262626;stroke-width:1.875;" x="321.814624" xlink:href="#m3b2b006840" y="277.923437"/>
      </g>
     </g>
     <g id="text_5">
      <!-- 2.0 -->
      <defs>
       <path d="M 50.34375 8.453125 
L 50.34375 0 
L 3.03125 0 
Q 2.9375 3.171875 4.046875 6.109375 
Q 5.859375 10.9375 9.828125 15.625 
Q 13.8125 20.3125 21.34375 26.46875 
Q 33.015625 36.03125 37.109375 41.625 
Q 41.21875 47.21875 41.21875 52.203125 
Q 41.21875 57.421875 37.46875 61 
Q 33.734375 64.59375 27.734375 64.59375 
Q 21.390625 64.59375 17.578125 60.78125 
Q 13.765625 56.984375 13.71875 50.25 
L 4.6875 51.171875 
Q 5.609375 61.28125 11.65625 66.578125 
Q 17.71875 71.875 27.9375 71.875 
Q 38.234375 71.875 44.234375 66.15625 
Q 50.25 60.453125 50.25 52 
Q 50.25 47.703125 48.484375 43.546875 
Q 46.734375 39.40625 42.65625 34.8125 
Q 38.578125 30.21875 29.109375 22.21875 
Q 21.1875 15.578125 18.9375 13.203125 
Q 16.703125 10.84375 15.234375 8.453125 
z
" id="ArialMT-50"/>
      </defs>
      <g style="fill:#262626;" transform="translate(310.347124 302.233828)scale(0.165 -0.165)">
       <use xlink:href="#ArialMT-50"/>
       <use x="55.615234" xlink:href="#ArialMT-46"/>
       <use x="83.398438" xlink:href="#ArialMT-48"/>
      </g>
     </g>
    </g>
    <g id="text_6">
     <!-- Angle, $\theta$ ($\degree$) -->
     <defs>
      <path d="M -0.140625 0 
L 27.34375 71.578125 
L 37.546875 71.578125 
L 66.84375 0 
L 56.0625 0 
L 47.703125 21.6875 
L 17.78125 21.6875 
L 9.90625 0 
z
M 20.515625 29.390625 
L 44.78125 29.390625 
L 37.3125 49.21875 
Q 33.890625 58.25 32.234375 64.0625 
Q 30.859375 57.171875 28.375 50.390625 
z
" id="ArialMT-65"/>
      <path d="M 6.59375 0 
L 6.59375 51.859375 
L 14.5 51.859375 
L 14.5 44.484375 
Q 20.21875 53.03125 31 53.03125 
Q 35.6875 53.03125 39.625 51.34375 
Q 43.5625 49.65625 45.515625 46.921875 
Q 47.46875 44.1875 48.25 40.4375 
Q 48.734375 37.984375 48.734375 31.890625 
L 48.734375 0 
L 39.9375 0 
L 39.9375 31.546875 
Q 39.9375 36.921875 38.90625 39.578125 
Q 37.890625 42.234375 35.28125 43.8125 
Q 32.671875 45.40625 29.15625 45.40625 
Q 23.53125 45.40625 19.453125 41.84375 
Q 15.375 38.28125 15.375 28.328125 
L 15.375 0 
z
" id="ArialMT-110"/>
      <path d="M 4.984375 -4.296875 
L 13.53125 -5.5625 
Q 14.0625 -9.515625 16.5 -11.328125 
Q 19.78125 -13.765625 25.4375 -13.765625 
Q 31.546875 -13.765625 34.859375 -11.328125 
Q 38.1875 -8.890625 39.359375 -4.5 
Q 40.046875 -1.8125 39.984375 6.78125 
Q 34.234375 0 25.640625 0 
Q 14.9375 0 9.078125 7.71875 
Q 3.21875 15.4375 3.21875 26.21875 
Q 3.21875 33.640625 5.90625 39.90625 
Q 8.59375 46.1875 13.6875 49.609375 
Q 18.796875 53.03125 25.6875 53.03125 
Q 34.859375 53.03125 40.828125 45.609375 
L 40.828125 51.859375 
L 48.921875 51.859375 
L 48.921875 7.03125 
Q 48.921875 -5.078125 46.453125 -10.125 
Q 44 -15.1875 38.640625 -18.109375 
Q 33.296875 -21.046875 25.484375 -21.046875 
Q 16.21875 -21.046875 10.5 -16.875 
Q 4.78125 -12.703125 4.984375 -4.296875 
z
M 12.25 26.859375 
Q 12.25 16.65625 16.296875 11.96875 
Q 20.359375 7.28125 26.46875 7.28125 
Q 32.515625 7.28125 36.609375 11.9375 
Q 40.71875 16.609375 40.71875 26.5625 
Q 40.71875 36.078125 36.5 40.90625 
Q 32.28125 45.75 26.3125 45.75 
Q 20.453125 45.75 16.34375 40.984375 
Q 12.25 36.234375 12.25 26.859375 
z
" id="ArialMT-103"/>
      <path d="M 6.390625 0 
L 6.390625 71.578125 
L 15.1875 71.578125 
L 15.1875 0 
z
" id="ArialMT-108"/>
      <path d="M 42.09375 16.703125 
L 51.171875 15.578125 
Q 49.03125 7.625 43.21875 3.21875 
Q 37.40625 -1.171875 28.375 -1.171875 
Q 17 -1.171875 10.328125 5.828125 
Q 3.65625 12.84375 3.65625 25.484375 
Q 3.65625 38.578125 10.390625 45.796875 
Q 17.140625 53.03125 27.875 53.03125 
Q 38.28125 53.03125 44.875 45.953125 
Q 51.46875 38.875 51.46875 26.03125 
Q 51.46875 25.25 51.421875 23.6875 
L 12.75 23.6875 
Q 13.234375 15.140625 17.578125 10.59375 
Q 21.921875 6.0625 28.421875 6.0625 
Q 33.25 6.0625 36.671875 8.59375 
Q 40.09375 11.140625 42.09375 16.703125 
z
M 13.234375 30.90625 
L 42.1875 30.90625 
Q 41.609375 37.453125 38.875 40.71875 
Q 34.671875 45.796875 27.984375 45.796875 
Q 21.921875 45.796875 17.796875 41.75 
Q 13.671875 37.703125 13.234375 30.90625 
z
" id="ArialMT-101"/>
      <path d="M 8.890625 0 
L 8.890625 10.015625 
L 18.890625 10.015625 
L 18.890625 0 
Q 18.890625 -5.515625 16.9375 -8.90625 
Q 14.984375 -12.3125 10.75 -14.15625 
L 8.296875 -10.40625 
Q 11.078125 -9.1875 12.390625 -6.8125 
Q 13.71875 -4.4375 13.875 0 
z
" id="ArialMT-44"/>
      <path id="ArialMT-32"/>
      <path d="M 45.515625 34.671875 
L 14.453125 34.671875 
Q 12.359375 20.0625 14.5 13.875 
Q 17.1875 6.25 24.46875 6.25 
Q 31.78125 6.25 37.359375 13.921875 
Q 42.234375 20.65625 45.515625 34.671875 
z
M 47.015625 42.96875 
Q 48.34375 56.84375 46.625 61.71875 
Q 43.953125 69.4375 36.765625 69.4375 
Q 29.296875 69.4375 23.828125 61.8125 
Q 19.53125 55.671875 16.15625 42.96875 
z
M 38.1875 76.765625 
Q 49.90625 76.765625 54.59375 66.40625 
Q 59.28125 56.109375 55.71875 37.84375 
Q 52.203125 19.625 43.453125 9.28125 
Q 34.765625 -1.125 23.046875 -1.125 
Q 11.28125 -1.125 6.640625 9.28125 
Q 2 19.625 5.515625 37.84375 
Q 9.078125 56.109375 17.71875 66.40625 
Q 26.421875 76.765625 38.1875 76.765625 
z
" id="DejaVuSans-Oblique-952"/>
      <path d="M 23.390625 -21.046875 
Q 16.109375 -11.859375 11.078125 0.4375 
Q 6.0625 12.75 6.0625 25.921875 
Q 6.0625 37.546875 9.8125 48.1875 
Q 14.203125 60.546875 23.390625 72.796875 
L 29.6875 72.796875 
Q 23.78125 62.640625 21.875 58.296875 
Q 18.890625 51.5625 17.1875 44.234375 
Q 15.09375 35.109375 15.09375 25.875 
Q 15.09375 2.390625 29.6875 -21.046875 
z
" id="ArialMT-40"/>
      <path d="M 25 67.921875 
Q 21.09375 67.921875 18.40625 65.203125 
Q 15.71875 62.5 15.71875 58.59375 
Q 15.71875 54.734375 18.40625 52.078125 
Q 21.09375 49.421875 25 49.421875 
Q 28.90625 49.421875 31.59375 52.078125 
Q 34.28125 54.734375 34.28125 58.59375 
Q 34.28125 62.453125 31.5625 65.1875 
Q 28.859375 67.921875 25 67.921875 
z
M 25 74.21875 
Q 28.125 74.21875 31 73.015625 
Q 33.890625 71.828125 35.984375 69.578125 
Q 38.234375 67.390625 39.359375 64.59375 
Q 40.484375 61.8125 40.484375 58.59375 
Q 40.484375 52.15625 35.96875 47.6875 
Q 31.453125 43.21875 24.90625 43.21875 
Q 18.3125 43.21875 13.90625 47.609375 
Q 9.515625 52 9.515625 58.59375 
Q 9.515625 65.140625 14 69.671875 
Q 18.5 74.21875 25 74.21875 
z
" id="DejaVuSans-176"/>
      <path d="M 12.359375 -21.046875 
L 6.0625 -21.046875 
Q 20.65625 2.390625 20.65625 25.875 
Q 20.65625 35.0625 18.5625 44.09375 
Q 16.890625 51.421875 13.921875 58.15625 
Q 12.015625 62.546875 6.0625 72.796875 
L 12.359375 72.796875 
Q 21.53125 60.546875 25.921875 48.1875 
Q 29.6875 37.546875 29.6875 25.921875 
Q 29.6875 12.75 24.625 0.4375 
Q 19.578125 -11.859375 12.359375 -21.046875 
z
" id="ArialMT-41"/>
     </defs>
     <g style="fill:#262626;" transform="translate(153.255078 323.373203)scale(0.18 -0.18)">
      <use transform="translate(0 0.234375)" xlink:href="#ArialMT-65"/>
      <use transform="translate(66.699219 0.234375)" xlink:href="#ArialMT-110"/>
      <use transform="translate(122.314453 0.234375)" xlink:href="#ArialMT-103"/>
      <use transform="translate(177.929688 0.234375)" xlink:href="#ArialMT-108"/>
      <use transform="translate(200.146484 0.234375)" xlink:href="#ArialMT-101"/>
      <use transform="translate(255.761719 0.234375)" xlink:href="#ArialMT-44"/>
      <use transform="translate(283.544922 0.234375)" xlink:href="#ArialMT-32"/>
      <use transform="translate(311.328125 0.234375)" xlink:href="#DejaVuSans-Oblique-952"/>
      <use transform="translate(372.509766 0.234375)" xlink:href="#ArialMT-32"/>
      <use transform="translate(400.292969 0.234375)" xlink:href="#ArialMT-40"/>
      <use transform="translate(433.59375 0.234375)" xlink:href="#DejaVuSans-176"/>
      <use transform="translate(483.59375 0.234375)" xlink:href="#ArialMT-41"/>
     </g>
    </g>
   </g>
   <g id="matplotlib.axis_2">
    <g id="ytick_1">
     <g id="line2d_8">
      <defs>
       <path d="M 0 0 
L -9 0 
" id="ma2e8baf528" style="stroke:#262626;stroke-width:1.875;"/>
      </defs>
      <g>
       <use style="fill:#262626;stroke:#262626;stroke-width:1.875;" x="65.552578" xlink:href="#ma2e8baf528" y="277.923437"/>
      </g>
     </g>
     <g id="text_7">
      <!-- −2 -->
      <defs>
       <path d="M 52.828125 31.203125 
L 5.5625 31.203125 
L 5.5625 39.40625 
L 52.828125 39.40625 
z
" id="ArialMT-8722"/>
      </defs>
      <g style="fill:#262626;" transform="translate(34.24 283.828633)scale(0.165 -0.165)">
       <use xlink:href="#ArialMT-8722"/>
       <use x="58.398438" xlink:href="#ArialMT-50"/>
      </g>
     </g>
    </g>
    <g id="ytick_2">
     <g id="line2d_9">
      <g>
       <use style="fill:#262626;stroke:#262626;stroke-width:1.875;" x="65.552578" xlink:href="#ma2e8baf528" y="223.223437"/>
      </g>
     </g>
     <g id="text_8">
      <!-- −1 -->
      <g style="fill:#262626;" transform="translate(34.24 229.128633)scale(0.165 -0.165)">
       <use xlink:href="#ArialMT-8722"/>
       <use x="58.398438" xlink:href="#ArialMT-49"/>
      </g>
     </g>
    </g>
    <g id="ytick_3">
     <g id="line2d_10">
      <g>
       <use style="fill:#262626;stroke:#262626;stroke-width:1.875;" x="65.552578" xlink:href="#ma2e8baf528" y="168.523437"/>
      </g>
     </g>
     <g id="text_9">
      <!-- 0 -->
      <g style="fill:#262626;" transform="translate(43.877031 174.428633)scale(0.165 -0.165)">
       <use xlink:href="#ArialMT-48"/>
      </g>
     </g>
    </g>
    <g id="ytick_4">
     <g id="line2d_11">
      <g>
       <use style="fill:#262626;stroke:#262626;stroke-width:1.875;" x="65.552578" xlink:href="#ma2e8baf528" y="113.823437"/>
      </g>
     </g>
     <g id="text_10">
      <!-- 1 -->
      <g style="fill:#262626;" transform="translate(43.877031 119.728633)scale(0.165 -0.165)">
       <use xlink:href="#ArialMT-49"/>
      </g>
     </g>
    </g>
    <g id="ytick_5">
     <g id="line2d_12">
      <g>
       <use style="fill:#262626;stroke:#262626;stroke-width:1.875;" x="65.552578" xlink:href="#ma2e8baf528" y="59.123437"/>
      </g>
     </g>
     <g id="text_11">
      <!-- 2 -->
      <g style="fill:#262626;" transform="translate(43.877031 65.028633)scale(0.165 -0.165)">
       <use xlink:href="#ArialMT-50"/>
      </g>
     </g>
    </g>
    <g id="text_12">
     <!-- Force, $\hat{F}_{net}$ -->
     <defs>
      <path d="M 8.203125 0 
L 8.203125 71.578125 
L 56.5 71.578125 
L 56.5 63.140625 
L 17.671875 63.140625 
L 17.671875 40.96875 
L 51.265625 40.96875 
L 51.265625 32.515625 
L 17.671875 32.515625 
L 17.671875 0 
z
" id="ArialMT-70"/>
      <path d="M 3.328125 25.921875 
Q 3.328125 40.328125 11.328125 47.265625 
Q 18.015625 53.03125 27.640625 53.03125 
Q 38.328125 53.03125 45.109375 46.015625 
Q 51.90625 39.015625 51.90625 26.65625 
Q 51.90625 16.65625 48.90625 10.90625 
Q 45.90625 5.171875 40.15625 2 
Q 34.421875 -1.171875 27.640625 -1.171875 
Q 16.75 -1.171875 10.03125 5.8125 
Q 3.328125 12.796875 3.328125 25.921875 
z
M 12.359375 25.921875 
Q 12.359375 15.96875 16.703125 11.015625 
Q 21.046875 6.0625 27.640625 6.0625 
Q 34.1875 6.0625 38.53125 11.03125 
Q 42.875 16.015625 42.875 26.21875 
Q 42.875 35.84375 38.5 40.796875 
Q 34.125 45.75 27.640625 45.75 
Q 21.046875 45.75 16.703125 40.8125 
Q 12.359375 35.890625 12.359375 25.921875 
z
" id="ArialMT-111"/>
      <path d="M 6.5 0 
L 6.5 51.859375 
L 14.40625 51.859375 
L 14.40625 44 
Q 17.4375 49.515625 20 51.265625 
Q 22.5625 53.03125 25.640625 53.03125 
Q 30.078125 53.03125 34.671875 50.203125 
L 31.640625 42.046875 
Q 28.421875 43.953125 25.203125 43.953125 
Q 22.3125 43.953125 20.015625 42.21875 
Q 17.71875 40.484375 16.75 37.40625 
Q 15.28125 32.71875 15.28125 27.15625 
L 15.28125 0 
z
" id="ArialMT-114"/>
      <path d="M 40.4375 19 
L 49.078125 17.875 
Q 47.65625 8.9375 41.8125 3.875 
Q 35.984375 -1.171875 27.484375 -1.171875 
Q 16.84375 -1.171875 10.375 5.78125 
Q 3.90625 12.75 3.90625 25.734375 
Q 3.90625 34.125 6.6875 40.421875 
Q 9.46875 46.734375 15.15625 49.875 
Q 20.84375 53.03125 27.546875 53.03125 
Q 35.984375 53.03125 41.359375 48.75 
Q 46.734375 44.484375 48.25 36.625 
L 39.703125 35.296875 
Q 38.484375 40.53125 35.375 43.15625 
Q 32.28125 45.796875 27.875 45.796875 
Q 21.234375 45.796875 17.078125 41.03125 
Q 12.9375 36.28125 12.9375 25.984375 
Q 12.9375 15.53125 16.9375 10.796875 
Q 20.953125 6.0625 27.390625 6.0625 
Q 32.5625 6.0625 36.03125 9.234375 
Q 39.5 12.40625 40.4375 19 
z
" id="ArialMT-99"/>
      <path d="M -28.609375 79.984375 
L -21.390625 79.984375 
L -9.421875 61.625 
L -16.21875 61.625 
L -25 73.578125 
L -33.796875 61.625 
L -40.578125 61.625 
z
M -25 56 
z
" id="DejaVuSans-770"/>
      <path d="M 16.890625 72.90625 
L 58.6875 72.90625 
L 57.078125 64.59375 
L 25.09375 64.59375 
L 20.90625 43.109375 
L 49.8125 43.109375 
L 48.1875 34.8125 
L 19.28125 34.8125 
L 12.5 0 
L 2.6875 0 
z
" id="DejaVuSans-Oblique-70"/>
      <path d="M 55.71875 33.015625 
L 49.3125 0 
L 40.28125 0 
L 46.6875 32.671875 
Q 47.125 34.96875 47.359375 36.71875 
Q 47.609375 38.484375 47.609375 39.5 
Q 47.609375 43.609375 45.015625 45.890625 
Q 42.4375 48.1875 37.796875 48.1875 
Q 30.5625 48.1875 25.34375 43.375 
Q 20.125 38.578125 18.5 30.328125 
L 12.5 0 
L 3.515625 0 
L 14.109375 54.6875 
L 23.09375 54.6875 
L 21.296875 46.09375 
Q 25.046875 50.828125 30.3125 53.40625 
Q 35.59375 56 41.40625 56 
Q 48.640625 56 52.609375 52.09375 
Q 56.59375 48.1875 56.59375 41.109375 
Q 56.59375 39.359375 56.375 37.359375 
Q 56.15625 35.359375 55.71875 33.015625 
z
" id="DejaVuSans-Oblique-110"/>
      <path d="M 48.09375 32.234375 
Q 48.25 33.015625 48.3125 33.84375 
Q 48.390625 34.671875 48.390625 35.5 
Q 48.390625 41.453125 44.890625 44.921875 
Q 41.40625 48.390625 35.40625 48.390625 
Q 28.71875 48.390625 23.578125 44.15625 
Q 18.453125 39.9375 15.828125 32.171875 
z
M 55.90625 25.203125 
L 14.109375 25.203125 
Q 13.8125 23.34375 13.71875 22.265625 
Q 13.625 21.1875 13.625 20.40625 
Q 13.625 13.625 17.796875 9.90625 
Q 21.96875 6.203125 29.59375 6.203125 
Q 35.453125 6.203125 40.671875 7.515625 
Q 45.90625 8.84375 50.390625 11.375 
L 48.6875 2.484375 
Q 43.84375 0.53125 38.6875 -0.4375 
Q 33.546875 -1.421875 28.21875 -1.421875 
Q 16.84375 -1.421875 10.71875 4.015625 
Q 4.59375 9.46875 4.59375 19.484375 
Q 4.59375 28.03125 7.640625 35.375 
Q 10.6875 42.71875 16.609375 48.484375 
Q 20.40625 52.09375 25.65625 54.046875 
Q 30.90625 56 36.8125 56 
Q 46.09375 56 51.578125 50.4375 
Q 57.078125 44.875 57.078125 35.5 
Q 57.078125 33.25 56.78125 30.6875 
Q 56.5 28.125 55.90625 25.203125 
z
" id="DejaVuSans-Oblique-101"/>
      <path d="M 42.28125 54.6875 
L 40.921875 47.703125 
L 23 47.703125 
L 17.1875 18.015625 
Q 16.890625 16.359375 16.75 15.234375 
Q 16.609375 14.109375 16.609375 13.484375 
Q 16.609375 10.359375 18.484375 8.9375 
Q 20.359375 7.515625 24.515625 7.515625 
L 33.59375 7.515625 
L 32.078125 0 
L 23.484375 0 
Q 15.484375 0 11.546875 3.125 
Q 7.625 6.25 7.625 12.59375 
Q 7.625 13.71875 7.765625 15.0625 
Q 7.90625 16.40625 8.203125 18.015625 
L 14.015625 47.703125 
L 6.390625 47.703125 
L 7.8125 54.6875 
L 15.28125 54.6875 
L 18.3125 70.21875 
L 27.296875 70.21875 
L 24.3125 54.6875 
z
" id="DejaVuSans-Oblique-116"/>
     </defs>
     <g style="fill:#262626;" transform="translate(26.6625 196.033437)rotate(-90)scale(0.18 -0.18)">
      <use transform="translate(0 0.609375)" xlink:href="#ArialMT-70"/>
      <use transform="translate(61.083984 0.609375)" xlink:href="#ArialMT-111"/>
      <use transform="translate(116.699219 0.609375)" xlink:href="#ArialMT-114"/>
      <use transform="translate(150 0.609375)" xlink:href="#ArialMT-99"/>
      <use transform="translate(200 0.609375)" xlink:href="#ArialMT-101"/>
      <use transform="translate(255.615234 0.609375)" xlink:href="#ArialMT-44"/>
      <use transform="translate(283.398438 0.609375)" xlink:href="#ArialMT-32"/>
      <use transform="translate(372.139648 30.015625)" xlink:href="#DejaVuSans-770"/>
      <use transform="translate(311.181641 0.609375)" xlink:href="#DejaVuSans-Oblique-70"/>
      <use transform="translate(369.658203 -15.796875)scale(0.7)" xlink:href="#DejaVuSans-Oblique-110"/>
      <use transform="translate(414.023438 -15.796875)scale(0.7)" xlink:href="#DejaVuSans-Oblique-101"/>
      <use transform="translate(457.089844 -15.796875)scale(0.7)" xlink:href="#DejaVuSans-Oblique-116"/>
     </g>
    </g>
   </g>
   <g id="line2d_13">
    <path clip-path="url(#pfc058c34f6)" d="M 77.755533 168.523437 
L 96.905411 103.18621 
L 97.312855 107.304266 
L 97.7203 106.02888 
L 98.535188 114.230188 
L 98.942632 113.165628 
L 99.757521 121.139635 
L 100.164965 120.262169 
L 100.572409 124.149822 
L 100.979854 123.357447 
L 101.387298 127.187101 
L 101.794742 126.474417 
L 102.202186 130.229691 
L 102.60963 129.591473 
L 103.017075 133.257226 
L 103.424519 132.688426 
L 103.831963 136.250757 
L 104.646852 135.242255 
L 105.054296 138.748357 
L 105.46174 138.303962 
L 105.869184 141.678041 
L 106.684073 140.899931 
L 107.091517 144.182983 
L 107.906405 143.506875 
L 108.31385 146.681811 
L 109.536182 145.80817 
L 109.943626 148.902526 
L 110.758515 148.405808 
L 111.165959 151.359375 
L 112.388292 150.731442 
L 112.795736 153.568038 
L 114.425513 152.872463 
L 114.832957 155.607315 
L 116.462734 155.039597 
L 116.870178 157.651722 
L 118.499955 157.198754 
L 118.907399 159.67 
L 121.352065 159.14408 
L 121.759509 161.504462 
L 124.204174 161.114541 
L 124.611619 163.340595 
L 127.463728 163.025139 
L 127.871172 165.11465 
L 131.53817 164.865245 
L 131.945615 166.827686 
L 136.020057 166.700198 
L 136.427501 168.523437 
L 321.814624 168.523437 
L 321.814624 168.523437 
" style="fill:none;stroke:#66c2a5;stroke-linecap:round;stroke-width:2.25;"/>
   </g>
   <g id="line2d_14">
    <path clip-path="url(#pfc058c34f6)" d="M 77.755533 259.690104 
L 116.462734 127.626135 
L 116.870178 131.782335 
L 117.685067 129.23163 
L 118.092511 133.376401 
L 118.499955 132.209514 
L 118.907399 136.21456 
L 120.129732 133.02097 
L 120.537176 137.066826 
L 121.352065 135.130615 
L 121.759509 139.092526 
L 122.574397 137.337652 
L 122.981842 141.194986 
L 124.204174 138.817946 
L 124.611619 142.631531 
L 125.833951 140.493559 
L 126.241395 144.235859 
L 127.463728 142.321281 
L 127.871172 145.967061 
L 129.500949 143.691962 
L 129.908393 147.282834 
L 131.53817 145.265927 
L 131.945615 148.771875 
L 133.575392 146.994388 
L 133.982836 150.38823 
L 136.020057 148.443067 
L 136.427501 151.751452 
L 138.464722 150.061289 
L 138.872166 153.254379 
L 141.316832 151.507216 
L 141.724276 154.601389 
L 144.168941 153.111349 
L 144.576386 156.075882 
L 147.428495 154.610827 
L 147.835939 157.454305 
L 151.095493 156.063284 
L 151.502937 158.787832 
L 155.169935 157.510597 
L 155.57738 160.112936 
L 159.651822 158.98065 
L 160.059266 161.453164 
L 164.948597 160.401466 
L 165.356041 162.755927 
L 170.652816 161.911229 
L 171.06026 164.129043 
L 177.579368 163.408129 
L 177.986812 165.504784 
L 185.320808 165.006081 
L 185.728252 166.968203 
L 194.284581 166.700544 
L 194.692025 168.523437 
L 321.814624 168.523437 
L 321.814624 168.523437 
" style="fill:none;stroke:#fc8d62;stroke-linecap:round;stroke-width:2.25;"/>
   </g>
   <g id="line2d_15">
    <path clip-path="url(#pfc058c34f6)" d="M 82.24673 335.533203 
L 136.020057 152.066657 
L 136.427501 156.260884 
L 137.649834 152.434962 
L 138.057278 156.576404 
L 139.279611 153.075877 
L 139.687055 157.134874 
L 141.316832 152.876926 
L 141.724276 156.922535 
L 142.946609 154.018342 
L 143.354053 157.923335 
L 145.391274 153.536351 
L 145.798718 157.448317 
L 147.428495 154.279087 
L 147.835939 158.076464 
L 149.873161 154.513364 
L 150.280605 158.242544 
L 152.317826 155.051762 
L 152.72527 158.677417 
L 155.169935 155.264977 
L 155.57738 158.819686 
L 158.429489 155.290335 
L 158.836933 158.795963 
L 161.281599 156.129926 
L 161.689043 159.488023 
L 164.948597 156.376006 
L 165.356041 159.658546 
L 168.615595 156.95452 
L 169.023039 160.11874 
L 173.097481 157.207082 
L 173.504926 160.300871 
L 177.579368 157.81774 
L 177.986812 160.793025 
L 182.468699 158.491072 
L 182.876143 161.341211 
L 187.765473 159.254959 
L 188.172918 161.968971 
L 194.284581 159.840569 
L 194.692025 162.461556 
L 200.803689 160.763419 
L 201.211133 163.236939 
L 208.545129 161.6597 
L 208.952573 164.007963 
L 217.508902 162.643762 
L 217.916346 164.872954 
L 227.287563 163.836915 
L 227.695008 165.923041 
L 239.103446 165.147524 
L 239.51089 167.108978 
L 252.549105 166.701271 
L 252.95655 168.523437 
L 321.814624 168.523437 
L 321.814624 168.523437 
" style="fill:none;stroke:#8da0cb;stroke-linecap:round;stroke-width:2.25;"/>
   </g>
   <g id="line2d_16">
    <path clip-path="url(#pfc058c34f6)" d="M 108.966526 335.533203 
L 155.169935 177.897719 
L 155.57738 182.015072 
L 157.614601 175.638819 
L 158.022045 179.776771 
L 159.651822 175.109622 
L 160.059266 179.120054 
L 162.503932 172.733456 
L 162.911376 176.778646 
L 164.948597 171.93859 
L 165.356041 175.87715 
L 167.800706 170.613077 
L 168.208151 174.494405 
L 170.652816 169.740856 
L 171.06026 173.521836 
L 173.91237 168.533831 
L 174.319814 172.249694 
L 177.579368 167.144819 
L 177.986812 170.81955 
L 181.246366 166.269997 
L 181.65381 169.852868 
L 185.320808 165.315526 
L 185.728252 168.820608 
L 189.39525 164.82193 
L 189.802695 168.199382 
L 194.284581 163.920804 
L 194.692025 167.228246 
L 199.173912 163.510636 
L 199.581356 166.692562 
L 204.878131 162.907883 
L 205.285575 166.00102 
L 210.58235 162.773394 
L 210.989794 165.720116 
L 217.508902 162.372338 
L 217.916346 165.228838 
L 224.842898 162.273834 
L 225.250342 165.00895 
L 232.991782 162.313508 
L 233.399227 164.924132 
L 241.955555 162.547273 
L 242.363 165.021447 
L 252.549105 162.831406 
L 252.95655 165.195749 
L 263.957544 163.442302 
L 264.364988 165.662557 
L 277.403203 164.221617 
L 277.810647 166.31413 
L 292.886084 165.289766 
L 293.293528 167.250087 
L 310.813629 166.702503 
L 311.221074 168.523437 
L 321.814624 168.523437 
L 321.814624 168.523437 
" style="fill:none;stroke:#e78ac3;stroke-linecap:round;stroke-width:2.25;"/>
   </g>
   <g id="line2d_17"/>
   <g id="line2d_18"/>
   <g id="line2d_19"/>
   <g id="line2d_20"/>
   <g id="patch_3">
    <path d="M 65.552578 277.923437 
L 65.552578 26.303437 
" style="fill:none;stroke:#262626;stroke-linecap:square;stroke-linejoin:miter;stroke-width:1.875;"/>
   </g>
   <g id="patch_4">
    <path d="M 65.552578 277.923437 
L 334.017578 277.923437 
" style="fill:none;stroke:#262626;stroke-linecap:square;stroke-linejoin:miter;stroke-width:1.875;"/>
   </g>
   <g id="text_13">
    <!-- Pulling force -->
    <defs>
     <path d="M 7.71875 0 
L 7.71875 71.578125 
L 34.71875 71.578125 
Q 41.84375 71.578125 45.609375 70.90625 
Q 50.875 70.015625 54.4375 67.546875 
Q 58.015625 65.09375 60.1875 60.640625 
Q 62.359375 56.203125 62.359375 50.875 
Q 62.359375 41.75 56.546875 35.421875 
Q 50.734375 29.109375 35.546875 29.109375 
L 17.1875 29.109375 
L 17.1875 0 
z
M 17.1875 37.546875 
L 35.6875 37.546875 
Q 44.875 37.546875 48.734375 40.96875 
Q 52.59375 44.390625 52.59375 50.59375 
Q 52.59375 55.078125 50.3125 58.265625 
Q 48.046875 61.46875 44.34375 62.5 
Q 41.9375 63.140625 35.5 63.140625 
L 17.1875 63.140625 
z
" id="ArialMT-80"/>
     <path d="M 40.578125 0 
L 40.578125 7.625 
Q 34.515625 -1.171875 24.125 -1.171875 
Q 19.53125 -1.171875 15.546875 0.578125 
Q 11.578125 2.34375 9.640625 5 
Q 7.71875 7.671875 6.9375 11.53125 
Q 6.390625 14.109375 6.390625 19.734375 
L 6.390625 51.859375 
L 15.1875 51.859375 
L 15.1875 23.09375 
Q 15.1875 16.21875 15.71875 13.8125 
Q 16.546875 10.359375 19.234375 8.375 
Q 21.921875 6.390625 25.875 6.390625 
Q 29.828125 6.390625 33.296875 8.421875 
Q 36.765625 10.453125 38.203125 13.9375 
Q 39.65625 17.4375 39.65625 24.078125 
L 39.65625 51.859375 
L 48.4375 51.859375 
L 48.4375 0 
z
" id="ArialMT-117"/>
     <path d="M 6.640625 61.46875 
L 6.640625 71.578125 
L 15.4375 71.578125 
L 15.4375 61.46875 
z
M 6.640625 0 
L 6.640625 51.859375 
L 15.4375 51.859375 
L 15.4375 0 
z
" id="ArialMT-105"/>
     <path d="M 8.6875 0 
L 8.6875 45.015625 
L 0.921875 45.015625 
L 0.921875 51.859375 
L 8.6875 51.859375 
L 8.6875 57.375 
Q 8.6875 62.59375 9.625 65.140625 
Q 10.890625 68.5625 14.078125 70.671875 
Q 17.28125 72.796875 23.046875 72.796875 
Q 26.765625 72.796875 31.25 71.921875 
L 29.9375 64.265625 
Q 27.203125 64.75 24.75 64.75 
Q 20.75 64.75 19.09375 63.03125 
Q 17.4375 61.328125 17.4375 56.640625 
L 17.4375 51.859375 
L 27.546875 51.859375 
L 27.546875 45.015625 
L 17.4375 45.015625 
L 17.4375 0 
z
" id="ArialMT-102"/>
    </defs>
    <g style="fill:#262626;" transform="translate(150.261172 20.303437)scale(0.18 -0.18)">
     <use xlink:href="#ArialMT-80"/>
     <use x="66.699219" xlink:href="#ArialMT-117"/>
     <use x="122.314453" xlink:href="#ArialMT-108"/>
     <use x="144.53125" xlink:href="#ArialMT-108"/>
     <use x="166.748047" xlink:href="#ArialMT-105"/>
     <use x="188.964844" xlink:href="#ArialMT-110"/>
     <use x="244.580078" xlink:href="#ArialMT-103"/>
     <use x="300.195312" xlink:href="#ArialMT-32"/>
     <use x="327.978516" xlink:href="#ArialMT-102"/>
     <use x="355.761719" xlink:href="#ArialMT-111"/>
     <use x="411.376953" xlink:href="#ArialMT-114"/>
     <use x="444.677734" xlink:href="#ArialMT-99"/>
     <use x="494.677734" xlink:href="#ArialMT-101"/>
    </g>
   </g>
  </g>
  <g id="axes_2">
   <g id="patch_5">
    <path d="M 415.832578 277.923437 
L 684.297578 277.923437 
L 684.297578 26.303437 
L 415.832578 26.303437 
z
" style="fill:none;"/>
   </g>
   <g id="line2d_21">
    <path clip-path="url(#p2742ea6da7)" d="M 415.832578 168.523437 
L 684.297578 168.523437 
" style="fill:none;stroke:#cccccc;stroke-dasharray:2.25,2.25;stroke-dashoffset:0;stroke-width:2.25;"/>
   </g>
   <g id="matplotlib.axis_3">
    <g id="xtick_6">
     <g id="line2d_22">
      <g>
       <use style="fill:#262626;stroke:#262626;stroke-width:1.875;" x="428.035533" xlink:href="#m3b2b006840" y="277.923437"/>
      </g>
     </g>
     <g id="text_14">
      <!-- 0.0 -->
      <g style="fill:#262626;" transform="translate(416.568033 302.233828)scale(0.165 -0.165)">
       <use xlink:href="#ArialMT-48"/>
       <use x="55.615234" xlink:href="#ArialMT-46"/>
       <use x="83.398438" xlink:href="#ArialMT-48"/>
      </g>
     </g>
    </g>
    <g id="xtick_7">
     <g id="line2d_23">
      <g>
       <use style="fill:#262626;stroke:#262626;stroke-width:1.875;" x="489.050305" xlink:href="#m3b2b006840" y="277.923437"/>
      </g>
     </g>
     <g id="text_15">
      <!-- 0.5 -->
      <g style="fill:#262626;" transform="translate(477.582805 302.233828)scale(0.165 -0.165)">
       <use xlink:href="#ArialMT-48"/>
       <use x="55.615234" xlink:href="#ArialMT-46"/>
       <use x="83.398438" xlink:href="#ArialMT-53"/>
      </g>
     </g>
    </g>
    <g id="xtick_8">
     <g id="line2d_24">
      <g>
       <use style="fill:#262626;stroke:#262626;stroke-width:1.875;" x="550.065078" xlink:href="#m3b2b006840" y="277.923437"/>
      </g>
     </g>
     <g id="text_16">
      <!-- 1.0 -->
      <g style="fill:#262626;" transform="translate(538.597578 302.233828)scale(0.165 -0.165)">
       <use xlink:href="#ArialMT-49"/>
       <use x="55.615234" xlink:href="#ArialMT-46"/>
       <use x="83.398438" xlink:href="#ArialMT-48"/>
      </g>
     </g>
    </g>
    <g id="xtick_9">
     <g id="line2d_25">
      <g>
       <use style="fill:#262626;stroke:#262626;stroke-width:1.875;" x="611.079851" xlink:href="#m3b2b006840" y="277.923437"/>
      </g>
     </g>
     <g id="text_17">
      <!-- 1.5 -->
      <g style="fill:#262626;" transform="translate(599.612351 302.233828)scale(0.165 -0.165)">
       <use xlink:href="#ArialMT-49"/>
       <use x="55.615234" xlink:href="#ArialMT-46"/>
       <use x="83.398438" xlink:href="#ArialMT-53"/>
      </g>
     </g>
    </g>
    <g id="xtick_10">
     <g id="line2d_26">
      <g>
       <use style="fill:#262626;stroke:#262626;stroke-width:1.875;" x="672.094624" xlink:href="#m3b2b006840" y="277.923437"/>
      </g>
     </g>
     <g id="text_18">
      <!-- 2.0 -->
      <g style="fill:#262626;" transform="translate(660.627124 302.233828)scale(0.165 -0.165)">
       <use xlink:href="#ArialMT-50"/>
       <use x="55.615234" xlink:href="#ArialMT-46"/>
       <use x="83.398438" xlink:href="#ArialMT-48"/>
      </g>
     </g>
    </g>
    <g id="text_19">
     <!-- Angle, $\theta$ ($\degree$) -->
     <g style="fill:#262626;" transform="translate(503.535078 323.373203)scale(0.18 -0.18)">
      <use transform="translate(0 0.234375)" xlink:href="#ArialMT-65"/>
      <use transform="translate(66.699219 0.234375)" xlink:href="#ArialMT-110"/>
      <use transform="translate(122.314453 0.234375)" xlink:href="#ArialMT-103"/>
      <use transform="translate(177.929688 0.234375)" xlink:href="#ArialMT-108"/>
      <use transform="translate(200.146484 0.234375)" xlink:href="#ArialMT-101"/>
      <use transform="translate(255.761719 0.234375)" xlink:href="#ArialMT-44"/>
      <use transform="translate(283.544922 0.234375)" xlink:href="#ArialMT-32"/>
      <use transform="translate(311.328125 0.234375)" xlink:href="#DejaVuSans-Oblique-952"/>
      <use transform="translate(372.509766 0.234375)" xlink:href="#ArialMT-32"/>
      <use transform="translate(400.292969 0.234375)" xlink:href="#ArialMT-40"/>
      <use transform="translate(433.59375 0.234375)" xlink:href="#DejaVuSans-176"/>
      <use transform="translate(483.59375 0.234375)" xlink:href="#ArialMT-41"/>
     </g>
    </g>
   </g>
   <g id="matplotlib.axis_4">
    <g id="ytick_6">
     <g id="line2d_27">
      <g>
       <use style="fill:#262626;stroke:#262626;stroke-width:1.875;" x="415.832578" xlink:href="#ma2e8baf528" y="277.923437"/>
      </g>
     </g>
     <g id="text_20">
      <!-- −2 -->
      <g style="fill:#262626;" transform="translate(384.52 283.828633)scale(0.165 -0.165)">
       <use xlink:href="#ArialMT-8722"/>
       <use x="58.398438" xlink:href="#ArialMT-50"/>
      </g>
     </g>
    </g>
    <g id="ytick_7">
     <g id="line2d_28">
      <g>
       <use style="fill:#262626;stroke:#262626;stroke-width:1.875;" x="415.832578" xlink:href="#ma2e8baf528" y="223.223437"/>
      </g>
     </g>
     <g id="text_21">
      <!-- −1 -->
      <g style="fill:#262626;" transform="translate(384.52 229.128633)scale(0.165 -0.165)">
       <use xlink:href="#ArialMT-8722"/>
       <use x="58.398438" xlink:href="#ArialMT-49"/>
      </g>
     </g>
    </g>
    <g id="ytick_8">
     <g id="line2d_29">
      <g>
       <use style="fill:#262626;stroke:#262626;stroke-width:1.875;" x="415.832578" xlink:href="#ma2e8baf528" y="168.523437"/>
      </g>
     </g>
     <g id="text_22">
      <!-- 0 -->
      <g style="fill:#262626;" transform="translate(394.157031 174.428633)scale(0.165 -0.165)">
       <use xlink:href="#ArialMT-48"/>
      </g>
     </g>
    </g>
    <g id="ytick_9">
     <g id="line2d_30">
      <g>
       <use style="fill:#262626;stroke:#262626;stroke-width:1.875;" x="415.832578" xlink:href="#ma2e8baf528" y="113.823437"/>
      </g>
     </g>
     <g id="text_23">
      <!-- 1 -->
      <g style="fill:#262626;" transform="translate(394.157031 119.728633)scale(0.165 -0.165)">
       <use xlink:href="#ArialMT-49"/>
      </g>
     </g>
    </g>
    <g id="ytick_10">
     <g id="line2d_31">
      <g>
       <use style="fill:#262626;stroke:#262626;stroke-width:1.875;" x="415.832578" xlink:href="#ma2e8baf528" y="59.123437"/>
      </g>
     </g>
     <g id="text_24">
      <!-- 2 -->
      <g style="fill:#262626;" transform="translate(394.157031 65.028633)scale(0.165 -0.165)">
       <use xlink:href="#ArialMT-50"/>
      </g>
     </g>
    </g>
    <g id="text_25">
     <!-- Force, $\hat{F}_{hinge}$ -->
     <defs>
      <path d="M 55.71875 33.015625 
L 49.3125 0 
L 40.28125 0 
L 46.6875 32.671875 
Q 47.125 34.96875 47.359375 36.71875 
Q 47.609375 38.484375 47.609375 39.5 
Q 47.609375 43.609375 45.015625 45.890625 
Q 42.4375 48.1875 37.796875 48.1875 
Q 30.5625 48.1875 25.265625 43.296875 
Q 19.96875 38.421875 18.40625 30.328125 
L 12.5 0 
L 3.515625 0 
L 18.3125 75.984375 
L 27.296875 75.984375 
L 21.484375 46.09375 
Q 24.90625 50.6875 30.21875 53.34375 
Q 35.546875 56 41.40625 56 
Q 48.640625 56 52.609375 52.09375 
Q 56.59375 48.1875 56.59375 41.109375 
Q 56.59375 39.359375 56.375 37.359375 
Q 56.15625 35.359375 55.71875 33.015625 
z
" id="DejaVuSans-Oblique-104"/>
      <path d="M 18.3125 75.984375 
L 27.296875 75.984375 
L 25.09375 64.59375 
L 16.109375 64.59375 
z
M 14.203125 54.6875 
L 23.1875 54.6875 
L 12.5 0 
L 3.515625 0 
z
" id="DejaVuSans-Oblique-105"/>
      <path d="M 59.625 54.6875 
L 50.296875 6.78125 
Q 47.609375 -7.125 40.015625 -13.953125 
Q 32.421875 -20.796875 19.578125 -20.796875 
Q 14.84375 -20.796875 10.78125 -20.09375 
Q 6.734375 -19.390625 3.21875 -17.921875 
L 4.890625 -9.1875 
Q 8.203125 -11.328125 11.90625 -12.34375 
Q 15.625 -13.375 19.828125 -13.375 
Q 28.375 -13.375 33.859375 -8.703125 
Q 39.359375 -4.046875 41.109375 4.6875 
L 41.890625 8.796875 
Q 38.140625 4.5 33.15625 2.25 
Q 28.171875 0 22.40625 0 
Q 14.109375 0 9.34375 5.484375 
Q 4.59375 10.984375 4.59375 20.609375 
Q 4.59375 28.171875 7.46875 35.421875 
Q 10.359375 42.671875 15.578125 48.296875 
Q 19.046875 52 23.65625 54 
Q 28.265625 56 33.296875 56 
Q 38.8125 56 42.90625 53.4375 
Q 47.015625 50.875 49.03125 46.1875 
L 50.59375 54.6875 
z
M 46.09375 34.625 
Q 46.09375 41.265625 42.96875 44.875 
Q 39.84375 48.484375 34.078125 48.484375 
Q 30.515625 48.484375 27.296875 47.0625 
Q 24.078125 45.65625 21.78125 43.109375 
Q 18.0625 38.921875 15.984375 33.234375 
Q 13.921875 27.546875 13.921875 21.484375 
Q 13.921875 14.75 17.0625 11.125 
Q 20.21875 7.515625 26.125 7.515625 
Q 34.671875 7.515625 40.375 15.25 
Q 46.09375 23 46.09375 34.625 
z
" id="DejaVuSans-Oblique-103"/>
     </defs>
     <g style="fill:#262626;" transform="translate(374.94 203.323437)rotate(-90)scale(0.18 -0.18)">
      <use transform="translate(0 0.609375)" xlink:href="#ArialMT-70"/>
      <use transform="translate(61.083984 0.609375)" xlink:href="#ArialMT-111"/>
      <use transform="translate(116.699219 0.609375)" xlink:href="#ArialMT-114"/>
      <use transform="translate(150 0.609375)" xlink:href="#ArialMT-99"/>
      <use transform="translate(200 0.609375)" xlink:href="#ArialMT-101"/>
      <use transform="translate(255.615234 0.609375)" xlink:href="#ArialMT-44"/>
      <use transform="translate(283.398438 0.609375)" xlink:href="#ArialMT-32"/>
      <use transform="translate(372.139648 30.015625)" xlink:href="#DejaVuSans-770"/>
      <use transform="translate(311.181641 0.609375)" xlink:href="#DejaVuSans-Oblique-70"/>
      <use transform="translate(369.658203 -15.796875)scale(0.7)" xlink:href="#DejaVuSans-Oblique-104"/>
      <use transform="translate(414.023438 -15.796875)scale(0.7)" xlink:href="#DejaVuSans-Oblique-105"/>
      <use transform="translate(433.47168 -15.796875)scale(0.7)" xlink:href="#DejaVuSans-Oblique-110"/>
      <use transform="translate(477.836914 -15.796875)scale(0.7)" xlink:href="#DejaVuSans-Oblique-103"/>
      <use transform="translate(522.270508 -15.796875)scale(0.7)" xlink:href="#DejaVuSans-Oblique-101"/>
     </g>
    </g>
   </g>
   <g id="line2d_32">
    <path clip-path="url(#p2742ea6da7)" d="M 428.035533 168.523437 
L 447.185411 78.632392 
L 447.592855 82.228038 
L 448.0003 80.430222 
L 448.815188 88.051844 
L 449.222632 86.473974 
L 450.037521 94.506798 
L 450.444965 93.136124 
L 450.852409 97.299165 
L 451.259854 96.027308 
L 451.667298 100.301916 
L 452.074742 99.125688 
L 452.482186 103.495924 
L 452.88963 102.412136 
L 453.297075 106.862062 
L 453.704519 105.867528 
L 454.111963 110.381206 
L 454.926852 108.56427 
L 455.334296 113.20864 
L 455.74174 112.38305 
L 456.149184 117.056107 
L 456.964073 115.564308 
L 457.371517 120.326618 
L 458.186405 118.987825 
L 458.59385 123.817073 
L 459.816182 122.028831 
L 460.223626 126.972831 
L 461.038515 125.920925 
L 461.445959 130.884049 
L 462.668292 129.507009 
L 463.075736 134.530696 
L 464.705513 132.949653 
L 465.112957 138.065778 
L 466.742734 136.726993 
L 467.150178 141.900493 
L 468.779955 140.791216 
L 469.187399 145.987026 
L 471.632065 144.648246 
L 472.039509 149.933304 
L 474.484174 148.900533 
L 474.891619 154.227025 
L 477.743728 153.356823 
L 478.151172 158.72156 
L 481.81817 158.004363 
L 482.225615 163.436031 
L 486.300057 163.053528 
L 486.707501 168.523437 
L 672.094624 168.523437 
L 672.094624 168.523437 
" style="fill:none;stroke:#66c2a5;stroke-linecap:round;stroke-width:2.25;"/>
   </g>
   <g id="line2d_33">
    <path clip-path="url(#p2742ea6da7)" d="M 428.035533 305.273437 
L 466.742734 123.579472 
L 467.150178 127.213314 
L 467.965067 123.617725 
L 468.372511 127.395008 
L 468.779955 125.70878 
L 469.187399 129.49881 
L 470.409732 124.765264 
L 470.817176 128.762485 
L 471.632065 125.817171 
L 472.039509 129.890891 
L 472.854397 127.149584 
L 473.261842 131.277489 
L 474.484174 127.461979 
L 474.891619 131.717383 
L 476.113951 128.188758 
L 476.521395 132.542973 
L 477.743728 129.291671 
L 478.151172 133.716007 
L 479.780949 129.737951 
L 480.188393 134.289784 
L 481.81817 130.65599 
L 482.225615 135.300256 
L 483.855392 131.997974 
L 484.262836 136.699608 
L 486.300057 132.970206 
L 486.707501 137.770646 
L 488.744722 134.423757 
L 489.152166 139.281563 
L 491.596832 135.705184 
L 492.004276 140.649042 
L 494.448941 137.493425 
L 494.856386 142.47552 
L 497.708495 139.262542 
L 498.115939 144.298809 
L 501.375493 141.136847 
L 501.782937 146.233658 
L 505.449935 143.221524 
L 505.85738 148.375688 
L 509.931822 145.602631 
L 510.339266 150.801394 
L 515.228597 148.123982 
L 515.636041 153.396025 
L 520.932816 151.158495 
L 521.34026 156.465561 
L 527.859368 154.47667 
L 528.266812 159.860186 
L 535.600808 158.425911 
L 536.008252 163.857178 
L 544.564581 163.053999 
L 544.972025 168.523437 
L 672.094624 168.523437 
L 672.094624 168.523437 
" style="fill:none;stroke:#fc8d62;stroke-linecap:round;stroke-width:2.25;"/>
   </g>
   <g id="line2d_34">
    <path clip-path="url(#p2742ea6da7)" d="M 450.72162 335.533203 
L 486.300057 168.527973 
L 486.707501 172.199941 
L 487.929834 166.806665 
L 488.337278 170.580626 
L 489.559611 165.522049 
L 489.967055 169.369314 
L 491.596832 163.058061 
L 492.004276 167.055129 
L 493.226609 162.637263 
L 493.634053 166.64707 
L 495.671274 159.793977 
L 496.078718 163.985459 
L 497.708495 158.898249 
L 498.115939 163.134342 
L 500.153161 157.253469 
L 500.560605 161.591546 
L 502.597826 156.172876 
L 503.00527 160.571497 
L 505.449935 154.604609 
L 505.85738 159.108397 
L 508.709489 152.749484 
L 509.116933 157.393497 
L 511.561599 152.440263 
L 511.969043 157.090625 
L 515.228597 151.123829 
L 515.636041 155.885721 
L 518.895595 150.530939 
L 519.303039 155.343796 
L 523.377481 149.383459 
L 523.784926 154.326958 
L 527.859368 149.067884 
L 528.266812 154.06871 
L 532.748699 149.020047 
L 533.156143 154.068629 
L 538.045473 149.325998 
L 538.452918 154.403204 
L 544.564581 149.383349 
L 544.972025 154.575222 
L 551.083689 150.415978 
L 551.491133 155.617324 
L 558.825129 151.601575 
L 559.232573 156.860185 
L 567.788902 153.246091 
L 568.196346 158.581061 
L 577.567563 155.722371 
L 577.975008 161.079492 
L 589.383446 158.848704 
L 589.79089 164.278924 
L 602.829105 163.055229 
L 603.23655 168.523437 
L 672.094624 168.523437 
L 672.094624 168.523437 
" style="fill:none;stroke:#8da0cb;stroke-linecap:round;stroke-width:2.25;"/>
   </g>
   <g id="line2d_35">
    <path clip-path="url(#p2742ea6da7)" d="M 479.854462 335.533203 
L 505.449935 215.391074 
L 505.85738 218.986304 
L 507.894601 209.997759 
L 508.302045 213.768278 
L 509.931822 207.023707 
L 510.339266 210.819703 
L 512.783932 201.353118 
L 513.191376 205.349897 
L 515.228597 197.987031 
L 515.636041 202.03478 
L 518.080706 193.811359 
L 518.488151 197.967448 
L 520.932816 190.336919 
L 521.34026 194.553533 
L 524.19237 186.320642 
L 524.599814 190.642401 
L 527.859368 181.972903 
L 528.266812 186.434861 
L 531.526366 178.479382 
L 531.93381 183.020974 
L 535.600808 174.845638 
L 536.008252 179.489168 
L 539.67525 172.059719 
L 540.082695 176.738245 
L 544.564581 168.534382 
L 544.972025 173.333951 
L 549.453912 165.971596 
L 549.861356 170.812515 
L 555.158131 163.064616 
L 555.565575 168.007429 
L 560.86235 161.171148 
L 561.269794 166.123413 
L 567.788902 158.780514 
L 568.196346 163.841011 
L 575.122898 157.122905 
L 575.530342 162.240618 
L 583.271782 155.882787 
L 583.679227 161.054501 
L 592.235555 155.232225 
L 592.643 160.435596 
L 602.829105 154.858888 
L 603.23655 160.154421 
L 614.237544 155.50841 
L 614.644988 160.822755 
L 627.683203 156.846111 
L 628.090647 162.220622 
L 643.166084 159.273364 
L 643.573528 164.701569 
L 661.093629 163.057599 
L 661.501074 168.523437 
L 672.094624 168.523437 
L 672.094624 168.523437 
" style="fill:none;stroke:#e78ac3;stroke-linecap:round;stroke-width:2.25;"/>
   </g>
   <g id="line2d_36"/>
   <g id="line2d_37"/>
   <g id="line2d_38"/>
   <g id="line2d_39"/>
   <g id="patch_6">
    <path d="M 415.832578 277.923437 
L 415.832578 26.303437 
" style="fill:none;stroke:#262626;stroke-linecap:square;stroke-linejoin:miter;stroke-width:1.875;"/>
   </g>
   <g id="patch_7">
    <path d="M 415.832578 277.923437 
L 684.297578 277.923437 
" style="fill:none;stroke:#262626;stroke-linecap:square;stroke-linejoin:miter;stroke-width:1.875;"/>
   </g>
   <g id="text_26">
    <!-- Load on hinge -->
    <defs>
     <path d="M 7.328125 0 
L 7.328125 71.578125 
L 16.796875 71.578125 
L 16.796875 8.453125 
L 52.046875 8.453125 
L 52.046875 0 
z
" id="ArialMT-76"/>
     <path d="M 40.4375 6.390625 
Q 35.546875 2.25 31.03125 0.53125 
Q 26.515625 -1.171875 21.34375 -1.171875 
Q 12.796875 -1.171875 8.203125 3 
Q 3.609375 7.171875 3.609375 13.671875 
Q 3.609375 17.484375 5.34375 20.625 
Q 7.078125 23.78125 9.890625 25.6875 
Q 12.703125 27.59375 16.21875 28.5625 
Q 18.796875 29.25 24.03125 29.890625 
Q 34.671875 31.15625 39.703125 32.90625 
Q 39.75 34.71875 39.75 35.203125 
Q 39.75 40.578125 37.25 42.78125 
Q 33.890625 45.75 27.25 45.75 
Q 21.046875 45.75 18.09375 43.578125 
Q 15.140625 41.40625 13.71875 35.890625 
L 5.125 37.0625 
Q 6.296875 42.578125 8.984375 45.96875 
Q 11.671875 49.359375 16.75 51.1875 
Q 21.828125 53.03125 28.515625 53.03125 
Q 35.15625 53.03125 39.296875 51.46875 
Q 43.453125 49.90625 45.40625 47.53125 
Q 47.359375 45.171875 48.140625 41.546875 
Q 48.578125 39.3125 48.578125 33.453125 
L 48.578125 21.734375 
Q 48.578125 9.46875 49.140625 6.21875 
Q 49.703125 2.984375 51.375 0 
L 42.1875 0 
Q 40.828125 2.734375 40.4375 6.390625 
z
M 39.703125 26.03125 
Q 34.90625 24.078125 25.34375 22.703125 
Q 19.921875 21.921875 17.671875 20.9375 
Q 15.4375 19.96875 14.203125 18.09375 
Q 12.984375 16.21875 12.984375 13.921875 
Q 12.984375 10.40625 15.640625 8.0625 
Q 18.3125 5.71875 23.4375 5.71875 
Q 28.515625 5.71875 32.46875 7.9375 
Q 36.421875 10.15625 38.28125 14.015625 
Q 39.703125 17 39.703125 22.796875 
z
" id="ArialMT-97"/>
     <path d="M 40.234375 0 
L 40.234375 6.546875 
Q 35.296875 -1.171875 25.734375 -1.171875 
Q 19.53125 -1.171875 14.328125 2.25 
Q 9.125 5.671875 6.265625 11.796875 
Q 3.421875 17.921875 3.421875 25.875 
Q 3.421875 33.640625 6 39.96875 
Q 8.59375 46.296875 13.765625 49.65625 
Q 18.953125 53.03125 25.34375 53.03125 
Q 30.03125 53.03125 33.6875 51.046875 
Q 37.359375 49.078125 39.65625 45.90625 
L 39.65625 71.578125 
L 48.390625 71.578125 
L 48.390625 0 
z
M 12.453125 25.875 
Q 12.453125 15.921875 16.640625 10.984375 
Q 20.84375 6.0625 26.5625 6.0625 
Q 32.328125 6.0625 36.34375 10.765625 
Q 40.375 15.484375 40.375 25.140625 
Q 40.375 35.796875 36.265625 40.765625 
Q 32.171875 45.75 26.171875 45.75 
Q 20.3125 45.75 16.375 40.96875 
Q 12.453125 36.1875 12.453125 25.875 
z
" id="ArialMT-100"/>
     <path d="M 6.59375 0 
L 6.59375 71.578125 
L 15.375 71.578125 
L 15.375 45.90625 
Q 21.53125 53.03125 30.90625 53.03125 
Q 36.671875 53.03125 40.921875 50.75 
Q 45.171875 48.484375 47 44.484375 
Q 48.828125 40.484375 48.828125 32.859375 
L 48.828125 0 
L 40.046875 0 
L 40.046875 32.859375 
Q 40.046875 39.453125 37.1875 42.453125 
Q 34.328125 45.453125 29.109375 45.453125 
Q 25.203125 45.453125 21.75 43.421875 
Q 18.3125 41.40625 16.84375 37.9375 
Q 15.375 34.46875 15.375 28.375 
L 15.375 0 
z
" id="ArialMT-104"/>
    </defs>
    <g style="fill:#262626;" transform="translate(493.016328 20.303437)scale(0.18 -0.18)">
     <use xlink:href="#ArialMT-76"/>
     <use x="55.615234" xlink:href="#ArialMT-111"/>
     <use x="111.230469" xlink:href="#ArialMT-97"/>
     <use x="166.845703" xlink:href="#ArialMT-100"/>
     <use x="222.460938" xlink:href="#ArialMT-32"/>
     <use x="250.244141" xlink:href="#ArialMT-111"/>
     <use x="305.859375" xlink:href="#ArialMT-110"/>
     <use x="361.474609" xlink:href="#ArialMT-32"/>
     <use x="389.257812" xlink:href="#ArialMT-104"/>
     <use x="444.873047" xlink:href="#ArialMT-105"/>
     <use x="467.089844" xlink:href="#ArialMT-110"/>
     <use x="522.705078" xlink:href="#ArialMT-103"/>
     <use x="578.320312" xlink:href="#ArialMT-101"/>
    </g>
   </g>
   <g id="legend_1">
    <g id="patch_8">
     <path d="M 707.733594 231.932969 
L 788.962578 231.932969 
Q 792.262578 231.932969 792.262578 228.632969 
L 792.262578 105.093906 
Q 792.262578 101.793906 788.962578 101.793906 
L 707.733594 101.793906 
Q 704.433594 101.793906 704.433594 105.093906 
L 704.433594 228.632969 
Q 704.433594 231.932969 707.733594 231.932969 
z
" style="fill:#ffffff;opacity:0.8;stroke:#cccccc;stroke-linejoin:miter;stroke-width:1.5;"/>
    </g>
    <g id="text_27">
     <!-- $\hat{d}_s$ -->
     <defs>
      <path d="M 41.796875 8.203125 
Q 38.1875 3.46875 33.25 1.015625 
Q 28.328125 -1.421875 22.3125 -1.421875 
Q 14.109375 -1.421875 9.34375 4.171875 
Q 4.59375 9.765625 4.59375 19.484375 
Q 4.59375 27.59375 7.46875 34.9375 
Q 10.359375 42.28125 15.828125 48.09375 
Q 19.4375 51.953125 23.96875 53.96875 
Q 28.515625 56 33.5 56 
Q 38.765625 56 42.796875 53.453125 
Q 46.828125 50.921875 49.03125 46.1875 
L 54.890625 75.984375 
L 63.921875 75.984375 
L 49.125 0 
L 40.09375 0 
z
M 13.921875 21.09375 
Q 13.921875 14.015625 17.109375 10.0625 
Q 20.3125 6.109375 25.984375 6.109375 
Q 30.171875 6.109375 33.765625 8.125 
Q 37.359375 10.15625 40.09375 14.109375 
Q 42.96875 18.21875 44.625 23.578125 
Q 46.296875 28.953125 46.296875 34.1875 
Q 46.296875 40.96875 43.09375 44.765625 
Q 39.890625 48.578125 34.28125 48.578125 
Q 30.03125 48.578125 26.359375 46.578125 
Q 22.703125 44.578125 20.125 40.828125 
Q 17.28125 36.765625 15.59375 31.390625 
Q 13.921875 26.03125 13.921875 21.09375 
z
" id="DejaVuSans-Oblique-100"/>
      <path d="M 50 53.078125 
L 48.296875 44.578125 
Q 44.734375 46.53125 40.765625 47.5 
Q 36.8125 48.484375 32.625 48.484375 
Q 25.53125 48.484375 21.453125 46.0625 
Q 17.390625 43.65625 17.390625 39.5 
Q 17.390625 34.671875 26.859375 32.078125 
Q 27.59375 31.890625 27.9375 31.78125 
L 30.8125 30.90625 
Q 39.796875 28.421875 42.796875 25.6875 
Q 45.796875 22.953125 45.796875 18.21875 
Q 45.796875 9.515625 38.890625 4.046875 
Q 31.984375 -1.421875 20.796875 -1.421875 
Q 16.453125 -1.421875 11.671875 -0.578125 
Q 6.890625 0.25 1.125 2 
L 2.875 11.28125 
Q 7.8125 8.734375 12.59375 7.421875 
Q 17.390625 6.109375 21.78125 6.109375 
Q 28.375 6.109375 32.5 8.9375 
Q 36.625 11.765625 36.625 16.109375 
Q 36.625 20.796875 25.78125 23.6875 
L 24.859375 23.921875 
L 21.78125 24.703125 
Q 14.9375 26.515625 11.765625 29.46875 
Q 8.59375 32.421875 8.59375 37.015625 
Q 8.59375 45.75 15.15625 50.875 
Q 21.734375 56 33.015625 56 
Q 37.453125 56 41.671875 55.265625 
Q 45.90625 54.546875 50 53.078125 
z
" id="DejaVuSans-Oblique-115"/>
     </defs>
     <g style="fill:#262626;" transform="translate(738.988086 128.396406)scale(0.18 -0.18)">
      <use transform="translate(64.447266 33.015625)" xlink:href="#DejaVuSans-770"/>
      <use transform="translate(0 0.53125)" xlink:href="#DejaVuSans-Oblique-100"/>
      <use transform="translate(64.433594 -15.875)scale(0.7)" xlink:href="#DejaVuSans-Oblique-115"/>
     </g>
    </g>
    <g id="line2d_40">
     <path d="M 711.033594 146.259297 
L 744.033594 146.259297 
" style="fill:none;stroke:#66c2a5;stroke-linecap:round;stroke-width:2.25;"/>
    </g>
    <g id="line2d_41"/>
    <g id="text_28">
     <!-- 0 -->
     <g style="fill:#262626;" transform="translate(757.233594 152.034297)scale(0.165 -0.165)">
      <use xlink:href="#ArialMT-48"/>
     </g>
    </g>
    <g id="line2d_42">
     <path d="M 711.033594 169.599062 
L 744.033594 169.599062 
" style="fill:none;stroke:#fc8d62;stroke-linecap:round;stroke-width:2.25;"/>
    </g>
    <g id="line2d_43"/>
    <g id="text_29">
     <!-- -0.1 -->
     <defs>
      <path d="M 3.171875 21.484375 
L 3.171875 30.328125 
L 30.171875 30.328125 
L 30.171875 21.484375 
z
" id="ArialMT-45"/>
     </defs>
     <g style="fill:#262626;" transform="translate(757.233594 175.374062)scale(0.165 -0.165)">
      <use xlink:href="#ArialMT-45"/>
      <use x="33.300781" xlink:href="#ArialMT-48"/>
      <use x="88.916016" xlink:href="#ArialMT-46"/>
      <use x="116.699219" xlink:href="#ArialMT-49"/>
     </g>
    </g>
    <g id="line2d_44">
     <path d="M 711.033594 192.938828 
L 744.033594 192.938828 
" style="fill:none;stroke:#8da0cb;stroke-linecap:round;stroke-width:2.25;"/>
    </g>
    <g id="line2d_45"/>
    <g id="text_30">
     <!-- -0.2 -->
     <g style="fill:#262626;" transform="translate(757.233594 198.713828)scale(0.165 -0.165)">
      <use xlink:href="#ArialMT-45"/>
      <use x="33.300781" xlink:href="#ArialMT-48"/>
      <use x="88.916016" xlink:href="#ArialMT-46"/>
      <use x="116.699219" xlink:href="#ArialMT-50"/>
     </g>
    </g>
    <g id="line2d_46">
     <path d="M 711.033594 216.278594 
L 744.033594 216.278594 
" style="fill:none;stroke:#e78ac3;stroke-linecap:round;stroke-width:2.25;"/>
    </g>
    <g id="line2d_47"/>
    <g id="text_31">
     <!-- -0.3 -->
     <defs>
      <path d="M 4.203125 18.890625 
L 12.984375 20.0625 
Q 14.5 12.59375 18.140625 9.296875 
Q 21.78125 6 27 6 
Q 33.203125 6 37.46875 10.296875 
Q 41.75 14.59375 41.75 20.953125 
Q 41.75 27 37.796875 30.921875 
Q 33.84375 34.859375 27.734375 34.859375 
Q 25.25 34.859375 21.53125 33.890625 
L 22.515625 41.609375 
Q 23.390625 41.5 23.921875 41.5 
Q 29.546875 41.5 34.03125 44.421875 
Q 38.53125 47.359375 38.53125 53.46875 
Q 38.53125 58.296875 35.25 61.46875 
Q 31.984375 64.65625 26.8125 64.65625 
Q 21.6875 64.65625 18.265625 61.421875 
Q 14.84375 58.203125 13.875 51.765625 
L 5.078125 53.328125 
Q 6.6875 62.15625 12.390625 67.015625 
Q 18.109375 71.875 26.609375 71.875 
Q 32.46875 71.875 37.390625 69.359375 
Q 42.328125 66.84375 44.9375 62.5 
Q 47.5625 58.15625 47.5625 53.265625 
Q 47.5625 48.640625 45.0625 44.828125 
Q 42.578125 41.015625 37.703125 38.765625 
Q 44.046875 37.3125 47.5625 32.6875 
Q 51.078125 28.078125 51.078125 21.140625 
Q 51.078125 11.765625 44.234375 5.25 
Q 37.40625 -1.265625 26.953125 -1.265625 
Q 17.53125 -1.265625 11.296875 4.34375 
Q 5.078125 9.96875 4.203125 18.890625 
z
" id="ArialMT-51"/>
     </defs>
     <g style="fill:#262626;" transform="translate(757.233594 222.053594)scale(0.165 -0.165)">
      <use xlink:href="#ArialMT-45"/>
      <use x="33.300781" xlink:href="#ArialMT-48"/>
      <use x="88.916016" xlink:href="#ArialMT-46"/>
      <use x="116.699219" xlink:href="#ArialMT-51"/>
     </g>
    </g>
   </g>
  </g>
 </g>
 <defs>
  <clipPath id="pfc058c34f6">
   <rect height="251.62" width="268.465" x="65.552578" y="26.303437"/>
  </clipPath>
  <clipPath id="p2742ea6da7">
   <rect height="251.62" width="268.465" x="415.832578" y="26.303437"/>
  </clipPath>
 </defs>
</svg>
