<?xml version="1.0" encoding="utf-8" standalone="no"?>
<!DOCTYPE svg PUBLIC "-//W3C//DTD SVG 1.1//EN"
  "http://www.w3.org/Graphics/SVG/1.1/DTD/svg11.dtd">
<!-- Created with matplotlib (https://matplotlib.org/) -->
<svg height="398.041641pt" version="1.1" viewBox="0 0 484.555547 398.041641" width="484.555547pt" xmlns="http://www.w3.org/2000/svg" xmlns:xlink="http://www.w3.org/1999/xlink">
 <defs>
  <style type="text/css">
*{stroke-linecap:butt;stroke-linejoin:round;}
  </style>
 </defs>
 <g id="figure_1">
  <g id="patch_1">
   <path d="M 0 398.041641 
L 484.555547 398.041641 
L 484.555547 0 
L 0 0 
z
" style="fill:none;"/>
  </g>
  <g id="axes_1">
   <g id="patch_2">
    <path d="M 77.755547 342.36 
L 468.355547 342.36 
L 468.355547 16.2 
L 77.755547 16.2 
z
" style="fill:none;"/>
   </g>
   <g id="line2d_1">
    <path clip-path="url(#p1493f06140)" d="M 77.755547 242.614795 
L 468.355547 242.614795 
" style="fill:none;stroke:#cccccc;stroke-dasharray:4.5,2.25;stroke-dashoffset:0;stroke-width:2.25;"/>
   </g>
   <g id="matplotlib.axis_1">
    <g id="xtick_1">
     <g id="line2d_2">
      <defs>
       <path d="M 0 0 
L 0 9 
" id="ma37a8d6451" style="stroke:#262626;stroke-width:1.875;"/>
      </defs>
      <g>
       <use style="fill:#262626;stroke:#262626;stroke-width:1.875;" x="94.989324" xlink:href="#ma37a8d6451" y="342.36"/>
      </g>
     </g>
     <g id="text_1">
      <!-- 0 -->
      <defs>
       <path d="M 4.15625 35.296875 
Q 4.15625 48 6.765625 55.734375 
Q 9.375 63.484375 14.515625 67.671875 
Q 19.671875 71.875 27.484375 71.875 
Q 33.25 71.875 37.59375 69.546875 
Q 41.9375 67.234375 44.765625 62.859375 
Q 47.609375 58.5 49.21875 52.21875 
Q 50.828125 45.953125 50.828125 35.296875 
Q 50.828125 22.703125 48.234375 14.96875 
Q 45.65625 7.234375 40.5 3 
Q 35.359375 -1.21875 27.484375 -1.21875 
Q 17.140625 -1.21875 11.234375 6.203125 
Q 4.15625 15.140625 4.15625 35.296875 
z
M 13.1875 35.296875 
Q 13.1875 17.671875 17.3125 11.828125 
Q 21.4375 6 27.484375 6 
Q 33.546875 6 37.671875 11.859375 
Q 41.796875 17.71875 41.796875 35.296875 
Q 41.796875 52.984375 37.671875 58.78125 
Q 33.546875 64.59375 27.390625 64.59375 
Q 21.34375 64.59375 17.71875 59.46875 
Q 13.1875 52.9375 13.1875 35.296875 
z
" id="ArialMT-48"/>
      </defs>
      <g style="fill:#262626;" transform="translate(90.401551 366.670391)scale(0.165 -0.165)">
       <use xlink:href="#ArialMT-48"/>
      </g>
     </g>
    </g>
    <g id="xtick_2">
     <g id="line2d_3">
      <g>
       <use style="fill:#262626;stroke:#262626;stroke-width:1.875;" x="157.377338" xlink:href="#ma37a8d6451" y="342.36"/>
      </g>
     </g>
     <g id="text_2">
      <!-- 1 -->
      <defs>
       <path d="M 37.25 0 
L 28.46875 0 
L 28.46875 56 
Q 25.296875 52.984375 20.140625 49.953125 
Q 14.984375 46.921875 10.890625 45.40625 
L 10.890625 53.90625 
Q 18.265625 57.375 23.78125 62.296875 
Q 29.296875 67.234375 31.59375 71.875 
L 37.25 71.875 
z
" id="ArialMT-49"/>
      </defs>
      <g style="fill:#262626;" transform="translate(152.789564 366.670391)scale(0.165 -0.165)">
       <use xlink:href="#ArialMT-49"/>
      </g>
     </g>
    </g>
    <g id="xtick_3">
     <g id="line2d_4">
      <g>
       <use style="fill:#262626;stroke:#262626;stroke-width:1.875;" x="219.765351" xlink:href="#ma37a8d6451" y="342.36"/>
      </g>
     </g>
     <g id="text_3">
      <!-- 2 -->
      <defs>
       <path d="M 50.34375 8.453125 
L 50.34375 0 
L 3.03125 0 
Q 2.9375 3.171875 4.046875 6.109375 
Q 5.859375 10.9375 9.828125 15.625 
Q 13.8125 20.3125 21.34375 26.46875 
Q 33.015625 36.03125 37.109375 41.625 
Q 41.21875 47.21875 41.21875 52.203125 
Q 41.21875 57.421875 37.46875 61 
Q 33.734375 64.59375 27.734375 64.59375 
Q 21.390625 64.59375 17.578125 60.78125 
Q 13.765625 56.984375 13.71875 50.25 
L 4.6875 51.171875 
Q 5.609375 61.28125 11.65625 66.578125 
Q 17.71875 71.875 27.9375 71.875 
Q 38.234375 71.875 44.234375 66.15625 
Q 50.25 60.453125 50.25 52 
Q 50.25 47.703125 48.484375 43.546875 
Q 46.734375 39.40625 42.65625 34.8125 
Q 38.578125 30.21875 29.109375 22.21875 
Q 21.1875 15.578125 18.9375 13.203125 
Q 16.703125 10.84375 15.234375 8.453125 
z
" id="ArialMT-50"/>
      </defs>
      <g style="fill:#262626;" transform="translate(215.177578 366.670391)scale(0.165 -0.165)">
       <use xlink:href="#ArialMT-50"/>
      </g>
     </g>
    </g>
    <g id="xtick_4">
     <g id="line2d_5">
      <g>
       <use style="fill:#262626;stroke:#262626;stroke-width:1.875;" x="282.153365" xlink:href="#ma37a8d6451" y="342.36"/>
      </g>
     </g>
     <g id="text_4">
      <!-- 3 -->
      <defs>
       <path d="M 4.203125 18.890625 
L 12.984375 20.0625 
Q 14.5 12.59375 18.140625 9.296875 
Q 21.78125 6 27 6 
Q 33.203125 6 37.46875 10.296875 
Q 41.75 14.59375 41.75 20.953125 
Q 41.75 27 37.796875 30.921875 
Q 33.84375 34.859375 27.734375 34.859375 
Q 25.25 34.859375 21.53125 33.890625 
L 22.515625 41.609375 
Q 23.390625 41.5 23.921875 41.5 
Q 29.546875 41.5 34.03125 44.421875 
Q 38.53125 47.359375 38.53125 53.46875 
Q 38.53125 58.296875 35.25 61.46875 
Q 31.984375 64.65625 26.8125 64.65625 
Q 21.6875 64.65625 18.265625 61.421875 
Q 14.84375 58.203125 13.875 51.765625 
L 5.078125 53.328125 
Q 6.6875 62.15625 12.390625 67.015625 
Q 18.109375 71.875 26.609375 71.875 
Q 32.46875 71.875 37.390625 69.359375 
Q 42.328125 66.84375 44.9375 62.5 
Q 47.5625 58.15625 47.5625 53.265625 
Q 47.5625 48.640625 45.0625 44.828125 
Q 42.578125 41.015625 37.703125 38.765625 
Q 44.046875 37.3125 47.5625 32.6875 
Q 51.078125 28.078125 51.078125 21.140625 
Q 51.078125 11.765625 44.234375 5.25 
Q 37.40625 -1.265625 26.953125 -1.265625 
Q 17.53125 -1.265625 11.296875 4.34375 
Q 5.078125 9.96875 4.203125 18.890625 
z
" id="ArialMT-51"/>
      </defs>
      <g style="fill:#262626;" transform="translate(277.565591 366.670391)scale(0.165 -0.165)">
       <use xlink:href="#ArialMT-51"/>
      </g>
     </g>
    </g>
    <g id="xtick_5">
     <g id="line2d_6">
      <g>
       <use style="fill:#262626;stroke:#262626;stroke-width:1.875;" x="344.541378" xlink:href="#ma37a8d6451" y="342.36"/>
      </g>
     </g>
     <g id="text_5">
      <!-- 4 -->
      <defs>
       <path d="M 32.328125 0 
L 32.328125 17.140625 
L 1.265625 17.140625 
L 1.265625 25.203125 
L 33.9375 71.578125 
L 41.109375 71.578125 
L 41.109375 25.203125 
L 50.78125 25.203125 
L 50.78125 17.140625 
L 41.109375 17.140625 
L 41.109375 0 
z
M 32.328125 25.203125 
L 32.328125 57.46875 
L 9.90625 25.203125 
z
" id="ArialMT-52"/>
      </defs>
      <g style="fill:#262626;" transform="translate(339.953605 366.670391)scale(0.165 -0.165)">
       <use xlink:href="#ArialMT-52"/>
      </g>
     </g>
    </g>
    <g id="xtick_6">
     <g id="line2d_7">
      <g>
       <use style="fill:#262626;stroke:#262626;stroke-width:1.875;" x="406.929392" xlink:href="#ma37a8d6451" y="342.36"/>
      </g>
     </g>
     <g id="text_6">
      <!-- 5 -->
      <defs>
       <path d="M 4.15625 18.75 
L 13.375 19.53125 
Q 14.40625 12.796875 18.140625 9.390625 
Q 21.875 6 27.15625 6 
Q 33.5 6 37.890625 10.78125 
Q 42.28125 15.578125 42.28125 23.484375 
Q 42.28125 31 38.0625 35.34375 
Q 33.84375 39.703125 27 39.703125 
Q 22.75 39.703125 19.328125 37.765625 
Q 15.921875 35.84375 13.96875 32.765625 
L 5.71875 33.84375 
L 12.640625 70.609375 
L 48.25 70.609375 
L 48.25 62.203125 
L 19.671875 62.203125 
L 15.828125 42.96875 
Q 22.265625 47.46875 29.34375 47.46875 
Q 38.71875 47.46875 45.15625 40.96875 
Q 51.609375 34.46875 51.609375 24.265625 
Q 51.609375 14.546875 45.953125 7.46875 
Q 39.0625 -1.21875 27.15625 -1.21875 
Q 17.390625 -1.21875 11.203125 4.25 
Q 5.03125 9.71875 4.15625 18.75 
z
" id="ArialMT-53"/>
      </defs>
      <g style="fill:#262626;" transform="translate(402.341619 366.670391)scale(0.165 -0.165)">
       <use xlink:href="#ArialMT-53"/>
      </g>
     </g>
    </g>
    <g id="text_7">
     <!-- Distance (μm) -->
     <defs>
      <path d="M 7.71875 0 
L 7.71875 71.578125 
L 32.375 71.578125 
Q 40.71875 71.578125 45.125 70.5625 
Q 51.265625 69.140625 55.609375 65.4375 
Q 61.28125 60.640625 64.078125 53.1875 
Q 66.890625 45.75 66.890625 36.1875 
Q 66.890625 28.03125 64.984375 21.734375 
Q 63.09375 15.4375 60.109375 11.296875 
Q 57.125 7.171875 53.578125 4.796875 
Q 50.046875 2.4375 45.046875 1.21875 
Q 40.046875 0 33.546875 0 
z
M 17.1875 8.453125 
L 32.46875 8.453125 
Q 39.546875 8.453125 43.578125 9.765625 
Q 47.609375 11.078125 50 13.484375 
Q 53.375 16.84375 55.25 22.53125 
Q 57.125 28.21875 57.125 36.328125 
Q 57.125 47.5625 53.4375 53.59375 
Q 49.75 59.625 44.484375 61.671875 
Q 40.671875 63.140625 32.234375 63.140625 
L 17.1875 63.140625 
z
" id="ArialMT-68"/>
      <path d="M 6.640625 61.46875 
L 6.640625 71.578125 
L 15.4375 71.578125 
L 15.4375 61.46875 
z
M 6.640625 0 
L 6.640625 51.859375 
L 15.4375 51.859375 
L 15.4375 0 
z
" id="ArialMT-105"/>
      <path d="M 3.078125 15.484375 
L 11.765625 16.84375 
Q 12.5 11.625 15.84375 8.84375 
Q 19.1875 6.0625 25.203125 6.0625 
Q 31.25 6.0625 34.171875 8.515625 
Q 37.109375 10.984375 37.109375 14.3125 
Q 37.109375 17.28125 34.515625 19 
Q 32.71875 20.171875 25.53125 21.96875 
Q 15.875 24.421875 12.140625 26.203125 
Q 8.40625 27.984375 6.46875 31.125 
Q 4.546875 34.28125 4.546875 38.09375 
Q 4.546875 41.546875 6.125 44.5 
Q 7.71875 47.46875 10.453125 49.421875 
Q 12.5 50.921875 16.03125 51.96875 
Q 19.578125 53.03125 23.640625 53.03125 
Q 29.734375 53.03125 34.34375 51.265625 
Q 38.96875 49.515625 41.15625 46.5 
Q 43.359375 43.5 44.1875 38.484375 
L 35.59375 37.3125 
Q 35.015625 41.3125 32.203125 43.546875 
Q 29.390625 45.796875 24.265625 45.796875 
Q 18.21875 45.796875 15.625 43.796875 
Q 13.03125 41.796875 13.03125 39.109375 
Q 13.03125 37.40625 14.109375 36.03125 
Q 15.1875 34.625 17.484375 33.6875 
Q 18.796875 33.203125 25.25 31.453125 
Q 34.578125 28.953125 38.25 27.359375 
Q 41.9375 25.78125 44.03125 22.75 
Q 46.140625 19.734375 46.140625 15.234375 
Q 46.140625 10.84375 43.578125 6.953125 
Q 41.015625 3.078125 36.171875 0.953125 
Q 31.34375 -1.171875 25.25 -1.171875 
Q 15.140625 -1.171875 9.84375 3.03125 
Q 4.546875 7.234375 3.078125 15.484375 
z
" id="ArialMT-115"/>
      <path d="M 25.78125 7.859375 
L 27.046875 0.09375 
Q 23.34375 -0.6875 20.40625 -0.6875 
Q 15.625 -0.6875 12.984375 0.828125 
Q 10.359375 2.34375 9.28125 4.8125 
Q 8.203125 7.28125 8.203125 15.1875 
L 8.203125 45.015625 
L 1.765625 45.015625 
L 1.765625 51.859375 
L 8.203125 51.859375 
L 8.203125 64.703125 
L 16.9375 69.96875 
L 16.9375 51.859375 
L 25.78125 51.859375 
L 25.78125 45.015625 
L 16.9375 45.015625 
L 16.9375 14.703125 
Q 16.9375 10.9375 17.40625 9.859375 
Q 17.875 8.796875 18.921875 8.15625 
Q 19.96875 7.515625 21.921875 7.515625 
Q 23.390625 7.515625 25.78125 7.859375 
z
" id="ArialMT-116"/>
      <path d="M 40.4375 6.390625 
Q 35.546875 2.25 31.03125 0.53125 
Q 26.515625 -1.171875 21.34375 -1.171875 
Q 12.796875 -1.171875 8.203125 3 
Q 3.609375 7.171875 3.609375 13.671875 
Q 3.609375 17.484375 5.34375 20.625 
Q 7.078125 23.78125 9.890625 25.6875 
Q 12.703125 27.59375 16.21875 28.5625 
Q 18.796875 29.25 24.03125 29.890625 
Q 34.671875 31.15625 39.703125 32.90625 
Q 39.75 34.71875 39.75 35.203125 
Q 39.75 40.578125 37.25 42.78125 
Q 33.890625 45.75 27.25 45.75 
Q 21.046875 45.75 18.09375 43.578125 
Q 15.140625 41.40625 13.71875 35.890625 
L 5.125 37.0625 
Q 6.296875 42.578125 8.984375 45.96875 
Q 11.671875 49.359375 16.75 51.1875 
Q 21.828125 53.03125 28.515625 53.03125 
Q 35.15625 53.03125 39.296875 51.46875 
Q 43.453125 49.90625 45.40625 47.53125 
Q 47.359375 45.171875 48.140625 41.546875 
Q 48.578125 39.3125 48.578125 33.453125 
L 48.578125 21.734375 
Q 48.578125 9.46875 49.140625 6.21875 
Q 49.703125 2.984375 51.375 0 
L 42.1875 0 
Q 40.828125 2.734375 40.4375 6.390625 
z
M 39.703125 26.03125 
Q 34.90625 24.078125 25.34375 22.703125 
Q 19.921875 21.921875 17.671875 20.9375 
Q 15.4375 19.96875 14.203125 18.09375 
Q 12.984375 16.21875 12.984375 13.921875 
Q 12.984375 10.40625 15.640625 8.0625 
Q 18.3125 5.71875 23.4375 5.71875 
Q 28.515625 5.71875 32.46875 7.9375 
Q 36.421875 10.15625 38.28125 14.015625 
Q 39.703125 17 39.703125 22.796875 
z
" id="ArialMT-97"/>
      <path d="M 6.59375 0 
L 6.59375 51.859375 
L 14.5 51.859375 
L 14.5 44.484375 
Q 20.21875 53.03125 31 53.03125 
Q 35.6875 53.03125 39.625 51.34375 
Q 43.5625 49.65625 45.515625 46.921875 
Q 47.46875 44.1875 48.25 40.4375 
Q 48.734375 37.984375 48.734375 31.890625 
L 48.734375 0 
L 39.9375 0 
L 39.9375 31.546875 
Q 39.9375 36.921875 38.90625 39.578125 
Q 37.890625 42.234375 35.28125 43.8125 
Q 32.671875 45.40625 29.15625 45.40625 
Q 23.53125 45.40625 19.453125 41.84375 
Q 15.375 38.28125 15.375 28.328125 
L 15.375 0 
z
" id="ArialMT-110"/>
      <path d="M 40.4375 19 
L 49.078125 17.875 
Q 47.65625 8.9375 41.8125 3.875 
Q 35.984375 -1.171875 27.484375 -1.171875 
Q 16.84375 -1.171875 10.375 5.78125 
Q 3.90625 12.75 3.90625 25.734375 
Q 3.90625 34.125 6.6875 40.421875 
Q 9.46875 46.734375 15.15625 49.875 
Q 20.84375 53.03125 27.546875 53.03125 
Q 35.984375 53.03125 41.359375 48.75 
Q 46.734375 44.484375 48.25 36.625 
L 39.703125 35.296875 
Q 38.484375 40.53125 35.375 43.15625 
Q 32.28125 45.796875 27.875 45.796875 
Q 21.234375 45.796875 17.078125 41.03125 
Q 12.9375 36.28125 12.9375 25.984375 
Q 12.9375 15.53125 16.9375 10.796875 
Q 20.953125 6.0625 27.390625 6.0625 
Q 32.5625 6.0625 36.03125 9.234375 
Q 39.5 12.40625 40.4375 19 
z
" id="ArialMT-99"/>
      <path d="M 42.09375 16.703125 
L 51.171875 15.578125 
Q 49.03125 7.625 43.21875 3.21875 
Q 37.40625 -1.171875 28.375 -1.171875 
Q 17 -1.171875 10.328125 5.828125 
Q 3.65625 12.84375 3.65625 25.484375 
Q 3.65625 38.578125 10.390625 45.796875 
Q 17.140625 53.03125 27.875 53.03125 
Q 38.28125 53.03125 44.875 45.953125 
Q 51.46875 38.875 51.46875 26.03125 
Q 51.46875 25.25 51.421875 23.6875 
L 12.75 23.6875 
Q 13.234375 15.140625 17.578125 10.59375 
Q 21.921875 6.0625 28.421875 6.0625 
Q 33.25 6.0625 36.671875 8.59375 
Q 40.09375 11.140625 42.09375 16.703125 
z
M 13.234375 30.90625 
L 42.1875 30.90625 
Q 41.609375 37.453125 38.875 40.71875 
Q 34.671875 45.796875 27.984375 45.796875 
Q 21.921875 45.796875 17.796875 41.75 
Q 13.671875 37.703125 13.234375 30.90625 
z
" id="ArialMT-101"/>
      <path id="ArialMT-32"/>
      <path d="M 23.390625 -21.046875 
Q 16.109375 -11.859375 11.078125 0.4375 
Q 6.0625 12.75 6.0625 25.921875 
Q 6.0625 37.546875 9.8125 48.1875 
Q 14.203125 60.546875 23.390625 72.796875 
L 29.6875 72.796875 
Q 23.78125 62.640625 21.875 58.296875 
Q 18.890625 51.5625 17.1875 44.234375 
Q 15.09375 35.109375 15.09375 25.875 
Q 15.09375 2.390625 29.6875 -21.046875 
z
" id="ArialMT-40"/>
      <path d="M 49.703125 51.859375 
L 49.703125 0 
L 41.84375 0 
L 41.84375 6.15625 
Q 39.3125 2.25 36.8125 0.78125 
Q 33.40625 -1.21875 28.859375 -1.21875 
Q 24.8125 -1.21875 21.6875 0.390625 
Q 19.34375 1.609375 16.5 5.21875 
L 16.5 -19.875 
L 7.8125 -19.875 
L 7.8125 51.859375 
L 16.5 51.859375 
L 16.5 29.890625 
Q 16.5 17.921875 17.765625 14.375 
Q 19.046875 10.84375 21.890625 8.78125 
Q 24.75 6.734375 28.46875 6.734375 
Q 32.375 6.734375 35.453125 8.875 
Q 38.53125 11.03125 39.796875 14.421875 
Q 41.0625 17.828125 41.0625 29.734375 
L 41.0625 51.859375 
z
" id="ArialMT-956"/>
      <path d="M 6.59375 0 
L 6.59375 51.859375 
L 14.453125 51.859375 
L 14.453125 44.578125 
Q 16.890625 48.390625 20.9375 50.703125 
Q 25 53.03125 30.171875 53.03125 
Q 35.9375 53.03125 39.625 50.640625 
Q 43.3125 48.25 44.828125 43.953125 
Q 50.984375 53.03125 60.84375 53.03125 
Q 68.5625 53.03125 72.703125 48.75 
Q 76.859375 44.484375 76.859375 35.59375 
L 76.859375 0 
L 68.109375 0 
L 68.109375 32.671875 
Q 68.109375 37.9375 67.25 40.25 
Q 66.40625 42.578125 64.15625 43.984375 
Q 61.921875 45.40625 58.890625 45.40625 
Q 53.421875 45.40625 49.796875 41.765625 
Q 46.1875 38.140625 46.1875 30.125 
L 46.1875 0 
L 37.40625 0 
L 37.40625 33.6875 
Q 37.40625 39.546875 35.25 42.46875 
Q 33.109375 45.40625 28.21875 45.40625 
Q 24.515625 45.40625 21.359375 43.453125 
Q 18.21875 41.5 16.796875 37.734375 
Q 15.375 33.984375 15.375 26.90625 
L 15.375 0 
z
" id="ArialMT-109"/>
      <path d="M 12.359375 -21.046875 
L 6.0625 -21.046875 
Q 20.65625 2.390625 20.65625 25.875 
Q 20.65625 35.0625 18.5625 44.09375 
Q 16.890625 51.421875 13.921875 58.15625 
Q 12.015625 62.546875 6.0625 72.796875 
L 12.359375 72.796875 
Q 21.53125 60.546875 25.921875 48.1875 
Q 29.6875 37.546875 29.6875 25.921875 
Q 29.6875 12.75 24.625 0.4375 
Q 19.578125 -11.859375 12.359375 -21.046875 
z
" id="ArialMT-41"/>
     </defs>
     <g style="fill:#262626;" transform="translate(216.864609 387.053203)scale(0.18 -0.18)">
      <use xlink:href="#ArialMT-68"/>
      <use x="72.216797" xlink:href="#ArialMT-105"/>
      <use x="94.433594" xlink:href="#ArialMT-115"/>
      <use x="144.433594" xlink:href="#ArialMT-116"/>
      <use x="172.216797" xlink:href="#ArialMT-97"/>
      <use x="227.832031" xlink:href="#ArialMT-110"/>
      <use x="283.447266" xlink:href="#ArialMT-99"/>
      <use x="333.447266" xlink:href="#ArialMT-101"/>
      <use x="389.0625" xlink:href="#ArialMT-32"/>
      <use x="416.845703" xlink:href="#ArialMT-40"/>
      <use x="450.146484" xlink:href="#ArialMT-956"/>
      <use x="507.763672" xlink:href="#ArialMT-109"/>
      <use x="591.064453" xlink:href="#ArialMT-41"/>
     </g>
    </g>
   </g>
   <g id="matplotlib.axis_2">
    <g id="ytick_1">
     <g id="line2d_8">
      <defs>
       <path d="M 0 0 
L -9 0 
" id="m787fb69e90" style="stroke:#262626;stroke-width:1.875;"/>
      </defs>
      <g>
       <use style="fill:#262626;stroke:#262626;stroke-width:1.875;" x="77.755547" xlink:href="#m787fb69e90" y="299.417939"/>
      </g>
     </g>
     <g id="text_8">
      <!-- −200 -->
      <defs>
       <path d="M 52.828125 31.203125 
L 5.5625 31.203125 
L 5.5625 39.40625 
L 52.828125 39.40625 
z
" id="ArialMT-8722"/>
      </defs>
      <g style="fill:#262626;" transform="translate(28.091875 305.323134)scale(0.165 -0.165)">
       <use xlink:href="#ArialMT-8722"/>
       <use x="58.398438" xlink:href="#ArialMT-50"/>
       <use x="114.013672" xlink:href="#ArialMT-48"/>
       <use x="169.628906" xlink:href="#ArialMT-48"/>
      </g>
     </g>
    </g>
    <g id="ytick_2">
     <g id="line2d_9">
      <g>
       <use style="fill:#262626;stroke:#262626;stroke-width:1.875;" x="77.755547" xlink:href="#m787fb69e90" y="242.614795"/>
      </g>
     </g>
     <g id="text_9">
      <!-- 0 -->
      <g style="fill:#262626;" transform="translate(56.08 248.51999)scale(0.165 -0.165)">
       <use xlink:href="#ArialMT-48"/>
      </g>
     </g>
    </g>
    <g id="ytick_3">
     <g id="line2d_10">
      <g>
       <use style="fill:#262626;stroke:#262626;stroke-width:1.875;" x="77.755547" xlink:href="#m787fb69e90" y="185.811651"/>
      </g>
     </g>
     <g id="text_10">
      <!-- 200 -->
      <g style="fill:#262626;" transform="translate(37.728906 191.716846)scale(0.165 -0.165)">
       <use xlink:href="#ArialMT-50"/>
       <use x="55.615234" xlink:href="#ArialMT-48"/>
       <use x="111.230469" xlink:href="#ArialMT-48"/>
      </g>
     </g>
    </g>
    <g id="ytick_4">
     <g id="line2d_11">
      <g>
       <use style="fill:#262626;stroke:#262626;stroke-width:1.875;" x="77.755547" xlink:href="#m787fb69e90" y="129.008507"/>
      </g>
     </g>
     <g id="text_11">
      <!-- 400 -->
      <g style="fill:#262626;" transform="translate(37.728906 134.913702)scale(0.165 -0.165)">
       <use xlink:href="#ArialMT-52"/>
       <use x="55.615234" xlink:href="#ArialMT-48"/>
       <use x="111.230469" xlink:href="#ArialMT-48"/>
      </g>
     </g>
    </g>
    <g id="ytick_5">
     <g id="line2d_12">
      <g>
       <use style="fill:#262626;stroke:#262626;stroke-width:1.875;" x="77.755547" xlink:href="#m787fb69e90" y="72.205363"/>
      </g>
     </g>
     <g id="text_12">
      <!-- 600 -->
      <defs>
       <path d="M 49.75 54.046875 
L 41.015625 53.375 
Q 39.84375 58.546875 37.703125 60.890625 
Q 34.125 64.65625 28.90625 64.65625 
Q 24.703125 64.65625 21.53125 62.3125 
Q 17.390625 59.28125 14.984375 53.46875 
Q 12.59375 47.65625 12.5 36.921875 
Q 15.671875 41.75 20.265625 44.09375 
Q 24.859375 46.4375 29.890625 46.4375 
Q 38.671875 46.4375 44.84375 39.96875 
Q 51.03125 33.5 51.03125 23.25 
Q 51.03125 16.5 48.125 10.71875 
Q 45.21875 4.9375 40.140625 1.859375 
Q 35.0625 -1.21875 28.609375 -1.21875 
Q 17.625 -1.21875 10.6875 6.859375 
Q 3.765625 14.9375 3.765625 33.5 
Q 3.765625 54.25 11.421875 63.671875 
Q 18.109375 71.875 29.4375 71.875 
Q 37.890625 71.875 43.28125 67.140625 
Q 48.6875 62.40625 49.75 54.046875 
z
M 13.875 23.1875 
Q 13.875 18.65625 15.796875 14.5 
Q 17.71875 10.359375 21.1875 8.171875 
Q 24.65625 6 28.46875 6 
Q 34.03125 6 38.03125 10.484375 
Q 42.046875 14.984375 42.046875 22.703125 
Q 42.046875 30.125 38.078125 34.390625 
Q 34.125 38.671875 28.125 38.671875 
Q 22.171875 38.671875 18.015625 34.390625 
Q 13.875 30.125 13.875 23.1875 
z
" id="ArialMT-54"/>
      </defs>
      <g style="fill:#262626;" transform="translate(37.728906 78.110558)scale(0.165 -0.165)">
       <use xlink:href="#ArialMT-54"/>
       <use x="55.615234" xlink:href="#ArialMT-48"/>
       <use x="111.230469" xlink:href="#ArialMT-48"/>
      </g>
     </g>
    </g>
    <g id="text_13">
     <!-- Force (μN) -->
     <defs>
      <path d="M 8.203125 0 
L 8.203125 71.578125 
L 56.5 71.578125 
L 56.5 63.140625 
L 17.671875 63.140625 
L 17.671875 40.96875 
L 51.265625 40.96875 
L 51.265625 32.515625 
L 17.671875 32.515625 
L 17.671875 0 
z
" id="ArialMT-70"/>
      <path d="M 3.328125 25.921875 
Q 3.328125 40.328125 11.328125 47.265625 
Q 18.015625 53.03125 27.640625 53.03125 
Q 38.328125 53.03125 45.109375 46.015625 
Q 51.90625 39.015625 51.90625 26.65625 
Q 51.90625 16.65625 48.90625 10.90625 
Q 45.90625 5.171875 40.15625 2 
Q 34.421875 -1.171875 27.640625 -1.171875 
Q 16.75 -1.171875 10.03125 5.8125 
Q 3.328125 12.796875 3.328125 25.921875 
z
M 12.359375 25.921875 
Q 12.359375 15.96875 16.703125 11.015625 
Q 21.046875 6.0625 27.640625 6.0625 
Q 34.1875 6.0625 38.53125 11.03125 
Q 42.875 16.015625 42.875 26.21875 
Q 42.875 35.84375 38.5 40.796875 
Q 34.125 45.75 27.640625 45.75 
Q 21.046875 45.75 16.703125 40.8125 
Q 12.359375 35.890625 12.359375 25.921875 
z
" id="ArialMT-111"/>
      <path d="M 6.5 0 
L 6.5 51.859375 
L 14.40625 51.859375 
L 14.40625 44 
Q 17.4375 49.515625 20 51.265625 
Q 22.5625 53.03125 25.640625 53.03125 
Q 30.078125 53.03125 34.671875 50.203125 
L 31.640625 42.046875 
Q 28.421875 43.953125 25.203125 43.953125 
Q 22.3125 43.953125 20.015625 42.21875 
Q 17.71875 40.484375 16.75 37.40625 
Q 15.28125 32.71875 15.28125 27.15625 
L 15.28125 0 
z
" id="ArialMT-114"/>
      <path d="M 7.625 0 
L 7.625 71.578125 
L 17.328125 71.578125 
L 54.9375 15.375 
L 54.9375 71.578125 
L 64.015625 71.578125 
L 64.015625 0 
L 54.296875 0 
L 16.703125 56.25 
L 16.703125 0 
z
" id="ArialMT-78"/>
     </defs>
     <g style="fill:#262626;" transform="translate(20.303438 222.463125)rotate(-90)scale(0.18 -0.18)">
      <use xlink:href="#ArialMT-70"/>
      <use x="61.083984" xlink:href="#ArialMT-111"/>
      <use x="116.699219" xlink:href="#ArialMT-114"/>
      <use x="150" xlink:href="#ArialMT-99"/>
      <use x="200" xlink:href="#ArialMT-101"/>
      <use x="255.615234" xlink:href="#ArialMT-32"/>
      <use x="283.398438" xlink:href="#ArialMT-40"/>
      <use x="316.699219" xlink:href="#ArialMT-956"/>
      <use x="374.316406" xlink:href="#ArialMT-78"/>
      <use x="446.533203" xlink:href="#ArialMT-41"/>
     </g>
    </g>
   </g>
   <g id="line2d_13">
    <path clip-path="url(#p1493f06140)" d="M 95.510092 240.836733 
L 96.03086 239.058672 
L 96.551628 237.28061 
L 97.072397 235.502548 
L 97.593165 233.724487 
L 98.113933 231.946425 
L 98.634701 230.168363 
L 99.155469 228.390302 
L 99.676237 226.61224 
L 100.197005 224.834178 
L 100.717773 223.056117 
L 101.238541 221.278055 
L 101.759309 219.499993 
L 102.280077 217.721932 
L 102.800845 215.94387 
L 103.321613 214.165808 
L 103.842381 212.387746 
L 104.363149 210.609685 
L 104.883917 208.831623 
L 105.404685 207.053561 
L 105.925454 205.2755 
L 106.446222 203.497438 
L 106.96699 201.719376 
L 107.487758 199.941315 
L 108.008526 198.163253 
L 108.529294 196.385191 
L 109.050062 194.60713 
L 109.57083 192.829068 
L 110.091598 191.051006 
L 110.612366 189.272945 
L 111.133134 187.494883 
L 111.653902 185.716821 
L 112.17467 183.938759 
L 112.695438 182.160698 
L 113.216206 180.382636 
L 113.736974 178.604574 
L 114.257742 176.826513 
L 114.778511 175.048451 
L 115.299279 173.270389 
L 115.820047 171.492328 
L 116.340815 169.714266 
L 116.861583 167.936204 
L 117.382351 166.158143 
L 117.903119 164.380081 
L 118.423887 162.602019 
L 118.944655 160.823958 
L 119.465423 159.045896 
L 119.986191 157.267834 
L 120.506959 155.489773 
L 121.027727 153.711711 
L 121.548495 151.933649 
L 122.069263 150.155587 
L 122.590031 148.377526 
L 123.110799 146.599464 
L 123.631568 144.821402 
L 124.152336 143.043341 
L 124.673104 141.265279 
L 125.193872 139.487217 
L 125.71464 137.709156 
L 126.235408 135.931094 
L 126.756176 134.153032 
L 127.276944 132.374971 
L 127.797712 130.596909 
L 128.31848 128.818847 
L 128.839248 127.040786 
L 129.360016 125.262724 
L 129.880784 123.484662 
L 130.401552 121.7066 
L 130.92232 119.928539 
L 131.443088 118.150477 
L 131.963856 116.372415 
L 132.484625 114.594354 
L 133.005393 112.816292 
L 133.526161 111.03823 
L 134.046929 109.260169 
L 134.567697 107.482107 
L 135.088465 105.704045 
L 135.609233 103.925984 
L 136.130001 102.147922 
L 136.650769 100.36986 
L 137.171537 98.591799 
L 137.692305 96.813737 
L 138.213073 95.035675 
L 138.733841 93.257614 
L 139.254609 91.479552 
L 139.775377 89.70149 
L 140.296145 87.923428 
L 140.816914 86.145367 
L 141.337682 84.367305 
L 141.85845 82.589243 
L 142.379218 80.811182 
L 142.899986 79.03312 
L 143.420754 77.255058 
L 143.941522 75.476997 
L 144.46229 73.698935 
L 144.983058 71.920873 
L 145.503826 70.142812 
L 146.024594 68.36475 
L 146.545362 66.586688 
L 147.06613 64.808627 
L 147.586898 63.030565 
L 148.107666 61.252503 
L 148.628434 59.474442 
L 149.149202 57.69638 
L 149.669971 55.918318 
L 150.190739 54.140256 
L 150.711507 52.362195 
L 151.232275 50.584133 
L 151.753043 48.806071 
L 152.273811 47.02801 
L 152.794579 45.249948 
L 153.315347 43.471886 
L 153.836115 41.693825 
L 154.356883 39.915763 
L 154.877651 38.137701 
L 155.398419 36.35964 
L 155.919187 34.581578 
L 156.439955 32.803516 
L 156.960723 31.025455 
L 157.481491 242.614795 
" style="fill:none;stroke:#1f77b4;stroke-linecap:round;stroke-opacity:0.7;stroke-width:4.5;"/>
   </g>
   <g id="line2d_14">
    <path clip-path="url(#p1493f06140)" d="M 148.019136 326.48665 
L 154.325637 318.232592 
L 155.226566 320.63252 
L 165.136782 308.225798 
L 166.037711 310.672608 
L 175.947927 298.829828 
L 176.848856 301.32352 
L 186.759072 290.044682 
L 187.66 292.585256 
L 197.570217 281.87036 
L 198.471145 284.457816 
L 208.381362 274.306862 
L 209.28229 276.9412 
L 219.192506 267.354188 
L 220.093435 270.035408 
L 230.90458 260.192059 
L 231.805509 262.971428 
L 241.715725 254.5123 
L 242.616654 257.338552 
L 252.52687 249.443365 
L 253.427799 252.316499 
L 263.338015 244.985254 
L 264.238944 247.90527 
L 274.14916 241.137968 
L 275.050089 244.104866 
L 284.960305 237.901505 
L 285.861233 240.915285 
L 295.77145 235.275866 
L 296.672378 238.336528 
L 306.582595 233.261051 
L 307.483523 236.368595 
L 317.393739 231.85706 
L 318.294668 235.011486 
L 328.204884 231.063893 
L 329.105813 234.265201 
L 339.016029 230.88155 
L 339.916958 234.12974 
L 349.827174 231.310031 
L 350.728103 234.605103 
L 361.539248 232.144266 
L 362.440177 235.537488 
L 372.350393 233.845662 
L 373.251322 237.285766 
L 383.161538 236.157883 
L 384.062466 239.644869 
L 393.972683 239.080927 
L 394.873611 242.614795 
L 394.873611 242.614795 
" style="fill:none;stroke:#d62728;stroke-linecap:round;stroke-opacity:0.7;stroke-width:4.5;"/>
   </g>
   <g id="line2d_15">
    <path clip-path="url(#p1493f06140)" d="M 116.825129 242.614795 
L 117.345897 240.836733 
L 117.866665 239.058672 
L 118.387433 237.28061 
L 118.908201 235.502548 
L 119.428969 233.724487 
L 119.949737 231.946425 
L 120.470505 230.168363 
L 120.991273 228.390302 
L 121.512042 226.61224 
L 122.03281 224.834178 
L 122.553578 223.056117 
L 123.074346 221.278055 
L 123.595114 219.499993 
L 124.115882 217.721932 
L 124.63665 215.94387 
L 125.157418 214.165808 
L 125.678186 212.387746 
L 126.198954 210.609685 
L 126.719722 208.831623 
L 127.24049 207.053561 
L 127.761258 205.2755 
L 128.282026 203.497438 
L 128.802794 201.719376 
L 129.323562 199.941315 
L 129.84433 198.163253 
L 130.365099 196.385191 
L 130.885867 194.60713 
L 131.406635 192.829068 
L 131.927403 191.051006 
L 132.448171 189.272945 
L 132.968939 187.494883 
L 133.489707 185.716821 
L 134.010475 183.938759 
L 134.531243 182.160698 
" style="fill:none;stroke:#ff7f0e;stroke-linecap:round;stroke-opacity:0.7;stroke-width:4.5;"/>
   </g>
   <g id="line2d_16">
    <path clip-path="url(#p1493f06140)" d="M 135.052011 180.382636 
L 135.572779 226.208814 
L 178.796528 188.383914 
L 179.317296 191.484315 
L 180.358832 190.632141 
L 180.8796 193.669663 
L 182.441905 192.475879 
L 182.962673 195.471956 
L 184.004209 194.729549 
L 184.524977 197.651419 
L 186.087281 196.613803 
L 186.608049 199.481471 
L 187.649585 198.83769 
L 188.170353 201.62249 
L 189.732657 200.724848 
L 190.253425 203.445427 
L 192.336498 202.334239 
L 192.857266 205.00614 
L 194.41957 204.23336 
L 194.940338 206.831196 
L 197.02341 205.876966 
L 197.544178 208.41529 
L 199.62725 207.532723 
L 200.148019 210.0066 
L 202.231091 209.191395 
L 202.751859 211.596567 
L 204.834931 210.84461 
L 205.355699 213.177462 
L 207.959539 212.311658 
L 208.480307 214.583066 
L 211.084148 213.78671 
L 211.604916 215.992436 
L 214.208756 215.261053 
L 214.729524 217.397513 
L 217.854133 216.592706 
L 218.374901 218.668265 
L 221.499509 217.931449 
L 222.020277 219.942171 
L 225.144885 219.268727 
L 225.665653 221.211328 
L 229.31103 220.494466 
L 229.831798 222.37541 
L 233.477174 221.722527 
L 233.997942 223.53839 
L 238.164087 222.860118 
L 238.684855 224.615973 
L 242.850999 224.000629 
L 243.371767 225.693096 
L 248.05868 225.066366 
L 248.579448 226.699435 
L 253.266361 226.133276 
L 253.787129 227.703756 
L 258.994809 227.136797 
L 259.515577 228.64786 
L 265.244026 228.087143 
L 265.764794 229.541168 
L 272.014011 228.992624 
L 272.534779 230.391322 
L 278.783996 229.900747 
L 279.304764 231.240845 
L 286.595516 230.730475 
L 287.116284 232.017477 
L 294.407037 231.563769 
L 294.927805 232.794293 
L 303.260094 232.334854 
L 303.780862 233.512959 
L 312.633919 233.081953 
L 313.154687 234.20745 
L 322.528513 233.806038 
L 323.049281 234.878604 
L 333.464642 234.487887 
L 333.98541 235.509626 
L 345.442307 235.134773 
L 345.963075 236.107025 
L 358.461509 235.752056 
L 358.982277 236.675554 
L 372.522246 236.343468 
L 373.043014 237.21848 
L 388.145288 236.900405 
L 388.666056 237.728469 
L 405.330634 237.428924 
L 405.851402 238.210808 
L 424.078284 237.933079 
L 424.599052 238.668974 
L 428.765197 238.615562 
L 428.765197 238.615562 
" style="fill:none;stroke:#ff7f0e;stroke-dasharray:2.8125,2.8125;stroke-dashoffset:0;stroke-opacity:0.7;stroke-width:2.8125;"/>
   </g>
   <g id="line2d_17">
    <path clip-path="url(#p1493f06140)" d="M 138.660934 242.614795 
L 113.872653 327.24958 
L 113.872653 327.24958 
" style="fill:none;stroke:#2ca02c;stroke-linecap:round;stroke-opacity:0.7;stroke-width:4.5;"/>
   </g>
   <g id="line2d_18">
    <path clip-path="url(#p1493f06140)" d="M 113.789191 327.534545 
L 113.705728 296.00256 
L 113.705728 296.00256 
L 200.464712 165.469244 
L 206.098412 175.054718 
L 208.351892 178.955622 
L 209.478632 177.676056 
L 213.985592 185.671318 
L 215.112332 184.596052 
L 218.492552 190.625951 
L 219.619292 189.689059 
L 221.872773 193.703079 
L 222.999513 192.851673 
L 225.252993 196.848348 
L 226.379733 196.077209 
L 227.506473 198.070565 
L 228.633213 197.337654 
L 230.886693 201.298404 
L 232.013433 200.638239 
L 233.140173 202.598864 
L 234.266913 201.97326 
L 235.393653 203.927943 
L 236.520393 203.335717 
L 237.647133 205.280812 
L 238.773873 204.720804 
L 239.900613 206.652807 
L 241.027353 206.123877 
L 242.154093 208.039428 
L 243.280833 207.540456 
L 244.407573 209.43634 
L 245.534313 208.966226 
L 246.661053 210.839372 
L 248.914534 209.954703 
L 250.041274 211.828904 
L 251.168014 211.413291 
L 252.294754 213.258003 
L 253.421494 212.868074 
L 254.548234 214.680678 
L 256.801714 213.950153 
L 257.928454 215.751843 
L 260.181934 215.068659 
L 261.308674 216.855151 
L 263.562154 216.217355 
L 264.688894 217.984571 
L 266.942374 217.390252 
L 268.069114 219.134318 
L 270.322594 218.581607 
L 271.449334 220.298856 
L 273.702815 219.785924 
L 274.829555 221.472893 
L 277.083035 220.997953 
L 278.209775 222.651386 
L 281.589995 221.993342 
L 282.716735 223.627458 
L 286.096955 223.021224 
L 287.223695 224.631511 
L 290.603915 224.07459 
L 291.730655 225.656807 
L 295.110875 225.146763 
L 296.237615 226.696934 
L 299.617836 226.231395 
L 300.744576 227.74581 
L 305.251536 227.181349 
L 306.378276 228.669882 
L 309.758496 228.286479 
L 310.885236 229.731911 
L 316.518936 229.155832 
L 317.645676 230.579028 
L 322.152636 230.165669 
L 323.279376 231.550069 
L 328.913077 231.08931 
L 330.039817 232.441785 
L 335.673517 232.033626 
L 336.800257 233.349566 
L 343.560697 232.919012 
L 344.687437 234.203438 
L 351.447878 233.828361 
L 352.574618 235.076231 
L 359.335058 234.752993 
L 360.461798 235.959713 
L 368.348978 235.638983 
L 369.475718 236.807903 
L 378.489639 236.501268 
L 379.616379 237.634556 
L 388.630299 237.383479 
L 389.757039 238.475823 
L 401.024439 238.226186 
L 402.15118 239.284684 
L 413.41858 239.094221 
L 414.54532 240.112782 
L 426.939461 239.963052 
L 428.066201 240.941255 
L 441.587081 240.83758 
L 442.713821 241.774376 
L 450.601001 241.745612 
L 450.601001 241.745612 
" style="fill:none;stroke:#2ca02c;stroke-linecap:round;stroke-opacity:0.7;stroke-width:1.125;"/>
   </g>
   <g id="line2d_19"/>
   <g id="line2d_20"/>
   <g id="line2d_21"/>
   <g id="line2d_22"/>
   <g id="line2d_23"/>
   <g id="line2d_24"/>
   <g id="line2d_25"/>
   <g id="patch_3">
    <path d="M 77.755547 342.36 
L 77.755547 16.2 
" style="fill:none;stroke:#262626;stroke-linecap:square;stroke-linejoin:miter;stroke-width:1.875;"/>
   </g>
   <g id="patch_4">
    <path d="M 468.355547 342.36 
L 468.355547 16.2 
" style="fill:none;stroke:#262626;stroke-linecap:square;stroke-linejoin:miter;stroke-width:1.875;"/>
   </g>
   <g id="patch_5">
    <path d="M 77.755547 342.36 
L 468.355547 342.36 
" style="fill:none;stroke:#262626;stroke-linecap:square;stroke-linejoin:miter;stroke-width:1.875;"/>
   </g>
   <g id="patch_6">
    <path d="M 77.755547 16.2 
L 468.355547 16.2 
" style="fill:none;stroke:#262626;stroke-linecap:square;stroke-linejoin:miter;stroke-width:1.875;"/>
   </g>
   <g id="legend_1">
    <g id="patch_7">
     <path d="M 333.393281 99.419297 
L 456.805547 99.419297 
Q 460.105547 99.419297 460.105547 96.119297 
L 460.105547 27.75 
Q 460.105547 24.45 456.805547 24.45 
L 333.393281 24.45 
Q 330.093281 24.45 330.093281 27.75 
L 330.093281 96.119297 
Q 330.093281 99.419297 333.393281 99.419297 
z
" style="fill:#ffffff;opacity:0.8;stroke:#cccccc;stroke-linejoin:miter;stroke-width:1.5;"/>
    </g>
    <g id="line2d_26">
     <path d="M 336.693281 37.085391 
L 369.693281 37.085391 
" style="fill:none;stroke:#333333;stroke-linecap:round;stroke-width:4.5;"/>
    </g>
    <g id="line2d_27"/>
    <g id="text_14">
     <!-- Fixed pull -->
     <defs>
      <path d="M 0.734375 0 
L 19.671875 26.953125 
L 2.15625 51.859375 
L 13.140625 51.859375 
L 21.09375 39.703125 
Q 23.34375 36.234375 24.703125 33.890625 
Q 26.859375 37.109375 28.65625 39.59375 
L 37.40625 51.859375 
L 47.90625 51.859375 
L 29.984375 27.4375 
L 49.265625 0 
L 38.484375 0 
L 27.828125 16.109375 
L 25 20.453125 
L 11.375 0 
z
" id="ArialMT-120"/>
      <path d="M 40.234375 0 
L 40.234375 6.546875 
Q 35.296875 -1.171875 25.734375 -1.171875 
Q 19.53125 -1.171875 14.328125 2.25 
Q 9.125 5.671875 6.265625 11.796875 
Q 3.421875 17.921875 3.421875 25.875 
Q 3.421875 33.640625 6 39.96875 
Q 8.59375 46.296875 13.765625 49.65625 
Q 18.953125 53.03125 25.34375 53.03125 
Q 30.03125 53.03125 33.6875 51.046875 
Q 37.359375 49.078125 39.65625 45.90625 
L 39.65625 71.578125 
L 48.390625 71.578125 
L 48.390625 0 
z
M 12.453125 25.875 
Q 12.453125 15.921875 16.640625 10.984375 
Q 20.84375 6.0625 26.5625 6.0625 
Q 32.328125 6.0625 36.34375 10.765625 
Q 40.375 15.484375 40.375 25.140625 
Q 40.375 35.796875 36.265625 40.765625 
Q 32.171875 45.75 26.171875 45.75 
Q 20.3125 45.75 16.375 40.96875 
Q 12.453125 36.1875 12.453125 25.875 
z
" id="ArialMT-100"/>
      <path d="M 6.59375 -19.875 
L 6.59375 51.859375 
L 14.59375 51.859375 
L 14.59375 45.125 
Q 17.4375 49.078125 21 51.046875 
Q 24.5625 53.03125 29.640625 53.03125 
Q 36.28125 53.03125 41.359375 49.609375 
Q 46.4375 46.1875 49.015625 39.953125 
Q 51.609375 33.734375 51.609375 26.3125 
Q 51.609375 18.359375 48.75 11.984375 
Q 45.90625 5.609375 40.453125 2.21875 
Q 35.015625 -1.171875 29 -1.171875 
Q 24.609375 -1.171875 21.109375 0.6875 
Q 17.625 2.546875 15.375 5.375 
L 15.375 -19.875 
z
M 14.546875 25.640625 
Q 14.546875 15.625 18.59375 10.84375 
Q 22.65625 6.0625 28.421875 6.0625 
Q 34.28125 6.0625 38.453125 11.015625 
Q 42.625 15.96875 42.625 26.375 
Q 42.625 36.28125 38.546875 41.203125 
Q 34.46875 46.140625 28.8125 46.140625 
Q 23.1875 46.140625 18.859375 40.890625 
Q 14.546875 35.640625 14.546875 25.640625 
z
" id="ArialMT-112"/>
      <path d="M 40.578125 0 
L 40.578125 7.625 
Q 34.515625 -1.171875 24.125 -1.171875 
Q 19.53125 -1.171875 15.546875 0.578125 
Q 11.578125 2.34375 9.640625 5 
Q 7.71875 7.671875 6.9375 11.53125 
Q 6.390625 14.109375 6.390625 19.734375 
L 6.390625 51.859375 
L 15.1875 51.859375 
L 15.1875 23.09375 
Q 15.1875 16.21875 15.71875 13.8125 
Q 16.546875 10.359375 19.234375 8.375 
Q 21.921875 6.390625 25.875 6.390625 
Q 29.828125 6.390625 33.296875 8.421875 
Q 36.765625 10.453125 38.203125 13.9375 
Q 39.65625 17.4375 39.65625 24.078125 
L 39.65625 51.859375 
L 48.4375 51.859375 
L 48.4375 0 
z
" id="ArialMT-117"/>
      <path d="M 6.390625 0 
L 6.390625 71.578125 
L 15.1875 71.578125 
L 15.1875 0 
z
" id="ArialMT-108"/>
     </defs>
     <g style="fill:#262626;" transform="translate(382.893281 42.860391)scale(0.165 -0.165)">
      <use xlink:href="#ArialMT-70"/>
      <use x="61.083984" xlink:href="#ArialMT-105"/>
      <use x="83.300781" xlink:href="#ArialMT-120"/>
      <use x="133.300781" xlink:href="#ArialMT-101"/>
      <use x="188.916016" xlink:href="#ArialMT-100"/>
      <use x="244.53125" xlink:href="#ArialMT-32"/>
      <use x="272.314453" xlink:href="#ArialMT-112"/>
      <use x="327.929688" xlink:href="#ArialMT-117"/>
      <use x="383.544922" xlink:href="#ArialMT-108"/>
      <use x="405.761719" xlink:href="#ArialMT-108"/>
     </g>
    </g>
    <g id="line2d_28">
     <path d="M 336.693281 60.425156 
L 369.693281 60.425156 
" style="fill:none;stroke:#333333;stroke-dasharray:2.8125,2.8125;stroke-dashoffset:0;stroke-width:2.8125;"/>
    </g>
    <g id="line2d_29"/>
    <g id="text_15">
     <!-- Free pull -->
     <g style="fill:#262626;" transform="translate(382.893281 66.200156)scale(0.165 -0.165)">
      <use xlink:href="#ArialMT-70"/>
      <use x="61.083984" xlink:href="#ArialMT-114"/>
      <use x="94.384766" xlink:href="#ArialMT-101"/>
      <use x="150" xlink:href="#ArialMT-101"/>
      <use x="205.615234" xlink:href="#ArialMT-32"/>
      <use x="233.398438" xlink:href="#ArialMT-112"/>
      <use x="289.013672" xlink:href="#ArialMT-117"/>
      <use x="344.628906" xlink:href="#ArialMT-108"/>
      <use x="366.845703" xlink:href="#ArialMT-108"/>
     </g>
    </g>
    <g id="line2d_30">
     <path d="M 336.693281 83.764922 
L 369.693281 83.764922 
" style="fill:none;stroke:#333333;stroke-linecap:round;stroke-width:1.125;"/>
    </g>
    <g id="line2d_31"/>
    <g id="text_16">
     <!-- Flex -->
     <g style="fill:#262626;" transform="translate(382.893281 89.539922)scale(0.165 -0.165)">
      <use xlink:href="#ArialMT-70"/>
      <use x="61.083984" xlink:href="#ArialMT-108"/>
      <use x="83.300781" xlink:href="#ArialMT-101"/>
      <use x="138.916016" xlink:href="#ArialMT-120"/>
     </g>
    </g>
   </g>
  </g>
 </g>
 <defs>
  <clipPath id="p1493f06140">
   <rect height="326.16" width="390.6" x="77.755547" y="16.2"/>
  </clipPath>
 </defs>
</svg>
