<?xml version="1.0" encoding="utf-8" standalone="no"?>
<!DOCTYPE svg PUBLIC "-//W3C//DTD SVG 1.1//EN"
  "http://www.w3.org/Graphics/SVG/1.1/DTD/svg11.dtd">
<!-- Created with matplotlib (https://matplotlib.org/) -->
<svg height="440.231766pt" version="1.1" viewBox="0 0 559.295368 440.231766" width="559.295368pt" xmlns="http://www.w3.org/2000/svg" xmlns:xlink="http://www.w3.org/1999/xlink">
 <defs>
  <style type="text/css">
*{stroke-linecap:butt;stroke-linejoin:round;}
  </style>
 </defs>
 <g id="figure_1">
  <g id="patch_1">
   <path d="M 0 440.231766 
L 559.295368 440.231766 
L 559.295368 -0 
L 0 -0 
z
" style="fill:none;"/>
  </g>
  <g id="axes_1">
   <g id="patch_2">
    <path d="M 68.326641 383.622 
L 424.000669 383.622 
L 424.000669 42.078 
L 68.326641 42.078 
z
" style="fill:none;"/>
   </g>
   <g id="matplotlib.axis_1">
    <g id="xtick_1">
     <g id="line2d_1">
      <defs>
       <path d="M 0 0 
L 0 9 
" id="mab3c8f1f0d" style="stroke:#262626;stroke-width:1.875;"/>
      </defs>
      <g>
       <use style="fill:#262626;stroke:#262626;stroke-width:1.875;" x="84.493642" xlink:href="#mab3c8f1f0d" y="383.622"/>
      </g>
     </g>
     <g id="text_1">
      <!-- 0 -->
      <defs>
       <path d="M 4.15625 35.296875 
Q 4.15625 48 6.765625 55.734375 
Q 9.375 63.484375 14.515625 67.671875 
Q 19.671875 71.875 27.484375 71.875 
Q 33.25 71.875 37.59375 69.546875 
Q 41.9375 67.234375 44.765625 62.859375 
Q 47.609375 58.5 49.21875 52.21875 
Q 50.828125 45.953125 50.828125 35.296875 
Q 50.828125 22.703125 48.234375 14.96875 
Q 45.65625 7.234375 40.5 3 
Q 35.359375 -1.21875 27.484375 -1.21875 
Q 17.140625 -1.21875 11.234375 6.203125 
Q 4.15625 15.140625 4.15625 35.296875 
z
M 13.1875 35.296875 
Q 13.1875 17.671875 17.3125 11.828125 
Q 21.4375 6 27.484375 6 
Q 33.546875 6 37.671875 11.859375 
Q 41.796875 17.71875 41.796875 35.296875 
Q 41.796875 52.984375 37.671875 58.78125 
Q 33.546875 64.59375 27.390625 64.59375 
Q 21.34375 64.59375 17.71875 59.46875 
Q 13.1875 52.9375 13.1875 35.296875 
z
" id="ArialMT-48"/>
      </defs>
      <g style="fill:#262626;" transform="translate(79.905868 407.932391)scale(0.165 -0.165)">
       <use xlink:href="#ArialMT-48"/>
      </g>
     </g>
    </g>
    <g id="xtick_2">
     <g id="line2d_2">
      <g>
       <use style="fill:#262626;stroke:#262626;stroke-width:1.875;" x="135.745036" xlink:href="#mab3c8f1f0d" y="383.622"/>
      </g>
     </g>
     <g id="text_2">
      <!-- 0.1 -->
      <defs>
       <path d="M 9.078125 0 
L 9.078125 10.015625 
L 19.09375 10.015625 
L 19.09375 0 
z
" id="ArialMT-46"/>
       <path d="M 37.25 0 
L 28.46875 0 
L 28.46875 56 
Q 25.296875 52.984375 20.140625 49.953125 
Q 14.984375 46.921875 10.890625 45.40625 
L 10.890625 53.90625 
Q 18.265625 57.375 23.78125 62.296875 
Q 29.296875 67.234375 31.59375 71.875 
L 37.25 71.875 
z
" id="ArialMT-49"/>
      </defs>
      <g style="fill:#262626;" transform="translate(124.277536 407.932391)scale(0.165 -0.165)">
       <use xlink:href="#ArialMT-48"/>
       <use x="55.615234" xlink:href="#ArialMT-46"/>
       <use x="83.398438" xlink:href="#ArialMT-49"/>
      </g>
     </g>
    </g>
    <g id="xtick_3">
     <g id="line2d_3">
      <g>
       <use style="fill:#262626;stroke:#262626;stroke-width:1.875;" x="227.997546" xlink:href="#mab3c8f1f0d" y="383.622"/>
      </g>
     </g>
     <g id="text_3">
      <!-- 1 -->
      <g style="fill:#262626;" transform="translate(223.409773 407.932391)scale(0.165 -0.165)">
       <use xlink:href="#ArialMT-49"/>
      </g>
     </g>
    </g>
    <g id="xtick_4">
     <g id="line2d_4">
      <g>
       <use style="fill:#262626;stroke:#262626;stroke-width:1.875;" x="320.250056" xlink:href="#mab3c8f1f0d" y="383.622"/>
      </g>
     </g>
     <g id="text_4">
      <!-- 10 -->
      <g style="fill:#262626;" transform="translate(311.07451 407.932391)scale(0.165 -0.165)">
       <use xlink:href="#ArialMT-49"/>
       <use x="55.615234" xlink:href="#ArialMT-48"/>
      </g>
     </g>
    </g>
    <g id="xtick_5">
     <g id="line2d_5">
      <g>
       <use style="fill:#262626;stroke:#262626;stroke-width:1.875;" x="412.502566" xlink:href="#mab3c8f1f0d" y="383.622"/>
      </g>
     </g>
     <g id="text_5">
      <!-- 100 -->
      <g style="fill:#262626;" transform="translate(398.739246 407.932391)scale(0.165 -0.165)">
       <use xlink:href="#ArialMT-49"/>
       <use x="55.615234" xlink:href="#ArialMT-48"/>
       <use x="111.230469" xlink:href="#ArialMT-48"/>
      </g>
     </g>
    </g>
    <g id="xtick_6">
     <g id="line2d_6">
      <defs>
       <path d="M 0 0 
L 0 6 
" id="m60a8dd5a66" style="stroke:#262626;stroke-width:1.5;"/>
      </defs>
      <g>
       <use style="fill:#262626;stroke:#262626;stroke-width:1.5;" x="84.493642" xlink:href="#m60a8dd5a66" y="383.622"/>
      </g>
     </g>
    </g>
    <g id="xtick_7">
     <g id="line2d_7">
      <g>
       <use style="fill:#262626;stroke:#262626;stroke-width:1.5;" x="163.515809" xlink:href="#m60a8dd5a66" y="383.622"/>
      </g>
     </g>
    </g>
    <g id="xtick_8">
     <g id="line2d_8">
      <g>
       <use style="fill:#262626;stroke:#262626;stroke-width:1.5;" x="179.76067" xlink:href="#m60a8dd5a66" y="383.622"/>
      </g>
     </g>
    </g>
    <g id="xtick_9">
     <g id="line2d_9">
      <g>
       <use style="fill:#262626;stroke:#262626;stroke-width:1.5;" x="191.286582" xlink:href="#m60a8dd5a66" y="383.622"/>
      </g>
     </g>
    </g>
    <g id="xtick_10">
     <g id="line2d_10">
      <g>
       <use style="fill:#262626;stroke:#262626;stroke-width:1.5;" x="200.226774" xlink:href="#m60a8dd5a66" y="383.622"/>
      </g>
     </g>
    </g>
    <g id="xtick_11">
     <g id="line2d_11">
      <g>
       <use style="fill:#262626;stroke:#262626;stroke-width:1.5;" x="207.531442" xlink:href="#m60a8dd5a66" y="383.622"/>
      </g>
     </g>
    </g>
    <g id="xtick_12">
     <g id="line2d_12">
      <g>
       <use style="fill:#262626;stroke:#262626;stroke-width:1.5;" x="213.707452" xlink:href="#m60a8dd5a66" y="383.622"/>
      </g>
     </g>
    </g>
    <g id="xtick_13">
     <g id="line2d_13">
      <g>
       <use style="fill:#262626;stroke:#262626;stroke-width:1.5;" x="219.057354" xlink:href="#m60a8dd5a66" y="383.622"/>
      </g>
     </g>
    </g>
    <g id="xtick_14">
     <g id="line2d_14">
      <g>
       <use style="fill:#262626;stroke:#262626;stroke-width:1.5;" x="223.776303" xlink:href="#m60a8dd5a66" y="383.622"/>
      </g>
     </g>
    </g>
    <g id="xtick_15">
     <g id="line2d_15">
      <g>
       <use style="fill:#262626;stroke:#262626;stroke-width:1.5;" x="255.768319" xlink:href="#m60a8dd5a66" y="383.622"/>
      </g>
     </g>
    </g>
    <g id="xtick_16">
     <g id="line2d_16">
      <g>
       <use style="fill:#262626;stroke:#262626;stroke-width:1.5;" x="272.01318" xlink:href="#m60a8dd5a66" y="383.622"/>
      </g>
     </g>
    </g>
    <g id="xtick_17">
     <g id="line2d_17">
      <g>
       <use style="fill:#262626;stroke:#262626;stroke-width:1.5;" x="283.539092" xlink:href="#m60a8dd5a66" y="383.622"/>
      </g>
     </g>
    </g>
    <g id="xtick_18">
     <g id="line2d_18">
      <g>
       <use style="fill:#262626;stroke:#262626;stroke-width:1.5;" x="292.479284" xlink:href="#m60a8dd5a66" y="383.622"/>
      </g>
     </g>
    </g>
    <g id="xtick_19">
     <g id="line2d_19">
      <g>
       <use style="fill:#262626;stroke:#262626;stroke-width:1.5;" x="299.783952" xlink:href="#m60a8dd5a66" y="383.622"/>
      </g>
     </g>
    </g>
    <g id="xtick_20">
     <g id="line2d_20">
      <g>
       <use style="fill:#262626;stroke:#262626;stroke-width:1.5;" x="305.959962" xlink:href="#m60a8dd5a66" y="383.622"/>
      </g>
     </g>
    </g>
    <g id="xtick_21">
     <g id="line2d_21">
      <g>
       <use style="fill:#262626;stroke:#262626;stroke-width:1.5;" x="311.309864" xlink:href="#m60a8dd5a66" y="383.622"/>
      </g>
     </g>
    </g>
    <g id="xtick_22">
     <g id="line2d_22">
      <g>
       <use style="fill:#262626;stroke:#262626;stroke-width:1.5;" x="316.028813" xlink:href="#m60a8dd5a66" y="383.622"/>
      </g>
     </g>
    </g>
    <g id="xtick_23">
     <g id="line2d_23">
      <g>
       <use style="fill:#262626;stroke:#262626;stroke-width:1.5;" x="348.020829" xlink:href="#m60a8dd5a66" y="383.622"/>
      </g>
     </g>
    </g>
    <g id="xtick_24">
     <g id="line2d_24">
      <g>
       <use style="fill:#262626;stroke:#262626;stroke-width:1.5;" x="364.26569" xlink:href="#m60a8dd5a66" y="383.622"/>
      </g>
     </g>
    </g>
    <g id="xtick_25">
     <g id="line2d_25">
      <g>
       <use style="fill:#262626;stroke:#262626;stroke-width:1.5;" x="375.791602" xlink:href="#m60a8dd5a66" y="383.622"/>
      </g>
     </g>
    </g>
    <g id="xtick_26">
     <g id="line2d_26">
      <g>
       <use style="fill:#262626;stroke:#262626;stroke-width:1.5;" x="384.731794" xlink:href="#m60a8dd5a66" y="383.622"/>
      </g>
     </g>
    </g>
    <g id="xtick_27">
     <g id="line2d_27">
      <g>
       <use style="fill:#262626;stroke:#262626;stroke-width:1.5;" x="392.036462" xlink:href="#m60a8dd5a66" y="383.622"/>
      </g>
     </g>
    </g>
    <g id="xtick_28">
     <g id="line2d_28">
      <g>
       <use style="fill:#262626;stroke:#262626;stroke-width:1.5;" x="398.212472" xlink:href="#m60a8dd5a66" y="383.622"/>
      </g>
     </g>
    </g>
    <g id="xtick_29">
     <g id="line2d_29">
      <g>
       <use style="fill:#262626;stroke:#262626;stroke-width:1.5;" x="403.562374" xlink:href="#m60a8dd5a66" y="383.622"/>
      </g>
     </g>
    </g>
    <g id="xtick_30">
     <g id="line2d_30">
      <g>
       <use style="fill:#262626;stroke:#262626;stroke-width:1.5;" x="408.281323" xlink:href="#m60a8dd5a66" y="383.622"/>
      </g>
     </g>
    </g>
    <g id="text_6">
     <!-- Tilt angle, $\theta$ ($\degree$) -->
     <defs>
      <path d="M 25.921875 0 
L 25.921875 63.140625 
L 2.34375 63.140625 
L 2.34375 71.578125 
L 59.078125 71.578125 
L 59.078125 63.140625 
L 35.40625 63.140625 
L 35.40625 0 
z
" id="ArialMT-84"/>
      <path d="M 6.640625 61.46875 
L 6.640625 71.578125 
L 15.4375 71.578125 
L 15.4375 61.46875 
z
M 6.640625 0 
L 6.640625 51.859375 
L 15.4375 51.859375 
L 15.4375 0 
z
" id="ArialMT-105"/>
      <path d="M 6.390625 0 
L 6.390625 71.578125 
L 15.1875 71.578125 
L 15.1875 0 
z
" id="ArialMT-108"/>
      <path d="M 25.78125 7.859375 
L 27.046875 0.09375 
Q 23.34375 -0.6875 20.40625 -0.6875 
Q 15.625 -0.6875 12.984375 0.828125 
Q 10.359375 2.34375 9.28125 4.8125 
Q 8.203125 7.28125 8.203125 15.1875 
L 8.203125 45.015625 
L 1.765625 45.015625 
L 1.765625 51.859375 
L 8.203125 51.859375 
L 8.203125 64.703125 
L 16.9375 69.96875 
L 16.9375 51.859375 
L 25.78125 51.859375 
L 25.78125 45.015625 
L 16.9375 45.015625 
L 16.9375 14.703125 
Q 16.9375 10.9375 17.40625 9.859375 
Q 17.875 8.796875 18.921875 8.15625 
Q 19.96875 7.515625 21.921875 7.515625 
Q 23.390625 7.515625 25.78125 7.859375 
z
" id="ArialMT-116"/>
      <path id="ArialMT-32"/>
      <path d="M 40.4375 6.390625 
Q 35.546875 2.25 31.03125 0.53125 
Q 26.515625 -1.171875 21.34375 -1.171875 
Q 12.796875 -1.171875 8.203125 3 
Q 3.609375 7.171875 3.609375 13.671875 
Q 3.609375 17.484375 5.34375 20.625 
Q 7.078125 23.78125 9.890625 25.6875 
Q 12.703125 27.59375 16.21875 28.5625 
Q 18.796875 29.25 24.03125 29.890625 
Q 34.671875 31.15625 39.703125 32.90625 
Q 39.75 34.71875 39.75 35.203125 
Q 39.75 40.578125 37.25 42.78125 
Q 33.890625 45.75 27.25 45.75 
Q 21.046875 45.75 18.09375 43.578125 
Q 15.140625 41.40625 13.71875 35.890625 
L 5.125 37.0625 
Q 6.296875 42.578125 8.984375 45.96875 
Q 11.671875 49.359375 16.75 51.1875 
Q 21.828125 53.03125 28.515625 53.03125 
Q 35.15625 53.03125 39.296875 51.46875 
Q 43.453125 49.90625 45.40625 47.53125 
Q 47.359375 45.171875 48.140625 41.546875 
Q 48.578125 39.3125 48.578125 33.453125 
L 48.578125 21.734375 
Q 48.578125 9.46875 49.140625 6.21875 
Q 49.703125 2.984375 51.375 0 
L 42.1875 0 
Q 40.828125 2.734375 40.4375 6.390625 
z
M 39.703125 26.03125 
Q 34.90625 24.078125 25.34375 22.703125 
Q 19.921875 21.921875 17.671875 20.9375 
Q 15.4375 19.96875 14.203125 18.09375 
Q 12.984375 16.21875 12.984375 13.921875 
Q 12.984375 10.40625 15.640625 8.0625 
Q 18.3125 5.71875 23.4375 5.71875 
Q 28.515625 5.71875 32.46875 7.9375 
Q 36.421875 10.15625 38.28125 14.015625 
Q 39.703125 17 39.703125 22.796875 
z
" id="ArialMT-97"/>
      <path d="M 6.59375 0 
L 6.59375 51.859375 
L 14.5 51.859375 
L 14.5 44.484375 
Q 20.21875 53.03125 31 53.03125 
Q 35.6875 53.03125 39.625 51.34375 
Q 43.5625 49.65625 45.515625 46.921875 
Q 47.46875 44.1875 48.25 40.4375 
Q 48.734375 37.984375 48.734375 31.890625 
L 48.734375 0 
L 39.9375 0 
L 39.9375 31.546875 
Q 39.9375 36.921875 38.90625 39.578125 
Q 37.890625 42.234375 35.28125 43.8125 
Q 32.671875 45.40625 29.15625 45.40625 
Q 23.53125 45.40625 19.453125 41.84375 
Q 15.375 38.28125 15.375 28.328125 
L 15.375 0 
z
" id="ArialMT-110"/>
      <path d="M 4.984375 -4.296875 
L 13.53125 -5.5625 
Q 14.0625 -9.515625 16.5 -11.328125 
Q 19.78125 -13.765625 25.4375 -13.765625 
Q 31.546875 -13.765625 34.859375 -11.328125 
Q 38.1875 -8.890625 39.359375 -4.5 
Q 40.046875 -1.8125 39.984375 6.78125 
Q 34.234375 0 25.640625 0 
Q 14.9375 0 9.078125 7.71875 
Q 3.21875 15.4375 3.21875 26.21875 
Q 3.21875 33.640625 5.90625 39.90625 
Q 8.59375 46.1875 13.6875 49.609375 
Q 18.796875 53.03125 25.6875 53.03125 
Q 34.859375 53.03125 40.828125 45.609375 
L 40.828125 51.859375 
L 48.921875 51.859375 
L 48.921875 7.03125 
Q 48.921875 -5.078125 46.453125 -10.125 
Q 44 -15.1875 38.640625 -18.109375 
Q 33.296875 -21.046875 25.484375 -21.046875 
Q 16.21875 -21.046875 10.5 -16.875 
Q 4.78125 -12.703125 4.984375 -4.296875 
z
M 12.25 26.859375 
Q 12.25 16.65625 16.296875 11.96875 
Q 20.359375 7.28125 26.46875 7.28125 
Q 32.515625 7.28125 36.609375 11.9375 
Q 40.71875 16.609375 40.71875 26.5625 
Q 40.71875 36.078125 36.5 40.90625 
Q 32.28125 45.75 26.3125 45.75 
Q 20.453125 45.75 16.34375 40.984375 
Q 12.25 36.234375 12.25 26.859375 
z
" id="ArialMT-103"/>
      <path d="M 42.09375 16.703125 
L 51.171875 15.578125 
Q 49.03125 7.625 43.21875 3.21875 
Q 37.40625 -1.171875 28.375 -1.171875 
Q 17 -1.171875 10.328125 5.828125 
Q 3.65625 12.84375 3.65625 25.484375 
Q 3.65625 38.578125 10.390625 45.796875 
Q 17.140625 53.03125 27.875 53.03125 
Q 38.28125 53.03125 44.875 45.953125 
Q 51.46875 38.875 51.46875 26.03125 
Q 51.46875 25.25 51.421875 23.6875 
L 12.75 23.6875 
Q 13.234375 15.140625 17.578125 10.59375 
Q 21.921875 6.0625 28.421875 6.0625 
Q 33.25 6.0625 36.671875 8.59375 
Q 40.09375 11.140625 42.09375 16.703125 
z
M 13.234375 30.90625 
L 42.1875 30.90625 
Q 41.609375 37.453125 38.875 40.71875 
Q 34.671875 45.796875 27.984375 45.796875 
Q 21.921875 45.796875 17.796875 41.75 
Q 13.671875 37.703125 13.234375 30.90625 
z
" id="ArialMT-101"/>
      <path d="M 8.890625 0 
L 8.890625 10.015625 
L 18.890625 10.015625 
L 18.890625 0 
Q 18.890625 -5.515625 16.9375 -8.90625 
Q 14.984375 -12.3125 10.75 -14.15625 
L 8.296875 -10.40625 
Q 11.078125 -9.1875 12.390625 -6.8125 
Q 13.71875 -4.4375 13.875 0 
z
" id="ArialMT-44"/>
      <path d="M 45.515625 34.671875 
L 14.453125 34.671875 
Q 12.359375 20.0625 14.5 13.875 
Q 17.1875 6.25 24.46875 6.25 
Q 31.78125 6.25 37.359375 13.921875 
Q 42.234375 20.65625 45.515625 34.671875 
z
M 47.015625 42.96875 
Q 48.34375 56.84375 46.625 61.71875 
Q 43.953125 69.4375 36.765625 69.4375 
Q 29.296875 69.4375 23.828125 61.8125 
Q 19.53125 55.671875 16.15625 42.96875 
z
M 38.1875 76.765625 
Q 49.90625 76.765625 54.59375 66.40625 
Q 59.28125 56.109375 55.71875 37.84375 
Q 52.203125 19.625 43.453125 9.28125 
Q 34.765625 -1.125 23.046875 -1.125 
Q 11.28125 -1.125 6.640625 9.28125 
Q 2 19.625 5.515625 37.84375 
Q 9.078125 56.109375 17.71875 66.40625 
Q 26.421875 76.765625 38.1875 76.765625 
z
" id="DejaVuSans-Oblique-952"/>
      <path d="M 23.390625 -21.046875 
Q 16.109375 -11.859375 11.078125 0.4375 
Q 6.0625 12.75 6.0625 25.921875 
Q 6.0625 37.546875 9.8125 48.1875 
Q 14.203125 60.546875 23.390625 72.796875 
L 29.6875 72.796875 
Q 23.78125 62.640625 21.875 58.296875 
Q 18.890625 51.5625 17.1875 44.234375 
Q 15.09375 35.109375 15.09375 25.875 
Q 15.09375 2.390625 29.6875 -21.046875 
z
" id="ArialMT-40"/>
      <path d="M 25 67.921875 
Q 21.09375 67.921875 18.40625 65.203125 
Q 15.71875 62.5 15.71875 58.59375 
Q 15.71875 54.734375 18.40625 52.078125 
Q 21.09375 49.421875 25 49.421875 
Q 28.90625 49.421875 31.59375 52.078125 
Q 34.28125 54.734375 34.28125 58.59375 
Q 34.28125 62.453125 31.5625 65.1875 
Q 28.859375 67.921875 25 67.921875 
z
M 25 74.21875 
Q 28.125 74.21875 31 73.015625 
Q 33.890625 71.828125 35.984375 69.578125 
Q 38.234375 67.390625 39.359375 64.59375 
Q 40.484375 61.8125 40.484375 58.59375 
Q 40.484375 52.15625 35.96875 47.6875 
Q 31.453125 43.21875 24.90625 43.21875 
Q 18.3125 43.21875 13.90625 47.609375 
Q 9.515625 52 9.515625 58.59375 
Q 9.515625 65.140625 14 69.671875 
Q 18.5 74.21875 25 74.21875 
z
" id="DejaVuSans-176"/>
      <path d="M 12.359375 -21.046875 
L 6.0625 -21.046875 
Q 20.65625 2.390625 20.65625 25.875 
Q 20.65625 35.0625 18.5625 44.09375 
Q 16.890625 51.421875 13.921875 58.15625 
Q 12.015625 62.546875 6.0625 72.796875 
L 12.359375 72.796875 
Q 21.53125 60.546875 25.921875 48.1875 
Q 29.6875 37.546875 29.6875 25.921875 
Q 29.6875 12.75 24.625 0.4375 
Q 19.578125 -11.859375 12.359375 -21.046875 
z
" id="ArialMT-41"/>
     </defs>
     <g style="fill:#262626;" transform="translate(186.133655 429.071766)scale(0.18 -0.18)">
      <use transform="translate(0 0.234375)" xlink:href="#ArialMT-84"/>
      <use transform="translate(61.083984 0.234375)" xlink:href="#ArialMT-105"/>
      <use transform="translate(83.300781 0.234375)" xlink:href="#ArialMT-108"/>
      <use transform="translate(105.517578 0.234375)" xlink:href="#ArialMT-116"/>
      <use transform="translate(133.300781 0.234375)" xlink:href="#ArialMT-32"/>
      <use transform="translate(161.083984 0.234375)" xlink:href="#ArialMT-97"/>
      <use transform="translate(216.699219 0.234375)" xlink:href="#ArialMT-110"/>
      <use transform="translate(272.314453 0.234375)" xlink:href="#ArialMT-103"/>
      <use transform="translate(327.929688 0.234375)" xlink:href="#ArialMT-108"/>
      <use transform="translate(350.146484 0.234375)" xlink:href="#ArialMT-101"/>
      <use transform="translate(405.761719 0.234375)" xlink:href="#ArialMT-44"/>
      <use transform="translate(433.544922 0.234375)" xlink:href="#ArialMT-32"/>
      <use transform="translate(461.328125 0.234375)" xlink:href="#DejaVuSans-Oblique-952"/>
      <use transform="translate(522.509766 0.234375)" xlink:href="#ArialMT-32"/>
      <use transform="translate(550.292969 0.234375)" xlink:href="#ArialMT-40"/>
      <use transform="translate(583.59375 0.234375)" xlink:href="#DejaVuSans-176"/>
      <use transform="translate(633.59375 0.234375)" xlink:href="#ArialMT-41"/>
     </g>
    </g>
   </g>
   <g id="matplotlib.axis_2">
    <g id="ytick_1">
     <g id="line2d_31">
      <defs>
       <path d="M 0 0 
L -9 0 
" id="m9dc7be175d" style="stroke:#262626;stroke-width:1.875;"/>
      </defs>
      <g>
       <use style="fill:#262626;stroke:#262626;stroke-width:1.875;" x="68.326641" xlink:href="#m9dc7be175d" y="351.346976"/>
      </g>
     </g>
     <g id="text_7">
      <!-- 1 -->
      <g style="fill:#262626;" transform="translate(46.651094 357.252171)scale(0.165 -0.165)">
       <use xlink:href="#ArialMT-49"/>
      </g>
     </g>
    </g>
    <g id="ytick_2">
     <g id="line2d_32">
      <g>
       <use style="fill:#262626;stroke:#262626;stroke-width:1.875;" x="68.326641" xlink:href="#m9dc7be175d" y="204.474844"/>
      </g>
     </g>
     <g id="text_8">
      <!-- 10 -->
      <g style="fill:#262626;" transform="translate(37.475547 210.380039)scale(0.165 -0.165)">
       <use xlink:href="#ArialMT-49"/>
       <use x="55.615234" xlink:href="#ArialMT-48"/>
      </g>
     </g>
    </g>
    <g id="ytick_3">
     <g id="line2d_33">
      <g>
       <use style="fill:#262626;stroke:#262626;stroke-width:1.875;" x="68.326641" xlink:href="#m9dc7be175d" y="57.602712"/>
      </g>
     </g>
     <g id="text_9">
      <!-- 100 -->
      <g style="fill:#262626;" transform="translate(28.3 63.507907)scale(0.165 -0.165)">
       <use xlink:href="#ArialMT-49"/>
       <use x="55.615234" xlink:href="#ArialMT-48"/>
       <use x="111.230469" xlink:href="#ArialMT-48"/>
      </g>
     </g>
    </g>
    <g id="ytick_4">
     <g id="line2d_34">
      <defs>
       <path d="M 0 0 
L -6 0 
" id="mb6c412d221" style="stroke:#262626;stroke-width:1.5;"/>
      </defs>
      <g>
       <use style="fill:#262626;stroke:#262626;stroke-width:1.5;" x="68.326641" xlink:href="#mb6c412d221" y="383.930375"/>
      </g>
     </g>
    </g>
    <g id="ytick_5">
     <g id="line2d_35">
      <g>
       <use style="fill:#262626;stroke:#262626;stroke-width:1.5;" x="68.326641" xlink:href="#mb6c412d221" y="374.097757"/>
      </g>
     </g>
    </g>
    <g id="ytick_6">
     <g id="line2d_36">
      <g>
       <use style="fill:#262626;stroke:#262626;stroke-width:1.5;" x="68.326641" xlink:href="#mb6c412d221" y="365.580356"/>
      </g>
     </g>
    </g>
    <g id="ytick_7">
     <g id="line2d_37">
      <g>
       <use style="fill:#262626;stroke:#262626;stroke-width:1.5;" x="68.326641" xlink:href="#mb6c412d221" y="358.067476"/>
      </g>
     </g>
    </g>
    <g id="ytick_8">
     <g id="line2d_38">
      <g>
       <use style="fill:#262626;stroke:#262626;stroke-width:1.5;" x="68.326641" xlink:href="#mb6c412d221" y="307.134059"/>
      </g>
     </g>
    </g>
    <g id="ytick_9">
     <g id="line2d_39">
      <g>
       <use style="fill:#262626;stroke:#262626;stroke-width:1.5;" x="68.326641" xlink:href="#mb6c412d221" y="281.27116"/>
      </g>
     </g>
    </g>
    <g id="ytick_10">
     <g id="line2d_40">
      <g>
       <use style="fill:#262626;stroke:#262626;stroke-width:1.5;" x="68.326641" xlink:href="#mb6c412d221" y="262.921141"/>
      </g>
     </g>
    </g>
    <g id="ytick_11">
     <g id="line2d_41">
      <g>
       <use style="fill:#262626;stroke:#262626;stroke-width:1.5;" x="68.326641" xlink:href="#mb6c412d221" y="248.687761"/>
      </g>
     </g>
    </g>
    <g id="ytick_12">
     <g id="line2d_42">
      <g>
       <use style="fill:#262626;stroke:#262626;stroke-width:1.5;" x="68.326641" xlink:href="#mb6c412d221" y="237.058243"/>
      </g>
     </g>
    </g>
    <g id="ytick_13">
     <g id="line2d_43">
      <g>
       <use style="fill:#262626;stroke:#262626;stroke-width:1.5;" x="68.326641" xlink:href="#mb6c412d221" y="227.225625"/>
      </g>
     </g>
    </g>
    <g id="ytick_14">
     <g id="line2d_44">
      <g>
       <use style="fill:#262626;stroke:#262626;stroke-width:1.5;" x="68.326641" xlink:href="#mb6c412d221" y="218.708224"/>
      </g>
     </g>
    </g>
    <g id="ytick_15">
     <g id="line2d_45">
      <g>
       <use style="fill:#262626;stroke:#262626;stroke-width:1.5;" x="68.326641" xlink:href="#mb6c412d221" y="211.195344"/>
      </g>
     </g>
    </g>
    <g id="ytick_16">
     <g id="line2d_46">
      <g>
       <use style="fill:#262626;stroke:#262626;stroke-width:1.5;" x="68.326641" xlink:href="#mb6c412d221" y="160.261927"/>
      </g>
     </g>
    </g>
    <g id="ytick_17">
     <g id="line2d_47">
      <g>
       <use style="fill:#262626;stroke:#262626;stroke-width:1.5;" x="68.326641" xlink:href="#mb6c412d221" y="134.399028"/>
      </g>
     </g>
    </g>
    <g id="ytick_18">
     <g id="line2d_48">
      <g>
       <use style="fill:#262626;stroke:#262626;stroke-width:1.5;" x="68.326641" xlink:href="#mb6c412d221" y="116.049009"/>
      </g>
     </g>
    </g>
    <g id="ytick_19">
     <g id="line2d_49">
      <g>
       <use style="fill:#262626;stroke:#262626;stroke-width:1.5;" x="68.326641" xlink:href="#mb6c412d221" y="101.815629"/>
      </g>
     </g>
    </g>
    <g id="ytick_20">
     <g id="line2d_50">
      <g>
       <use style="fill:#262626;stroke:#262626;stroke-width:1.5;" x="68.326641" xlink:href="#mb6c412d221" y="90.186111"/>
      </g>
     </g>
    </g>
    <g id="ytick_21">
     <g id="line2d_51">
      <g>
       <use style="fill:#262626;stroke:#262626;stroke-width:1.5;" x="68.326641" xlink:href="#mb6c412d221" y="80.353493"/>
      </g>
     </g>
    </g>
    <g id="ytick_22">
     <g id="line2d_52">
      <g>
       <use style="fill:#262626;stroke:#262626;stroke-width:1.5;" x="68.326641" xlink:href="#mb6c412d221" y="71.836092"/>
      </g>
     </g>
    </g>
    <g id="ytick_23">
     <g id="line2d_53">
      <g>
       <use style="fill:#262626;stroke:#262626;stroke-width:1.5;" x="68.326641" xlink:href="#mb6c412d221" y="64.323212"/>
      </g>
     </g>
    </g>
    <g id="text_10">
     <!-- Reversibility, $F_{max}/F_{adh}$ -->
     <defs>
      <path d="M 7.859375 0 
L 7.859375 71.578125 
L 39.59375 71.578125 
Q 49.171875 71.578125 54.140625 69.640625 
Q 59.125 67.71875 62.109375 62.828125 
Q 65.09375 57.953125 65.09375 52.046875 
Q 65.09375 44.4375 60.15625 39.203125 
Q 55.21875 33.984375 44.921875 32.5625 
Q 48.6875 30.765625 50.640625 29 
Q 54.78125 25.203125 58.5 19.484375 
L 70.953125 0 
L 59.03125 0 
L 49.5625 14.890625 
Q 45.40625 21.34375 42.71875 24.75 
Q 40.046875 28.171875 37.921875 29.53125 
Q 35.796875 30.90625 33.59375 31.453125 
Q 31.984375 31.78125 28.328125 31.78125 
L 17.328125 31.78125 
L 17.328125 0 
z
M 17.328125 39.984375 
L 37.703125 39.984375 
Q 44.1875 39.984375 47.84375 41.328125 
Q 51.515625 42.671875 53.421875 45.625 
Q 55.328125 48.578125 55.328125 52.046875 
Q 55.328125 57.125 51.640625 60.390625 
Q 47.953125 63.671875 39.984375 63.671875 
L 17.328125 63.671875 
z
" id="ArialMT-82"/>
      <path d="M 21 0 
L 1.265625 51.859375 
L 10.546875 51.859375 
L 21.6875 20.796875 
Q 23.484375 15.765625 25 10.359375 
Q 26.171875 14.453125 28.265625 20.21875 
L 39.796875 51.859375 
L 48.828125 51.859375 
L 29.203125 0 
z
" id="ArialMT-118"/>
      <path d="M 6.5 0 
L 6.5 51.859375 
L 14.40625 51.859375 
L 14.40625 44 
Q 17.4375 49.515625 20 51.265625 
Q 22.5625 53.03125 25.640625 53.03125 
Q 30.078125 53.03125 34.671875 50.203125 
L 31.640625 42.046875 
Q 28.421875 43.953125 25.203125 43.953125 
Q 22.3125 43.953125 20.015625 42.21875 
Q 17.71875 40.484375 16.75 37.40625 
Q 15.28125 32.71875 15.28125 27.15625 
L 15.28125 0 
z
" id="ArialMT-114"/>
      <path d="M 3.078125 15.484375 
L 11.765625 16.84375 
Q 12.5 11.625 15.84375 8.84375 
Q 19.1875 6.0625 25.203125 6.0625 
Q 31.25 6.0625 34.171875 8.515625 
Q 37.109375 10.984375 37.109375 14.3125 
Q 37.109375 17.28125 34.515625 19 
Q 32.71875 20.171875 25.53125 21.96875 
Q 15.875 24.421875 12.140625 26.203125 
Q 8.40625 27.984375 6.46875 31.125 
Q 4.546875 34.28125 4.546875 38.09375 
Q 4.546875 41.546875 6.125 44.5 
Q 7.71875 47.46875 10.453125 49.421875 
Q 12.5 50.921875 16.03125 51.96875 
Q 19.578125 53.03125 23.640625 53.03125 
Q 29.734375 53.03125 34.34375 51.265625 
Q 38.96875 49.515625 41.15625 46.5 
Q 43.359375 43.5 44.1875 38.484375 
L 35.59375 37.3125 
Q 35.015625 41.3125 32.203125 43.546875 
Q 29.390625 45.796875 24.265625 45.796875 
Q 18.21875 45.796875 15.625 43.796875 
Q 13.03125 41.796875 13.03125 39.109375 
Q 13.03125 37.40625 14.109375 36.03125 
Q 15.1875 34.625 17.484375 33.6875 
Q 18.796875 33.203125 25.25 31.453125 
Q 34.578125 28.953125 38.25 27.359375 
Q 41.9375 25.78125 44.03125 22.75 
Q 46.140625 19.734375 46.140625 15.234375 
Q 46.140625 10.84375 43.578125 6.953125 
Q 41.015625 3.078125 36.171875 0.953125 
Q 31.34375 -1.171875 25.25 -1.171875 
Q 15.140625 -1.171875 9.84375 3.03125 
Q 4.546875 7.234375 3.078125 15.484375 
z
" id="ArialMT-115"/>
      <path d="M 14.703125 0 
L 6.546875 0 
L 6.546875 71.578125 
L 15.328125 71.578125 
L 15.328125 46.046875 
Q 20.90625 53.03125 29.546875 53.03125 
Q 34.328125 53.03125 38.59375 51.09375 
Q 42.875 49.171875 45.625 45.671875 
Q 48.390625 42.1875 49.953125 37.25 
Q 51.515625 32.328125 51.515625 26.703125 
Q 51.515625 13.375 44.921875 6.09375 
Q 38.328125 -1.171875 29.109375 -1.171875 
Q 19.921875 -1.171875 14.703125 6.5 
z
M 14.59375 26.3125 
Q 14.59375 17 17.140625 12.84375 
Q 21.296875 6.0625 28.375 6.0625 
Q 34.125 6.0625 38.328125 11.0625 
Q 42.53125 16.0625 42.53125 25.984375 
Q 42.53125 36.140625 38.5 40.96875 
Q 34.46875 45.796875 28.765625 45.796875 
Q 23 45.796875 18.796875 40.796875 
Q 14.59375 35.796875 14.59375 26.3125 
z
" id="ArialMT-98"/>
      <path d="M 6.203125 -19.96875 
L 5.21875 -11.71875 
Q 8.109375 -12.5 10.25 -12.5 
Q 13.1875 -12.5 14.9375 -11.515625 
Q 16.703125 -10.546875 17.828125 -8.796875 
Q 18.65625 -7.46875 20.515625 -2.25 
Q 20.75 -1.515625 21.296875 -0.09375 
L 1.609375 51.859375 
L 11.078125 51.859375 
L 21.875 21.828125 
Q 23.96875 16.109375 25.640625 9.8125 
Q 27.15625 15.875 29.25 21.625 
L 40.328125 51.859375 
L 49.125 51.859375 
L 29.390625 -0.875 
Q 26.21875 -9.421875 24.46875 -12.640625 
Q 22.125 -17 19.09375 -19.015625 
Q 16.0625 -21.046875 11.859375 -21.046875 
Q 9.328125 -21.046875 6.203125 -19.96875 
z
" id="ArialMT-121"/>
      <path d="M 16.890625 72.90625 
L 58.6875 72.90625 
L 57.078125 64.59375 
L 25.09375 64.59375 
L 20.90625 43.109375 
L 49.8125 43.109375 
L 48.1875 34.8125 
L 19.28125 34.8125 
L 12.5 0 
L 2.6875 0 
z
" id="DejaVuSans-Oblique-70"/>
      <path d="M 89.796875 33.015625 
L 83.40625 0 
L 74.421875 0 
L 80.71875 32.71875 
Q 81.109375 34.8125 81.296875 36.328125 
Q 81.5 37.84375 81.5 38.921875 
Q 81.5 43.3125 79.046875 45.75 
Q 76.609375 48.1875 72.21875 48.1875 
Q 65.671875 48.1875 60.546875 43.28125 
Q 55.421875 38.375 53.90625 30.515625 
L 47.90625 0 
L 38.921875 0 
L 45.3125 32.71875 
Q 45.703125 34.515625 45.890625 36.046875 
Q 46.09375 37.59375 46.09375 38.8125 
Q 46.09375 43.265625 43.65625 45.71875 
Q 41.21875 48.1875 36.921875 48.1875 
Q 30.28125 48.1875 25.140625 43.28125 
Q 20.015625 38.375 18.5 30.515625 
L 12.5 0 
L 3.515625 0 
L 14.203125 54.6875 
L 23.1875 54.6875 
L 21.484375 46.1875 
Q 25.140625 50.984375 30.046875 53.484375 
Q 34.96875 56 40.578125 56 
Q 46.53125 56 50.359375 52.875 
Q 54.203125 49.75 54.984375 44.1875 
Q 59.078125 49.953125 64.46875 52.96875 
Q 69.875 56 75.875 56 
Q 82.90625 56 86.734375 51.953125 
Q 90.578125 47.90625 90.578125 40.484375 
Q 90.578125 38.875 90.375 36.9375 
Q 90.1875 35.015625 89.796875 33.015625 
z
" id="DejaVuSans-Oblique-109"/>
      <path d="M 53.71875 31.203125 
L 47.609375 0 
L 38.625 0 
L 40.28125 8.296875 
Q 36.328125 3.421875 31.265625 1 
Q 26.21875 -1.421875 20.015625 -1.421875 
Q 13.03125 -1.421875 8.5625 2.84375 
Q 4.109375 7.125 4.109375 13.8125 
Q 4.109375 23.390625 11.75 28.953125 
Q 19.390625 34.515625 32.8125 34.515625 
L 45.3125 34.515625 
L 45.796875 36.921875 
Q 45.90625 37.3125 45.953125 37.765625 
Q 46 38.234375 46 39.203125 
Q 46 43.5625 42.453125 45.96875 
Q 38.921875 48.390625 32.515625 48.390625 
Q 28.125 48.390625 23.5 47.265625 
Q 18.890625 46.140625 14.015625 43.890625 
L 15.578125 52.203125 
Q 20.65625 54.109375 25.515625 55.046875 
Q 30.375 56 34.90625 56 
Q 44.578125 56 49.625 51.796875 
Q 54.6875 47.609375 54.6875 39.59375 
Q 54.6875 37.984375 54.4375 35.8125 
Q 54.203125 33.640625 53.71875 31.203125 
z
M 44 27.484375 
L 35.015625 27.484375 
Q 23.96875 27.484375 18.671875 24.53125 
Q 13.375 21.578125 13.375 15.375 
Q 13.375 11.078125 16.078125 8.640625 
Q 18.796875 6.203125 23.578125 6.203125 
Q 30.90625 6.203125 36.375 11.453125 
Q 41.84375 16.703125 43.609375 25.484375 
z
" id="DejaVuSans-Oblique-97"/>
      <path d="M 60.015625 54.6875 
L 34.90625 27.875 
L 50.296875 0 
L 39.984375 0 
L 28.421875 21.6875 
L 8.296875 0 
L -2.59375 0 
L 24.3125 28.8125 
L 10.015625 54.6875 
L 20.3125 54.6875 
L 30.8125 34.90625 
L 49.125 54.6875 
z
" id="DejaVuSans-Oblique-120"/>
      <path d="M 25.390625 72.90625 
L 33.6875 72.90625 
L 8.296875 -9.28125 
L 0 -9.28125 
z
" id="DejaVuSans-47"/>
      <path d="M 41.796875 8.203125 
Q 38.1875 3.46875 33.25 1.015625 
Q 28.328125 -1.421875 22.3125 -1.421875 
Q 14.109375 -1.421875 9.34375 4.171875 
Q 4.59375 9.765625 4.59375 19.484375 
Q 4.59375 27.59375 7.46875 34.9375 
Q 10.359375 42.28125 15.828125 48.09375 
Q 19.4375 51.953125 23.96875 53.96875 
Q 28.515625 56 33.5 56 
Q 38.765625 56 42.796875 53.453125 
Q 46.828125 50.921875 49.03125 46.1875 
L 54.890625 75.984375 
L 63.921875 75.984375 
L 49.125 0 
L 40.09375 0 
z
M 13.921875 21.09375 
Q 13.921875 14.015625 17.109375 10.0625 
Q 20.3125 6.109375 25.984375 6.109375 
Q 30.171875 6.109375 33.765625 8.125 
Q 37.359375 10.15625 40.09375 14.109375 
Q 42.96875 18.21875 44.625 23.578125 
Q 46.296875 28.953125 46.296875 34.1875 
Q 46.296875 40.96875 43.09375 44.765625 
Q 39.890625 48.578125 34.28125 48.578125 
Q 30.03125 48.578125 26.359375 46.578125 
Q 22.703125 44.578125 20.125 40.828125 
Q 17.28125 36.765625 15.59375 31.390625 
Q 13.921875 26.03125 13.921875 21.09375 
z
" id="DejaVuSans-Oblique-100"/>
      <path d="M 55.71875 33.015625 
L 49.3125 0 
L 40.28125 0 
L 46.6875 32.671875 
Q 47.125 34.96875 47.359375 36.71875 
Q 47.609375 38.484375 47.609375 39.5 
Q 47.609375 43.609375 45.015625 45.890625 
Q 42.4375 48.1875 37.796875 48.1875 
Q 30.5625 48.1875 25.265625 43.296875 
Q 19.96875 38.421875 18.40625 30.328125 
L 12.5 0 
L 3.515625 0 
L 18.3125 75.984375 
L 27.296875 75.984375 
L 21.484375 46.09375 
Q 24.90625 50.6875 30.21875 53.34375 
Q 35.546875 56 41.40625 56 
Q 48.640625 56 52.609375 52.09375 
Q 56.59375 48.1875 56.59375 41.109375 
Q 56.59375 39.359375 56.375 37.359375 
Q 56.15625 35.359375 55.71875 33.015625 
z
" id="DejaVuSans-Oblique-104"/>
     </defs>
     <g style="fill:#262626;" transform="translate(20.34 305.82)rotate(-90)scale(0.18 -0.18)">
      <use transform="translate(0 0.09375)" xlink:href="#ArialMT-82"/>
      <use transform="translate(72.216797 0.09375)" xlink:href="#ArialMT-101"/>
      <use transform="translate(127.832031 0.09375)" xlink:href="#ArialMT-118"/>
      <use transform="translate(177.832031 0.09375)" xlink:href="#ArialMT-101"/>
      <use transform="translate(233.447266 0.09375)" xlink:href="#ArialMT-114"/>
      <use transform="translate(266.748047 0.09375)" xlink:href="#ArialMT-115"/>
      <use transform="translate(316.748047 0.09375)" xlink:href="#ArialMT-105"/>
      <use transform="translate(338.964844 0.09375)" xlink:href="#ArialMT-98"/>
      <use transform="translate(394.580078 0.09375)" xlink:href="#ArialMT-105"/>
      <use transform="translate(416.796875 0.09375)" xlink:href="#ArialMT-108"/>
      <use transform="translate(439.013672 0.09375)" xlink:href="#ArialMT-105"/>
      <use transform="translate(461.230469 0.09375)" xlink:href="#ArialMT-116"/>
      <use transform="translate(489.013672 0.09375)" xlink:href="#ArialMT-121"/>
      <use transform="translate(539.013672 0.09375)" xlink:href="#ArialMT-44"/>
      <use transform="translate(566.796875 0.09375)" xlink:href="#ArialMT-32"/>
      <use transform="translate(594.580078 0.09375)" xlink:href="#DejaVuSans-Oblique-70"/>
      <use transform="translate(652.099609 -16.3125)scale(0.7)" xlink:href="#DejaVuSans-Oblique-109"/>
      <use transform="translate(720.288086 -16.3125)scale(0.7)" xlink:href="#DejaVuSans-Oblique-97"/>
      <use transform="translate(763.183594 -16.3125)scale(0.7)" xlink:href="#DejaVuSans-Oblique-120"/>
      <use transform="translate(807.34375 0.09375)" xlink:href="#DejaVuSans-47"/>
      <use transform="translate(841.035156 0.09375)" xlink:href="#DejaVuSans-Oblique-70"/>
      <use transform="translate(898.554688 -16.3125)scale(0.7)" xlink:href="#DejaVuSans-Oblique-97"/>
      <use transform="translate(941.450195 -16.3125)scale(0.7)" xlink:href="#DejaVuSans-Oblique-100"/>
      <use transform="translate(985.883789 -16.3125)scale(0.7)" xlink:href="#DejaVuSans-Oblique-104"/>
     </g>
    </g>
   </g>
   <g id="line2d_54">
    <path clip-path="url(#pa251514998)" d="M 84.493642 351.346976 
L 89.618781 346.129575 
L 94.743921 340.447088 
L 99.86906 334.208413 
L 104.9942 327.292742 
L 110.119339 319.535056 
L 115.244479 310.701519 
L 120.369618 301.923959 
L 125.494757 294.451452 
L 130.619897 287.974977 
L 135.745036 282.28253 
L 142.721668 273.108205 
L 149.698299 264.264022 
L 156.674931 255.799008 
L 163.651563 247.766885 
L 170.628194 240.225634 
L 177.604826 233.236726 
L 184.581457 226.863965 
L 191.558089 221.171918 
L 198.53472 216.223933 
L 205.511352 212.07983 
L 212.487984 208.793377 
L 219.464615 206.409735 
L 226.441247 204.963114 
L 233.417878 204.474859 
L 240.39451 204.952199 
L 247.371141 206.387788 
L 254.347773 208.760114 
L 261.324405 212.03469 
L 268.301036 216.165901 
L 275.277668 221.099272 
L 282.254299 226.773909 
L 289.230931 233.124873 
L 296.207562 240.085283 
L 303.184194 247.588 
L 310.160826 255.566769 
L 317.137457 263.95678 
L 324.114089 272.694568 
L 331.09072 281.717214 
L 338.067352 290.960732 
L 345.043983 300.357467 
L 352.020615 309.832214 
L 358.997247 319.296543 
L 365.973878 328.640517 
L 372.95051 337.72042 
L 379.927141 346.340103 
L 386.903773 354.221593 
L 393.880404 360.956396 
L 400.857036 365.918989 
L 407.833668 368.097273 
" style="fill:none;stroke:#1f77b4;stroke-linecap:round;stroke-width:2.25;"/>
   </g>
   <g id="line2d_55">
    <path clip-path="url(#pa251514998)" d="M 84.493642 351.346976 
L 89.618781 272.717456 
L 94.743921 229.603434 
L 99.86906 204.830046 
L 104.9942 187.560312 
L 110.119339 174.398146 
L 115.244479 163.830922 
L 120.369618 155.051827 
L 125.494757 147.57932 
L 130.619897 141.102845 
L 135.745036 135.410398 
L 142.721668 126.236073 
L 149.698299 117.39189 
L 156.674931 108.926876 
L 163.651563 100.894753 
L 170.628194 93.353502 
L 177.604826 86.364594 
L 184.581457 79.991833 
L 191.558089 74.299786 
L 198.53472 69.351801 
L 205.511352 65.207698 
L 212.487984 61.921245 
L 219.464615 59.537603 
L 226.441247 58.090982 
L 233.417878 57.602727 
L 240.39451 58.080067 
L 247.371141 59.515656 
L 254.347773 61.887982 
L 261.324405 65.162558 
L 268.301036 69.293769 
L 275.277668 74.22714 
L 282.254299 79.901777 
L 289.230931 86.252741 
L 296.207562 93.213151 
L 303.184194 100.715868 
L 310.160826 108.694637 
L 317.137457 117.084648 
L 324.114089 125.822436 
L 331.09072 134.845082 
L 338.067352 144.0886 
L 345.043983 153.485335 
L 352.020615 162.960082 
L 358.997247 172.424411 
L 365.973878 181.768385 
L 372.95051 190.848288 
L 379.927141 199.467971 
L 386.903773 207.349461 
L 393.880404 214.084264 
L 400.857036 219.046856 
L 407.833668 221.225141 
" style="fill:none;stroke:#1f77b4;stroke-dasharray:9,3.375;stroke-dashoffset:0;stroke-width:2.25;"/>
   </g>
   <g id="line2d_56">
    <path clip-path="url(#pa251514998)" d="M 84.493642 351.346976 
L 89.618781 350.844026 
L 94.743921 350.337079 
L 99.86906 349.826071 
L 104.9942 349.310935 
L 110.119339 348.791606 
L 115.244479 348.268014 
L 120.369618 347.740088 
L 125.494757 347.207756 
L 130.619897 346.670945 
L 135.745036 346.129577 
L 142.721668 345.086959 
L 149.698299 343.82339 
L 156.674931 342.2861 
L 163.651563 340.406755 
L 170.628194 338.095277 
L 177.604826 335.230285 
L 184.581457 331.643629 
L 191.558089 327.093998 
L 198.53472 321.218754 
L 205.511352 313.438039 
L 212.487984 303.646382 
L 219.464615 293.889911 
L 226.441247 284.37206 
L 233.417878 275.131219 
L 240.39451 266.21056 
L 247.371141 257.658124 
L 254.347773 249.526712 
L 261.324405 241.873511 
L 268.301036 234.759388 
L 275.277668 228.247789 
L 282.254299 222.403195 
L 289.230931 217.289138 
L 296.207562 212.965793 
L 303.184194 209.487248 
L 310.160826 206.898574 
L 317.137457 205.232872 
L 324.114089 204.508472 
L 331.09072 204.726388 
L 338.067352 205.868078 
L 345.043983 207.893362 
L 352.020615 210.738168 
L 358.997247 214.311527 
L 365.973878 218.490911 
L 372.95051 223.114597 
L 379.927141 227.969039 
L 386.903773 232.768045 
L 393.880404 237.118158 
L 400.857036 240.459618 
L 407.833668 241.960784 
" style="fill:none;stroke:#ff7f0e;stroke-linecap:round;stroke-width:2.25;"/>
   </g>
   <g id="line2d_57">
    <path clip-path="url(#pa251514998)" d="M 84.493642 351.346976 
L 89.618781 345.583572 
L 94.743921 339.247215 
L 99.86906 332.211283 
L 104.9942 324.301908 
L 110.119339 315.271081 
L 115.244479 304.858645 
L 120.369618 295.13673 
L 125.494757 286.729937 
L 130.619897 279.32757 
L 135.745036 272.717488 
L 142.721668 261.819996 
L 149.698299 250.961959 
L 156.674931 240.1507 
L 163.651563 229.394857 
L 170.628194 218.70461 
L 177.604826 208.091926 
L 184.581457 197.570845 
L 191.558089 187.157794 
L 198.53472 176.871928 
L 205.511352 166.735501 
L 212.487984 156.77425 
L 219.464615 147.017779 
L 226.441247 137.499927 
L 233.417878 128.259087 
L 240.39451 119.338428 
L 247.371141 110.785992 
L 254.347773 102.65458 
L 261.324405 95.001379 
L 268.301036 87.887256 
L 275.277668 81.375657 
L 282.254299 75.531063 
L 289.230931 70.417006 
L 296.207562 66.093661 
L 303.184194 62.615116 
L 310.160826 60.026442 
L 317.137457 58.36074 
L 324.114089 57.63634 
L 331.09072 57.854256 
L 338.067352 58.995946 
L 345.043983 61.02123 
L 352.020615 63.866036 
L 358.997247 67.439395 
L 365.973878 71.618779 
L 372.95051 76.242465 
L 379.927141 81.096907 
L 386.903773 85.895913 
L 393.880404 90.246026 
L 400.857036 93.587486 
L 407.833668 95.088652 
" style="fill:none;stroke:#ff7f0e;stroke-dasharray:9,3.375;stroke-dashoffset:0;stroke-width:2.25;"/>
   </g>
   <g id="line2d_58">
    <path clip-path="url(#pa251514998)" d="M 84.493642 351.346976 
L 89.618781 351.296859 
L 94.743921 351.246703 
L 99.86906 351.196507 
L 104.9942 351.146272 
L 110.119339 351.095997 
L 115.244479 351.045682 
L 120.369618 350.995328 
L 125.494757 350.944934 
L 130.619897 350.8945 
L 135.745036 350.844026 
L 142.721668 350.747907 
L 149.698299 350.633316 
L 156.674931 350.496659 
L 163.651563 350.333626 
L 170.628194 350.139037 
L 177.604826 349.906659 
L 184.581457 349.628972 
L 191.558089 349.296883 
L 198.53472 348.899363 
L 205.511352 348.422982 
L 212.487984 347.85132 
L 219.464615 347.164191 
L 226.441247 346.336622 
L 233.417878 345.337485 
L 240.39451 344.127617 
L 247.371141 342.657196 
L 254.347773 340.861976 
L 261.324405 338.657708 
L 268.301036 335.931624 
L 275.277668 332.528828 
L 282.254299 328.229475 
L 289.230931 322.707977 
L 296.207562 315.453977 
L 303.184194 305.97392 
L 310.160826 296.216175 
L 317.137457 286.706403 
L 324.114089 277.48768 
L 331.09072 268.609326 
L 338.067352 260.127176 
L 345.043983 252.103507 
L 352.020615 244.606411 
L 358.997247 237.708375 
L 365.973878 231.483823 
L 372.95051 226.005494 
L 379.927141 221.339983 
L 386.903773 217.543969 
L 393.880404 214.665756 
L 400.857036 212.765258 
L 407.833668 211.990963 
" style="fill:none;stroke:#2ca02c;stroke-linecap:round;stroke-width:2.25;"/>
   </g>
   <g id="line2d_59">
    <path clip-path="url(#pa251514998)" d="M 84.493642 351.346976 
L 89.618781 350.793512 
L 94.743921 350.235204 
L 99.86906 349.671966 
L 104.9942 349.103711 
L 110.119339 348.530347 
L 115.244479 347.951783 
L 120.369618 347.367923 
L 125.494757 346.778669 
L 130.619897 346.183921 
L 135.745036 345.583575 
L 142.721668 344.425794 
L 149.698299 343.019823 
L 156.674931 341.304992 
L 163.651563 339.202005 
L 170.628194 336.605133 
L 177.604826 333.369848 
L 184.581457 329.292253 
L 191.558089 324.072741 
L 198.53472 317.246642 
L 205.511352 308.037668 
L 212.487984 297.056442 
L 219.464615 286.092652 
L 226.441247 275.15608 
L 233.417878 264.25187 
L 240.39451 253.386134 
L 247.371141 242.566125 
L 254.347773 231.80045 
L 261.324405 221.099308 
L 268.301036 210.474782 
L 275.277668 199.941165 
L 282.254299 189.515339 
L 289.230931 179.217214 
L 296.207562 169.070208 
L 303.184194 159.101788 
L 310.160826 149.344043 
L 317.137457 139.834271 
L 324.114089 130.615548 
L 331.09072 121.737194 
L 338.067352 113.255044 
L 345.043983 105.231375 
L 352.020615 97.734279 
L 358.997247 90.836243 
L 365.973878 84.611691 
L 372.95051 79.133362 
L 379.927141 74.467851 
L 386.903773 70.671836 
L 393.880404 67.793624 
L 400.857036 65.893126 
L 407.833668 65.118831 
" style="fill:none;stroke:#2ca02c;stroke-dasharray:9,3.375;stroke-dashoffset:0;stroke-width:2.25;"/>
   </g>
   <g id="line2d_60"/>
   <g id="line2d_61"/>
   <g id="line2d_62"/>
   <g id="line2d_63"/>
   <g id="line2d_64"/>
   <g id="patch_3">
    <path d="M 68.326641 383.622 
L 68.326641 42.078 
" style="fill:none;stroke:#262626;stroke-linecap:square;stroke-linejoin:miter;stroke-width:1.875;"/>
   </g>
   <g id="patch_4">
    <path d="M 68.326641 383.622 
L 424.000669 383.622 
" style="fill:none;stroke:#262626;stroke-linecap:square;stroke-linejoin:miter;stroke-width:1.875;"/>
   </g>
  </g>
  <g id="axes_2">
   <g id="patch_5">
    <path d="M 454.772641 73.8 
L 541.172641 73.8 
L 541.172641 16.2 
L 454.772641 16.2 
z
" style="fill:none;"/>
   </g>
   <g id="matplotlib.axis_3">
    <g id="xtick_31">
     <g id="line2d_65">
      <g>
       <use style="fill:#262626;stroke:#262626;stroke-width:1.875;" x="458.699913" xlink:href="#mab3c8f1f0d" y="73.8"/>
      </g>
     </g>
     <g id="text_11">
      <!-- $\mathdefault{10^{-2}}$ -->
      <defs>
       <path d="M 52.828125 31.203125 
L 5.5625 31.203125 
L 5.5625 39.40625 
L 52.828125 39.40625 
z
" id="ArialMT-8722"/>
       <path d="M 50.34375 8.453125 
L 50.34375 0 
L 3.03125 0 
Q 2.9375 3.171875 4.046875 6.109375 
Q 5.859375 10.9375 9.828125 15.625 
Q 13.8125 20.3125 21.34375 26.46875 
Q 33.015625 36.03125 37.109375 41.625 
Q 41.21875 47.21875 41.21875 52.203125 
Q 41.21875 57.421875 37.46875 61 
Q 33.734375 64.59375 27.734375 64.59375 
Q 21.390625 64.59375 17.578125 60.78125 
Q 13.765625 56.984375 13.71875 50.25 
L 4.6875 51.171875 
Q 5.609375 61.28125 11.65625 66.578125 
Q 17.71875 71.875 27.9375 71.875 
Q 38.234375 71.875 44.234375 66.15625 
Q 50.25 60.453125 50.25 52 
Q 50.25 47.703125 48.484375 43.546875 
Q 46.734375 39.40625 42.65625 34.8125 
Q 38.578125 30.21875 29.109375 22.21875 
Q 21.1875 15.578125 18.9375 13.203125 
Q 16.703125 10.84375 15.234375 8.453125 
z
" id="ArialMT-50"/>
      </defs>
      <g style="fill:#262626;" transform="translate(443.849913 101.76875)scale(0.15 -0.15)">
       <use transform="translate(0 0.99375)" xlink:href="#ArialMT-49"/>
       <use transform="translate(55.615234 0.99375)" xlink:href="#ArialMT-48"/>
       <use transform="translate(112.972813 70.6875)scale(0.7)" xlink:href="#ArialMT-8722"/>
       <use transform="translate(153.851719 70.6875)scale(0.7)" xlink:href="#ArialMT-50"/>
      </g>
     </g>
    </g>
    <g id="xtick_32">
     <g id="line2d_66">
      <g>
       <use style="fill:#262626;stroke:#262626;stroke-width:1.875;" x="537.245368" xlink:href="#mab3c8f1f0d" y="73.8"/>
      </g>
     </g>
     <g id="text_12">
      <!-- $\mathdefault{10^{-1}}$ -->
      <g style="fill:#262626;" transform="translate(522.395368 101.76875)scale(0.15 -0.15)">
       <use transform="translate(0 0.99375)" xlink:href="#ArialMT-49"/>
       <use transform="translate(55.615234 0.99375)" xlink:href="#ArialMT-48"/>
       <use transform="translate(112.972813 70.6875)scale(0.7)" xlink:href="#ArialMT-8722"/>
       <use transform="translate(153.851719 70.6875)scale(0.7)" xlink:href="#ArialMT-49"/>
      </g>
     </g>
    </g>
    <g id="xtick_33">
     <g id="line2d_67">
      <g>
       <use style="fill:#262626;stroke:#262626;stroke-width:1.5;" x="482.344451" xlink:href="#m60a8dd5a66" y="73.8"/>
      </g>
     </g>
    </g>
    <g id="xtick_34">
     <g id="line2d_68">
      <g>
       <use style="fill:#262626;stroke:#262626;stroke-width:1.5;" x="496.175619" xlink:href="#m60a8dd5a66" y="73.8"/>
      </g>
     </g>
    </g>
    <g id="xtick_35">
     <g id="line2d_69">
      <g>
       <use style="fill:#262626;stroke:#262626;stroke-width:1.5;" x="505.988989" xlink:href="#m60a8dd5a66" y="73.8"/>
      </g>
     </g>
    </g>
    <g id="xtick_36">
     <g id="line2d_70">
      <g>
       <use style="fill:#262626;stroke:#262626;stroke-width:1.5;" x="513.60083" xlink:href="#m60a8dd5a66" y="73.8"/>
      </g>
     </g>
    </g>
    <g id="xtick_37">
     <g id="line2d_71">
      <g>
       <use style="fill:#262626;stroke:#262626;stroke-width:1.5;" x="519.820157" xlink:href="#m60a8dd5a66" y="73.8"/>
      </g>
     </g>
    </g>
    <g id="xtick_38">
     <g id="line2d_72">
      <g>
       <use style="fill:#262626;stroke:#262626;stroke-width:1.5;" x="525.078523" xlink:href="#m60a8dd5a66" y="73.8"/>
      </g>
     </g>
    </g>
    <g id="xtick_39">
     <g id="line2d_73">
      <g>
       <use style="fill:#262626;stroke:#262626;stroke-width:1.5;" x="529.633527" xlink:href="#m60a8dd5a66" y="73.8"/>
      </g>
     </g>
    </g>
    <g id="xtick_40">
     <g id="line2d_74">
      <g>
       <use style="fill:#262626;stroke:#262626;stroke-width:1.5;" x="533.651325" xlink:href="#m60a8dd5a66" y="73.8"/>
      </g>
     </g>
    </g>
    <g id="text_13">
     <!-- $\hat{f}_p$ -->
     <defs>
      <path d="M -28.609375 79.984375 
L -21.390625 79.984375 
L -9.421875 61.625 
L -16.21875 61.625 
L -25 73.578125 
L -33.796875 61.625 
L -40.578125 61.625 
z
M -25 56 
z
" id="DejaVuSans-770"/>
      <path d="M 47.796875 75.984375 
L 46.390625 68.5 
L 37.796875 68.5 
Q 32.90625 68.5 30.6875 66.578125 
Q 28.46875 64.65625 27.390625 59.515625 
L 26.421875 54.6875 
L 41.21875 54.6875 
L 39.890625 47.703125 
L 25.09375 47.703125 
L 15.828125 0 
L 6.78125 0 
L 16.109375 47.703125 
L 7.515625 47.703125 
L 8.796875 54.6875 
L 17.390625 54.6875 
L 18.109375 58.5 
Q 19.96875 68.171875 24.625 72.078125 
Q 29.296875 75.984375 39.3125 75.984375 
z
" id="DejaVuSans-Oblique-102"/>
      <path d="M 49.609375 33.6875 
Q 49.609375 40.875 46.484375 44.671875 
Q 43.359375 48.484375 37.5 48.484375 
Q 33.5 48.484375 29.859375 46.4375 
Q 26.21875 44.390625 23.390625 40.484375 
Q 20.609375 36.625 18.9375 31.15625 
Q 17.28125 25.6875 17.28125 20.3125 
Q 17.28125 13.484375 20.40625 9.796875 
Q 23.53125 6.109375 29.296875 6.109375 
Q 33.546875 6.109375 37.1875 8.109375 
Q 40.828125 10.109375 43.40625 13.921875 
Q 46.1875 17.921875 47.890625 23.34375 
Q 49.609375 28.765625 49.609375 33.6875 
z
M 21.78125 46.390625 
Q 25.390625 51.125 30.296875 53.5625 
Q 35.203125 56 41.21875 56 
Q 49.609375 56 54.25 50.5 
Q 58.890625 45.015625 58.890625 35.109375 
Q 58.890625 27 56 19.65625 
Q 53.125 12.3125 47.703125 6.5 
Q 44.09375 2.640625 39.546875 0.609375 
Q 35.015625 -1.421875 29.984375 -1.421875 
Q 24.171875 -1.421875 20.21875 1 
Q 16.265625 3.421875 14.3125 8.203125 
L 8.6875 -20.796875 
L -0.296875 -20.796875 
L 14.40625 54.6875 
L 23.390625 54.6875 
z
" id="DejaVuSans-Oblique-112"/>
     </defs>
     <g style="fill:#262626;" transform="translate(490.412641 105.09)scale(0.18 -0.18)">
      <use transform="translate(47.379395 33.015625)" xlink:href="#DejaVuSans-770"/>
      <use transform="translate(0 0.53125)" xlink:href="#DejaVuSans-Oblique-102"/>
      <use transform="translate(36.162109 -15.875)scale(0.7)" xlink:href="#DejaVuSans-Oblique-112"/>
     </g>
    </g>
   </g>
   <g id="matplotlib.axis_4">
    <g id="ytick_24">
     <g id="line2d_75">
      <g>
       <use style="fill:#262626;stroke:#262626;stroke-width:1.875;" x="454.772641" xlink:href="#m9dc7be175d" y="51.760154"/>
      </g>
     </g>
     <g id="text_14">
      <!-- 5 -->
      <defs>
       <path d="M 4.15625 18.75 
L 13.375 19.53125 
Q 14.40625 12.796875 18.140625 9.390625 
Q 21.875 6 27.15625 6 
Q 33.5 6 37.890625 10.78125 
Q 42.28125 15.578125 42.28125 23.484375 
Q 42.28125 31 38.0625 35.34375 
Q 33.84375 39.703125 27 39.703125 
Q 22.75 39.703125 19.328125 37.765625 
Q 15.921875 35.84375 13.96875 32.765625 
L 5.71875 33.84375 
L 12.640625 70.609375 
L 48.25 70.609375 
L 48.25 62.203125 
L 19.671875 62.203125 
L 15.828125 42.96875 
Q 22.265625 47.46875 29.34375 47.46875 
Q 38.71875 47.46875 45.15625 40.96875 
Q 51.609375 34.46875 51.609375 24.265625 
Q 51.609375 14.546875 45.953125 7.46875 
Q 39.0625 -1.21875 27.15625 -1.21875 
Q 17.390625 -1.21875 11.203125 4.25 
Q 5.03125 9.71875 4.15625 18.75 
z
" id="ArialMT-53"/>
      </defs>
      <g style="fill:#262626;" transform="translate(433.931234 57.128513)scale(0.15 -0.15)">
       <use xlink:href="#ArialMT-53"/>
      </g>
     </g>
    </g>
    <g id="ytick_25">
     <g id="line2d_76">
      <g>
       <use style="fill:#262626;stroke:#262626;stroke-width:1.875;" x="454.772641" xlink:href="#m9dc7be175d" y="26.563444"/>
      </g>
     </g>
     <g id="text_15">
      <!-- 10 -->
      <g style="fill:#262626;" transform="translate(425.589828 31.931803)scale(0.15 -0.15)">
       <use xlink:href="#ArialMT-49"/>
       <use x="55.615234" xlink:href="#ArialMT-48"/>
      </g>
     </g>
    </g>
    <g id="text_16">
     <!-- $\theta_{max}$ -->
     <g style="fill:#262626;" transform="translate(424.012328 64.53)rotate(-90)scale(0.18 -0.18)">
      <use transform="translate(0 0.234375)" xlink:href="#DejaVuSans-Oblique-952"/>
      <use transform="translate(61.181641 -16.171875)scale(0.7)" xlink:href="#DejaVuSans-Oblique-109"/>
      <use transform="translate(129.370117 -16.171875)scale(0.7)" xlink:href="#DejaVuSans-Oblique-97"/>
      <use transform="translate(172.265625 -16.171875)scale(0.7)" xlink:href="#DejaVuSans-Oblique-120"/>
     </g>
    </g>
   </g>
   <g id="line2d_77">
    <path clip-path="url(#pa4f07d2179)" d="M 458.699913 71.181818 
L 460.713899 70.830538 
L 462.727885 70.457884 
L 464.741871 70.062554 
L 466.755857 69.643166 
L 468.769843 69.198255 
L 470.783829 68.726265 
L 472.797815 68.225545 
L 474.811801 67.694344 
L 476.825787 67.130801 
L 478.839773 66.532944 
L 480.85376 65.898677 
L 482.867746 65.225777 
L 484.881732 64.511882 
L 486.895718 63.754486 
L 488.909704 62.950926 
L 490.92369 62.098377 
L 492.937676 61.193836 
L 494.951662 60.234112 
L 496.965648 59.215816 
L 498.979634 58.135348 
L 500.99362 56.988879 
L 503.007606 55.772338 
L 505.021592 54.481397 
L 507.035578 53.111449 
L 509.049564 51.657595 
L 511.06355 50.114616 
L 513.077536 48.476954 
L 515.091522 46.738685 
L 517.105508 44.893493 
L 519.119494 42.93464 
L 521.13348 40.85493 
L 523.147466 38.646673 
L 525.161452 36.301643 
L 527.175438 33.811035 
L 529.189424 31.165407 
L 531.20341 28.354626 
L 533.217396 25.367801 
L 535.231382 22.193203 
L 537.245368 18.818182 
" style="fill:none;stroke:#7f7f7f;stroke-linecap:round;stroke-width:2.25;"/>
   </g>
   <g id="patch_6">
    <path d="M 454.772641 73.8 
L 454.772641 16.2 
" style="fill:none;stroke:#262626;stroke-linecap:square;stroke-linejoin:miter;stroke-width:1.875;"/>
   </g>
   <g id="patch_7">
    <path d="M 541.172641 73.8 
L 541.172641 16.2 
" style="fill:none;stroke:#262626;stroke-linecap:square;stroke-linejoin:miter;stroke-width:1.875;"/>
   </g>
   <g id="patch_8">
    <path d="M 454.772641 73.8 
L 541.172641 73.8 
" style="fill:none;stroke:#262626;stroke-linecap:square;stroke-linejoin:miter;stroke-width:1.875;"/>
   </g>
   <g id="patch_9">
    <path d="M 454.772641 16.2 
L 541.172641 16.2 
" style="fill:none;stroke:#262626;stroke-linecap:square;stroke-linejoin:miter;stroke-width:1.875;"/>
   </g>
  </g>
  <g id="legend_1">
   <g id="text_17">
    <!-- $\hat{f}_{p}$ -->
    <g style="fill:#262626;" transform="translate(476.41568 153.361195)scale(0.18 -0.18)">
     <use transform="translate(47.379395 33.015625)" xlink:href="#DejaVuSans-770"/>
     <use transform="translate(0 0.53125)" xlink:href="#DejaVuSans-Oblique-102"/>
     <use transform="translate(36.162109 -15.875)scale(0.7)" xlink:href="#DejaVuSans-Oblique-112"/>
    </g>
   </g>
   <g id="line2d_78">
    <path d="M 463.21568 174.300258 
L 496.21568 174.300258 
" style="fill:none;stroke:#1f77b4;stroke-linecap:round;stroke-width:2.25;"/>
   </g>
   <g id="line2d_79"/>
   <g id="text_18">
    <!-- 0.01 -->
    <g style="fill:#262626;" transform="translate(509.41568 180.075258)scale(0.18 -0.18)">
     <use xlink:href="#ArialMT-48"/>
     <use x="55.615234" xlink:href="#ArialMT-46"/>
     <use x="83.398438" xlink:href="#ArialMT-48"/>
     <use x="139.013672" xlink:href="#ArialMT-49"/>
    </g>
   </g>
   <g id="line2d_80">
    <path d="M 463.21568 199.01182 
L 496.21568 199.01182 
" style="fill:none;stroke:#ff7f0e;stroke-linecap:round;stroke-width:2.25;"/>
   </g>
   <g id="line2d_81"/>
   <g id="text_19">
    <!-- 0.1 -->
    <g style="fill:#262626;" transform="translate(509.41568 204.78682)scale(0.18 -0.18)">
     <use xlink:href="#ArialMT-48"/>
     <use x="55.615234" xlink:href="#ArialMT-46"/>
     <use x="83.398438" xlink:href="#ArialMT-49"/>
    </g>
   </g>
   <g id="line2d_82">
    <path d="M 463.21568 223.723383 
L 496.21568 223.723383 
" style="fill:none;stroke:#2ca02c;stroke-linecap:round;stroke-width:2.25;"/>
   </g>
   <g id="line2d_83"/>
   <g id="text_20">
    <!-- 1.0 -->
    <g style="fill:#262626;" transform="translate(509.41568 229.498383)scale(0.18 -0.18)">
     <use xlink:href="#ArialMT-49"/>
     <use x="55.615234" xlink:href="#ArialMT-46"/>
     <use x="83.398438" xlink:href="#ArialMT-48"/>
    </g>
   </g>
   <g id="text_21">
    <!-- $N_t$ -->
    <defs>
     <path d="M 16.890625 72.90625 
L 30.171875 72.90625 
L 50.296875 10.40625 
L 62.5 72.90625 
L 72.125 72.90625 
L 57.90625 0 
L 44.578125 0 
L 24.515625 62.890625 
L 12.3125 0 
L 2.6875 0 
z
" id="DejaVuSans-Oblique-78"/>
     <path d="M 42.28125 54.6875 
L 40.921875 47.703125 
L 23 47.703125 
L 17.1875 18.015625 
Q 16.890625 16.359375 16.75 15.234375 
Q 16.609375 14.109375 16.609375 13.484375 
Q 16.609375 10.359375 18.484375 8.9375 
Q 20.359375 7.515625 24.515625 7.515625 
L 33.59375 7.515625 
L 32.078125 0 
L 23.484375 0 
Q 15.484375 0 11.546875 3.125 
Q 7.625 6.25 7.625 12.59375 
Q 7.625 13.71875 7.765625 15.0625 
Q 7.90625 16.40625 8.203125 18.015625 
L 14.015625 47.703125 
L 6.390625 47.703125 
L 7.8125 54.6875 
L 15.28125 54.6875 
L 18.3125 70.21875 
L 27.296875 70.21875 
L 24.3125 54.6875 
z
" id="DejaVuSans-Oblique-116"/>
    </defs>
    <g style="fill:#262626;" transform="translate(476.41568 254.209945)scale(0.18 -0.18)">
     <use transform="translate(0 0.09375)" xlink:href="#DejaVuSans-Oblique-78"/>
     <use transform="translate(74.804688 -16.3125)scale(0.7)" xlink:href="#DejaVuSans-Oblique-116"/>
    </g>
   </g>
   <g id="line2d_84">
    <path d="M 463.21568 273.146508 
L 496.21568 273.146508 
" style="fill:none;stroke:#333333;stroke-linecap:round;stroke-width:2.25;"/>
   </g>
   <g id="line2d_85"/>
   <g id="text_22">
    <!-- 10 -->
    <g style="fill:#262626;" transform="translate(509.41568 278.921508)scale(0.18 -0.18)">
     <use xlink:href="#ArialMT-49"/>
     <use x="55.615234" xlink:href="#ArialMT-48"/>
    </g>
   </g>
   <g id="line2d_86">
    <path d="M 463.21568 297.85807 
L 496.21568 297.85807 
" style="fill:none;stroke:#333333;stroke-dasharray:9,3.375;stroke-dashoffset:0;stroke-width:2.25;"/>
   </g>
   <g id="line2d_87"/>
   <g id="text_23">
    <!-- 100 -->
    <g style="fill:#262626;" transform="translate(509.41568 303.63307)scale(0.18 -0.18)">
     <use xlink:href="#ArialMT-49"/>
     <use x="55.615234" xlink:href="#ArialMT-48"/>
     <use x="111.230469" xlink:href="#ArialMT-48"/>
    </g>
   </g>
  </g>
 </g>
 <defs>
  <clipPath id="pa251514998">
   <rect height="341.544" width="355.674028" x="68.326641" y="42.078"/>
  </clipPath>
  <clipPath id="pa4f07d2179">
   <rect height="57.6" width="86.4" x="454.772641" y="16.2"/>
  </clipPath>
 </defs>
</svg>
