<?xml version="1.0" encoding="utf-8" standalone="no"?>
<!DOCTYPE svg PUBLIC "-//W3C//DTD SVG 1.1//EN"
  "http://www.w3.org/Graphics/SVG/1.1/DTD/svg11.dtd">
<!-- Created with matplotlib (https://matplotlib.org/) -->
<svg height="403.366406pt" version="1.1" viewBox="0 0 559.110547 403.366406" width="559.110547pt" xmlns="http://www.w3.org/2000/svg" xmlns:xlink="http://www.w3.org/1999/xlink">
 <defs>
  <style type="text/css">
*{stroke-linecap:butt;stroke-linejoin:round;}
  </style>
 </defs>
 <g id="figure_1">
  <g id="patch_1">
   <path d="M 0 403.366406 
L 559.110547 403.366406 
L 559.110547 0 
L 0 0 
z
" style="fill:none;"/>
  </g>
  <g id="axes_1">
   <g id="patch_2">
    <path d="M 78.850547 341.536641 
L 409.077119 341.536641 
L 409.077119 22.010391 
L 78.850547 22.010391 
z
" style="fill:none;"/>
   </g>
   <g id="line2d_1">
    <path clip-path="url(#p94d226af22)" d="M 78.850547 327.01272 
L 409.077119 327.01272 
" style="fill:none;stroke:#d62728;stroke-dasharray:4.5,2.25;stroke-dashoffset:0;stroke-width:2.25;"/>
   </g>
   <g id="line2d_2">
    <path clip-path="url(#p94d226af22)" d="M 78.850547 327.01272 
L 409.077119 327.01272 
" style="fill:none;stroke:#cccccc;stroke-dasharray:2.25,2.25;stroke-dashoffset:0;stroke-width:2.25;"/>
   </g>
   <g id="matplotlib.axis_1">
    <g id="xtick_1">
     <g id="line2d_3">
      <defs>
       <path d="M 0 0 
L 0 9 
" id="me64272eccb" style="stroke:#262626;stroke-width:1.875;"/>
      </defs>
      <g>
       <use style="fill:#262626;stroke:#262626;stroke-width:1.875;" x="93.860846" xlink:href="#me64272eccb" y="341.536641"/>
      </g>
     </g>
     <g id="text_1">
      <!-- −1 -->
      <defs>
       <path d="M 52.828125 31.203125 
L 5.5625 31.203125 
L 5.5625 39.40625 
L 52.828125 39.40625 
z
" id="ArialMT-8722"/>
       <path d="M 37.25 0 
L 28.46875 0 
L 28.46875 56 
Q 25.296875 52.984375 20.140625 49.953125 
Q 14.984375 46.921875 10.890625 45.40625 
L 10.890625 53.90625 
Q 18.265625 57.375 23.78125 62.296875 
Q 29.296875 67.234375 31.59375 71.875 
L 37.25 71.875 
z
" id="ArialMT-49"/>
      </defs>
      <g style="fill:#262626;" transform="translate(84.454557 365.847031)scale(0.165 -0.165)">
       <use xlink:href="#ArialMT-8722"/>
       <use x="58.398438" xlink:href="#ArialMT-49"/>
      </g>
     </g>
    </g>
    <g id="xtick_2">
     <g id="line2d_4">
      <g>
       <use style="fill:#262626;stroke:#262626;stroke-width:1.875;" x="168.912339" xlink:href="#me64272eccb" y="341.536641"/>
      </g>
     </g>
     <g id="text_2">
      <!-- 0 -->
      <defs>
       <path d="M 4.15625 35.296875 
Q 4.15625 48 6.765625 55.734375 
Q 9.375 63.484375 14.515625 67.671875 
Q 19.671875 71.875 27.484375 71.875 
Q 33.25 71.875 37.59375 69.546875 
Q 41.9375 67.234375 44.765625 62.859375 
Q 47.609375 58.5 49.21875 52.21875 
Q 50.828125 45.953125 50.828125 35.296875 
Q 50.828125 22.703125 48.234375 14.96875 
Q 45.65625 7.234375 40.5 3 
Q 35.359375 -1.21875 27.484375 -1.21875 
Q 17.140625 -1.21875 11.234375 6.203125 
Q 4.15625 15.140625 4.15625 35.296875 
z
M 13.1875 35.296875 
Q 13.1875 17.671875 17.3125 11.828125 
Q 21.4375 6 27.484375 6 
Q 33.546875 6 37.671875 11.859375 
Q 41.796875 17.71875 41.796875 35.296875 
Q 41.796875 52.984375 37.671875 58.78125 
Q 33.546875 64.59375 27.390625 64.59375 
Q 21.34375 64.59375 17.71875 59.46875 
Q 13.1875 52.9375 13.1875 35.296875 
z
" id="ArialMT-48"/>
      </defs>
      <g style="fill:#262626;" transform="translate(164.324566 365.847031)scale(0.165 -0.165)">
       <use xlink:href="#ArialMT-48"/>
      </g>
     </g>
    </g>
    <g id="xtick_3">
     <g id="line2d_5">
      <g>
       <use style="fill:#262626;stroke:#262626;stroke-width:1.875;" x="243.963833" xlink:href="#me64272eccb" y="341.536641"/>
      </g>
     </g>
     <g id="text_3">
      <!-- 1 -->
      <g style="fill:#262626;" transform="translate(239.37606 365.847031)scale(0.165 -0.165)">
       <use xlink:href="#ArialMT-49"/>
      </g>
     </g>
    </g>
    <g id="xtick_4">
     <g id="line2d_6">
      <g>
       <use style="fill:#262626;stroke:#262626;stroke-width:1.875;" x="319.015327" xlink:href="#me64272eccb" y="341.536641"/>
      </g>
     </g>
     <g id="text_4">
      <!-- 2 -->
      <defs>
       <path d="M 50.34375 8.453125 
L 50.34375 0 
L 3.03125 0 
Q 2.9375 3.171875 4.046875 6.109375 
Q 5.859375 10.9375 9.828125 15.625 
Q 13.8125 20.3125 21.34375 26.46875 
Q 33.015625 36.03125 37.109375 41.625 
Q 41.21875 47.21875 41.21875 52.203125 
Q 41.21875 57.421875 37.46875 61 
Q 33.734375 64.59375 27.734375 64.59375 
Q 21.390625 64.59375 17.578125 60.78125 
Q 13.765625 56.984375 13.71875 50.25 
L 4.6875 51.171875 
Q 5.609375 61.28125 11.65625 66.578125 
Q 17.71875 71.875 27.9375 71.875 
Q 38.234375 71.875 44.234375 66.15625 
Q 50.25 60.453125 50.25 52 
Q 50.25 47.703125 48.484375 43.546875 
Q 46.734375 39.40625 42.65625 34.8125 
Q 38.578125 30.21875 29.109375 22.21875 
Q 21.1875 15.578125 18.9375 13.203125 
Q 16.703125 10.84375 15.234375 8.453125 
z
" id="ArialMT-50"/>
      </defs>
      <g style="fill:#262626;" transform="translate(314.427553 365.847031)scale(0.165 -0.165)">
       <use xlink:href="#ArialMT-50"/>
      </g>
     </g>
    </g>
    <g id="xtick_5">
     <g id="line2d_7">
      <g>
       <use style="fill:#262626;stroke:#262626;stroke-width:1.875;" x="394.066821" xlink:href="#me64272eccb" y="341.536641"/>
      </g>
     </g>
     <g id="text_5">
      <!-- 3 -->
      <defs>
       <path d="M 4.203125 18.890625 
L 12.984375 20.0625 
Q 14.5 12.59375 18.140625 9.296875 
Q 21.78125 6 27 6 
Q 33.203125 6 37.46875 10.296875 
Q 41.75 14.59375 41.75 20.953125 
Q 41.75 27 37.796875 30.921875 
Q 33.84375 34.859375 27.734375 34.859375 
Q 25.25 34.859375 21.53125 33.890625 
L 22.515625 41.609375 
Q 23.390625 41.5 23.921875 41.5 
Q 29.546875 41.5 34.03125 44.421875 
Q 38.53125 47.359375 38.53125 53.46875 
Q 38.53125 58.296875 35.25 61.46875 
Q 31.984375 64.65625 26.8125 64.65625 
Q 21.6875 64.65625 18.265625 61.421875 
Q 14.84375 58.203125 13.875 51.765625 
L 5.078125 53.328125 
Q 6.6875 62.15625 12.390625 67.015625 
Q 18.109375 71.875 26.609375 71.875 
Q 32.46875 71.875 37.390625 69.359375 
Q 42.328125 66.84375 44.9375 62.5 
Q 47.5625 58.15625 47.5625 53.265625 
Q 47.5625 48.640625 45.0625 44.828125 
Q 42.578125 41.015625 37.703125 38.765625 
Q 44.046875 37.3125 47.5625 32.6875 
Q 51.078125 28.078125 51.078125 21.140625 
Q 51.078125 11.765625 44.234375 5.25 
Q 37.40625 -1.265625 26.953125 -1.265625 
Q 17.53125 -1.265625 11.296875 4.34375 
Q 5.078125 9.96875 4.203125 18.890625 
z
" id="ArialMT-51"/>
      </defs>
      <g style="fill:#262626;" transform="translate(389.479047 365.847031)scale(0.165 -0.165)">
       <use xlink:href="#ArialMT-51"/>
      </g>
     </g>
    </g>
    <g id="text_6">
     <!-- Distance, $\hat{d}$ -->
     <defs>
      <path d="M 7.71875 0 
L 7.71875 71.578125 
L 32.375 71.578125 
Q 40.71875 71.578125 45.125 70.5625 
Q 51.265625 69.140625 55.609375 65.4375 
Q 61.28125 60.640625 64.078125 53.1875 
Q 66.890625 45.75 66.890625 36.1875 
Q 66.890625 28.03125 64.984375 21.734375 
Q 63.09375 15.4375 60.109375 11.296875 
Q 57.125 7.171875 53.578125 4.796875 
Q 50.046875 2.4375 45.046875 1.21875 
Q 40.046875 0 33.546875 0 
z
M 17.1875 8.453125 
L 32.46875 8.453125 
Q 39.546875 8.453125 43.578125 9.765625 
Q 47.609375 11.078125 50 13.484375 
Q 53.375 16.84375 55.25 22.53125 
Q 57.125 28.21875 57.125 36.328125 
Q 57.125 47.5625 53.4375 53.59375 
Q 49.75 59.625 44.484375 61.671875 
Q 40.671875 63.140625 32.234375 63.140625 
L 17.1875 63.140625 
z
" id="ArialMT-68"/>
      <path d="M 6.640625 61.46875 
L 6.640625 71.578125 
L 15.4375 71.578125 
L 15.4375 61.46875 
z
M 6.640625 0 
L 6.640625 51.859375 
L 15.4375 51.859375 
L 15.4375 0 
z
" id="ArialMT-105"/>
      <path d="M 3.078125 15.484375 
L 11.765625 16.84375 
Q 12.5 11.625 15.84375 8.84375 
Q 19.1875 6.0625 25.203125 6.0625 
Q 31.25 6.0625 34.171875 8.515625 
Q 37.109375 10.984375 37.109375 14.3125 
Q 37.109375 17.28125 34.515625 19 
Q 32.71875 20.171875 25.53125 21.96875 
Q 15.875 24.421875 12.140625 26.203125 
Q 8.40625 27.984375 6.46875 31.125 
Q 4.546875 34.28125 4.546875 38.09375 
Q 4.546875 41.546875 6.125 44.5 
Q 7.71875 47.46875 10.453125 49.421875 
Q 12.5 50.921875 16.03125 51.96875 
Q 19.578125 53.03125 23.640625 53.03125 
Q 29.734375 53.03125 34.34375 51.265625 
Q 38.96875 49.515625 41.15625 46.5 
Q 43.359375 43.5 44.1875 38.484375 
L 35.59375 37.3125 
Q 35.015625 41.3125 32.203125 43.546875 
Q 29.390625 45.796875 24.265625 45.796875 
Q 18.21875 45.796875 15.625 43.796875 
Q 13.03125 41.796875 13.03125 39.109375 
Q 13.03125 37.40625 14.109375 36.03125 
Q 15.1875 34.625 17.484375 33.6875 
Q 18.796875 33.203125 25.25 31.453125 
Q 34.578125 28.953125 38.25 27.359375 
Q 41.9375 25.78125 44.03125 22.75 
Q 46.140625 19.734375 46.140625 15.234375 
Q 46.140625 10.84375 43.578125 6.953125 
Q 41.015625 3.078125 36.171875 0.953125 
Q 31.34375 -1.171875 25.25 -1.171875 
Q 15.140625 -1.171875 9.84375 3.03125 
Q 4.546875 7.234375 3.078125 15.484375 
z
" id="ArialMT-115"/>
      <path d="M 25.78125 7.859375 
L 27.046875 0.09375 
Q 23.34375 -0.6875 20.40625 -0.6875 
Q 15.625 -0.6875 12.984375 0.828125 
Q 10.359375 2.34375 9.28125 4.8125 
Q 8.203125 7.28125 8.203125 15.1875 
L 8.203125 45.015625 
L 1.765625 45.015625 
L 1.765625 51.859375 
L 8.203125 51.859375 
L 8.203125 64.703125 
L 16.9375 69.96875 
L 16.9375 51.859375 
L 25.78125 51.859375 
L 25.78125 45.015625 
L 16.9375 45.015625 
L 16.9375 14.703125 
Q 16.9375 10.9375 17.40625 9.859375 
Q 17.875 8.796875 18.921875 8.15625 
Q 19.96875 7.515625 21.921875 7.515625 
Q 23.390625 7.515625 25.78125 7.859375 
z
" id="ArialMT-116"/>
      <path d="M 40.4375 6.390625 
Q 35.546875 2.25 31.03125 0.53125 
Q 26.515625 -1.171875 21.34375 -1.171875 
Q 12.796875 -1.171875 8.203125 3 
Q 3.609375 7.171875 3.609375 13.671875 
Q 3.609375 17.484375 5.34375 20.625 
Q 7.078125 23.78125 9.890625 25.6875 
Q 12.703125 27.59375 16.21875 28.5625 
Q 18.796875 29.25 24.03125 29.890625 
Q 34.671875 31.15625 39.703125 32.90625 
Q 39.75 34.71875 39.75 35.203125 
Q 39.75 40.578125 37.25 42.78125 
Q 33.890625 45.75 27.25 45.75 
Q 21.046875 45.75 18.09375 43.578125 
Q 15.140625 41.40625 13.71875 35.890625 
L 5.125 37.0625 
Q 6.296875 42.578125 8.984375 45.96875 
Q 11.671875 49.359375 16.75 51.1875 
Q 21.828125 53.03125 28.515625 53.03125 
Q 35.15625 53.03125 39.296875 51.46875 
Q 43.453125 49.90625 45.40625 47.53125 
Q 47.359375 45.171875 48.140625 41.546875 
Q 48.578125 39.3125 48.578125 33.453125 
L 48.578125 21.734375 
Q 48.578125 9.46875 49.140625 6.21875 
Q 49.703125 2.984375 51.375 0 
L 42.1875 0 
Q 40.828125 2.734375 40.4375 6.390625 
z
M 39.703125 26.03125 
Q 34.90625 24.078125 25.34375 22.703125 
Q 19.921875 21.921875 17.671875 20.9375 
Q 15.4375 19.96875 14.203125 18.09375 
Q 12.984375 16.21875 12.984375 13.921875 
Q 12.984375 10.40625 15.640625 8.0625 
Q 18.3125 5.71875 23.4375 5.71875 
Q 28.515625 5.71875 32.46875 7.9375 
Q 36.421875 10.15625 38.28125 14.015625 
Q 39.703125 17 39.703125 22.796875 
z
" id="ArialMT-97"/>
      <path d="M 6.59375 0 
L 6.59375 51.859375 
L 14.5 51.859375 
L 14.5 44.484375 
Q 20.21875 53.03125 31 53.03125 
Q 35.6875 53.03125 39.625 51.34375 
Q 43.5625 49.65625 45.515625 46.921875 
Q 47.46875 44.1875 48.25 40.4375 
Q 48.734375 37.984375 48.734375 31.890625 
L 48.734375 0 
L 39.9375 0 
L 39.9375 31.546875 
Q 39.9375 36.921875 38.90625 39.578125 
Q 37.890625 42.234375 35.28125 43.8125 
Q 32.671875 45.40625 29.15625 45.40625 
Q 23.53125 45.40625 19.453125 41.84375 
Q 15.375 38.28125 15.375 28.328125 
L 15.375 0 
z
" id="ArialMT-110"/>
      <path d="M 40.4375 19 
L 49.078125 17.875 
Q 47.65625 8.9375 41.8125 3.875 
Q 35.984375 -1.171875 27.484375 -1.171875 
Q 16.84375 -1.171875 10.375 5.78125 
Q 3.90625 12.75 3.90625 25.734375 
Q 3.90625 34.125 6.6875 40.421875 
Q 9.46875 46.734375 15.15625 49.875 
Q 20.84375 53.03125 27.546875 53.03125 
Q 35.984375 53.03125 41.359375 48.75 
Q 46.734375 44.484375 48.25 36.625 
L 39.703125 35.296875 
Q 38.484375 40.53125 35.375 43.15625 
Q 32.28125 45.796875 27.875 45.796875 
Q 21.234375 45.796875 17.078125 41.03125 
Q 12.9375 36.28125 12.9375 25.984375 
Q 12.9375 15.53125 16.9375 10.796875 
Q 20.953125 6.0625 27.390625 6.0625 
Q 32.5625 6.0625 36.03125 9.234375 
Q 39.5 12.40625 40.4375 19 
z
" id="ArialMT-99"/>
      <path d="M 42.09375 16.703125 
L 51.171875 15.578125 
Q 49.03125 7.625 43.21875 3.21875 
Q 37.40625 -1.171875 28.375 -1.171875 
Q 17 -1.171875 10.328125 5.828125 
Q 3.65625 12.84375 3.65625 25.484375 
Q 3.65625 38.578125 10.390625 45.796875 
Q 17.140625 53.03125 27.875 53.03125 
Q 38.28125 53.03125 44.875 45.953125 
Q 51.46875 38.875 51.46875 26.03125 
Q 51.46875 25.25 51.421875 23.6875 
L 12.75 23.6875 
Q 13.234375 15.140625 17.578125 10.59375 
Q 21.921875 6.0625 28.421875 6.0625 
Q 33.25 6.0625 36.671875 8.59375 
Q 40.09375 11.140625 42.09375 16.703125 
z
M 13.234375 30.90625 
L 42.1875 30.90625 
Q 41.609375 37.453125 38.875 40.71875 
Q 34.671875 45.796875 27.984375 45.796875 
Q 21.921875 45.796875 17.796875 41.75 
Q 13.671875 37.703125 13.234375 30.90625 
z
" id="ArialMT-101"/>
      <path d="M 8.890625 0 
L 8.890625 10.015625 
L 18.890625 10.015625 
L 18.890625 0 
Q 18.890625 -5.515625 16.9375 -8.90625 
Q 14.984375 -12.3125 10.75 -14.15625 
L 8.296875 -10.40625 
Q 11.078125 -9.1875 12.390625 -6.8125 
Q 13.71875 -4.4375 13.875 0 
z
" id="ArialMT-44"/>
      <path id="ArialMT-32"/>
      <path d="M -28.609375 79.984375 
L -21.390625 79.984375 
L -9.421875 61.625 
L -16.21875 61.625 
L -25 73.578125 
L -33.796875 61.625 
L -40.578125 61.625 
z
M -25 56 
z
" id="DejaVuSans-770"/>
      <path d="M 41.796875 8.203125 
Q 38.1875 3.46875 33.25 1.015625 
Q 28.328125 -1.421875 22.3125 -1.421875 
Q 14.109375 -1.421875 9.34375 4.171875 
Q 4.59375 9.765625 4.59375 19.484375 
Q 4.59375 27.59375 7.46875 34.9375 
Q 10.359375 42.28125 15.828125 48.09375 
Q 19.4375 51.953125 23.96875 53.96875 
Q 28.515625 56 33.5 56 
Q 38.765625 56 42.796875 53.453125 
Q 46.828125 50.921875 49.03125 46.1875 
L 54.890625 75.984375 
L 63.921875 75.984375 
L 49.125 0 
L 40.09375 0 
z
M 13.921875 21.09375 
Q 13.921875 14.015625 17.109375 10.0625 
Q 20.3125 6.109375 25.984375 6.109375 
Q 30.171875 6.109375 33.765625 8.125 
Q 37.359375 10.15625 40.09375 14.109375 
Q 42.96875 18.21875 44.625 23.578125 
Q 46.296875 28.953125 46.296875 34.1875 
Q 46.296875 40.96875 43.09375 44.765625 
Q 39.890625 48.578125 34.28125 48.578125 
Q 30.03125 48.578125 26.359375 46.578125 
Q 22.703125 44.578125 20.125 40.828125 
Q 17.28125 36.765625 15.59375 31.390625 
Q 13.921875 26.03125 13.921875 21.09375 
z
" id="DejaVuSans-Oblique-100"/>
     </defs>
     <g style="fill:#262626;" transform="translate(198.153833 392.588906)scale(0.18 -0.18)">
      <use transform="translate(0 0.53125)" xlink:href="#ArialMT-68"/>
      <use transform="translate(72.216797 0.53125)" xlink:href="#ArialMT-105"/>
      <use transform="translate(94.433594 0.53125)" xlink:href="#ArialMT-115"/>
      <use transform="translate(144.433594 0.53125)" xlink:href="#ArialMT-116"/>
      <use transform="translate(172.216797 0.53125)" xlink:href="#ArialMT-97"/>
      <use transform="translate(227.832031 0.53125)" xlink:href="#ArialMT-110"/>
      <use transform="translate(283.447266 0.53125)" xlink:href="#ArialMT-99"/>
      <use transform="translate(333.447266 0.53125)" xlink:href="#ArialMT-101"/>
      <use transform="translate(389.0625 0.53125)" xlink:href="#ArialMT-44"/>
      <use transform="translate(416.845703 0.53125)" xlink:href="#ArialMT-32"/>
      <use transform="translate(509.076172 33.015625)" xlink:href="#DejaVuSans-770"/>
      <use transform="translate(444.628906 0.53125)" xlink:href="#DejaVuSans-Oblique-100"/>
     </g>
    </g>
   </g>
   <g id="matplotlib.axis_2">
    <g id="ytick_1">
     <g id="line2d_8">
      <defs>
       <path d="M 0 0 
L -9 0 
" id="mb8c386b4ad" style="stroke:#262626;stroke-width:1.875;"/>
      </defs>
      <g>
       <use style="fill:#262626;stroke:#262626;stroke-width:1.875;" x="78.850547" xlink:href="#mb8c386b4ad" y="327.01272"/>
      </g>
     </g>
     <g id="text_7">
      <!-- 0.00 -->
      <defs>
       <path d="M 9.078125 0 
L 9.078125 10.015625 
L 19.09375 10.015625 
L 19.09375 0 
z
" id="ArialMT-46"/>
      </defs>
      <g style="fill:#262626;" transform="translate(34.24 332.917915)scale(0.165 -0.165)">
       <use xlink:href="#ArialMT-48"/>
       <use x="55.615234" xlink:href="#ArialMT-46"/>
       <use x="83.398438" xlink:href="#ArialMT-48"/>
       <use x="139.013672" xlink:href="#ArialMT-48"/>
      </g>
     </g>
    </g>
    <g id="ytick_2">
     <g id="line2d_9">
      <g>
       <use style="fill:#262626;stroke:#262626;stroke-width:1.875;" x="78.850547" xlink:href="#mb8c386b4ad" y="290.739483"/>
      </g>
     </g>
     <g id="text_8">
      <!-- 0.25 -->
      <defs>
       <path d="M 4.15625 18.75 
L 13.375 19.53125 
Q 14.40625 12.796875 18.140625 9.390625 
Q 21.875 6 27.15625 6 
Q 33.5 6 37.890625 10.78125 
Q 42.28125 15.578125 42.28125 23.484375 
Q 42.28125 31 38.0625 35.34375 
Q 33.84375 39.703125 27 39.703125 
Q 22.75 39.703125 19.328125 37.765625 
Q 15.921875 35.84375 13.96875 32.765625 
L 5.71875 33.84375 
L 12.640625 70.609375 
L 48.25 70.609375 
L 48.25 62.203125 
L 19.671875 62.203125 
L 15.828125 42.96875 
Q 22.265625 47.46875 29.34375 47.46875 
Q 38.71875 47.46875 45.15625 40.96875 
Q 51.609375 34.46875 51.609375 24.265625 
Q 51.609375 14.546875 45.953125 7.46875 
Q 39.0625 -1.21875 27.15625 -1.21875 
Q 17.390625 -1.21875 11.203125 4.25 
Q 5.03125 9.71875 4.15625 18.75 
z
" id="ArialMT-53"/>
      </defs>
      <g style="fill:#262626;" transform="translate(34.24 296.644679)scale(0.165 -0.165)">
       <use xlink:href="#ArialMT-48"/>
       <use x="55.615234" xlink:href="#ArialMT-46"/>
       <use x="83.398438" xlink:href="#ArialMT-50"/>
       <use x="139.013672" xlink:href="#ArialMT-53"/>
      </g>
     </g>
    </g>
    <g id="ytick_3">
     <g id="line2d_10">
      <g>
       <use style="fill:#262626;stroke:#262626;stroke-width:1.875;" x="78.850547" xlink:href="#mb8c386b4ad" y="254.466247"/>
      </g>
     </g>
     <g id="text_9">
      <!-- 0.50 -->
      <g style="fill:#262626;" transform="translate(34.24 260.371442)scale(0.165 -0.165)">
       <use xlink:href="#ArialMT-48"/>
       <use x="55.615234" xlink:href="#ArialMT-46"/>
       <use x="83.398438" xlink:href="#ArialMT-53"/>
       <use x="139.013672" xlink:href="#ArialMT-48"/>
      </g>
     </g>
    </g>
    <g id="ytick_4">
     <g id="line2d_11">
      <g>
       <use style="fill:#262626;stroke:#262626;stroke-width:1.875;" x="78.850547" xlink:href="#mb8c386b4ad" y="218.19301"/>
      </g>
     </g>
     <g id="text_10">
      <!-- 0.75 -->
      <defs>
       <path d="M 4.734375 62.203125 
L 4.734375 70.65625 
L 51.078125 70.65625 
L 51.078125 63.8125 
Q 44.234375 56.546875 37.515625 44.484375 
Q 30.8125 32.421875 27.15625 19.671875 
Q 24.515625 10.6875 23.78125 0 
L 14.75 0 
Q 14.890625 8.453125 18.0625 20.40625 
Q 21.234375 32.375 27.171875 43.484375 
Q 33.109375 54.59375 39.796875 62.203125 
z
" id="ArialMT-55"/>
      </defs>
      <g style="fill:#262626;" transform="translate(34.24 224.098205)scale(0.165 -0.165)">
       <use xlink:href="#ArialMT-48"/>
       <use x="55.615234" xlink:href="#ArialMT-46"/>
       <use x="83.398438" xlink:href="#ArialMT-55"/>
       <use x="139.013672" xlink:href="#ArialMT-53"/>
      </g>
     </g>
    </g>
    <g id="ytick_5">
     <g id="line2d_12">
      <g>
       <use style="fill:#262626;stroke:#262626;stroke-width:1.875;" x="78.850547" xlink:href="#mb8c386b4ad" y="181.919773"/>
      </g>
     </g>
     <g id="text_11">
      <!-- 1.00 -->
      <g style="fill:#262626;" transform="translate(34.24 187.824968)scale(0.165 -0.165)">
       <use xlink:href="#ArialMT-49"/>
       <use x="55.615234" xlink:href="#ArialMT-46"/>
       <use x="83.398438" xlink:href="#ArialMT-48"/>
       <use x="139.013672" xlink:href="#ArialMT-48"/>
      </g>
     </g>
    </g>
    <g id="ytick_6">
     <g id="line2d_13">
      <g>
       <use style="fill:#262626;stroke:#262626;stroke-width:1.875;" x="78.850547" xlink:href="#mb8c386b4ad" y="145.646536"/>
      </g>
     </g>
     <g id="text_12">
      <!-- 1.25 -->
      <g style="fill:#262626;" transform="translate(34.24 151.551732)scale(0.165 -0.165)">
       <use xlink:href="#ArialMT-49"/>
       <use x="55.615234" xlink:href="#ArialMT-46"/>
       <use x="83.398438" xlink:href="#ArialMT-50"/>
       <use x="139.013672" xlink:href="#ArialMT-53"/>
      </g>
     </g>
    </g>
    <g id="ytick_7">
     <g id="line2d_14">
      <g>
       <use style="fill:#262626;stroke:#262626;stroke-width:1.875;" x="78.850547" xlink:href="#mb8c386b4ad" y="109.3733"/>
      </g>
     </g>
     <g id="text_13">
      <!-- 1.50 -->
      <g style="fill:#262626;" transform="translate(34.24 115.278495)scale(0.165 -0.165)">
       <use xlink:href="#ArialMT-49"/>
       <use x="55.615234" xlink:href="#ArialMT-46"/>
       <use x="83.398438" xlink:href="#ArialMT-53"/>
       <use x="139.013672" xlink:href="#ArialMT-48"/>
      </g>
     </g>
    </g>
    <g id="ytick_8">
     <g id="line2d_15">
      <g>
       <use style="fill:#262626;stroke:#262626;stroke-width:1.875;" x="78.850547" xlink:href="#mb8c386b4ad" y="73.100063"/>
      </g>
     </g>
     <g id="text_14">
      <!-- 1.75 -->
      <g style="fill:#262626;" transform="translate(34.24 79.005258)scale(0.165 -0.165)">
       <use xlink:href="#ArialMT-49"/>
       <use x="55.615234" xlink:href="#ArialMT-46"/>
       <use x="83.398438" xlink:href="#ArialMT-55"/>
       <use x="139.013672" xlink:href="#ArialMT-53"/>
      </g>
     </g>
    </g>
    <g id="ytick_9">
     <g id="line2d_16">
      <g>
       <use style="fill:#262626;stroke:#262626;stroke-width:1.875;" x="78.850547" xlink:href="#mb8c386b4ad" y="36.826826"/>
      </g>
     </g>
     <g id="text_15">
      <!-- 2.00 -->
      <g style="fill:#262626;" transform="translate(34.24 42.732021)scale(0.165 -0.165)">
       <use xlink:href="#ArialMT-50"/>
       <use x="55.615234" xlink:href="#ArialMT-46"/>
       <use x="83.398438" xlink:href="#ArialMT-48"/>
       <use x="139.013672" xlink:href="#ArialMT-48"/>
      </g>
     </g>
    </g>
    <g id="text_16">
     <!-- Force, $\hat{F}_{net}$ -->
     <defs>
      <path d="M 8.203125 0 
L 8.203125 71.578125 
L 56.5 71.578125 
L 56.5 63.140625 
L 17.671875 63.140625 
L 17.671875 40.96875 
L 51.265625 40.96875 
L 51.265625 32.515625 
L 17.671875 32.515625 
L 17.671875 0 
z
" id="ArialMT-70"/>
      <path d="M 3.328125 25.921875 
Q 3.328125 40.328125 11.328125 47.265625 
Q 18.015625 53.03125 27.640625 53.03125 
Q 38.328125 53.03125 45.109375 46.015625 
Q 51.90625 39.015625 51.90625 26.65625 
Q 51.90625 16.65625 48.90625 10.90625 
Q 45.90625 5.171875 40.15625 2 
Q 34.421875 -1.171875 27.640625 -1.171875 
Q 16.75 -1.171875 10.03125 5.8125 
Q 3.328125 12.796875 3.328125 25.921875 
z
M 12.359375 25.921875 
Q 12.359375 15.96875 16.703125 11.015625 
Q 21.046875 6.0625 27.640625 6.0625 
Q 34.1875 6.0625 38.53125 11.03125 
Q 42.875 16.015625 42.875 26.21875 
Q 42.875 35.84375 38.5 40.796875 
Q 34.125 45.75 27.640625 45.75 
Q 21.046875 45.75 16.703125 40.8125 
Q 12.359375 35.890625 12.359375 25.921875 
z
" id="ArialMT-111"/>
      <path d="M 6.5 0 
L 6.5 51.859375 
L 14.40625 51.859375 
L 14.40625 44 
Q 17.4375 49.515625 20 51.265625 
Q 22.5625 53.03125 25.640625 53.03125 
Q 30.078125 53.03125 34.671875 50.203125 
L 31.640625 42.046875 
Q 28.421875 43.953125 25.203125 43.953125 
Q 22.3125 43.953125 20.015625 42.21875 
Q 17.71875 40.484375 16.75 37.40625 
Q 15.28125 32.71875 15.28125 27.15625 
L 15.28125 0 
z
" id="ArialMT-114"/>
      <path d="M 16.890625 72.90625 
L 58.6875 72.90625 
L 57.078125 64.59375 
L 25.09375 64.59375 
L 20.90625 43.109375 
L 49.8125 43.109375 
L 48.1875 34.8125 
L 19.28125 34.8125 
L 12.5 0 
L 2.6875 0 
z
" id="DejaVuSans-Oblique-70"/>
      <path d="M 55.71875 33.015625 
L 49.3125 0 
L 40.28125 0 
L 46.6875 32.671875 
Q 47.125 34.96875 47.359375 36.71875 
Q 47.609375 38.484375 47.609375 39.5 
Q 47.609375 43.609375 45.015625 45.890625 
Q 42.4375 48.1875 37.796875 48.1875 
Q 30.5625 48.1875 25.34375 43.375 
Q 20.125 38.578125 18.5 30.328125 
L 12.5 0 
L 3.515625 0 
L 14.109375 54.6875 
L 23.09375 54.6875 
L 21.296875 46.09375 
Q 25.046875 50.828125 30.3125 53.40625 
Q 35.59375 56 41.40625 56 
Q 48.640625 56 52.609375 52.09375 
Q 56.59375 48.1875 56.59375 41.109375 
Q 56.59375 39.359375 56.375 37.359375 
Q 56.15625 35.359375 55.71875 33.015625 
z
" id="DejaVuSans-Oblique-110"/>
      <path d="M 48.09375 32.234375 
Q 48.25 33.015625 48.3125 33.84375 
Q 48.390625 34.671875 48.390625 35.5 
Q 48.390625 41.453125 44.890625 44.921875 
Q 41.40625 48.390625 35.40625 48.390625 
Q 28.71875 48.390625 23.578125 44.15625 
Q 18.453125 39.9375 15.828125 32.171875 
z
M 55.90625 25.203125 
L 14.109375 25.203125 
Q 13.8125 23.34375 13.71875 22.265625 
Q 13.625 21.1875 13.625 20.40625 
Q 13.625 13.625 17.796875 9.90625 
Q 21.96875 6.203125 29.59375 6.203125 
Q 35.453125 6.203125 40.671875 7.515625 
Q 45.90625 8.84375 50.390625 11.375 
L 48.6875 2.484375 
Q 43.84375 0.53125 38.6875 -0.4375 
Q 33.546875 -1.421875 28.21875 -1.421875 
Q 16.84375 -1.421875 10.71875 4.015625 
Q 4.59375 9.46875 4.59375 19.484375 
Q 4.59375 28.03125 7.640625 35.375 
Q 10.6875 42.71875 16.609375 48.484375 
Q 20.40625 52.09375 25.65625 54.046875 
Q 30.90625 56 36.8125 56 
Q 46.09375 56 51.578125 50.4375 
Q 57.078125 44.875 57.078125 35.5 
Q 57.078125 33.25 56.78125 30.6875 
Q 56.5 28.125 55.90625 25.203125 
z
" id="DejaVuSans-Oblique-101"/>
      <path d="M 42.28125 54.6875 
L 40.921875 47.703125 
L 23 47.703125 
L 17.1875 18.015625 
Q 16.890625 16.359375 16.75 15.234375 
Q 16.609375 14.109375 16.609375 13.484375 
Q 16.609375 10.359375 18.484375 8.9375 
Q 20.359375 7.515625 24.515625 7.515625 
L 33.59375 7.515625 
L 32.078125 0 
L 23.484375 0 
Q 15.484375 0 11.546875 3.125 
Q 7.625 6.25 7.625 12.59375 
Q 7.625 13.71875 7.765625 15.0625 
Q 7.90625 16.40625 8.203125 18.015625 
L 14.015625 47.703125 
L 6.390625 47.703125 
L 7.8125 54.6875 
L 15.28125 54.6875 
L 18.3125 70.21875 
L 27.296875 70.21875 
L 24.3125 54.6875 
z
" id="DejaVuSans-Oblique-116"/>
     </defs>
     <g style="fill:#262626;" transform="translate(26.6625 225.693516)rotate(-90)scale(0.18 -0.18)">
      <use transform="translate(0 0.609375)" xlink:href="#ArialMT-70"/>
      <use transform="translate(61.083984 0.609375)" xlink:href="#ArialMT-111"/>
      <use transform="translate(116.699219 0.609375)" xlink:href="#ArialMT-114"/>
      <use transform="translate(150 0.609375)" xlink:href="#ArialMT-99"/>
      <use transform="translate(200 0.609375)" xlink:href="#ArialMT-101"/>
      <use transform="translate(255.615234 0.609375)" xlink:href="#ArialMT-44"/>
      <use transform="translate(283.398438 0.609375)" xlink:href="#ArialMT-32"/>
      <use transform="translate(372.139648 30.015625)" xlink:href="#DejaVuSans-770"/>
      <use transform="translate(311.181641 0.609375)" xlink:href="#DejaVuSans-Oblique-70"/>
      <use transform="translate(369.658203 -15.796875)scale(0.7)" xlink:href="#DejaVuSans-Oblique-110"/>
      <use transform="translate(414.023438 -15.796875)scale(0.7)" xlink:href="#DejaVuSans-Oblique-101"/>
      <use transform="translate(457.089844 -15.796875)scale(0.7)" xlink:href="#DejaVuSans-Oblique-116"/>
     </g>
    </g>
    <g id="text_17">
     <!-- 1e37 -->
     <g style="fill:#262626;" transform="translate(78.850547 19.010391)scale(0.165 -0.165)">
      <use xlink:href="#ArialMT-49"/>
      <use x="55.615234" xlink:href="#ArialMT-101"/>
      <use x="111.230469" xlink:href="#ArialMT-51"/>
      <use x="166.845703" xlink:href="#ArialMT-55"/>
     </g>
    </g>
   </g>
   <g id="line2d_17">
    <path clip-path="url(#p94d226af22)" d="M 196.829133 327.01272 
L 200.757025 327.01272 
L 204.684916 327.01272 
L 208.612808 327.01272 
L 212.5407 327.01272 
L 216.468591 327.01272 
L 220.396483 327.01272 
L 224.324375 327.01272 
L 228.252266 327.01272 
L 232.180158 327.01272 
L 236.10805 327.01272 
L 240.035941 327.01272 
L 243.963833 327.01272 
L 247.891725 327.01272 
L 251.819617 327.01272 
L 255.747508 327.01272 
L 259.6754 327.01272 
L 263.603292 327.01272 
L 267.531183 327.01272 
L 271.459075 327.01272 
L 275.386967 327.01272 
L 279.314858 327.01272 
L 283.24275 327.01272 
L 287.170642 327.01272 
L 291.098533 327.01272 
L 295.026425 327.01272 
" style="fill:none;stroke:#1f77b4;stroke-dasharray:2.25,0;stroke-dashoffset:0;stroke-width:2.25;"/>
    <defs>
     <path d="M -0.49999 0.49999 
L 0.50001 0.49999 
L 0.50001 -0.50001 
L -0.49999 -0.50001 
z
" id="ma429df9412"/>
    </defs>
    <g clip-path="url(#p94d226af22)">
     <use style="fill:#1f77b4;" x="196.829133" xlink:href="#ma429df9412" y="327.01272"/>
     <use style="fill:#1f77b4;" x="200.757025" xlink:href="#ma429df9412" y="327.01272"/>
     <use style="fill:#1f77b4;" x="204.684916" xlink:href="#ma429df9412" y="327.01272"/>
     <use style="fill:#1f77b4;" x="208.612808" xlink:href="#ma429df9412" y="327.01272"/>
     <use style="fill:#1f77b4;" x="212.5407" xlink:href="#ma429df9412" y="327.01272"/>
     <use style="fill:#1f77b4;" x="216.468591" xlink:href="#ma429df9412" y="327.01272"/>
     <use style="fill:#1f77b4;" x="220.396483" xlink:href="#ma429df9412" y="327.01272"/>
     <use style="fill:#1f77b4;" x="224.324375" xlink:href="#ma429df9412" y="327.01272"/>
     <use style="fill:#1f77b4;" x="228.252266" xlink:href="#ma429df9412" y="327.01272"/>
     <use style="fill:#1f77b4;" x="232.180158" xlink:href="#ma429df9412" y="327.01272"/>
     <use style="fill:#1f77b4;" x="236.10805" xlink:href="#ma429df9412" y="327.01272"/>
     <use style="fill:#1f77b4;" x="240.035941" xlink:href="#ma429df9412" y="327.01272"/>
     <use style="fill:#1f77b4;" x="243.963833" xlink:href="#ma429df9412" y="327.01272"/>
     <use style="fill:#1f77b4;" x="247.891725" xlink:href="#ma429df9412" y="327.01272"/>
     <use style="fill:#1f77b4;" x="251.819617" xlink:href="#ma429df9412" y="327.01272"/>
     <use style="fill:#1f77b4;" x="255.747508" xlink:href="#ma429df9412" y="327.01272"/>
     <use style="fill:#1f77b4;" x="259.6754" xlink:href="#ma429df9412" y="327.01272"/>
     <use style="fill:#1f77b4;" x="263.603292" xlink:href="#ma429df9412" y="327.01272"/>
     <use style="fill:#1f77b4;" x="267.531183" xlink:href="#ma429df9412" y="327.01272"/>
     <use style="fill:#1f77b4;" x="271.459075" xlink:href="#ma429df9412" y="327.01272"/>
     <use style="fill:#1f77b4;" x="275.386967" xlink:href="#ma429df9412" y="327.01272"/>
     <use style="fill:#1f77b4;" x="279.314858" xlink:href="#ma429df9412" y="327.01272"/>
     <use style="fill:#1f77b4;" x="283.24275" xlink:href="#ma429df9412" y="327.01272"/>
     <use style="fill:#1f77b4;" x="287.170642" xlink:href="#ma429df9412" y="327.01272"/>
     <use style="fill:#1f77b4;" x="291.098533" xlink:href="#ma429df9412" y="327.01272"/>
     <use style="fill:#1f77b4;" x="295.026425" xlink:href="#ma429df9412" y="327.01272"/>
    </g>
   </g>
   <g id="line2d_18">
    <path clip-path="url(#p94d226af22)" d="M 196.829133 327.01272 
L 200.757025 327.01272 
L 204.684916 327.01272 
L 208.612808 327.01272 
L 212.5407 327.01272 
L 216.468591 327.01272 
L 220.396483 327.01272 
L 224.324375 327.01272 
L 228.252266 327.01272 
L 232.180158 327.01272 
L 236.10805 327.01272 
L 240.035941 327.01272 
L 243.963833 327.01272 
L 247.891725 327.01272 
L 251.819617 327.01272 
L 255.747508 327.01272 
L 259.6754 327.01272 
L 263.603292 327.01272 
L 267.531183 327.01272 
L 271.459075 327.01272 
L 275.386967 327.01272 
L 279.314858 327.01272 
L 283.24275 327.01272 
L 287.170642 327.01272 
L 291.098533 327.01272 
L 295.026425 327.01272 
" style="fill:none;stroke:#1f77b4;stroke-dasharray:0,2.25;stroke-dashoffset:0;stroke-width:2.25;"/>
    <defs>
     <path d="M 0 4.5 
C 1.193414 4.5 2.338109 4.025852 3.181981 3.181981 
C 4.025852 2.338109 4.5 1.193414 4.5 0 
C 4.5 -1.193414 4.025852 -2.338109 3.181981 -3.181981 
C 2.338109 -4.025852 1.193414 -4.5 0 -4.5 
C -1.193414 -4.5 -2.338109 -4.025852 -3.181981 -3.181981 
C -4.025852 -2.338109 -4.5 -1.193414 -4.5 0 
C -4.5 1.193414 -4.025852 2.338109 -3.181981 3.181981 
C -2.338109 4.025852 -1.193414 4.5 0 4.5 
z
" id="m8aa4b83247" style="stroke:#ffffff;stroke-width:0.75;"/>
    </defs>
    <g clip-path="url(#p94d226af22)">
     <use style="fill:#1f77b4;stroke:#ffffff;stroke-width:0.75;" x="196.829133" xlink:href="#m8aa4b83247" y="327.01272"/>
     <use style="fill:#1f77b4;stroke:#ffffff;stroke-width:0.75;" x="200.757025" xlink:href="#m8aa4b83247" y="327.01272"/>
     <use style="fill:#1f77b4;stroke:#ffffff;stroke-width:0.75;" x="204.684916" xlink:href="#m8aa4b83247" y="327.01272"/>
     <use style="fill:#1f77b4;stroke:#ffffff;stroke-width:0.75;" x="208.612808" xlink:href="#m8aa4b83247" y="327.01272"/>
     <use style="fill:#1f77b4;stroke:#ffffff;stroke-width:0.75;" x="212.5407" xlink:href="#m8aa4b83247" y="327.01272"/>
     <use style="fill:#1f77b4;stroke:#ffffff;stroke-width:0.75;" x="216.468591" xlink:href="#m8aa4b83247" y="327.01272"/>
     <use style="fill:#1f77b4;stroke:#ffffff;stroke-width:0.75;" x="220.396483" xlink:href="#m8aa4b83247" y="327.01272"/>
     <use style="fill:#1f77b4;stroke:#ffffff;stroke-width:0.75;" x="224.324375" xlink:href="#m8aa4b83247" y="327.01272"/>
     <use style="fill:#1f77b4;stroke:#ffffff;stroke-width:0.75;" x="228.252266" xlink:href="#m8aa4b83247" y="327.01272"/>
     <use style="fill:#1f77b4;stroke:#ffffff;stroke-width:0.75;" x="232.180158" xlink:href="#m8aa4b83247" y="327.01272"/>
     <use style="fill:#1f77b4;stroke:#ffffff;stroke-width:0.75;" x="236.10805" xlink:href="#m8aa4b83247" y="327.01272"/>
     <use style="fill:#1f77b4;stroke:#ffffff;stroke-width:0.75;" x="240.035941" xlink:href="#m8aa4b83247" y="327.01272"/>
     <use style="fill:#1f77b4;stroke:#ffffff;stroke-width:0.75;" x="243.963833" xlink:href="#m8aa4b83247" y="327.01272"/>
     <use style="fill:#1f77b4;stroke:#ffffff;stroke-width:0.75;" x="247.891725" xlink:href="#m8aa4b83247" y="327.01272"/>
     <use style="fill:#1f77b4;stroke:#ffffff;stroke-width:0.75;" x="251.819617" xlink:href="#m8aa4b83247" y="327.01272"/>
     <use style="fill:#1f77b4;stroke:#ffffff;stroke-width:0.75;" x="255.747508" xlink:href="#m8aa4b83247" y="327.01272"/>
     <use style="fill:#1f77b4;stroke:#ffffff;stroke-width:0.75;" x="259.6754" xlink:href="#m8aa4b83247" y="327.01272"/>
     <use style="fill:#1f77b4;stroke:#ffffff;stroke-width:0.75;" x="263.603292" xlink:href="#m8aa4b83247" y="327.01272"/>
     <use style="fill:#1f77b4;stroke:#ffffff;stroke-width:0.75;" x="267.531183" xlink:href="#m8aa4b83247" y="327.01272"/>
     <use style="fill:#1f77b4;stroke:#ffffff;stroke-width:0.75;" x="271.459075" xlink:href="#m8aa4b83247" y="327.01272"/>
     <use style="fill:#1f77b4;stroke:#ffffff;stroke-width:0.75;" x="275.386967" xlink:href="#m8aa4b83247" y="327.01272"/>
     <use style="fill:#1f77b4;stroke:#ffffff;stroke-width:0.75;" x="279.314858" xlink:href="#m8aa4b83247" y="327.01272"/>
     <use style="fill:#1f77b4;stroke:#ffffff;stroke-width:0.75;" x="283.24275" xlink:href="#m8aa4b83247" y="327.01272"/>
     <use style="fill:#1f77b4;stroke:#ffffff;stroke-width:0.75;" x="287.170642" xlink:href="#m8aa4b83247" y="327.01272"/>
     <use style="fill:#1f77b4;stroke:#ffffff;stroke-width:0.75;" x="291.098533" xlink:href="#m8aa4b83247" y="327.01272"/>
     <use style="fill:#1f77b4;stroke:#ffffff;stroke-width:0.75;" x="295.026425" xlink:href="#m8aa4b83247" y="327.01272"/>
    </g>
   </g>
   <g id="line2d_19">
    <path clip-path="url(#p94d226af22)" d="M 149.823625 327.01272 
L 157.668643 327.01272 
L 165.51366 327.01272 
L 173.358677 327.01272 
L 181.203695 327.01272 
L 189.048712 327.01272 
L 196.893729 327.01272 
L 204.738747 327.01272 
L 212.583764 327.01272 
L 220.428781 327.01272 
L 228.273799 327.01272 
L 236.118816 327.01272 
L 243.963833 327.01272 
L 251.80885 327.01272 
L 259.653868 327.01272 
L 267.498885 327.01272 
L 275.343902 327.01272 
L 283.18892 327.01272 
L 291.033937 327.01272 
L 298.878954 327.01272 
L 306.723972 327.01272 
L 314.568989 327.01272 
L 322.414006 327.01272 
L 330.259024 327.01272 
L 338.104041 327.01272 
L 345.949058 327.01272 
" style="fill:none;stroke:#ff7f0e;stroke-dasharray:2.25,0;stroke-dashoffset:0;stroke-width:2.25;"/>
    <defs>
     <path d="M -0.49999 0.49999 
L 0.50001 0.49999 
L 0.50001 -0.50001 
L -0.49999 -0.50001 
z
" id="m3e8a0b78dd"/>
    </defs>
    <g clip-path="url(#p94d226af22)">
     <use style="fill:#ff7f0e;" x="149.823625" xlink:href="#m3e8a0b78dd" y="327.01272"/>
     <use style="fill:#ff7f0e;" x="157.668643" xlink:href="#m3e8a0b78dd" y="327.01272"/>
     <use style="fill:#ff7f0e;" x="165.51366" xlink:href="#m3e8a0b78dd" y="327.01272"/>
     <use style="fill:#ff7f0e;" x="173.358677" xlink:href="#m3e8a0b78dd" y="327.01272"/>
     <use style="fill:#ff7f0e;" x="181.203695" xlink:href="#m3e8a0b78dd" y="327.01272"/>
     <use style="fill:#ff7f0e;" x="189.048712" xlink:href="#m3e8a0b78dd" y="327.01272"/>
     <use style="fill:#ff7f0e;" x="196.893729" xlink:href="#m3e8a0b78dd" y="327.01272"/>
     <use style="fill:#ff7f0e;" x="204.738747" xlink:href="#m3e8a0b78dd" y="327.01272"/>
     <use style="fill:#ff7f0e;" x="212.583764" xlink:href="#m3e8a0b78dd" y="327.01272"/>
     <use style="fill:#ff7f0e;" x="220.428781" xlink:href="#m3e8a0b78dd" y="327.01272"/>
     <use style="fill:#ff7f0e;" x="228.273799" xlink:href="#m3e8a0b78dd" y="327.01272"/>
     <use style="fill:#ff7f0e;" x="236.118816" xlink:href="#m3e8a0b78dd" y="327.01272"/>
     <use style="fill:#ff7f0e;" x="243.963833" xlink:href="#m3e8a0b78dd" y="327.01272"/>
     <use style="fill:#ff7f0e;" x="251.80885" xlink:href="#m3e8a0b78dd" y="327.01272"/>
     <use style="fill:#ff7f0e;" x="259.653868" xlink:href="#m3e8a0b78dd" y="327.01272"/>
     <use style="fill:#ff7f0e;" x="267.498885" xlink:href="#m3e8a0b78dd" y="327.01272"/>
     <use style="fill:#ff7f0e;" x="275.343902" xlink:href="#m3e8a0b78dd" y="327.01272"/>
     <use style="fill:#ff7f0e;" x="283.18892" xlink:href="#m3e8a0b78dd" y="327.01272"/>
     <use style="fill:#ff7f0e;" x="291.033937" xlink:href="#m3e8a0b78dd" y="327.01272"/>
     <use style="fill:#ff7f0e;" x="298.878954" xlink:href="#m3e8a0b78dd" y="327.01272"/>
     <use style="fill:#ff7f0e;" x="306.723972" xlink:href="#m3e8a0b78dd" y="327.01272"/>
     <use style="fill:#ff7f0e;" x="314.568989" xlink:href="#m3e8a0b78dd" y="327.01272"/>
     <use style="fill:#ff7f0e;" x="322.414006" xlink:href="#m3e8a0b78dd" y="327.01272"/>
     <use style="fill:#ff7f0e;" x="330.259024" xlink:href="#m3e8a0b78dd" y="327.01272"/>
     <use style="fill:#ff7f0e;" x="338.104041" xlink:href="#m3e8a0b78dd" y="327.01272"/>
     <use style="fill:#ff7f0e;" x="345.949058" xlink:href="#m3e8a0b78dd" y="327.01272"/>
    </g>
   </g>
   <g id="line2d_20">
    <path clip-path="url(#p94d226af22)" d="M 149.823625 327.01272 
L 157.668643 327.01272 
L 165.51366 327.01272 
L 173.358677 327.01272 
L 181.203695 327.01272 
L 189.048712 327.01272 
L 196.893729 327.01272 
L 204.738747 327.01272 
L 212.583764 327.01272 
L 220.428781 327.01272 
L 228.273799 327.01272 
L 236.118816 327.01272 
L 243.963833 327.01272 
L 251.80885 327.01272 
L 259.653868 327.01272 
L 267.498885 327.01272 
L 275.343902 327.01272 
L 283.18892 327.01272 
L 291.033937 327.01272 
L 298.878954 327.01272 
L 306.723972 327.01272 
L 314.568989 327.01272 
L 322.414006 327.01272 
L 330.259024 327.01272 
L 338.104041 327.01272 
L 345.949058 327.01272 
" style="fill:none;stroke:#ff7f0e;stroke-dasharray:0,2.25;stroke-dashoffset:0;stroke-width:2.25;"/>
    <defs>
     <path d="M 0 4.5 
C 1.193414 4.5 2.338109 4.025852 3.181981 3.181981 
C 4.025852 2.338109 4.5 1.193414 4.5 0 
C 4.5 -1.193414 4.025852 -2.338109 3.181981 -3.181981 
C 2.338109 -4.025852 1.193414 -4.5 0 -4.5 
C -1.193414 -4.5 -2.338109 -4.025852 -3.181981 -3.181981 
C -4.025852 -2.338109 -4.5 -1.193414 -4.5 0 
C -4.5 1.193414 -4.025852 2.338109 -3.181981 3.181981 
C -2.338109 4.025852 -1.193414 4.5 0 4.5 
z
" id="m001d98f0e4" style="stroke:#ffffff;stroke-width:0.75;"/>
    </defs>
    <g clip-path="url(#p94d226af22)">
     <use style="fill:#ff7f0e;stroke:#ffffff;stroke-width:0.75;" x="149.823625" xlink:href="#m001d98f0e4" y="327.01272"/>
     <use style="fill:#ff7f0e;stroke:#ffffff;stroke-width:0.75;" x="157.668643" xlink:href="#m001d98f0e4" y="327.01272"/>
     <use style="fill:#ff7f0e;stroke:#ffffff;stroke-width:0.75;" x="165.51366" xlink:href="#m001d98f0e4" y="327.01272"/>
     <use style="fill:#ff7f0e;stroke:#ffffff;stroke-width:0.75;" x="173.358677" xlink:href="#m001d98f0e4" y="327.01272"/>
     <use style="fill:#ff7f0e;stroke:#ffffff;stroke-width:0.75;" x="181.203695" xlink:href="#m001d98f0e4" y="327.01272"/>
     <use style="fill:#ff7f0e;stroke:#ffffff;stroke-width:0.75;" x="189.048712" xlink:href="#m001d98f0e4" y="327.01272"/>
     <use style="fill:#ff7f0e;stroke:#ffffff;stroke-width:0.75;" x="196.893729" xlink:href="#m001d98f0e4" y="327.01272"/>
     <use style="fill:#ff7f0e;stroke:#ffffff;stroke-width:0.75;" x="204.738747" xlink:href="#m001d98f0e4" y="327.01272"/>
     <use style="fill:#ff7f0e;stroke:#ffffff;stroke-width:0.75;" x="212.583764" xlink:href="#m001d98f0e4" y="327.01272"/>
     <use style="fill:#ff7f0e;stroke:#ffffff;stroke-width:0.75;" x="220.428781" xlink:href="#m001d98f0e4" y="327.01272"/>
     <use style="fill:#ff7f0e;stroke:#ffffff;stroke-width:0.75;" x="228.273799" xlink:href="#m001d98f0e4" y="327.01272"/>
     <use style="fill:#ff7f0e;stroke:#ffffff;stroke-width:0.75;" x="236.118816" xlink:href="#m001d98f0e4" y="327.01272"/>
     <use style="fill:#ff7f0e;stroke:#ffffff;stroke-width:0.75;" x="243.963833" xlink:href="#m001d98f0e4" y="327.01272"/>
     <use style="fill:#ff7f0e;stroke:#ffffff;stroke-width:0.75;" x="251.80885" xlink:href="#m001d98f0e4" y="327.01272"/>
     <use style="fill:#ff7f0e;stroke:#ffffff;stroke-width:0.75;" x="259.653868" xlink:href="#m001d98f0e4" y="327.01272"/>
     <use style="fill:#ff7f0e;stroke:#ffffff;stroke-width:0.75;" x="267.498885" xlink:href="#m001d98f0e4" y="327.01272"/>
     <use style="fill:#ff7f0e;stroke:#ffffff;stroke-width:0.75;" x="275.343902" xlink:href="#m001d98f0e4" y="327.01272"/>
     <use style="fill:#ff7f0e;stroke:#ffffff;stroke-width:0.75;" x="283.18892" xlink:href="#m001d98f0e4" y="327.01272"/>
     <use style="fill:#ff7f0e;stroke:#ffffff;stroke-width:0.75;" x="291.033937" xlink:href="#m001d98f0e4" y="327.01272"/>
     <use style="fill:#ff7f0e;stroke:#ffffff;stroke-width:0.75;" x="298.878954" xlink:href="#m001d98f0e4" y="327.01272"/>
     <use style="fill:#ff7f0e;stroke:#ffffff;stroke-width:0.75;" x="306.723972" xlink:href="#m001d98f0e4" y="327.01272"/>
     <use style="fill:#ff7f0e;stroke:#ffffff;stroke-width:0.75;" x="314.568989" xlink:href="#m001d98f0e4" y="327.01272"/>
     <use style="fill:#ff7f0e;stroke:#ffffff;stroke-width:0.75;" x="322.414006" xlink:href="#m001d98f0e4" y="327.01272"/>
     <use style="fill:#ff7f0e;stroke:#ffffff;stroke-width:0.75;" x="330.259024" xlink:href="#m001d98f0e4" y="327.01272"/>
     <use style="fill:#ff7f0e;stroke:#ffffff;stroke-width:0.75;" x="338.104041" xlink:href="#m001d98f0e4" y="327.01272"/>
     <use style="fill:#ff7f0e;stroke:#ffffff;stroke-width:0.75;" x="345.949058" xlink:href="#m001d98f0e4" y="327.01272"/>
    </g>
   </g>
   <g id="line2d_21"/>
   <g id="line2d_22"/>
   <g id="line2d_23"/>
   <g id="line2d_24"/>
   <g id="line2d_25">
    <path clip-path="url(#p94d226af22)" d="M 131.386593 327.01272 
L 138.657986 327.01272 
L 145.929379 327.01272 
L 153.200773 327.01272 
L 160.472166 327.01272 
L 167.743559 327.01272 
L 175.014953 327.01272 
L 182.286346 327.01272 
L 189.557739 327.01272 
L 196.829133 327.01272 
" style="fill:none;stroke:#1f77b4;stroke-dasharray:8.325,3.6;stroke-dashoffset:0;stroke-opacity:0.5;stroke-width:2.25;"/>
   </g>
   <g id="line2d_26">
    <path clip-path="url(#p94d226af22)" d="M 131.386593 327.01272 
L 133.435152 327.01272 
L 135.483711 327.01272 
L 137.53227 327.01272 
L 139.580829 327.01272 
L 141.629389 327.01272 
L 143.677948 327.01272 
L 145.726507 327.01272 
L 147.775066 327.01272 
L 149.823625 327.01272 
" style="fill:none;stroke:#ff7f0e;stroke-dasharray:8.325,3.6;stroke-dashoffset:0;stroke-opacity:0.5;stroke-width:2.25;"/>
   </g>
   <g id="line2d_27">
    <path clip-path="url(#p94d226af22)" d="M 93.860846 327.01272 
L 101.558435 327.01272 
L 109.256024 327.01272 
L 116.953613 327.01272 
L 124.651202 327.01272 
L 132.348791 327.01272 
L 140.04638 327.01272 
L 147.743969 327.01272 
L 155.441558 327.01272 
L 163.139148 327.01272 
L 170.836737 327.01272 
L 178.534326 327.01272 
L 186.231915 327.01272 
L 193.929504 327.01272 
L 201.627093 327.01272 
L 209.324682 327.01272 
L 217.022271 327.01272 
L 224.71986 327.01272 
L 232.41745 327.01272 
L 240.115039 327.01272 
L 247.812628 327.01272 
L 255.510217 327.01272 
L 263.207806 327.01272 
L 270.905395 327.01272 
L 278.602984 327.01272 
L 286.300573 327.01272 
L 293.998162 327.01272 
L 301.695751 327.01272 
L 309.393341 327.01272 
L 317.09093 327.01272 
L 324.788519 327.01272 
L 332.486108 327.01272 
L 340.183697 327.01272 
L 347.881286 327.01272 
L 355.578875 327.01272 
L 363.276464 327.01272 
L 370.974053 327.01272 
L 378.671642 327.01272 
L 386.369232 36.534311 
L 394.066821 327.01272 
" style="fill:none;stroke:#1f77b4;stroke-linecap:round;stroke-width:2.25;"/>
   </g>
   <g id="patch_3">
    <path d="M 78.850547 341.536641 
L 78.850547 22.010391 
" style="fill:none;stroke:#262626;stroke-linecap:square;stroke-linejoin:miter;stroke-width:1.875;"/>
   </g>
   <g id="patch_4">
    <path d="M 78.850547 341.536641 
L 409.077119 341.536641 
" style="fill:none;stroke:#262626;stroke-linecap:square;stroke-linejoin:miter;stroke-width:1.875;"/>
   </g>
  </g>
  <g id="legend_1">
   <g id="text_18">
    <!-- Tilt angle -->
    <defs>
     <path d="M 25.921875 0 
L 25.921875 63.140625 
L 2.34375 63.140625 
L 2.34375 71.578125 
L 59.078125 71.578125 
L 59.078125 63.140625 
L 35.40625 63.140625 
L 35.40625 0 
z
" id="ArialMT-84"/>
     <path d="M 6.390625 0 
L 6.390625 71.578125 
L 15.1875 71.578125 
L 15.1875 0 
z
" id="ArialMT-108"/>
     <path d="M 4.984375 -4.296875 
L 13.53125 -5.5625 
Q 14.0625 -9.515625 16.5 -11.328125 
Q 19.78125 -13.765625 25.4375 -13.765625 
Q 31.546875 -13.765625 34.859375 -11.328125 
Q 38.1875 -8.890625 39.359375 -4.5 
Q 40.046875 -1.8125 39.984375 6.78125 
Q 34.234375 0 25.640625 0 
Q 14.9375 0 9.078125 7.71875 
Q 3.21875 15.4375 3.21875 26.21875 
Q 3.21875 33.640625 5.90625 39.90625 
Q 8.59375 46.1875 13.6875 49.609375 
Q 18.796875 53.03125 25.6875 53.03125 
Q 34.859375 53.03125 40.828125 45.609375 
L 40.828125 51.859375 
L 48.921875 51.859375 
L 48.921875 7.03125 
Q 48.921875 -5.078125 46.453125 -10.125 
Q 44 -15.1875 38.640625 -18.109375 
Q 33.296875 -21.046875 25.484375 -21.046875 
Q 16.21875 -21.046875 10.5 -16.875 
Q 4.78125 -12.703125 4.984375 -4.296875 
z
M 12.25 26.859375 
Q 12.25 16.65625 16.296875 11.96875 
Q 20.359375 7.28125 26.46875 7.28125 
Q 32.515625 7.28125 36.609375 11.9375 
Q 40.71875 16.609375 40.71875 26.5625 
Q 40.71875 36.078125 36.5 40.90625 
Q 32.28125 45.75 26.3125 45.75 
Q 20.453125 45.75 16.34375 40.984375 
Q 12.25 36.234375 12.25 26.859375 
z
" id="ArialMT-103"/>
    </defs>
    <g style="fill:#262626;" transform="translate(471.236797 144.346641)scale(0.18 -0.18)">
     <use xlink:href="#ArialMT-84"/>
     <use x="61.037109" xlink:href="#ArialMT-105"/>
     <use x="83.253906" xlink:href="#ArialMT-108"/>
     <use x="105.470703" xlink:href="#ArialMT-116"/>
     <use x="133.253906" xlink:href="#ArialMT-32"/>
     <use x="161.037109" xlink:href="#ArialMT-97"/>
     <use x="216.652344" xlink:href="#ArialMT-110"/>
     <use x="272.267578" xlink:href="#ArialMT-103"/>
     <use x="327.882812" xlink:href="#ArialMT-108"/>
     <use x="350.099609" xlink:href="#ArialMT-101"/>
    </g>
   </g>
   <g id="line2d_28">
    <path d="M 458.036797 163.494141 
L 491.036797 163.494141 
" style="fill:none;stroke:#1f77b4;stroke-linecap:round;stroke-width:2.25;"/>
   </g>
   <g id="line2d_29"/>
   <g id="text_19">
    <!-- 3° -->
    <defs>
     <path d="M 6.25 59.28125 
Q 6.25 64.890625 10.21875 68.84375 
Q 14.203125 72.796875 19.78125 72.796875 
Q 25.4375 72.796875 29.390625 68.84375 
Q 33.34375 64.890625 33.34375 59.28125 
Q 33.34375 53.65625 29.359375 49.671875 
Q 25.390625 45.703125 19.78125 45.703125 
Q 14.203125 45.703125 10.21875 49.65625 
Q 6.25 53.609375 6.25 59.28125 
z
M 11.578125 59.28125 
Q 11.578125 55.859375 13.984375 53.4375 
Q 16.40625 51.03125 19.828125 51.03125 
Q 23.1875 51.03125 25.609375 53.4375 
Q 28.03125 55.859375 28.03125 59.28125 
Q 28.03125 62.703125 25.609375 65.109375 
Q 23.1875 67.53125 19.828125 67.53125 
Q 16.40625 67.53125 13.984375 65.109375 
Q 11.578125 62.703125 11.578125 59.28125 
z
" id="ArialMT-176"/>
    </defs>
    <g style="fill:#262626;" transform="translate(504.236797 169.269141)scale(0.18 -0.18)">
     <use xlink:href="#ArialMT-51"/>
     <use x="55.615234" xlink:href="#ArialMT-176"/>
    </g>
   </g>
   <g id="line2d_30">
    <path d="M 458.036797 188.205703 
L 491.036797 188.205703 
" style="fill:none;stroke:#ff7f0e;stroke-linecap:round;stroke-width:2.25;"/>
   </g>
   <g id="line2d_31"/>
   <g id="text_20">
    <!-- 6° -->
    <defs>
     <path d="M 49.75 54.046875 
L 41.015625 53.375 
Q 39.84375 58.546875 37.703125 60.890625 
Q 34.125 64.65625 28.90625 64.65625 
Q 24.703125 64.65625 21.53125 62.3125 
Q 17.390625 59.28125 14.984375 53.46875 
Q 12.59375 47.65625 12.5 36.921875 
Q 15.671875 41.75 20.265625 44.09375 
Q 24.859375 46.4375 29.890625 46.4375 
Q 38.671875 46.4375 44.84375 39.96875 
Q 51.03125 33.5 51.03125 23.25 
Q 51.03125 16.5 48.125 10.71875 
Q 45.21875 4.9375 40.140625 1.859375 
Q 35.0625 -1.21875 28.609375 -1.21875 
Q 17.625 -1.21875 10.6875 6.859375 
Q 3.765625 14.9375 3.765625 33.5 
Q 3.765625 54.25 11.421875 63.671875 
Q 18.109375 71.875 29.4375 71.875 
Q 37.890625 71.875 43.28125 67.140625 
Q 48.6875 62.40625 49.75 54.046875 
z
M 13.875 23.1875 
Q 13.875 18.65625 15.796875 14.5 
Q 17.71875 10.359375 21.1875 8.171875 
Q 24.65625 6 28.46875 6 
Q 34.03125 6 38.03125 10.484375 
Q 42.046875 14.984375 42.046875 22.703125 
Q 42.046875 30.125 38.078125 34.390625 
Q 34.125 38.671875 28.125 38.671875 
Q 22.171875 38.671875 18.015625 34.390625 
Q 13.875 30.125 13.875 23.1875 
z
" id="ArialMT-54"/>
    </defs>
    <g style="fill:#262626;" transform="translate(504.236797 193.980703)scale(0.18 -0.18)">
     <use xlink:href="#ArialMT-54"/>
     <use x="55.615234" xlink:href="#ArialMT-176"/>
    </g>
   </g>
   <g id="text_21">
    <!-- Backing -->
    <defs>
     <path d="M 7.328125 0 
L 7.328125 71.578125 
L 34.1875 71.578125 
Q 42.390625 71.578125 47.34375 69.40625 
Q 52.296875 67.234375 55.09375 62.71875 
Q 57.90625 58.203125 57.90625 53.265625 
Q 57.90625 48.6875 55.421875 44.625 
Q 52.9375 40.578125 47.90625 38.09375 
Q 54.390625 36.1875 57.875 31.59375 
Q 61.375 27 61.375 20.75 
Q 61.375 15.71875 59.25 11.390625 
Q 57.125 7.078125 54 4.734375 
Q 50.875 2.390625 46.15625 1.1875 
Q 41.453125 0 34.625 0 
z
M 16.796875 41.5 
L 32.28125 41.5 
Q 38.578125 41.5 41.3125 42.328125 
Q 44.921875 43.40625 46.75 45.890625 
Q 48.578125 48.390625 48.578125 52.15625 
Q 48.578125 55.71875 46.875 58.421875 
Q 45.171875 61.140625 41.984375 62.140625 
Q 38.8125 63.140625 31.109375 63.140625 
L 16.796875 63.140625 
z
M 16.796875 8.453125 
L 34.625 8.453125 
Q 39.203125 8.453125 41.0625 8.796875 
Q 44.34375 9.375 46.53125 10.734375 
Q 48.734375 12.109375 50.140625 14.71875 
Q 51.5625 17.328125 51.5625 20.75 
Q 51.5625 24.75 49.515625 27.703125 
Q 47.46875 30.671875 43.828125 31.859375 
Q 40.1875 33.0625 33.34375 33.0625 
L 16.796875 33.0625 
z
" id="ArialMT-66"/>
     <path d="M 6.640625 0 
L 6.640625 71.578125 
L 15.4375 71.578125 
L 15.4375 30.765625 
L 36.234375 51.859375 
L 47.609375 51.859375 
L 27.78125 32.625 
L 49.609375 0 
L 38.765625 0 
L 21.625 26.515625 
L 15.4375 20.5625 
L 15.4375 0 
z
" id="ArialMT-107"/>
    </defs>
    <g style="fill:#262626;" transform="translate(471.236797 218.692266)scale(0.18 -0.18)">
     <use xlink:href="#ArialMT-66"/>
     <use x="66.699219" xlink:href="#ArialMT-97"/>
     <use x="122.314453" xlink:href="#ArialMT-99"/>
     <use x="172.314453" xlink:href="#ArialMT-107"/>
     <use x="222.314453" xlink:href="#ArialMT-105"/>
     <use x="244.53125" xlink:href="#ArialMT-110"/>
     <use x="300.146484" xlink:href="#ArialMT-103"/>
    </g>
   </g>
   <g id="line2d_32">
    <path d="M 458.036797 237.839766 
L 491.036797 237.839766 
" style="fill:none;stroke:#333333;stroke-dasharray:2.25,0;stroke-dashoffset:0;stroke-width:2.25;"/>
   </g>
   <g id="line2d_33">
    <defs>
     <path d="M -0.49999 0.49999 
L 0.50001 0.49999 
L 0.50001 -0.50001 
L -0.49999 -0.50001 
z
" id="m88b4fc395c"/>
    </defs>
    <g>
     <use style="fill:#333333;" x="474.536797" xlink:href="#m88b4fc395c" y="237.839766"/>
    </g>
   </g>
   <g id="text_22">
    <!-- Stiff -->
    <defs>
     <path d="M 4.5 23 
L 13.421875 23.78125 
Q 14.0625 18.40625 16.375 14.96875 
Q 18.703125 11.53125 23.578125 9.40625 
Q 28.46875 7.28125 34.578125 7.28125 
Q 39.984375 7.28125 44.140625 8.890625 
Q 48.296875 10.5 50.3125 13.296875 
Q 52.34375 16.109375 52.34375 19.4375 
Q 52.34375 22.796875 50.390625 25.3125 
Q 48.4375 27.828125 43.953125 29.546875 
Q 41.0625 30.671875 31.203125 33.03125 
Q 21.34375 35.40625 17.390625 37.5 
Q 12.25 40.1875 9.734375 44.15625 
Q 7.234375 48.140625 7.234375 53.078125 
Q 7.234375 58.5 10.296875 63.203125 
Q 13.375 67.921875 19.28125 70.359375 
Q 25.203125 72.796875 32.421875 72.796875 
Q 40.375 72.796875 46.453125 70.234375 
Q 52.546875 67.671875 55.8125 62.6875 
Q 59.078125 57.71875 59.328125 51.421875 
L 50.25 50.734375 
Q 49.515625 57.515625 45.28125 60.984375 
Q 41.0625 64.453125 32.8125 64.453125 
Q 24.21875 64.453125 20.28125 61.296875 
Q 16.359375 58.15625 16.359375 53.71875 
Q 16.359375 49.859375 19.140625 47.359375 
Q 21.875 44.875 33.421875 42.265625 
Q 44.96875 39.65625 49.265625 37.703125 
Q 55.515625 34.8125 58.484375 30.390625 
Q 61.46875 25.984375 61.46875 20.21875 
Q 61.46875 14.5 58.203125 9.4375 
Q 54.9375 4.390625 48.796875 1.578125 
Q 42.671875 -1.21875 35.015625 -1.21875 
Q 25.296875 -1.21875 18.71875 1.609375 
Q 12.15625 4.4375 8.421875 10.125 
Q 4.6875 15.828125 4.5 23 
z
" id="ArialMT-83"/>
     <path d="M 8.6875 0 
L 8.6875 45.015625 
L 0.921875 45.015625 
L 0.921875 51.859375 
L 8.6875 51.859375 
L 8.6875 57.375 
Q 8.6875 62.59375 9.625 65.140625 
Q 10.890625 68.5625 14.078125 70.671875 
Q 17.28125 72.796875 23.046875 72.796875 
Q 26.765625 72.796875 31.25 71.921875 
L 29.9375 64.265625 
Q 27.203125 64.75 24.75 64.75 
Q 20.75 64.75 19.09375 63.03125 
Q 17.4375 61.328125 17.4375 56.640625 
L 17.4375 51.859375 
L 27.546875 51.859375 
L 27.546875 45.015625 
L 17.4375 45.015625 
L 17.4375 0 
z
" id="ArialMT-102"/>
    </defs>
    <g style="fill:#262626;" transform="translate(504.236797 243.614766)scale(0.18 -0.18)">
     <use xlink:href="#ArialMT-83"/>
     <use x="66.699219" xlink:href="#ArialMT-116"/>
     <use x="94.482422" xlink:href="#ArialMT-105"/>
     <use x="116.699219" xlink:href="#ArialMT-102"/>
     <use x="144.466797" xlink:href="#ArialMT-102"/>
    </g>
   </g>
   <g id="line2d_34">
    <path d="M 458.036797 262.551328 
L 491.036797 262.551328 
" style="fill:none;stroke:#333333;stroke-dasharray:0,2.25;stroke-dashoffset:0;stroke-width:2.25;"/>
   </g>
   <g id="line2d_35">
    <defs>
     <path d="M 0 4.5 
C 1.193414 4.5 2.338109 4.025852 3.181981 3.181981 
C 4.025852 2.338109 4.5 1.193414 4.5 0 
C 4.5 -1.193414 4.025852 -2.338109 3.181981 -3.181981 
C 2.338109 -4.025852 1.193414 -4.5 0 -4.5 
C -1.193414 -4.5 -2.338109 -4.025852 -3.181981 -3.181981 
C -4.025852 -2.338109 -4.5 -1.193414 -4.5 0 
C -4.5 1.193414 -4.025852 2.338109 -3.181981 3.181981 
C -2.338109 4.025852 -1.193414 4.5 0 4.5 
z
" id="mf47c97db3d" style="stroke:#333333;"/>
    </defs>
    <g>
     <use style="fill:#333333;stroke:#333333;" x="474.536797" xlink:href="#mf47c97db3d" y="262.551328"/>
    </g>
   </g>
   <g id="text_23">
    <!-- Soft -->
    <g style="fill:#262626;" transform="translate(504.236797 268.326328)scale(0.18 -0.18)">
     <use xlink:href="#ArialMT-83"/>
     <use x="66.699219" xlink:href="#ArialMT-111"/>
     <use x="122.314453" xlink:href="#ArialMT-102"/>
     <use x="150.097656" xlink:href="#ArialMT-116"/>
    </g>
   </g>
  </g>
 </g>
 <defs>
  <clipPath id="p94d226af22">
   <rect height="319.52625" width="330.226573" x="78.850547" y="22.010391"/>
  </clipPath>
 </defs>
</svg>
