<?xml version="1.0" encoding="utf-8" standalone="no"?>
<!DOCTYPE svg PUBLIC "-//W3C//DTD SVG 1.1//EN"
  "http://www.w3.org/Graphics/SVG/1.1/DTD/svg11.dtd">
<!-- Created with matplotlib (https://matplotlib.org/) -->
<svg height="414.353766pt" version="1.1" viewBox="0 0 559.456 414.353766" width="559.456pt" xmlns="http://www.w3.org/2000/svg" xmlns:xlink="http://www.w3.org/1999/xlink">
 <defs>
  <style type="text/css">
*{stroke-linecap:butt;stroke-linejoin:round;}
  </style>
 </defs>
 <g id="figure_1">
  <g id="patch_1">
   <path d="M 0 414.353766 
L 559.456 414.353766 
L 559.456 0 
L 0 0 
z
" style="fill:none;"/>
  </g>
  <g id="axes_1">
   <g id="patch_2">
    <path d="M 79.41 357.744 
L 435.084028 357.744 
L 435.084028 16.2 
L 79.41 16.2 
z
" style="fill:none;"/>
   </g>
   <g id="matplotlib.axis_1">
    <g id="xtick_1">
     <g id="line2d_1">
      <defs>
       <path d="M 0 0 
L 0 9 
" id="m1ca69c4923" style="stroke:#262626;stroke-width:1.875;"/>
      </defs>
      <g>
       <use style="fill:#262626;stroke:#262626;stroke-width:1.875;" x="95.577001" xlink:href="#m1ca69c4923" y="357.744"/>
      </g>
     </g>
     <g id="text_1">
      <!-- 0 -->
      <defs>
       <path d="M 4.15625 35.296875 
Q 4.15625 48 6.765625 55.734375 
Q 9.375 63.484375 14.515625 67.671875 
Q 19.671875 71.875 27.484375 71.875 
Q 33.25 71.875 37.59375 69.546875 
Q 41.9375 67.234375 44.765625 62.859375 
Q 47.609375 58.5 49.21875 52.21875 
Q 50.828125 45.953125 50.828125 35.296875 
Q 50.828125 22.703125 48.234375 14.96875 
Q 45.65625 7.234375 40.5 3 
Q 35.359375 -1.21875 27.484375 -1.21875 
Q 17.140625 -1.21875 11.234375 6.203125 
Q 4.15625 15.140625 4.15625 35.296875 
z
M 13.1875 35.296875 
Q 13.1875 17.671875 17.3125 11.828125 
Q 21.4375 6 27.484375 6 
Q 33.546875 6 37.671875 11.859375 
Q 41.796875 17.71875 41.796875 35.296875 
Q 41.796875 52.984375 37.671875 58.78125 
Q 33.546875 64.59375 27.390625 64.59375 
Q 21.34375 64.59375 17.71875 59.46875 
Q 13.1875 52.9375 13.1875 35.296875 
z
" id="ArialMT-48"/>
      </defs>
      <g style="fill:#262626;" transform="translate(90.989228 382.054391)scale(0.165 -0.165)">
       <use xlink:href="#ArialMT-48"/>
      </g>
     </g>
    </g>
    <g id="xtick_2">
     <g id="line2d_2">
      <g>
       <use style="fill:#262626;stroke:#262626;stroke-width:1.875;" x="146.828396" xlink:href="#m1ca69c4923" y="357.744"/>
      </g>
     </g>
     <g id="text_2">
      <!-- 0.1 -->
      <defs>
       <path d="M 9.078125 0 
L 9.078125 10.015625 
L 19.09375 10.015625 
L 19.09375 0 
z
" id="ArialMT-46"/>
       <path d="M 37.25 0 
L 28.46875 0 
L 28.46875 56 
Q 25.296875 52.984375 20.140625 49.953125 
Q 14.984375 46.921875 10.890625 45.40625 
L 10.890625 53.90625 
Q 18.265625 57.375 23.78125 62.296875 
Q 29.296875 67.234375 31.59375 71.875 
L 37.25 71.875 
z
" id="ArialMT-49"/>
      </defs>
      <g style="fill:#262626;" transform="translate(135.360896 382.054391)scale(0.165 -0.165)">
       <use xlink:href="#ArialMT-48"/>
       <use x="55.615234" xlink:href="#ArialMT-46"/>
       <use x="83.398438" xlink:href="#ArialMT-49"/>
      </g>
     </g>
    </g>
    <g id="xtick_3">
     <g id="line2d_3">
      <g>
       <use style="fill:#262626;stroke:#262626;stroke-width:1.875;" x="239.080906" xlink:href="#m1ca69c4923" y="357.744"/>
      </g>
     </g>
     <g id="text_3">
      <!-- 1 -->
      <g style="fill:#262626;" transform="translate(234.493132 382.054391)scale(0.165 -0.165)">
       <use xlink:href="#ArialMT-49"/>
      </g>
     </g>
    </g>
    <g id="xtick_4">
     <g id="line2d_4">
      <g>
       <use style="fill:#262626;stroke:#262626;stroke-width:1.875;" x="331.333416" xlink:href="#m1ca69c4923" y="357.744"/>
      </g>
     </g>
     <g id="text_4">
      <!-- 10 -->
      <g style="fill:#262626;" transform="translate(322.157869 382.054391)scale(0.165 -0.165)">
       <use xlink:href="#ArialMT-49"/>
       <use x="55.615234" xlink:href="#ArialMT-48"/>
      </g>
     </g>
    </g>
    <g id="xtick_5">
     <g id="line2d_5">
      <g>
       <use style="fill:#262626;stroke:#262626;stroke-width:1.875;" x="423.585926" xlink:href="#m1ca69c4923" y="357.744"/>
      </g>
     </g>
     <g id="text_5">
      <!-- 100 -->
      <g style="fill:#262626;" transform="translate(409.822605 382.054391)scale(0.165 -0.165)">
       <use xlink:href="#ArialMT-49"/>
       <use x="55.615234" xlink:href="#ArialMT-48"/>
       <use x="111.230469" xlink:href="#ArialMT-48"/>
      </g>
     </g>
    </g>
    <g id="xtick_6">
     <g id="line2d_6">
      <defs>
       <path d="M 0 0 
L 0 6 
" id="m10f8ef5fc2" style="stroke:#262626;stroke-width:1.5;"/>
      </defs>
      <g>
       <use style="fill:#262626;stroke:#262626;stroke-width:1.5;" x="95.577001" xlink:href="#m10f8ef5fc2" y="357.744"/>
      </g>
     </g>
    </g>
    <g id="xtick_7">
     <g id="line2d_7">
      <g>
       <use style="fill:#262626;stroke:#262626;stroke-width:1.5;" x="174.599168" xlink:href="#m10f8ef5fc2" y="357.744"/>
      </g>
     </g>
    </g>
    <g id="xtick_8">
     <g id="line2d_8">
      <g>
       <use style="fill:#262626;stroke:#262626;stroke-width:1.5;" x="190.844029" xlink:href="#m10f8ef5fc2" y="357.744"/>
      </g>
     </g>
    </g>
    <g id="xtick_9">
     <g id="line2d_9">
      <g>
       <use style="fill:#262626;stroke:#262626;stroke-width:1.5;" x="202.369941" xlink:href="#m10f8ef5fc2" y="357.744"/>
      </g>
     </g>
    </g>
    <g id="xtick_10">
     <g id="line2d_10">
      <g>
       <use style="fill:#262626;stroke:#262626;stroke-width:1.5;" x="211.310133" xlink:href="#m10f8ef5fc2" y="357.744"/>
      </g>
     </g>
    </g>
    <g id="xtick_11">
     <g id="line2d_11">
      <g>
       <use style="fill:#262626;stroke:#262626;stroke-width:1.5;" x="218.614802" xlink:href="#m10f8ef5fc2" y="357.744"/>
      </g>
     </g>
    </g>
    <g id="xtick_12">
     <g id="line2d_12">
      <g>
       <use style="fill:#262626;stroke:#262626;stroke-width:1.5;" x="224.790811" xlink:href="#m10f8ef5fc2" y="357.744"/>
      </g>
     </g>
    </g>
    <g id="xtick_13">
     <g id="line2d_13">
      <g>
       <use style="fill:#262626;stroke:#262626;stroke-width:1.5;" x="230.140714" xlink:href="#m10f8ef5fc2" y="357.744"/>
      </g>
     </g>
    </g>
    <g id="xtick_14">
     <g id="line2d_14">
      <g>
       <use style="fill:#262626;stroke:#262626;stroke-width:1.5;" x="234.859662" xlink:href="#m10f8ef5fc2" y="357.744"/>
      </g>
     </g>
    </g>
    <g id="xtick_15">
     <g id="line2d_15">
      <g>
       <use style="fill:#262626;stroke:#262626;stroke-width:1.5;" x="266.851678" xlink:href="#m10f8ef5fc2" y="357.744"/>
      </g>
     </g>
    </g>
    <g id="xtick_16">
     <g id="line2d_16">
      <g>
       <use style="fill:#262626;stroke:#262626;stroke-width:1.5;" x="283.096539" xlink:href="#m10f8ef5fc2" y="357.744"/>
      </g>
     </g>
    </g>
    <g id="xtick_17">
     <g id="line2d_17">
      <g>
       <use style="fill:#262626;stroke:#262626;stroke-width:1.5;" x="294.622451" xlink:href="#m10f8ef5fc2" y="357.744"/>
      </g>
     </g>
    </g>
    <g id="xtick_18">
     <g id="line2d_18">
      <g>
       <use style="fill:#262626;stroke:#262626;stroke-width:1.5;" x="303.562643" xlink:href="#m10f8ef5fc2" y="357.744"/>
      </g>
     </g>
    </g>
    <g id="xtick_19">
     <g id="line2d_19">
      <g>
       <use style="fill:#262626;stroke:#262626;stroke-width:1.5;" x="310.867312" xlink:href="#m10f8ef5fc2" y="357.744"/>
      </g>
     </g>
    </g>
    <g id="xtick_20">
     <g id="line2d_20">
      <g>
       <use style="fill:#262626;stroke:#262626;stroke-width:1.5;" x="317.043321" xlink:href="#m10f8ef5fc2" y="357.744"/>
      </g>
     </g>
    </g>
    <g id="xtick_21">
     <g id="line2d_21">
      <g>
       <use style="fill:#262626;stroke:#262626;stroke-width:1.5;" x="322.393224" xlink:href="#m10f8ef5fc2" y="357.744"/>
      </g>
     </g>
    </g>
    <g id="xtick_22">
     <g id="line2d_22">
      <g>
       <use style="fill:#262626;stroke:#262626;stroke-width:1.5;" x="327.112172" xlink:href="#m10f8ef5fc2" y="357.744"/>
      </g>
     </g>
    </g>
    <g id="xtick_23">
     <g id="line2d_23">
      <g>
       <use style="fill:#262626;stroke:#262626;stroke-width:1.5;" x="359.104188" xlink:href="#m10f8ef5fc2" y="357.744"/>
      </g>
     </g>
    </g>
    <g id="xtick_24">
     <g id="line2d_24">
      <g>
       <use style="fill:#262626;stroke:#262626;stroke-width:1.5;" x="375.349049" xlink:href="#m10f8ef5fc2" y="357.744"/>
      </g>
     </g>
    </g>
    <g id="xtick_25">
     <g id="line2d_25">
      <g>
       <use style="fill:#262626;stroke:#262626;stroke-width:1.5;" x="386.874961" xlink:href="#m10f8ef5fc2" y="357.744"/>
      </g>
     </g>
    </g>
    <g id="xtick_26">
     <g id="line2d_26">
      <g>
       <use style="fill:#262626;stroke:#262626;stroke-width:1.5;" x="395.815153" xlink:href="#m10f8ef5fc2" y="357.744"/>
      </g>
     </g>
    </g>
    <g id="xtick_27">
     <g id="line2d_27">
      <g>
       <use style="fill:#262626;stroke:#262626;stroke-width:1.5;" x="403.119822" xlink:href="#m10f8ef5fc2" y="357.744"/>
      </g>
     </g>
    </g>
    <g id="xtick_28">
     <g id="line2d_28">
      <g>
       <use style="fill:#262626;stroke:#262626;stroke-width:1.5;" x="409.295831" xlink:href="#m10f8ef5fc2" y="357.744"/>
      </g>
     </g>
    </g>
    <g id="xtick_29">
     <g id="line2d_29">
      <g>
       <use style="fill:#262626;stroke:#262626;stroke-width:1.5;" x="414.645734" xlink:href="#m10f8ef5fc2" y="357.744"/>
      </g>
     </g>
    </g>
    <g id="xtick_30">
     <g id="line2d_30">
      <g>
       <use style="fill:#262626;stroke:#262626;stroke-width:1.5;" x="419.364682" xlink:href="#m10f8ef5fc2" y="357.744"/>
      </g>
     </g>
    </g>
    <g id="text_6">
     <!-- Tilt angle, $\theta$ ($\degree$) -->
     <defs>
      <path d="M 25.921875 0 
L 25.921875 63.140625 
L 2.34375 63.140625 
L 2.34375 71.578125 
L 59.078125 71.578125 
L 59.078125 63.140625 
L 35.40625 63.140625 
L 35.40625 0 
z
" id="ArialMT-84"/>
      <path d="M 6.640625 61.46875 
L 6.640625 71.578125 
L 15.4375 71.578125 
L 15.4375 61.46875 
z
M 6.640625 0 
L 6.640625 51.859375 
L 15.4375 51.859375 
L 15.4375 0 
z
" id="ArialMT-105"/>
      <path d="M 6.390625 0 
L 6.390625 71.578125 
L 15.1875 71.578125 
L 15.1875 0 
z
" id="ArialMT-108"/>
      <path d="M 25.78125 7.859375 
L 27.046875 0.09375 
Q 23.34375 -0.6875 20.40625 -0.6875 
Q 15.625 -0.6875 12.984375 0.828125 
Q 10.359375 2.34375 9.28125 4.8125 
Q 8.203125 7.28125 8.203125 15.1875 
L 8.203125 45.015625 
L 1.765625 45.015625 
L 1.765625 51.859375 
L 8.203125 51.859375 
L 8.203125 64.703125 
L 16.9375 69.96875 
L 16.9375 51.859375 
L 25.78125 51.859375 
L 25.78125 45.015625 
L 16.9375 45.015625 
L 16.9375 14.703125 
Q 16.9375 10.9375 17.40625 9.859375 
Q 17.875 8.796875 18.921875 8.15625 
Q 19.96875 7.515625 21.921875 7.515625 
Q 23.390625 7.515625 25.78125 7.859375 
z
" id="ArialMT-116"/>
      <path id="ArialMT-32"/>
      <path d="M 40.4375 6.390625 
Q 35.546875 2.25 31.03125 0.53125 
Q 26.515625 -1.171875 21.34375 -1.171875 
Q 12.796875 -1.171875 8.203125 3 
Q 3.609375 7.171875 3.609375 13.671875 
Q 3.609375 17.484375 5.34375 20.625 
Q 7.078125 23.78125 9.890625 25.6875 
Q 12.703125 27.59375 16.21875 28.5625 
Q 18.796875 29.25 24.03125 29.890625 
Q 34.671875 31.15625 39.703125 32.90625 
Q 39.75 34.71875 39.75 35.203125 
Q 39.75 40.578125 37.25 42.78125 
Q 33.890625 45.75 27.25 45.75 
Q 21.046875 45.75 18.09375 43.578125 
Q 15.140625 41.40625 13.71875 35.890625 
L 5.125 37.0625 
Q 6.296875 42.578125 8.984375 45.96875 
Q 11.671875 49.359375 16.75 51.1875 
Q 21.828125 53.03125 28.515625 53.03125 
Q 35.15625 53.03125 39.296875 51.46875 
Q 43.453125 49.90625 45.40625 47.53125 
Q 47.359375 45.171875 48.140625 41.546875 
Q 48.578125 39.3125 48.578125 33.453125 
L 48.578125 21.734375 
Q 48.578125 9.46875 49.140625 6.21875 
Q 49.703125 2.984375 51.375 0 
L 42.1875 0 
Q 40.828125 2.734375 40.4375 6.390625 
z
M 39.703125 26.03125 
Q 34.90625 24.078125 25.34375 22.703125 
Q 19.921875 21.921875 17.671875 20.9375 
Q 15.4375 19.96875 14.203125 18.09375 
Q 12.984375 16.21875 12.984375 13.921875 
Q 12.984375 10.40625 15.640625 8.0625 
Q 18.3125 5.71875 23.4375 5.71875 
Q 28.515625 5.71875 32.46875 7.9375 
Q 36.421875 10.15625 38.28125 14.015625 
Q 39.703125 17 39.703125 22.796875 
z
" id="ArialMT-97"/>
      <path d="M 6.59375 0 
L 6.59375 51.859375 
L 14.5 51.859375 
L 14.5 44.484375 
Q 20.21875 53.03125 31 53.03125 
Q 35.6875 53.03125 39.625 51.34375 
Q 43.5625 49.65625 45.515625 46.921875 
Q 47.46875 44.1875 48.25 40.4375 
Q 48.734375 37.984375 48.734375 31.890625 
L 48.734375 0 
L 39.9375 0 
L 39.9375 31.546875 
Q 39.9375 36.921875 38.90625 39.578125 
Q 37.890625 42.234375 35.28125 43.8125 
Q 32.671875 45.40625 29.15625 45.40625 
Q 23.53125 45.40625 19.453125 41.84375 
Q 15.375 38.28125 15.375 28.328125 
L 15.375 0 
z
" id="ArialMT-110"/>
      <path d="M 4.984375 -4.296875 
L 13.53125 -5.5625 
Q 14.0625 -9.515625 16.5 -11.328125 
Q 19.78125 -13.765625 25.4375 -13.765625 
Q 31.546875 -13.765625 34.859375 -11.328125 
Q 38.1875 -8.890625 39.359375 -4.5 
Q 40.046875 -1.8125 39.984375 6.78125 
Q 34.234375 0 25.640625 0 
Q 14.9375 0 9.078125 7.71875 
Q 3.21875 15.4375 3.21875 26.21875 
Q 3.21875 33.640625 5.90625 39.90625 
Q 8.59375 46.1875 13.6875 49.609375 
Q 18.796875 53.03125 25.6875 53.03125 
Q 34.859375 53.03125 40.828125 45.609375 
L 40.828125 51.859375 
L 48.921875 51.859375 
L 48.921875 7.03125 
Q 48.921875 -5.078125 46.453125 -10.125 
Q 44 -15.1875 38.640625 -18.109375 
Q 33.296875 -21.046875 25.484375 -21.046875 
Q 16.21875 -21.046875 10.5 -16.875 
Q 4.78125 -12.703125 4.984375 -4.296875 
z
M 12.25 26.859375 
Q 12.25 16.65625 16.296875 11.96875 
Q 20.359375 7.28125 26.46875 7.28125 
Q 32.515625 7.28125 36.609375 11.9375 
Q 40.71875 16.609375 40.71875 26.5625 
Q 40.71875 36.078125 36.5 40.90625 
Q 32.28125 45.75 26.3125 45.75 
Q 20.453125 45.75 16.34375 40.984375 
Q 12.25 36.234375 12.25 26.859375 
z
" id="ArialMT-103"/>
      <path d="M 42.09375 16.703125 
L 51.171875 15.578125 
Q 49.03125 7.625 43.21875 3.21875 
Q 37.40625 -1.171875 28.375 -1.171875 
Q 17 -1.171875 10.328125 5.828125 
Q 3.65625 12.84375 3.65625 25.484375 
Q 3.65625 38.578125 10.390625 45.796875 
Q 17.140625 53.03125 27.875 53.03125 
Q 38.28125 53.03125 44.875 45.953125 
Q 51.46875 38.875 51.46875 26.03125 
Q 51.46875 25.25 51.421875 23.6875 
L 12.75 23.6875 
Q 13.234375 15.140625 17.578125 10.59375 
Q 21.921875 6.0625 28.421875 6.0625 
Q 33.25 6.0625 36.671875 8.59375 
Q 40.09375 11.140625 42.09375 16.703125 
z
M 13.234375 30.90625 
L 42.1875 30.90625 
Q 41.609375 37.453125 38.875 40.71875 
Q 34.671875 45.796875 27.984375 45.796875 
Q 21.921875 45.796875 17.796875 41.75 
Q 13.671875 37.703125 13.234375 30.90625 
z
" id="ArialMT-101"/>
      <path d="M 8.890625 0 
L 8.890625 10.015625 
L 18.890625 10.015625 
L 18.890625 0 
Q 18.890625 -5.515625 16.9375 -8.90625 
Q 14.984375 -12.3125 10.75 -14.15625 
L 8.296875 -10.40625 
Q 11.078125 -9.1875 12.390625 -6.8125 
Q 13.71875 -4.4375 13.875 0 
z
" id="ArialMT-44"/>
      <path d="M 45.515625 34.671875 
L 14.453125 34.671875 
Q 12.359375 20.0625 14.5 13.875 
Q 17.1875 6.25 24.46875 6.25 
Q 31.78125 6.25 37.359375 13.921875 
Q 42.234375 20.65625 45.515625 34.671875 
z
M 47.015625 42.96875 
Q 48.34375 56.84375 46.625 61.71875 
Q 43.953125 69.4375 36.765625 69.4375 
Q 29.296875 69.4375 23.828125 61.8125 
Q 19.53125 55.671875 16.15625 42.96875 
z
M 38.1875 76.765625 
Q 49.90625 76.765625 54.59375 66.40625 
Q 59.28125 56.109375 55.71875 37.84375 
Q 52.203125 19.625 43.453125 9.28125 
Q 34.765625 -1.125 23.046875 -1.125 
Q 11.28125 -1.125 6.640625 9.28125 
Q 2 19.625 5.515625 37.84375 
Q 9.078125 56.109375 17.71875 66.40625 
Q 26.421875 76.765625 38.1875 76.765625 
z
" id="DejaVuSans-Oblique-952"/>
      <path d="M 23.390625 -21.046875 
Q 16.109375 -11.859375 11.078125 0.4375 
Q 6.0625 12.75 6.0625 25.921875 
Q 6.0625 37.546875 9.8125 48.1875 
Q 14.203125 60.546875 23.390625 72.796875 
L 29.6875 72.796875 
Q 23.78125 62.640625 21.875 58.296875 
Q 18.890625 51.5625 17.1875 44.234375 
Q 15.09375 35.109375 15.09375 25.875 
Q 15.09375 2.390625 29.6875 -21.046875 
z
" id="ArialMT-40"/>
      <path d="M 25 67.921875 
Q 21.09375 67.921875 18.40625 65.203125 
Q 15.71875 62.5 15.71875 58.59375 
Q 15.71875 54.734375 18.40625 52.078125 
Q 21.09375 49.421875 25 49.421875 
Q 28.90625 49.421875 31.59375 52.078125 
Q 34.28125 54.734375 34.28125 58.59375 
Q 34.28125 62.453125 31.5625 65.1875 
Q 28.859375 67.921875 25 67.921875 
z
M 25 74.21875 
Q 28.125 74.21875 31 73.015625 
Q 33.890625 71.828125 35.984375 69.578125 
Q 38.234375 67.390625 39.359375 64.59375 
Q 40.484375 61.8125 40.484375 58.59375 
Q 40.484375 52.15625 35.96875 47.6875 
Q 31.453125 43.21875 24.90625 43.21875 
Q 18.3125 43.21875 13.90625 47.609375 
Q 9.515625 52 9.515625 58.59375 
Q 9.515625 65.140625 14 69.671875 
Q 18.5 74.21875 25 74.21875 
z
" id="DejaVuSans-176"/>
      <path d="M 12.359375 -21.046875 
L 6.0625 -21.046875 
Q 20.65625 2.390625 20.65625 25.875 
Q 20.65625 35.0625 18.5625 44.09375 
Q 16.890625 51.421875 13.921875 58.15625 
Q 12.015625 62.546875 6.0625 72.796875 
L 12.359375 72.796875 
Q 21.53125 60.546875 25.921875 48.1875 
Q 29.6875 37.546875 29.6875 25.921875 
Q 29.6875 12.75 24.625 0.4375 
Q 19.578125 -11.859375 12.359375 -21.046875 
z
" id="ArialMT-41"/>
     </defs>
     <g style="fill:#262626;" transform="translate(197.217014 403.193766)scale(0.18 -0.18)">
      <use transform="translate(0 0.234375)" xlink:href="#ArialMT-84"/>
      <use transform="translate(61.083984 0.234375)" xlink:href="#ArialMT-105"/>
      <use transform="translate(83.300781 0.234375)" xlink:href="#ArialMT-108"/>
      <use transform="translate(105.517578 0.234375)" xlink:href="#ArialMT-116"/>
      <use transform="translate(133.300781 0.234375)" xlink:href="#ArialMT-32"/>
      <use transform="translate(161.083984 0.234375)" xlink:href="#ArialMT-97"/>
      <use transform="translate(216.699219 0.234375)" xlink:href="#ArialMT-110"/>
      <use transform="translate(272.314453 0.234375)" xlink:href="#ArialMT-103"/>
      <use transform="translate(327.929688 0.234375)" xlink:href="#ArialMT-108"/>
      <use transform="translate(350.146484 0.234375)" xlink:href="#ArialMT-101"/>
      <use transform="translate(405.761719 0.234375)" xlink:href="#ArialMT-44"/>
      <use transform="translate(433.544922 0.234375)" xlink:href="#ArialMT-32"/>
      <use transform="translate(461.328125 0.234375)" xlink:href="#DejaVuSans-Oblique-952"/>
      <use transform="translate(522.509766 0.234375)" xlink:href="#ArialMT-32"/>
      <use transform="translate(550.292969 0.234375)" xlink:href="#ArialMT-40"/>
      <use transform="translate(583.59375 0.234375)" xlink:href="#DejaVuSans-176"/>
      <use transform="translate(633.59375 0.234375)" xlink:href="#ArialMT-41"/>
     </g>
    </g>
   </g>
   <g id="matplotlib.axis_2">
    <g id="ytick_1">
     <g id="line2d_31">
      <defs>
       <path d="M 0 0 
L -9 0 
" id="m2ef5b40a3d" style="stroke:#262626;stroke-width:1.875;"/>
      </defs>
      <g>
       <use style="fill:#262626;stroke:#262626;stroke-width:1.875;" x="79.41" xlink:href="#m2ef5b40a3d" y="342.219281"/>
      </g>
     </g>
     <g id="text_7">
      <!-- $\mathdefault{10^{-2}}$ -->
      <defs>
       <path d="M 52.828125 31.203125 
L 5.5625 31.203125 
L 5.5625 39.40625 
L 52.828125 39.40625 
z
" id="ArialMT-8722"/>
       <path d="M 50.34375 8.453125 
L 50.34375 0 
L 3.03125 0 
Q 2.9375 3.171875 4.046875 6.109375 
Q 5.859375 10.9375 9.828125 15.625 
Q 13.8125 20.3125 21.34375 26.46875 
Q 33.015625 36.03125 37.109375 41.625 
Q 41.21875 47.21875 41.21875 52.203125 
Q 41.21875 57.421875 37.46875 61 
Q 33.734375 64.59375 27.734375 64.59375 
Q 21.390625 64.59375 17.578125 60.78125 
Q 13.765625 56.984375 13.71875 50.25 
L 4.6875 51.171875 
Q 5.609375 61.28125 11.65625 66.578125 
Q 17.71875 71.875 27.9375 71.875 
Q 38.234375 71.875 44.234375 66.15625 
Q 50.25 60.453125 50.25 52 
Q 50.25 47.703125 48.484375 43.546875 
Q 46.734375 39.40625 42.65625 34.8125 
Q 38.578125 30.21875 29.109375 22.21875 
Q 21.1875 15.578125 18.9375 13.203125 
Q 16.703125 10.84375 15.234375 8.453125 
z
" id="ArialMT-50"/>
      </defs>
      <g style="fill:#262626;" transform="translate(34.24 350.727093)scale(0.165 -0.165)">
       <use transform="translate(0 0.99375)" xlink:href="#ArialMT-49"/>
       <use transform="translate(55.615234 0.99375)" xlink:href="#ArialMT-48"/>
       <use transform="translate(112.972813 70.6875)scale(0.7)" xlink:href="#ArialMT-8722"/>
       <use transform="translate(153.851719 70.6875)scale(0.7)" xlink:href="#ArialMT-50"/>
      </g>
     </g>
    </g>
    <g id="ytick_2">
     <g id="line2d_32">
      <g>
       <use style="fill:#262626;stroke:#262626;stroke-width:1.875;" x="79.41" xlink:href="#m2ef5b40a3d" y="264.595642"/>
      </g>
     </g>
     <g id="text_8">
      <!-- $\mathdefault{10^{-1}}$ -->
      <g style="fill:#262626;" transform="translate(34.24 273.103455)scale(0.165 -0.165)">
       <use transform="translate(0 0.99375)" xlink:href="#ArialMT-49"/>
       <use transform="translate(55.615234 0.99375)" xlink:href="#ArialMT-48"/>
       <use transform="translate(112.972813 70.6875)scale(0.7)" xlink:href="#ArialMT-8722"/>
       <use transform="translate(153.851719 70.6875)scale(0.7)" xlink:href="#ArialMT-49"/>
      </g>
     </g>
    </g>
    <g id="ytick_3">
     <g id="line2d_33">
      <g>
       <use style="fill:#262626;stroke:#262626;stroke-width:1.875;" x="79.41" xlink:href="#m2ef5b40a3d" y="186.972004"/>
      </g>
     </g>
     <g id="text_9">
      <!-- $\mathdefault{10^{0}}$ -->
      <g style="fill:#262626;" transform="translate(41.005 195.479817)scale(0.165 -0.165)">
       <use transform="translate(0 0.99375)" xlink:href="#ArialMT-49"/>
       <use transform="translate(55.615234 0.99375)" xlink:href="#ArialMT-48"/>
       <use transform="translate(112.972813 70.6875)scale(0.7)" xlink:href="#ArialMT-48"/>
      </g>
     </g>
    </g>
    <g id="ytick_4">
     <g id="line2d_34">
      <g>
       <use style="fill:#262626;stroke:#262626;stroke-width:1.875;" x="79.41" xlink:href="#m2ef5b40a3d" y="109.348366"/>
      </g>
     </g>
     <g id="text_10">
      <!-- $\mathdefault{10^{1}}$ -->
      <g style="fill:#262626;" transform="translate(41.005 117.856178)scale(0.165 -0.165)">
       <use transform="translate(0 0.99375)" xlink:href="#ArialMT-49"/>
       <use transform="translate(55.615234 0.99375)" xlink:href="#ArialMT-48"/>
       <use transform="translate(112.972813 70.6875)scale(0.7)" xlink:href="#ArialMT-49"/>
      </g>
     </g>
    </g>
    <g id="ytick_5">
     <g id="line2d_35">
      <g>
       <use style="fill:#262626;stroke:#262626;stroke-width:1.875;" x="79.41" xlink:href="#m2ef5b40a3d" y="31.724727"/>
      </g>
     </g>
     <g id="text_11">
      <!-- $\mathdefault{10^{2}}$ -->
      <g style="fill:#262626;" transform="translate(41.005 40.23254)scale(0.165 -0.165)">
       <use transform="translate(0 0.99375)" xlink:href="#ArialMT-49"/>
       <use transform="translate(55.615234 0.99375)" xlink:href="#ArialMT-48"/>
       <use transform="translate(112.972813 70.6875)scale(0.7)" xlink:href="#ArialMT-50"/>
      </g>
     </g>
    </g>
    <g id="ytick_6">
     <g id="line2d_36">
      <defs>
       <path d="M 0 0 
L -6 0 
" id="m4faf65bfc5" style="stroke:#262626;stroke-width:1.5;"/>
      </defs>
      <g>
       <use style="fill:#262626;stroke:#262626;stroke-width:1.5;" x="79.41" xlink:href="#m4faf65bfc5" y="354.243335"/>
      </g>
     </g>
    </g>
    <g id="ytick_7">
     <g id="line2d_37">
      <g>
       <use style="fill:#262626;stroke:#262626;stroke-width:1.5;" x="79.41" xlink:href="#m4faf65bfc5" y="349.741789"/>
      </g>
     </g>
    </g>
    <g id="ytick_8">
     <g id="line2d_38">
      <g>
       <use style="fill:#262626;stroke:#262626;stroke-width:1.5;" x="79.41" xlink:href="#m4faf65bfc5" y="345.771144"/>
      </g>
     </g>
    </g>
    <g id="ytick_9">
     <g id="line2d_39">
      <g>
       <use style="fill:#262626;stroke:#262626;stroke-width:1.5;" x="79.41" xlink:href="#m4faf65bfc5" y="318.852237"/>
      </g>
     </g>
    </g>
    <g id="ytick_10">
     <g id="line2d_40">
      <g>
       <use style="fill:#262626;stroke:#262626;stroke-width:1.5;" x="79.41" xlink:href="#m4faf65bfc5" y="305.183393"/>
      </g>
     </g>
    </g>
    <g id="ytick_11">
     <g id="line2d_41">
      <g>
       <use style="fill:#262626;stroke:#262626;stroke-width:1.5;" x="79.41" xlink:href="#m4faf65bfc5" y="295.485194"/>
      </g>
     </g>
    </g>
    <g id="ytick_12">
     <g id="line2d_42">
      <g>
       <use style="fill:#262626;stroke:#262626;stroke-width:1.5;" x="79.41" xlink:href="#m4faf65bfc5" y="287.962686"/>
      </g>
     </g>
    </g>
    <g id="ytick_13">
     <g id="line2d_43">
      <g>
       <use style="fill:#262626;stroke:#262626;stroke-width:1.5;" x="79.41" xlink:href="#m4faf65bfc5" y="281.81635"/>
      </g>
     </g>
    </g>
    <g id="ytick_14">
     <g id="line2d_44">
      <g>
       <use style="fill:#262626;stroke:#262626;stroke-width:1.5;" x="79.41" xlink:href="#m4faf65bfc5" y="276.619696"/>
      </g>
     </g>
    </g>
    <g id="ytick_15">
     <g id="line2d_45">
      <g>
       <use style="fill:#262626;stroke:#262626;stroke-width:1.5;" x="79.41" xlink:href="#m4faf65bfc5" y="272.11815"/>
      </g>
     </g>
    </g>
    <g id="ytick_16">
     <g id="line2d_46">
      <g>
       <use style="fill:#262626;stroke:#262626;stroke-width:1.5;" x="79.41" xlink:href="#m4faf65bfc5" y="268.147505"/>
      </g>
     </g>
    </g>
    <g id="ytick_17">
     <g id="line2d_47">
      <g>
       <use style="fill:#262626;stroke:#262626;stroke-width:1.5;" x="79.41" xlink:href="#m4faf65bfc5" y="241.228599"/>
      </g>
     </g>
    </g>
    <g id="ytick_18">
     <g id="line2d_48">
      <g>
       <use style="fill:#262626;stroke:#262626;stroke-width:1.5;" x="79.41" xlink:href="#m4faf65bfc5" y="227.559755"/>
      </g>
     </g>
    </g>
    <g id="ytick_19">
     <g id="line2d_49">
      <g>
       <use style="fill:#262626;stroke:#262626;stroke-width:1.5;" x="79.41" xlink:href="#m4faf65bfc5" y="217.861555"/>
      </g>
     </g>
    </g>
    <g id="ytick_20">
     <g id="line2d_50">
      <g>
       <use style="fill:#262626;stroke:#262626;stroke-width:1.5;" x="79.41" xlink:href="#m4faf65bfc5" y="210.339048"/>
      </g>
     </g>
    </g>
    <g id="ytick_21">
     <g id="line2d_51">
      <g>
       <use style="fill:#262626;stroke:#262626;stroke-width:1.5;" x="79.41" xlink:href="#m4faf65bfc5" y="204.192711"/>
      </g>
     </g>
    </g>
    <g id="ytick_22">
     <g id="line2d_52">
      <g>
       <use style="fill:#262626;stroke:#262626;stroke-width:1.5;" x="79.41" xlink:href="#m4faf65bfc5" y="198.996058"/>
      </g>
     </g>
    </g>
    <g id="ytick_23">
     <g id="line2d_53">
      <g>
       <use style="fill:#262626;stroke:#262626;stroke-width:1.5;" x="79.41" xlink:href="#m4faf65bfc5" y="194.494512"/>
      </g>
     </g>
    </g>
    <g id="ytick_24">
     <g id="line2d_54">
      <g>
       <use style="fill:#262626;stroke:#262626;stroke-width:1.5;" x="79.41" xlink:href="#m4faf65bfc5" y="190.523867"/>
      </g>
     </g>
    </g>
    <g id="ytick_25">
     <g id="line2d_55">
      <g>
       <use style="fill:#262626;stroke:#262626;stroke-width:1.5;" x="79.41" xlink:href="#m4faf65bfc5" y="163.604961"/>
      </g>
     </g>
    </g>
    <g id="ytick_26">
     <g id="line2d_56">
      <g>
       <use style="fill:#262626;stroke:#262626;stroke-width:1.5;" x="79.41" xlink:href="#m4faf65bfc5" y="149.936116"/>
      </g>
     </g>
    </g>
    <g id="ytick_27">
     <g id="line2d_57">
      <g>
       <use style="fill:#262626;stroke:#262626;stroke-width:1.5;" x="79.41" xlink:href="#m4faf65bfc5" y="140.237917"/>
      </g>
     </g>
    </g>
    <g id="ytick_28">
     <g id="line2d_58">
      <g>
       <use style="fill:#262626;stroke:#262626;stroke-width:1.5;" x="79.41" xlink:href="#m4faf65bfc5" y="132.715409"/>
      </g>
     </g>
    </g>
    <g id="ytick_29">
     <g id="line2d_59">
      <g>
       <use style="fill:#262626;stroke:#262626;stroke-width:1.5;" x="79.41" xlink:href="#m4faf65bfc5" y="126.569073"/>
      </g>
     </g>
    </g>
    <g id="ytick_30">
     <g id="line2d_60">
      <g>
       <use style="fill:#262626;stroke:#262626;stroke-width:1.5;" x="79.41" xlink:href="#m4faf65bfc5" y="121.372419"/>
      </g>
     </g>
    </g>
    <g id="ytick_31">
     <g id="line2d_61">
      <g>
       <use style="fill:#262626;stroke:#262626;stroke-width:1.5;" x="79.41" xlink:href="#m4faf65bfc5" y="116.870873"/>
      </g>
     </g>
    </g>
    <g id="ytick_32">
     <g id="line2d_62">
      <g>
       <use style="fill:#262626;stroke:#262626;stroke-width:1.5;" x="79.41" xlink:href="#m4faf65bfc5" y="112.900229"/>
      </g>
     </g>
    </g>
    <g id="ytick_33">
     <g id="line2d_63">
      <g>
       <use style="fill:#262626;stroke:#262626;stroke-width:1.5;" x="79.41" xlink:href="#m4faf65bfc5" y="85.981322"/>
      </g>
     </g>
    </g>
    <g id="ytick_34">
     <g id="line2d_64">
      <g>
       <use style="fill:#262626;stroke:#262626;stroke-width:1.5;" x="79.41" xlink:href="#m4faf65bfc5" y="72.312478"/>
      </g>
     </g>
    </g>
    <g id="ytick_35">
     <g id="line2d_65">
      <g>
       <use style="fill:#262626;stroke:#262626;stroke-width:1.5;" x="79.41" xlink:href="#m4faf65bfc5" y="62.614279"/>
      </g>
     </g>
    </g>
    <g id="ytick_36">
     <g id="line2d_66">
      <g>
       <use style="fill:#262626;stroke:#262626;stroke-width:1.5;" x="79.41" xlink:href="#m4faf65bfc5" y="55.091771"/>
      </g>
     </g>
    </g>
    <g id="ytick_37">
     <g id="line2d_67">
      <g>
       <use style="fill:#262626;stroke:#262626;stroke-width:1.5;" x="79.41" xlink:href="#m4faf65bfc5" y="48.945434"/>
      </g>
     </g>
    </g>
    <g id="ytick_38">
     <g id="line2d_68">
      <g>
       <use style="fill:#262626;stroke:#262626;stroke-width:1.5;" x="79.41" xlink:href="#m4faf65bfc5" y="43.748781"/>
      </g>
     </g>
    </g>
    <g id="ytick_39">
     <g id="line2d_69">
      <g>
       <use style="fill:#262626;stroke:#262626;stroke-width:1.5;" x="79.41" xlink:href="#m4faf65bfc5" y="39.247235"/>
      </g>
     </g>
    </g>
    <g id="ytick_40">
     <g id="line2d_70">
      <g>
       <use style="fill:#262626;stroke:#262626;stroke-width:1.5;" x="79.41" xlink:href="#m4faf65bfc5" y="35.27659"/>
      </g>
     </g>
    </g>
    <g id="text_12">
     <!-- Adhesion force, $\hat{F}_{adh}$ -->
     <defs>
      <path d="M -0.140625 0 
L 27.34375 71.578125 
L 37.546875 71.578125 
L 66.84375 0 
L 56.0625 0 
L 47.703125 21.6875 
L 17.78125 21.6875 
L 9.90625 0 
z
M 20.515625 29.390625 
L 44.78125 29.390625 
L 37.3125 49.21875 
Q 33.890625 58.25 32.234375 64.0625 
Q 30.859375 57.171875 28.375 50.390625 
z
" id="ArialMT-65"/>
      <path d="M 40.234375 0 
L 40.234375 6.546875 
Q 35.296875 -1.171875 25.734375 -1.171875 
Q 19.53125 -1.171875 14.328125 2.25 
Q 9.125 5.671875 6.265625 11.796875 
Q 3.421875 17.921875 3.421875 25.875 
Q 3.421875 33.640625 6 39.96875 
Q 8.59375 46.296875 13.765625 49.65625 
Q 18.953125 53.03125 25.34375 53.03125 
Q 30.03125 53.03125 33.6875 51.046875 
Q 37.359375 49.078125 39.65625 45.90625 
L 39.65625 71.578125 
L 48.390625 71.578125 
L 48.390625 0 
z
M 12.453125 25.875 
Q 12.453125 15.921875 16.640625 10.984375 
Q 20.84375 6.0625 26.5625 6.0625 
Q 32.328125 6.0625 36.34375 10.765625 
Q 40.375 15.484375 40.375 25.140625 
Q 40.375 35.796875 36.265625 40.765625 
Q 32.171875 45.75 26.171875 45.75 
Q 20.3125 45.75 16.375 40.96875 
Q 12.453125 36.1875 12.453125 25.875 
z
" id="ArialMT-100"/>
      <path d="M 6.59375 0 
L 6.59375 71.578125 
L 15.375 71.578125 
L 15.375 45.90625 
Q 21.53125 53.03125 30.90625 53.03125 
Q 36.671875 53.03125 40.921875 50.75 
Q 45.171875 48.484375 47 44.484375 
Q 48.828125 40.484375 48.828125 32.859375 
L 48.828125 0 
L 40.046875 0 
L 40.046875 32.859375 
Q 40.046875 39.453125 37.1875 42.453125 
Q 34.328125 45.453125 29.109375 45.453125 
Q 25.203125 45.453125 21.75 43.421875 
Q 18.3125 41.40625 16.84375 37.9375 
Q 15.375 34.46875 15.375 28.375 
L 15.375 0 
z
" id="ArialMT-104"/>
      <path d="M 3.078125 15.484375 
L 11.765625 16.84375 
Q 12.5 11.625 15.84375 8.84375 
Q 19.1875 6.0625 25.203125 6.0625 
Q 31.25 6.0625 34.171875 8.515625 
Q 37.109375 10.984375 37.109375 14.3125 
Q 37.109375 17.28125 34.515625 19 
Q 32.71875 20.171875 25.53125 21.96875 
Q 15.875 24.421875 12.140625 26.203125 
Q 8.40625 27.984375 6.46875 31.125 
Q 4.546875 34.28125 4.546875 38.09375 
Q 4.546875 41.546875 6.125 44.5 
Q 7.71875 47.46875 10.453125 49.421875 
Q 12.5 50.921875 16.03125 51.96875 
Q 19.578125 53.03125 23.640625 53.03125 
Q 29.734375 53.03125 34.34375 51.265625 
Q 38.96875 49.515625 41.15625 46.5 
Q 43.359375 43.5 44.1875 38.484375 
L 35.59375 37.3125 
Q 35.015625 41.3125 32.203125 43.546875 
Q 29.390625 45.796875 24.265625 45.796875 
Q 18.21875 45.796875 15.625 43.796875 
Q 13.03125 41.796875 13.03125 39.109375 
Q 13.03125 37.40625 14.109375 36.03125 
Q 15.1875 34.625 17.484375 33.6875 
Q 18.796875 33.203125 25.25 31.453125 
Q 34.578125 28.953125 38.25 27.359375 
Q 41.9375 25.78125 44.03125 22.75 
Q 46.140625 19.734375 46.140625 15.234375 
Q 46.140625 10.84375 43.578125 6.953125 
Q 41.015625 3.078125 36.171875 0.953125 
Q 31.34375 -1.171875 25.25 -1.171875 
Q 15.140625 -1.171875 9.84375 3.03125 
Q 4.546875 7.234375 3.078125 15.484375 
z
" id="ArialMT-115"/>
      <path d="M 3.328125 25.921875 
Q 3.328125 40.328125 11.328125 47.265625 
Q 18.015625 53.03125 27.640625 53.03125 
Q 38.328125 53.03125 45.109375 46.015625 
Q 51.90625 39.015625 51.90625 26.65625 
Q 51.90625 16.65625 48.90625 10.90625 
Q 45.90625 5.171875 40.15625 2 
Q 34.421875 -1.171875 27.640625 -1.171875 
Q 16.75 -1.171875 10.03125 5.8125 
Q 3.328125 12.796875 3.328125 25.921875 
z
M 12.359375 25.921875 
Q 12.359375 15.96875 16.703125 11.015625 
Q 21.046875 6.0625 27.640625 6.0625 
Q 34.1875 6.0625 38.53125 11.03125 
Q 42.875 16.015625 42.875 26.21875 
Q 42.875 35.84375 38.5 40.796875 
Q 34.125 45.75 27.640625 45.75 
Q 21.046875 45.75 16.703125 40.8125 
Q 12.359375 35.890625 12.359375 25.921875 
z
" id="ArialMT-111"/>
      <path d="M 8.6875 0 
L 8.6875 45.015625 
L 0.921875 45.015625 
L 0.921875 51.859375 
L 8.6875 51.859375 
L 8.6875 57.375 
Q 8.6875 62.59375 9.625 65.140625 
Q 10.890625 68.5625 14.078125 70.671875 
Q 17.28125 72.796875 23.046875 72.796875 
Q 26.765625 72.796875 31.25 71.921875 
L 29.9375 64.265625 
Q 27.203125 64.75 24.75 64.75 
Q 20.75 64.75 19.09375 63.03125 
Q 17.4375 61.328125 17.4375 56.640625 
L 17.4375 51.859375 
L 27.546875 51.859375 
L 27.546875 45.015625 
L 17.4375 45.015625 
L 17.4375 0 
z
" id="ArialMT-102"/>
      <path d="M 6.5 0 
L 6.5 51.859375 
L 14.40625 51.859375 
L 14.40625 44 
Q 17.4375 49.515625 20 51.265625 
Q 22.5625 53.03125 25.640625 53.03125 
Q 30.078125 53.03125 34.671875 50.203125 
L 31.640625 42.046875 
Q 28.421875 43.953125 25.203125 43.953125 
Q 22.3125 43.953125 20.015625 42.21875 
Q 17.71875 40.484375 16.75 37.40625 
Q 15.28125 32.71875 15.28125 27.15625 
L 15.28125 0 
z
" id="ArialMT-114"/>
      <path d="M 40.4375 19 
L 49.078125 17.875 
Q 47.65625 8.9375 41.8125 3.875 
Q 35.984375 -1.171875 27.484375 -1.171875 
Q 16.84375 -1.171875 10.375 5.78125 
Q 3.90625 12.75 3.90625 25.734375 
Q 3.90625 34.125 6.6875 40.421875 
Q 9.46875 46.734375 15.15625 49.875 
Q 20.84375 53.03125 27.546875 53.03125 
Q 35.984375 53.03125 41.359375 48.75 
Q 46.734375 44.484375 48.25 36.625 
L 39.703125 35.296875 
Q 38.484375 40.53125 35.375 43.15625 
Q 32.28125 45.796875 27.875 45.796875 
Q 21.234375 45.796875 17.078125 41.03125 
Q 12.9375 36.28125 12.9375 25.984375 
Q 12.9375 15.53125 16.9375 10.796875 
Q 20.953125 6.0625 27.390625 6.0625 
Q 32.5625 6.0625 36.03125 9.234375 
Q 39.5 12.40625 40.4375 19 
z
" id="ArialMT-99"/>
      <path d="M -28.609375 79.984375 
L -21.390625 79.984375 
L -9.421875 61.625 
L -16.21875 61.625 
L -25 73.578125 
L -33.796875 61.625 
L -40.578125 61.625 
z
M -25 56 
z
" id="DejaVuSans-770"/>
      <path d="M 16.890625 72.90625 
L 58.6875 72.90625 
L 57.078125 64.59375 
L 25.09375 64.59375 
L 20.90625 43.109375 
L 49.8125 43.109375 
L 48.1875 34.8125 
L 19.28125 34.8125 
L 12.5 0 
L 2.6875 0 
z
" id="DejaVuSans-Oblique-70"/>
      <path d="M 53.71875 31.203125 
L 47.609375 0 
L 38.625 0 
L 40.28125 8.296875 
Q 36.328125 3.421875 31.265625 1 
Q 26.21875 -1.421875 20.015625 -1.421875 
Q 13.03125 -1.421875 8.5625 2.84375 
Q 4.109375 7.125 4.109375 13.8125 
Q 4.109375 23.390625 11.75 28.953125 
Q 19.390625 34.515625 32.8125 34.515625 
L 45.3125 34.515625 
L 45.796875 36.921875 
Q 45.90625 37.3125 45.953125 37.765625 
Q 46 38.234375 46 39.203125 
Q 46 43.5625 42.453125 45.96875 
Q 38.921875 48.390625 32.515625 48.390625 
Q 28.125 48.390625 23.5 47.265625 
Q 18.890625 46.140625 14.015625 43.890625 
L 15.578125 52.203125 
Q 20.65625 54.109375 25.515625 55.046875 
Q 30.375 56 34.90625 56 
Q 44.578125 56 49.625 51.796875 
Q 54.6875 47.609375 54.6875 39.59375 
Q 54.6875 37.984375 54.4375 35.8125 
Q 54.203125 33.640625 53.71875 31.203125 
z
M 44 27.484375 
L 35.015625 27.484375 
Q 23.96875 27.484375 18.671875 24.53125 
Q 13.375 21.578125 13.375 15.375 
Q 13.375 11.078125 16.078125 8.640625 
Q 18.796875 6.203125 23.578125 6.203125 
Q 30.90625 6.203125 36.375 11.453125 
Q 41.84375 16.703125 43.609375 25.484375 
z
" id="DejaVuSans-Oblique-97"/>
      <path d="M 41.796875 8.203125 
Q 38.1875 3.46875 33.25 1.015625 
Q 28.328125 -1.421875 22.3125 -1.421875 
Q 14.109375 -1.421875 9.34375 4.171875 
Q 4.59375 9.765625 4.59375 19.484375 
Q 4.59375 27.59375 7.46875 34.9375 
Q 10.359375 42.28125 15.828125 48.09375 
Q 19.4375 51.953125 23.96875 53.96875 
Q 28.515625 56 33.5 56 
Q 38.765625 56 42.796875 53.453125 
Q 46.828125 50.921875 49.03125 46.1875 
L 54.890625 75.984375 
L 63.921875 75.984375 
L 49.125 0 
L 40.09375 0 
z
M 13.921875 21.09375 
Q 13.921875 14.015625 17.109375 10.0625 
Q 20.3125 6.109375 25.984375 6.109375 
Q 30.171875 6.109375 33.765625 8.125 
Q 37.359375 10.15625 40.09375 14.109375 
Q 42.96875 18.21875 44.625 23.578125 
Q 46.296875 28.953125 46.296875 34.1875 
Q 46.296875 40.96875 43.09375 44.765625 
Q 39.890625 48.578125 34.28125 48.578125 
Q 30.03125 48.578125 26.359375 46.578125 
Q 22.703125 44.578125 20.125 40.828125 
Q 17.28125 36.765625 15.59375 31.390625 
Q 13.921875 26.03125 13.921875 21.09375 
z
" id="DejaVuSans-Oblique-100"/>
      <path d="M 55.71875 33.015625 
L 49.3125 0 
L 40.28125 0 
L 46.6875 32.671875 
Q 47.125 34.96875 47.359375 36.71875 
Q 47.609375 38.484375 47.609375 39.5 
Q 47.609375 43.609375 45.015625 45.890625 
Q 42.4375 48.1875 37.796875 48.1875 
Q 30.5625 48.1875 25.265625 43.296875 
Q 19.96875 38.421875 18.40625 30.328125 
L 12.5 0 
L 3.515625 0 
L 18.3125 75.984375 
L 27.296875 75.984375 
L 21.484375 46.09375 
Q 24.90625 50.6875 30.21875 53.34375 
Q 35.546875 56 41.40625 56 
Q 48.640625 56 52.609375 52.09375 
Q 56.59375 48.1875 56.59375 41.109375 
Q 56.59375 39.359375 56.375 37.359375 
Q 56.15625 35.359375 55.71875 33.015625 
z
" id="DejaVuSans-Oblique-104"/>
     </defs>
     <g style="fill:#262626;" transform="translate(26.6625 269.412)rotate(-90)scale(0.18 -0.18)">
      <use transform="translate(0 0.609375)" xlink:href="#ArialMT-65"/>
      <use transform="translate(66.699219 0.609375)" xlink:href="#ArialMT-100"/>
      <use transform="translate(122.314453 0.609375)" xlink:href="#ArialMT-104"/>
      <use transform="translate(177.929688 0.609375)" xlink:href="#ArialMT-101"/>
      <use transform="translate(233.544922 0.609375)" xlink:href="#ArialMT-115"/>
      <use transform="translate(283.544922 0.609375)" xlink:href="#ArialMT-105"/>
      <use transform="translate(305.761719 0.609375)" xlink:href="#ArialMT-111"/>
      <use transform="translate(361.376953 0.609375)" xlink:href="#ArialMT-110"/>
      <use transform="translate(416.992188 0.609375)" xlink:href="#ArialMT-32"/>
      <use transform="translate(444.775391 0.609375)" xlink:href="#ArialMT-102"/>
      <use transform="translate(472.558594 0.609375)" xlink:href="#ArialMT-111"/>
      <use transform="translate(528.173828 0.609375)" xlink:href="#ArialMT-114"/>
      <use transform="translate(561.474609 0.609375)" xlink:href="#ArialMT-99"/>
      <use transform="translate(611.474609 0.609375)" xlink:href="#ArialMT-101"/>
      <use transform="translate(667.089844 0.609375)" xlink:href="#ArialMT-44"/>
      <use transform="translate(694.873047 0.609375)" xlink:href="#ArialMT-32"/>
      <use transform="translate(783.614258 30.015625)" xlink:href="#DejaVuSans-770"/>
      <use transform="translate(722.65625 0.609375)" xlink:href="#DejaVuSans-Oblique-70"/>
      <use transform="translate(781.132812 -15.796875)scale(0.7)" xlink:href="#DejaVuSans-Oblique-97"/>
      <use transform="translate(824.02832 -15.796875)scale(0.7)" xlink:href="#DejaVuSans-Oblique-100"/>
      <use transform="translate(868.461914 -15.796875)scale(0.7)" xlink:href="#DejaVuSans-Oblique-104"/>
     </g>
    </g>
   </g>
   <g id="line2d_71">
    <path clip-path="url(#pd5c0aac1dc)" d="M 95.577001 264.595642 
L 100.702141 267.3531 
L 105.82728 270.356361 
L 110.95242 273.653573 
L 116.077559 277.308586 
L 121.202699 281.408614 
L 126.327838 286.077242 
L 131.452977 290.716285 
L 136.578117 294.665592 
L 141.703256 298.088485 
L 146.828396 301.097009 
L 153.805027 305.945747 
L 160.781659 310.620002 
L 167.75829 315.09386 
L 174.734922 319.338931 
L 181.711554 323.324571 
L 188.688185 327.01829 
L 195.664817 330.386368 
L 202.641448 333.394682 
L 209.61808 336.00975 
L 216.594711 338.199957 
L 223.571343 339.936886 
L 230.547975 341.196668 
L 237.524606 341.961225 
L 244.501238 342.219273 
L 251.477869 341.966993 
L 258.454501 341.208267 
L 265.431132 339.954465 
L 272.407764 338.223814 
L 279.384396 336.040421 
L 286.361027 333.433076 
L 293.337659 330.433964 
L 300.31429 327.077406 
L 307.290922 323.398747 
L 314.267553 319.433474 
L 321.244185 315.216601 
L 328.220817 310.782383 
L 335.197448 306.164359 
L 342.17408 301.395785 
L 349.150711 296.510478 
L 356.127343 291.544194 
L 363.103974 286.536679 
L 370.080606 281.534671 
L 377.057237 276.596271 
L 384.033869 271.797437 
L 391.010501 267.241834 
L 397.987132 263.076374 
L 404.963764 259.516952 
L 411.940395 256.894164 
L 418.917027 255.742915 
" style="fill:none;stroke:#1f77b4;stroke-linecap:round;stroke-width:2.25;"/>
   </g>
   <g id="line2d_72">
    <path clip-path="url(#pd5c0aac1dc)" d="M 95.577001 186.972004 
L 100.702141 228.528624 
L 105.82728 251.314889 
L 110.95242 264.407914 
L 116.077559 273.53517 
L 121.202699 280.491529 
L 126.327838 286.07643 
L 131.452977 290.716285 
L 136.578117 294.665592 
L 141.703256 298.088485 
L 146.828396 301.097009 
L 153.805027 305.945747 
L 160.781659 310.620002 
L 167.75829 315.09386 
L 174.734922 319.338931 
L 181.711554 323.324571 
L 188.688185 327.01829 
L 195.664817 330.386368 
L 202.641448 333.394682 
L 209.61808 336.00975 
L 216.594711 338.199957 
L 223.571343 339.936886 
L 230.547975 341.196668 
L 237.524606 341.961225 
L 244.501238 342.219273 
L 251.477869 341.966993 
L 258.454501 341.208267 
L 265.431132 339.954465 
L 272.407764 338.223814 
L 279.384396 336.040421 
L 286.361027 333.433076 
L 293.337659 330.433964 
L 300.31429 327.077406 
L 307.290922 323.398747 
L 314.267553 319.433474 
L 321.244185 315.216601 
L 328.220817 310.782383 
L 335.197448 306.164359 
L 342.17408 301.395785 
L 349.150711 296.510478 
L 356.127343 291.544194 
L 363.103974 286.536679 
L 370.080606 281.534671 
L 377.057237 276.596271 
L 384.033869 271.797437 
L 391.010501 267.241834 
L 397.987132 263.076374 
L 404.963764 259.516952 
L 411.940395 256.894164 
L 418.917027 255.742915 
" style="fill:none;stroke:#1f77b4;stroke-dasharray:9,3.375;stroke-dashoffset:0;stroke-width:2.25;"/>
   </g>
   <g id="line2d_73">
    <path clip-path="url(#pd5c0aac1dc)" d="M 95.577001 210.339048 
L 100.702141 210.87279 
L 105.82728 211.415119 
L 110.95242 211.966315 
L 116.077559 212.526674 
L 121.202699 213.096505 
L 126.327838 213.676133 
L 131.452977 214.265902 
L 136.578117 214.866173 
L 141.703256 215.477325 
L 146.828396 216.099763 
L 153.805027 217.316421 
L 160.781659 218.824173 
L 167.75829 220.711304 
L 174.734922 223.104414 
L 181.711554 226.193567 
L 188.688185 230.282257 
L 195.664817 235.448429 
L 202.641448 240.607308 
L 209.61808 245.640517 
L 216.594711 250.527838 
L 223.571343 255.246535 
L 230.547975 259.771301 
L 237.524606 264.074319 
L 244.501238 268.125448 
L 251.477869 271.892588 
L 258.454501 275.342244 
L 265.431132 278.440309 
L 272.407764 281.153076 
L 279.384396 283.448439 
L 286.361027 285.297242 
L 293.337659 286.674675 
L 300.31429 287.561628 
L 307.290922 287.945865 
L 314.267553 287.822926 
L 321.244185 287.19668 
L 328.220817 286.079513 
L 335.197448 284.492217 
L 342.17408 282.463685 
L 349.150711 280.030611 
L 356.127343 277.237443 
L 363.103974 274.136884 
L 370.080606 270.791311 
L 377.057237 267.275621 
L 384.033869 263.682182 
L 391.010501 260.129041 
L 397.987132 256.773335 
L 404.963764 253.833609 
L 411.940395 251.628733 
L 418.917027 250.651234 
" style="fill:none;stroke:#ff7f0e;stroke-linecap:round;stroke-width:2.25;"/>
   </g>
   <g id="line2d_74">
    <path clip-path="url(#pd5c0aac1dc)" d="M 95.577001 132.715409 
L 100.702141 139.110274 
L 105.82728 147.009045 
L 110.95242 157.28504 
L 116.077559 166.866277 
L 121.202699 174.272025 
L 126.327838 180.301803 
L 131.452977 185.382099 
L 136.578117 189.767488 
L 141.703256 193.622175 
L 146.828396 197.058278 
L 153.805027 202.708951 
L 160.781659 208.318771 
L 167.75829 213.880345 
L 174.734922 219.385022 
L 181.711554 224.822714 
L 188.688185 230.1817 
L 195.664817 235.448429 
L 202.641448 240.607308 
L 209.61808 245.640517 
L 216.594711 250.527838 
L 223.571343 255.246535 
L 230.547975 259.771301 
L 237.524606 264.074319 
L 244.501238 268.125448 
L 251.477869 271.892588 
L 258.454501 275.342244 
L 265.431132 278.440309 
L 272.407764 281.153076 
L 279.384396 283.448439 
L 286.361027 285.297242 
L 293.337659 286.674675 
L 300.31429 287.561628 
L 307.290922 287.945865 
L 314.267553 287.822926 
L 321.244185 287.19668 
L 328.220817 286.079513 
L 335.197448 284.492217 
L 342.17408 282.463685 
L 349.150711 280.030611 
L 356.127343 277.237443 
L 363.103974 274.136884 
L 370.080606 270.791311 
L 377.057237 267.275621 
L 384.033869 263.682182 
L 391.010501 260.129041 
L 397.987132 256.773335 
L 404.963764 253.833609 
L 411.940395 251.628733 
L 418.917027 250.651234 
" style="fill:none;stroke:#ff7f0e;stroke-dasharray:9,3.375;stroke-dashoffset:0;stroke-width:2.25;"/>
   </g>
   <g id="line2d_75">
    <path clip-path="url(#pd5c0aac1dc)" d="M 95.577001 186.972004 
L 100.702141 187.237819 
L 105.82728 187.505746 
L 110.95242 187.77582 
L 116.077559 188.048075 
L 121.202699 188.322547 
L 126.327838 188.599272 
L 131.452977 188.878287 
L 136.578117 189.15963 
L 141.703256 189.443341 
L 146.828396 189.72946 
L 153.805027 190.280496 
L 160.781659 190.948307 
L 167.75829 191.760783 
L 174.734922 192.754039 
L 181.711554 193.975682 
L 188.688185 195.489864 
L 195.664817 197.385453 
L 202.641448 199.789986 
L 209.61808 202.895121 
L 216.594711 207.00732 
L 223.571343 212.182325 
L 230.547975 217.338734 
L 237.524606 222.36903 
L 244.501238 227.252922 
L 251.477869 231.967595 
L 258.454501 236.487657 
L 265.431132 240.785204 
L 272.407764 244.83001 
L 279.384396 248.589907 
L 286.361027 252.031363 
L 293.337659 255.120299 
L 300.31429 257.823138 
L 307.290922 260.108076 
L 314.267553 261.946528 
L 321.244185 263.314673 
L 328.220817 264.195016 
L 335.197448 264.57787 
L 342.17408 264.462698 
L 349.150711 263.859302 
L 356.127343 262.788916 
L 363.103974 261.285402 
L 370.080606 259.396841 
L 377.057237 257.187987 
L 384.033869 254.744315 
L 391.010501 252.178686 
L 397.987132 249.642355 
L 404.963764 247.343269 
L 411.940395 245.577269 
L 418.917027 244.783885 
" style="fill:none;stroke:#2ca02c;stroke-linecap:round;stroke-width:2.25;"/>
   </g>
   <g id="line2d_76">
    <path clip-path="url(#pd5c0aac1dc)" d="M 95.577001 109.348366 
L 100.702141 112.394392 
L 105.82728 115.743231 
L 110.95242 119.461803 
L 116.077559 123.642 
L 121.202699 128.414898 
L 126.327838 133.917992 
L 131.452977 139.056137 
L 136.578117 143.499226 
L 141.703256 147.411463 
L 146.828396 150.904969 
L 153.805027 156.664421 
L 160.781659 162.40302 
L 167.75829 168.116897 
L 174.734922 173.801486 
L 181.711554 179.451406 
L 188.688185 185.060334 
L 195.664817 190.620848 
L 202.641448 196.124267 
L 209.61808 201.560468 
L 216.594711 206.917688 
L 223.571343 212.182325 
L 230.547975 217.338734 
L 237.524606 222.36903 
L 244.501238 227.252922 
L 251.477869 231.967595 
L 258.454501 236.487657 
L 265.431132 240.785204 
L 272.407764 244.83001 
L 279.384396 248.589907 
L 286.361027 252.031363 
L 293.337659 255.120299 
L 300.31429 257.823138 
L 307.290922 260.108076 
L 314.267553 261.946528 
L 321.244185 263.314673 
L 328.220817 264.195016 
L 335.197448 264.57787 
L 342.17408 264.462698 
L 349.150711 263.859302 
L 356.127343 262.788916 
L 363.103974 261.285402 
L 370.080606 259.396841 
L 377.057237 257.187987 
L 384.033869 254.744315 
L 391.010501 252.178686 
L 397.987132 249.642355 
L 404.963764 247.343269 
L 411.940395 245.577269 
L 418.917027 244.783885 
" style="fill:none;stroke:#2ca02c;stroke-dasharray:9,3.375;stroke-dashoffset:0;stroke-width:2.25;"/>
   </g>
   <g id="line2d_77">
    <path clip-path="url(#pd5c0aac1dc)" d="M 95.577001 132.715409 
L 100.702141 132.768405 
L 105.82728 132.821484 
L 110.95242 132.874646 
L 116.077559 132.927893 
L 121.202699 132.981224 
L 126.327838 133.034639 
L 131.452977 133.08814 
L 136.578117 133.141725 
L 141.703256 133.195395 
L 146.828396 133.249151 
L 153.805027 133.35164 
L 160.781659 133.474032 
L 167.75829 133.620286 
L 174.734922 133.79519 
L 181.711554 134.004552 
L 188.688185 134.255445 
L 195.664817 134.556514 
L 202.641448 134.918389 
L 209.61808 135.35422 
L 216.594711 135.880398 
L 223.571343 136.517548 
L 230.547975 137.291912 
L 237.524606 138.237341 
L 244.501238 139.398235 
L 251.477869 140.834063 
L 258.454501 142.626569 
L 265.431132 144.891902 
L 272.407764 147.802322 
L 279.384396 151.628379 
L 286.361027 156.642664 
L 293.337659 161.820875 
L 300.31429 166.87533 
L 307.290922 171.785614 
L 314.267553 176.528623 
L 321.244185 181.078491 
L 328.220817 185.406632 
L 335.197448 189.481982 
L 342.17408 193.271495 
L 349.150711 196.741011 
L 356.127343 199.856594 
L 363.103974 202.58647 
L 370.080606 204.903706 
L 377.057237 206.789762 
L 384.033869 208.239013 
L 391.010501 209.264274 
L 397.987132 209.903087 
L 404.963764 210.223829 
L 411.940395 210.328294 
L 418.917027 210.339047 
" style="fill:none;stroke:#d62728;stroke-linecap:round;stroke-width:2.25;"/>
   </g>
   <g id="line2d_78">
    <path clip-path="url(#pd5c0aac1dc)" d="M 95.577001 55.091771 
L 100.702141 55.679355 
L 105.82728 56.277363 
L 110.95242 56.88617 
L 116.077559 57.506175 
L 121.202699 58.137797 
L 126.327838 58.781478 
L 131.452977 59.43769 
L 136.578117 60.106929 
L 141.703256 60.789723 
L 146.828396 61.486632 
L 153.805027 62.85339 
L 160.781659 64.555823 
L 167.75829 66.70094 
L 174.734922 69.445845 
L 181.711554 73.033904 
L 188.688185 77.871007 
L 195.664817 83.672656 
L 202.641448 89.467643 
L 209.61808 95.248393 
L 216.594711 101.012235 
L 223.571343 106.756007 
L 230.547975 112.475968 
L 237.524606 118.167694 
L 244.501238 123.825966 
L 251.477869 129.444633 
L 258.454501 135.016461 
L 265.431132 140.53296 
L 272.407764 145.984196 
L 279.384396 151.358584 
L 286.361027 156.642664 
L 293.337659 161.820875 
L 300.31429 166.87533 
L 307.290922 171.785614 
L 314.267553 176.528623 
L 321.244185 181.078491 
L 328.220817 185.406632 
L 335.197448 189.481982 
L 342.17408 193.271495 
L 349.150711 196.741011 
L 356.127343 199.856594 
L 363.103974 202.58647 
L 370.080606 204.903706 
L 377.057237 206.789762 
L 384.033869 208.239013 
L 391.010501 209.264274 
L 397.987132 209.903087 
L 404.963764 210.223829 
L 411.940395 210.328294 
L 418.917027 210.339047 
" style="fill:none;stroke:#d62728;stroke-dasharray:9,3.375;stroke-dashoffset:0;stroke-width:2.25;"/>
   </g>
   <g id="line2d_79">
    <path clip-path="url(#pd5c0aac1dc)" d="M 95.577001 109.348366 
L 100.702141 109.374853 
L 105.82728 109.401361 
L 110.95242 109.42789 
L 116.077559 109.45444 
L 121.202699 109.481011 
L 126.327838 109.507603 
L 131.452977 109.534216 
L 136.578117 109.56085 
L 141.703256 109.587504 
L 146.828396 109.61418 
L 153.805027 109.66498 
L 160.781659 109.725543 
L 167.75829 109.797768 
L 174.734922 109.883933 
L 181.711554 109.986776 
L 188.688185 110.10959 
L 195.664817 110.256351 
L 202.641448 110.431864 
L 209.61808 110.641958 
L 216.594711 110.893731 
L 223.571343 111.195861 
L 230.547975 111.559016 
L 237.524606 111.996396 
L 244.501238 112.524452 
L 251.477869 113.163882 
L 258.454501 113.941016 
L 265.431132 114.889811 
L 272.407764 116.054792 
L 279.384396 117.49556 
L 286.361027 119.293977 
L 293.337659 121.566235 
L 300.31429 124.484411 
L 307.290922 128.318235 
L 314.267553 133.328556 
L 321.244185 138.485639 
L 328.220817 143.511664 
L 335.197448 148.383867 
L 342.17408 153.076181 
L 349.150711 157.559096 
L 356.127343 161.799699 
L 363.103974 165.762002 
L 370.080606 169.407695 
L 377.057237 172.697443 
L 384.033869 175.592804 
L 391.010501 178.058581 
L 397.987132 180.064819 
L 404.963764 181.585988 
L 411.940395 182.590423 
L 418.917027 182.999647 
" style="fill:none;stroke:#9467bd;stroke-linecap:round;stroke-width:2.25;"/>
   </g>
   <g id="line2d_80">
    <path clip-path="url(#pd5c0aac1dc)" d="M 95.577001 31.724727 
L 100.702141 32.017239 
L 105.82728 32.312312 
L 110.95242 32.609989 
L 116.077559 32.910319 
L 121.202699 33.213349 
L 126.327838 33.519127 
L 131.452977 33.827704 
L 136.578117 34.139131 
L 141.703256 34.453462 
L 146.828396 34.770752 
L 153.805027 35.382653 
L 160.781659 36.125725 
L 167.75829 37.032033 
L 174.734922 38.143487 
L 181.711554 39.515964 
L 188.688185 41.22585 
L 195.664817 43.380906 
L 202.641448 46.139479 
L 209.61808 49.747152 
L 216.594711 54.614203 
L 223.571343 60.417909 
L 230.547975 66.2124 
L 237.524606 71.992507 
L 244.501238 77.755509 
L 251.477869 83.498177 
L 258.454501 89.216678 
L 265.431132 94.906464 
L 272.407764 100.562142 
L 279.384396 106.177328 
L 286.361027 111.744468 
L 293.337659 117.254639 
L 300.31429 122.697318 
L 307.290922 128.060129 
L 314.267553 133.328556 
L 321.244185 138.485639 
L 328.220817 143.511664 
L 335.197448 148.383867 
L 342.17408 153.076181 
L 349.150711 157.559096 
L 356.127343 161.799699 
L 363.103974 165.762002 
L 370.080606 169.407695 
L 377.057237 172.697443 
L 384.033869 175.592804 
L 391.010501 178.058581 
L 397.987132 180.064819 
L 404.963764 181.585988 
L 411.940395 182.590423 
L 418.917027 182.999647 
" style="fill:none;stroke:#9467bd;stroke-dasharray:9,3.375;stroke-dashoffset:0;stroke-width:2.25;"/>
   </g>
   <g id="line2d_81"/>
   <g id="line2d_82"/>
   <g id="line2d_83"/>
   <g id="line2d_84"/>
   <g id="line2d_85"/>
   <g id="line2d_86"/>
   <g id="line2d_87"/>
   <g id="patch_3">
    <path d="M 79.41 357.744 
L 79.41 16.2 
" style="fill:none;stroke:#262626;stroke-linecap:square;stroke-linejoin:miter;stroke-width:1.875;"/>
   </g>
   <g id="patch_4">
    <path d="M 79.41 357.744 
L 435.084028 357.744 
" style="fill:none;stroke:#262626;stroke-linecap:square;stroke-linejoin:miter;stroke-width:1.875;"/>
   </g>
  </g>
  <g id="axes_2">
   <g id="patch_5">
    <path d="M 320.13182 96.45 
L 426.834028 96.45 
L 426.834028 24.45 
L 320.13182 24.45 
z
" style="fill:none;"/>
   </g>
   <g id="matplotlib.axis_3">
    <g id="xtick_31">
     <g id="line2d_88">
      <g>
       <use style="fill:#262626;stroke:#262626;stroke-width:1.875;" x="324.98192" xlink:href="#m1ca69c4923" y="96.45"/>
      </g>
     </g>
     <g id="text_13">
      <!-- $\mathdefault{10^{-2}}$ -->
      <g style="fill:#262626;" transform="translate(310.13192 124.41875)scale(0.15 -0.15)">
       <use transform="translate(0 0.99375)" xlink:href="#ArialMT-49"/>
       <use transform="translate(55.615234 0.99375)" xlink:href="#ArialMT-48"/>
       <use transform="translate(112.972813 70.6875)scale(0.7)" xlink:href="#ArialMT-8722"/>
       <use transform="translate(153.851719 70.6875)scale(0.7)" xlink:href="#ArialMT-50"/>
      </g>
     </g>
    </g>
    <g id="xtick_32">
     <g id="line2d_89">
      <g>
       <use style="fill:#262626;stroke:#262626;stroke-width:1.875;" x="421.983928" xlink:href="#m1ca69c4923" y="96.45"/>
      </g>
     </g>
     <g id="text_14">
      <!-- $\mathdefault{10^{-1}}$ -->
      <g style="fill:#262626;" transform="translate(407.133928 124.41875)scale(0.15 -0.15)">
       <use transform="translate(0 0.99375)" xlink:href="#ArialMT-49"/>
       <use transform="translate(55.615234 0.99375)" xlink:href="#ArialMT-48"/>
       <use transform="translate(112.972813 70.6875)scale(0.7)" xlink:href="#ArialMT-8722"/>
       <use transform="translate(153.851719 70.6875)scale(0.7)" xlink:href="#ArialMT-49"/>
      </g>
     </g>
    </g>
    <g id="xtick_33">
     <g id="line2d_90">
      <g>
       <use style="fill:#262626;stroke:#262626;stroke-width:1.5;" x="354.182434" xlink:href="#m10f8ef5fc2" y="96.45"/>
      </g>
     </g>
    </g>
    <g id="xtick_34">
     <g id="line2d_91">
      <g>
       <use style="fill:#262626;stroke:#262626;stroke-width:1.5;" x="371.26364" xlink:href="#m10f8ef5fc2" y="96.45"/>
      </g>
     </g>
    </g>
    <g id="xtick_35">
     <g id="line2d_92">
      <g>
       <use style="fill:#262626;stroke:#262626;stroke-width:1.5;" x="383.382948" xlink:href="#m10f8ef5fc2" y="96.45"/>
      </g>
     </g>
    </g>
    <g id="xtick_36">
     <g id="line2d_93">
      <g>
       <use style="fill:#262626;stroke:#262626;stroke-width:1.5;" x="392.783414" xlink:href="#m10f8ef5fc2" y="96.45"/>
      </g>
     </g>
    </g>
    <g id="xtick_37">
     <g id="line2d_94">
      <g>
       <use style="fill:#262626;stroke:#262626;stroke-width:1.5;" x="400.464154" xlink:href="#m10f8ef5fc2" y="96.45"/>
      </g>
     </g>
    </g>
    <g id="xtick_38">
     <g id="line2d_95">
      <g>
       <use style="fill:#262626;stroke:#262626;stroke-width:1.5;" x="406.958127" xlink:href="#m10f8ef5fc2" y="96.45"/>
      </g>
     </g>
    </g>
    <g id="xtick_39">
     <g id="line2d_96">
      <g>
       <use style="fill:#262626;stroke:#262626;stroke-width:1.5;" x="412.583462" xlink:href="#m10f8ef5fc2" y="96.45"/>
      </g>
     </g>
    </g>
    <g id="xtick_40">
     <g id="line2d_97">
      <g>
       <use style="fill:#262626;stroke:#262626;stroke-width:1.5;" x="417.545359" xlink:href="#m10f8ef5fc2" y="96.45"/>
      </g>
     </g>
    </g>
    <g id="text_15">
     <!-- $\hat{f}_p$ -->
     <defs>
      <path d="M 47.796875 75.984375 
L 46.390625 68.5 
L 37.796875 68.5 
Q 32.90625 68.5 30.6875 66.578125 
Q 28.46875 64.65625 27.390625 59.515625 
L 26.421875 54.6875 
L 41.21875 54.6875 
L 39.890625 47.703125 
L 25.09375 47.703125 
L 15.828125 0 
L 6.78125 0 
L 16.109375 47.703125 
L 7.515625 47.703125 
L 8.796875 54.6875 
L 17.390625 54.6875 
L 18.109375 58.5 
Q 19.96875 68.171875 24.625 72.078125 
Q 29.296875 75.984375 39.3125 75.984375 
z
" id="DejaVuSans-Oblique-102"/>
      <path d="M 49.609375 33.6875 
Q 49.609375 40.875 46.484375 44.671875 
Q 43.359375 48.484375 37.5 48.484375 
Q 33.5 48.484375 29.859375 46.4375 
Q 26.21875 44.390625 23.390625 40.484375 
Q 20.609375 36.625 18.9375 31.15625 
Q 17.28125 25.6875 17.28125 20.3125 
Q 17.28125 13.484375 20.40625 9.796875 
Q 23.53125 6.109375 29.296875 6.109375 
Q 33.546875 6.109375 37.1875 8.109375 
Q 40.828125 10.109375 43.40625 13.921875 
Q 46.1875 17.921875 47.890625 23.34375 
Q 49.609375 28.765625 49.609375 33.6875 
z
M 21.78125 46.390625 
Q 25.390625 51.125 30.296875 53.5625 
Q 35.203125 56 41.21875 56 
Q 49.609375 56 54.25 50.5 
Q 58.890625 45.015625 58.890625 35.109375 
Q 58.890625 27 56 19.65625 
Q 53.125 12.3125 47.703125 6.5 
Q 44.09375 2.640625 39.546875 0.609375 
Q 35.015625 -1.421875 29.984375 -1.421875 
Q 24.171875 -1.421875 20.21875 1 
Q 16.265625 3.421875 14.3125 8.203125 
L 8.6875 -20.796875 
L -0.296875 -20.796875 
L 14.40625 54.6875 
L 23.390625 54.6875 
z
" id="DejaVuSans-Oblique-112"/>
     </defs>
     <g style="fill:#262626;" transform="translate(365.922924 127.74)scale(0.18 -0.18)">
      <use transform="translate(47.379395 33.015625)" xlink:href="#DejaVuSans-770"/>
      <use transform="translate(0 0.53125)" xlink:href="#DejaVuSans-Oblique-102"/>
      <use transform="translate(36.162109 -15.875)scale(0.7)" xlink:href="#DejaVuSans-Oblique-112"/>
     </g>
    </g>
   </g>
   <g id="matplotlib.axis_4">
    <g id="ytick_41">
     <g id="line2d_98">
      <g>
       <use style="fill:#262626;stroke:#262626;stroke-width:1.875;" x="320.13182" xlink:href="#m2ef5b40a3d" y="68.900192"/>
      </g>
     </g>
     <g id="text_16">
      <!-- 5 -->
      <defs>
       <path d="M 4.15625 18.75 
L 13.375 19.53125 
Q 14.40625 12.796875 18.140625 9.390625 
Q 21.875 6 27.15625 6 
Q 33.5 6 37.890625 10.78125 
Q 42.28125 15.578125 42.28125 23.484375 
Q 42.28125 31 38.0625 35.34375 
Q 33.84375 39.703125 27 39.703125 
Q 22.75 39.703125 19.328125 37.765625 
Q 15.921875 35.84375 13.96875 32.765625 
L 5.71875 33.84375 
L 12.640625 70.609375 
L 48.25 70.609375 
L 48.25 62.203125 
L 19.671875 62.203125 
L 15.828125 42.96875 
Q 22.265625 47.46875 29.34375 47.46875 
Q 38.71875 47.46875 45.15625 40.96875 
Q 51.609375 34.46875 51.609375 24.265625 
Q 51.609375 14.546875 45.953125 7.46875 
Q 39.0625 -1.21875 27.15625 -1.21875 
Q 17.390625 -1.21875 11.203125 4.25 
Q 5.03125 9.71875 4.15625 18.75 
z
" id="ArialMT-53"/>
      </defs>
      <g style="fill:#262626;" transform="translate(299.290413 74.268552)scale(0.15 -0.15)">
       <use xlink:href="#ArialMT-53"/>
      </g>
     </g>
    </g>
    <g id="ytick_42">
     <g id="line2d_99">
      <g>
       <use style="fill:#262626;stroke:#262626;stroke-width:1.875;" x="320.13182" xlink:href="#m2ef5b40a3d" y="37.404305"/>
      </g>
     </g>
     <g id="text_17">
      <!-- 10 -->
      <g style="fill:#262626;" transform="translate(290.949007 42.772664)scale(0.15 -0.15)">
       <use xlink:href="#ArialMT-49"/>
       <use x="55.615234" xlink:href="#ArialMT-48"/>
      </g>
     </g>
    </g>
    <g id="text_18">
     <!-- $\theta_{min}$ -->
     <defs>
      <path d="M 89.796875 33.015625 
L 83.40625 0 
L 74.421875 0 
L 80.71875 32.71875 
Q 81.109375 34.8125 81.296875 36.328125 
Q 81.5 37.84375 81.5 38.921875 
Q 81.5 43.3125 79.046875 45.75 
Q 76.609375 48.1875 72.21875 48.1875 
Q 65.671875 48.1875 60.546875 43.28125 
Q 55.421875 38.375 53.90625 30.515625 
L 47.90625 0 
L 38.921875 0 
L 45.3125 32.71875 
Q 45.703125 34.515625 45.890625 36.046875 
Q 46.09375 37.59375 46.09375 38.8125 
Q 46.09375 43.265625 43.65625 45.71875 
Q 41.21875 48.1875 36.921875 48.1875 
Q 30.28125 48.1875 25.140625 43.28125 
Q 20.015625 38.375 18.5 30.515625 
L 12.5 0 
L 3.515625 0 
L 14.203125 54.6875 
L 23.1875 54.6875 
L 21.484375 46.1875 
Q 25.140625 50.984375 30.046875 53.484375 
Q 34.96875 56 40.578125 56 
Q 46.53125 56 50.359375 52.875 
Q 54.203125 49.75 54.984375 44.1875 
Q 59.078125 49.953125 64.46875 52.96875 
Q 69.875 56 75.875 56 
Q 82.90625 56 86.734375 51.953125 
Q 90.578125 47.90625 90.578125 40.484375 
Q 90.578125 38.875 90.375 36.9375 
Q 90.1875 35.015625 89.796875 33.015625 
z
" id="DejaVuSans-Oblique-109"/>
      <path d="M 18.3125 75.984375 
L 27.296875 75.984375 
L 25.09375 64.59375 
L 16.109375 64.59375 
z
M 14.203125 54.6875 
L 23.1875 54.6875 
L 12.5 0 
L 3.515625 0 
z
" id="DejaVuSans-Oblique-105"/>
      <path d="M 55.71875 33.015625 
L 49.3125 0 
L 40.28125 0 
L 46.6875 32.671875 
Q 47.125 34.96875 47.359375 36.71875 
Q 47.609375 38.484375 47.609375 39.5 
Q 47.609375 43.609375 45.015625 45.890625 
Q 42.4375 48.1875 37.796875 48.1875 
Q 30.5625 48.1875 25.34375 43.375 
Q 20.125 38.578125 18.5 30.328125 
L 12.5 0 
L 3.515625 0 
L 14.109375 54.6875 
L 23.09375 54.6875 
L 21.296875 46.09375 
Q 25.046875 50.828125 30.3125 53.40625 
Q 35.59375 56 41.40625 56 
Q 48.640625 56 52.609375 52.09375 
Q 56.59375 48.1875 56.59375 41.109375 
Q 56.59375 39.359375 56.375 37.359375 
Q 56.15625 35.359375 55.71875 33.015625 
z
" id="DejaVuSans-Oblique-110"/>
     </defs>
     <g style="fill:#262626;" transform="translate(289.371507 78.09)rotate(-90)scale(0.18 -0.18)">
      <use transform="translate(0 0.234375)" xlink:href="#DejaVuSans-Oblique-952"/>
      <use transform="translate(61.181641 -16.171875)scale(0.7)" xlink:href="#DejaVuSans-Oblique-109"/>
      <use transform="translate(129.370117 -16.171875)scale(0.7)" xlink:href="#DejaVuSans-Oblique-105"/>
      <use transform="translate(148.818359 -16.171875)scale(0.7)" xlink:href="#DejaVuSans-Oblique-110"/>
     </g>
    </g>
   </g>
   <g id="line2d_100">
    <path clip-path="url(#p9160b1fcb8)" d="M 324.98192 93.177273 
L 327.469151 92.738173 
L 329.956382 92.272355 
L 332.443613 91.778192 
L 334.930844 91.253958 
L 337.418075 90.697819 
L 339.905306 90.107831 
L 342.392537 89.481932 
L 344.879768 88.81793 
L 347.366999 88.113502 
L 349.85423 87.36618 
L 352.341461 86.573346 
L 354.828692 85.732221 
L 357.315923 84.839852 
L 359.803154 83.893107 
L 362.290385 82.888658 
L 364.777616 81.822972 
L 367.264847 80.692295 
L 369.752077 79.49264 
L 372.239308 78.219771 
L 374.726539 76.869185 
L 377.21377 75.436099 
L 379.701001 73.915423 
L 382.188232 72.301746 
L 384.675463 70.589312 
L 387.162694 68.771994 
L 389.649925 66.84327 
L 392.137156 64.796192 
L 394.624387 62.623356 
L 397.111618 60.316867 
L 399.598849 57.8683 
L 402.08608 55.268662 
L 404.573311 52.508341 
L 407.060542 49.577054 
L 409.547773 46.463793 
L 412.035004 43.156758 
L 414.522235 39.643283 
L 417.009466 35.909752 
L 419.496697 31.941504 
L 421.983928 27.722727 
" style="fill:none;stroke:#7f7f7f;stroke-linecap:round;stroke-width:2.25;"/>
   </g>
   <g id="patch_6">
    <path d="M 320.13182 96.45 
L 320.13182 24.45 
" style="fill:none;stroke:#262626;stroke-linecap:square;stroke-linejoin:miter;stroke-width:1.875;"/>
   </g>
   <g id="patch_7">
    <path d="M 426.834028 96.45 
L 426.834028 24.45 
" style="fill:none;stroke:#262626;stroke-linecap:square;stroke-linejoin:miter;stroke-width:1.875;"/>
   </g>
   <g id="patch_8">
    <path d="M 320.13182 96.45 
L 426.834028 96.45 
" style="fill:none;stroke:#262626;stroke-linecap:square;stroke-linejoin:miter;stroke-width:1.875;"/>
   </g>
   <g id="patch_9">
    <path d="M 320.13182 24.45 
L 426.834028 24.45 
" style="fill:none;stroke:#262626;stroke-linecap:square;stroke-linejoin:miter;stroke-width:1.875;"/>
   </g>
  </g>
  <g id="legend_1">
   <g id="text_19">
    <!-- $\hat{f}_{p}$ -->
    <g style="fill:#262626;" transform="translate(476.576312 115.710633)scale(0.18 -0.18)">
     <use transform="translate(47.379395 33.015625)" xlink:href="#DejaVuSans-770"/>
     <use transform="translate(0 0.53125)" xlink:href="#DejaVuSans-Oblique-102"/>
     <use transform="translate(36.162109 -15.875)scale(0.7)" xlink:href="#DejaVuSans-Oblique-112"/>
    </g>
   </g>
   <g id="line2d_101">
    <path d="M 463.376312 136.649695 
L 496.376312 136.649695 
" style="fill:none;stroke:#1f77b4;stroke-linecap:round;stroke-width:2.25;"/>
   </g>
   <g id="line2d_102"/>
   <g id="text_20">
    <!-- 0.01 -->
    <g style="fill:#262626;" transform="translate(509.576312 142.424695)scale(0.18 -0.18)">
     <use xlink:href="#ArialMT-48"/>
     <use x="55.615234" xlink:href="#ArialMT-46"/>
     <use x="83.398438" xlink:href="#ArialMT-48"/>
     <use x="139.013672" xlink:href="#ArialMT-49"/>
    </g>
   </g>
   <g id="line2d_103">
    <path d="M 463.376312 161.361258 
L 496.376312 161.361258 
" style="fill:none;stroke:#ff7f0e;stroke-linecap:round;stroke-width:2.25;"/>
   </g>
   <g id="line2d_104"/>
   <g id="text_21">
    <!-- 0.05 -->
    <g style="fill:#262626;" transform="translate(509.576312 167.136258)scale(0.18 -0.18)">
     <use xlink:href="#ArialMT-48"/>
     <use x="55.615234" xlink:href="#ArialMT-46"/>
     <use x="83.398438" xlink:href="#ArialMT-48"/>
     <use x="139.013672" xlink:href="#ArialMT-53"/>
    </g>
   </g>
   <g id="line2d_105">
    <path d="M 463.376312 186.07282 
L 496.376312 186.07282 
" style="fill:none;stroke:#2ca02c;stroke-linecap:round;stroke-width:2.25;"/>
   </g>
   <g id="line2d_106"/>
   <g id="text_22">
    <!-- 0.1 -->
    <g style="fill:#262626;" transform="translate(509.576312 191.84782)scale(0.18 -0.18)">
     <use xlink:href="#ArialMT-48"/>
     <use x="55.615234" xlink:href="#ArialMT-46"/>
     <use x="83.398438" xlink:href="#ArialMT-49"/>
    </g>
   </g>
   <g id="line2d_107">
    <path d="M 463.376312 210.784383 
L 496.376312 210.784383 
" style="fill:none;stroke:#d62728;stroke-linecap:round;stroke-width:2.25;"/>
   </g>
   <g id="line2d_108"/>
   <g id="text_23">
    <!-- 0.5 -->
    <g style="fill:#262626;" transform="translate(509.576312 216.559383)scale(0.18 -0.18)">
     <use xlink:href="#ArialMT-48"/>
     <use x="55.615234" xlink:href="#ArialMT-46"/>
     <use x="83.398438" xlink:href="#ArialMT-53"/>
    </g>
   </g>
   <g id="line2d_109">
    <path d="M 463.376312 235.495945 
L 496.376312 235.495945 
" style="fill:none;stroke:#9467bd;stroke-linecap:round;stroke-width:2.25;"/>
   </g>
   <g id="line2d_110"/>
   <g id="text_24">
    <!-- 1.0 -->
    <g style="fill:#262626;" transform="translate(509.576312 241.270945)scale(0.18 -0.18)">
     <use xlink:href="#ArialMT-49"/>
     <use x="55.615234" xlink:href="#ArialMT-46"/>
     <use x="83.398438" xlink:href="#ArialMT-48"/>
    </g>
   </g>
   <g id="text_25">
    <!-- $N_t$ -->
    <defs>
     <path d="M 16.890625 72.90625 
L 30.171875 72.90625 
L 50.296875 10.40625 
L 62.5 72.90625 
L 72.125 72.90625 
L 57.90625 0 
L 44.578125 0 
L 24.515625 62.890625 
L 12.3125 0 
L 2.6875 0 
z
" id="DejaVuSans-Oblique-78"/>
     <path d="M 42.28125 54.6875 
L 40.921875 47.703125 
L 23 47.703125 
L 17.1875 18.015625 
Q 16.890625 16.359375 16.75 15.234375 
Q 16.609375 14.109375 16.609375 13.484375 
Q 16.609375 10.359375 18.484375 8.9375 
Q 20.359375 7.515625 24.515625 7.515625 
L 33.59375 7.515625 
L 32.078125 0 
L 23.484375 0 
Q 15.484375 0 11.546875 3.125 
Q 7.625 6.25 7.625 12.59375 
Q 7.625 13.71875 7.765625 15.0625 
Q 7.90625 16.40625 8.203125 18.015625 
L 14.015625 47.703125 
L 6.390625 47.703125 
L 7.8125 54.6875 
L 15.28125 54.6875 
L 18.3125 70.21875 
L 27.296875 70.21875 
L 24.3125 54.6875 
z
" id="DejaVuSans-Oblique-116"/>
    </defs>
    <g style="fill:#262626;" transform="translate(476.576312 265.982508)scale(0.18 -0.18)">
     <use transform="translate(0 0.09375)" xlink:href="#DejaVuSans-Oblique-78"/>
     <use transform="translate(74.804688 -16.3125)scale(0.7)" xlink:href="#DejaVuSans-Oblique-116"/>
    </g>
   </g>
   <g id="line2d_111">
    <path d="M 463.376312 284.91907 
L 496.376312 284.91907 
" style="fill:none;stroke:#333333;stroke-linecap:round;stroke-width:2.25;"/>
   </g>
   <g id="line2d_112"/>
   <g id="text_26">
    <!-- 10 -->
    <g style="fill:#262626;" transform="translate(509.576312 290.69407)scale(0.18 -0.18)">
     <use xlink:href="#ArialMT-49"/>
     <use x="55.615234" xlink:href="#ArialMT-48"/>
    </g>
   </g>
   <g id="line2d_113">
    <path d="M 463.376312 309.630633 
L 496.376312 309.630633 
" style="fill:none;stroke:#333333;stroke-dasharray:9,3.375;stroke-dashoffset:0;stroke-width:2.25;"/>
   </g>
   <g id="line2d_114"/>
   <g id="text_27">
    <!-- 100 -->
    <g style="fill:#262626;" transform="translate(509.576312 315.405633)scale(0.18 -0.18)">
     <use xlink:href="#ArialMT-49"/>
     <use x="55.615234" xlink:href="#ArialMT-48"/>
     <use x="111.230469" xlink:href="#ArialMT-48"/>
    </g>
   </g>
  </g>
 </g>
 <defs>
  <clipPath id="pd5c0aac1dc">
   <rect height="341.544" width="355.674028" x="79.41" y="16.2"/>
  </clipPath>
  <clipPath id="p9160b1fcb8">
   <rect height="72" width="106.702208" x="320.13182" y="24.45"/>
  </clipPath>
 </defs>
</svg>
