<?xml version="1.0" encoding="utf-8" standalone="no"?>
<!DOCTYPE svg PUBLIC "-//W3C//DTD SVG 1.1//EN"
  "http://www.w3.org/Graphics/SVG/1.1/DTD/svg11.dtd">
<!-- Created with matplotlib (https://matplotlib.org/) -->
<svg height="403.556016pt" version="1.1" viewBox="0 0 559.113125 403.556016" width="559.113125pt" xmlns="http://www.w3.org/2000/svg" xmlns:xlink="http://www.w3.org/1999/xlink">
 <defs>
  <style type="text/css">
*{stroke-linecap:butt;stroke-linejoin:round;}
  </style>
 </defs>
 <g id="figure_1">
  <g id="patch_1">
   <path d="M 0 403.556016 
L 559.113125 403.556016 
L 559.113125 0 
L 0 0 
z
" style="fill:none;"/>
  </g>
  <g id="axes_1">
   <g id="patch_2">
    <path d="M 74.728125 341.72625 
L 409.079698 341.72625 
L 409.079698 16.2 
L 74.728125 16.2 
z
" style="fill:none;"/>
   </g>
   <g id="line2d_1">
    <path clip-path="url(#pf0a8f8312b)" d="M 74.728125 30.996648 
L 409.079698 30.996648 
" style="fill:none;stroke:#d62728;stroke-dasharray:4.5,2.25;stroke-dashoffset:0;stroke-width:2.25;"/>
   </g>
   <g id="line2d_2">
    <path clip-path="url(#pf0a8f8312b)" d="M 74.728125 228.285284 
L 409.079698 228.285284 
" style="fill:none;stroke:#cccccc;stroke-dasharray:2.25,2.25;stroke-dashoffset:0;stroke-width:2.25;"/>
   </g>
   <g id="matplotlib.axis_1">
    <g id="xtick_1">
     <g id="line2d_3">
      <defs>
       <path d="M 0 0 
L 0 9 
" id="m89135138f9" style="stroke:#262626;stroke-width:1.875;"/>
      </defs>
      <g>
       <use style="fill:#262626;stroke:#262626;stroke-width:1.875;" x="142.947264" xlink:href="#m89135138f9" y="341.72625"/>
      </g>
     </g>
     <g id="text_1">
      <!-- 0 -->
      <defs>
       <path d="M 4.15625 35.296875 
Q 4.15625 48 6.765625 55.734375 
Q 9.375 63.484375 14.515625 67.671875 
Q 19.671875 71.875 27.484375 71.875 
Q 33.25 71.875 37.59375 69.546875 
Q 41.9375 67.234375 44.765625 62.859375 
Q 47.609375 58.5 49.21875 52.21875 
Q 50.828125 45.953125 50.828125 35.296875 
Q 50.828125 22.703125 48.234375 14.96875 
Q 45.65625 7.234375 40.5 3 
Q 35.359375 -1.21875 27.484375 -1.21875 
Q 17.140625 -1.21875 11.234375 6.203125 
Q 4.15625 15.140625 4.15625 35.296875 
z
M 13.1875 35.296875 
Q 13.1875 17.671875 17.3125 11.828125 
Q 21.4375 6 27.484375 6 
Q 33.546875 6 37.671875 11.859375 
Q 41.796875 17.71875 41.796875 35.296875 
Q 41.796875 52.984375 37.671875 58.78125 
Q 33.546875 64.59375 27.390625 64.59375 
Q 21.34375 64.59375 17.71875 59.46875 
Q 13.1875 52.9375 13.1875 35.296875 
z
" id="ArialMT-48"/>
      </defs>
      <g style="fill:#262626;" transform="translate(138.359491 366.036641)scale(0.165 -0.165)">
       <use xlink:href="#ArialMT-48"/>
      </g>
     </g>
    </g>
    <g id="xtick_2">
     <g id="line2d_4">
      <g>
       <use style="fill:#262626;stroke:#262626;stroke-width:1.875;" x="248.989945" xlink:href="#m89135138f9" y="341.72625"/>
      </g>
     </g>
     <g id="text_2">
      <!-- 1 -->
      <defs>
       <path d="M 37.25 0 
L 28.46875 0 
L 28.46875 56 
Q 25.296875 52.984375 20.140625 49.953125 
Q 14.984375 46.921875 10.890625 45.40625 
L 10.890625 53.90625 
Q 18.265625 57.375 23.78125 62.296875 
Q 29.296875 67.234375 31.59375 71.875 
L 37.25 71.875 
z
" id="ArialMT-49"/>
      </defs>
      <g style="fill:#262626;" transform="translate(244.402172 366.036641)scale(0.165 -0.165)">
       <use xlink:href="#ArialMT-49"/>
      </g>
     </g>
    </g>
    <g id="xtick_3">
     <g id="line2d_5">
      <g>
       <use style="fill:#262626;stroke:#262626;stroke-width:1.875;" x="355.032626" xlink:href="#m89135138f9" y="341.72625"/>
      </g>
     </g>
     <g id="text_3">
      <!-- 2 -->
      <defs>
       <path d="M 50.34375 8.453125 
L 50.34375 0 
L 3.03125 0 
Q 2.9375 3.171875 4.046875 6.109375 
Q 5.859375 10.9375 9.828125 15.625 
Q 13.8125 20.3125 21.34375 26.46875 
Q 33.015625 36.03125 37.109375 41.625 
Q 41.21875 47.21875 41.21875 52.203125 
Q 41.21875 57.421875 37.46875 61 
Q 33.734375 64.59375 27.734375 64.59375 
Q 21.390625 64.59375 17.578125 60.78125 
Q 13.765625 56.984375 13.71875 50.25 
L 4.6875 51.171875 
Q 5.609375 61.28125 11.65625 66.578125 
Q 17.71875 71.875 27.9375 71.875 
Q 38.234375 71.875 44.234375 66.15625 
Q 50.25 60.453125 50.25 52 
Q 50.25 47.703125 48.484375 43.546875 
Q 46.734375 39.40625 42.65625 34.8125 
Q 38.578125 30.21875 29.109375 22.21875 
Q 21.1875 15.578125 18.9375 13.203125 
Q 16.703125 10.84375 15.234375 8.453125 
z
" id="ArialMT-50"/>
      </defs>
      <g style="fill:#262626;" transform="translate(350.444853 366.036641)scale(0.165 -0.165)">
       <use xlink:href="#ArialMT-50"/>
      </g>
     </g>
    </g>
    <g id="text_4">
     <!-- Distance, $\hat{d}$ -->
     <defs>
      <path d="M 7.71875 0 
L 7.71875 71.578125 
L 32.375 71.578125 
Q 40.71875 71.578125 45.125 70.5625 
Q 51.265625 69.140625 55.609375 65.4375 
Q 61.28125 60.640625 64.078125 53.1875 
Q 66.890625 45.75 66.890625 36.1875 
Q 66.890625 28.03125 64.984375 21.734375 
Q 63.09375 15.4375 60.109375 11.296875 
Q 57.125 7.171875 53.578125 4.796875 
Q 50.046875 2.4375 45.046875 1.21875 
Q 40.046875 0 33.546875 0 
z
M 17.1875 8.453125 
L 32.46875 8.453125 
Q 39.546875 8.453125 43.578125 9.765625 
Q 47.609375 11.078125 50 13.484375 
Q 53.375 16.84375 55.25 22.53125 
Q 57.125 28.21875 57.125 36.328125 
Q 57.125 47.5625 53.4375 53.59375 
Q 49.75 59.625 44.484375 61.671875 
Q 40.671875 63.140625 32.234375 63.140625 
L 17.1875 63.140625 
z
" id="ArialMT-68"/>
      <path d="M 6.640625 61.46875 
L 6.640625 71.578125 
L 15.4375 71.578125 
L 15.4375 61.46875 
z
M 6.640625 0 
L 6.640625 51.859375 
L 15.4375 51.859375 
L 15.4375 0 
z
" id="ArialMT-105"/>
      <path d="M 3.078125 15.484375 
L 11.765625 16.84375 
Q 12.5 11.625 15.84375 8.84375 
Q 19.1875 6.0625 25.203125 6.0625 
Q 31.25 6.0625 34.171875 8.515625 
Q 37.109375 10.984375 37.109375 14.3125 
Q 37.109375 17.28125 34.515625 19 
Q 32.71875 20.171875 25.53125 21.96875 
Q 15.875 24.421875 12.140625 26.203125 
Q 8.40625 27.984375 6.46875 31.125 
Q 4.546875 34.28125 4.546875 38.09375 
Q 4.546875 41.546875 6.125 44.5 
Q 7.71875 47.46875 10.453125 49.421875 
Q 12.5 50.921875 16.03125 51.96875 
Q 19.578125 53.03125 23.640625 53.03125 
Q 29.734375 53.03125 34.34375 51.265625 
Q 38.96875 49.515625 41.15625 46.5 
Q 43.359375 43.5 44.1875 38.484375 
L 35.59375 37.3125 
Q 35.015625 41.3125 32.203125 43.546875 
Q 29.390625 45.796875 24.265625 45.796875 
Q 18.21875 45.796875 15.625 43.796875 
Q 13.03125 41.796875 13.03125 39.109375 
Q 13.03125 37.40625 14.109375 36.03125 
Q 15.1875 34.625 17.484375 33.6875 
Q 18.796875 33.203125 25.25 31.453125 
Q 34.578125 28.953125 38.25 27.359375 
Q 41.9375 25.78125 44.03125 22.75 
Q 46.140625 19.734375 46.140625 15.234375 
Q 46.140625 10.84375 43.578125 6.953125 
Q 41.015625 3.078125 36.171875 0.953125 
Q 31.34375 -1.171875 25.25 -1.171875 
Q 15.140625 -1.171875 9.84375 3.03125 
Q 4.546875 7.234375 3.078125 15.484375 
z
" id="ArialMT-115"/>
      <path d="M 25.78125 7.859375 
L 27.046875 0.09375 
Q 23.34375 -0.6875 20.40625 -0.6875 
Q 15.625 -0.6875 12.984375 0.828125 
Q 10.359375 2.34375 9.28125 4.8125 
Q 8.203125 7.28125 8.203125 15.1875 
L 8.203125 45.015625 
L 1.765625 45.015625 
L 1.765625 51.859375 
L 8.203125 51.859375 
L 8.203125 64.703125 
L 16.9375 69.96875 
L 16.9375 51.859375 
L 25.78125 51.859375 
L 25.78125 45.015625 
L 16.9375 45.015625 
L 16.9375 14.703125 
Q 16.9375 10.9375 17.40625 9.859375 
Q 17.875 8.796875 18.921875 8.15625 
Q 19.96875 7.515625 21.921875 7.515625 
Q 23.390625 7.515625 25.78125 7.859375 
z
" id="ArialMT-116"/>
      <path d="M 40.4375 6.390625 
Q 35.546875 2.25 31.03125 0.53125 
Q 26.515625 -1.171875 21.34375 -1.171875 
Q 12.796875 -1.171875 8.203125 3 
Q 3.609375 7.171875 3.609375 13.671875 
Q 3.609375 17.484375 5.34375 20.625 
Q 7.078125 23.78125 9.890625 25.6875 
Q 12.703125 27.59375 16.21875 28.5625 
Q 18.796875 29.25 24.03125 29.890625 
Q 34.671875 31.15625 39.703125 32.90625 
Q 39.75 34.71875 39.75 35.203125 
Q 39.75 40.578125 37.25 42.78125 
Q 33.890625 45.75 27.25 45.75 
Q 21.046875 45.75 18.09375 43.578125 
Q 15.140625 41.40625 13.71875 35.890625 
L 5.125 37.0625 
Q 6.296875 42.578125 8.984375 45.96875 
Q 11.671875 49.359375 16.75 51.1875 
Q 21.828125 53.03125 28.515625 53.03125 
Q 35.15625 53.03125 39.296875 51.46875 
Q 43.453125 49.90625 45.40625 47.53125 
Q 47.359375 45.171875 48.140625 41.546875 
Q 48.578125 39.3125 48.578125 33.453125 
L 48.578125 21.734375 
Q 48.578125 9.46875 49.140625 6.21875 
Q 49.703125 2.984375 51.375 0 
L 42.1875 0 
Q 40.828125 2.734375 40.4375 6.390625 
z
M 39.703125 26.03125 
Q 34.90625 24.078125 25.34375 22.703125 
Q 19.921875 21.921875 17.671875 20.9375 
Q 15.4375 19.96875 14.203125 18.09375 
Q 12.984375 16.21875 12.984375 13.921875 
Q 12.984375 10.40625 15.640625 8.0625 
Q 18.3125 5.71875 23.4375 5.71875 
Q 28.515625 5.71875 32.46875 7.9375 
Q 36.421875 10.15625 38.28125 14.015625 
Q 39.703125 17 39.703125 22.796875 
z
" id="ArialMT-97"/>
      <path d="M 6.59375 0 
L 6.59375 51.859375 
L 14.5 51.859375 
L 14.5 44.484375 
Q 20.21875 53.03125 31 53.03125 
Q 35.6875 53.03125 39.625 51.34375 
Q 43.5625 49.65625 45.515625 46.921875 
Q 47.46875 44.1875 48.25 40.4375 
Q 48.734375 37.984375 48.734375 31.890625 
L 48.734375 0 
L 39.9375 0 
L 39.9375 31.546875 
Q 39.9375 36.921875 38.90625 39.578125 
Q 37.890625 42.234375 35.28125 43.8125 
Q 32.671875 45.40625 29.15625 45.40625 
Q 23.53125 45.40625 19.453125 41.84375 
Q 15.375 38.28125 15.375 28.328125 
L 15.375 0 
z
" id="ArialMT-110"/>
      <path d="M 40.4375 19 
L 49.078125 17.875 
Q 47.65625 8.9375 41.8125 3.875 
Q 35.984375 -1.171875 27.484375 -1.171875 
Q 16.84375 -1.171875 10.375 5.78125 
Q 3.90625 12.75 3.90625 25.734375 
Q 3.90625 34.125 6.6875 40.421875 
Q 9.46875 46.734375 15.15625 49.875 
Q 20.84375 53.03125 27.546875 53.03125 
Q 35.984375 53.03125 41.359375 48.75 
Q 46.734375 44.484375 48.25 36.625 
L 39.703125 35.296875 
Q 38.484375 40.53125 35.375 43.15625 
Q 32.28125 45.796875 27.875 45.796875 
Q 21.234375 45.796875 17.078125 41.03125 
Q 12.9375 36.28125 12.9375 25.984375 
Q 12.9375 15.53125 16.9375 10.796875 
Q 20.953125 6.0625 27.390625 6.0625 
Q 32.5625 6.0625 36.03125 9.234375 
Q 39.5 12.40625 40.4375 19 
z
" id="ArialMT-99"/>
      <path d="M 42.09375 16.703125 
L 51.171875 15.578125 
Q 49.03125 7.625 43.21875 3.21875 
Q 37.40625 -1.171875 28.375 -1.171875 
Q 17 -1.171875 10.328125 5.828125 
Q 3.65625 12.84375 3.65625 25.484375 
Q 3.65625 38.578125 10.390625 45.796875 
Q 17.140625 53.03125 27.875 53.03125 
Q 38.28125 53.03125 44.875 45.953125 
Q 51.46875 38.875 51.46875 26.03125 
Q 51.46875 25.25 51.421875 23.6875 
L 12.75 23.6875 
Q 13.234375 15.140625 17.578125 10.59375 
Q 21.921875 6.0625 28.421875 6.0625 
Q 33.25 6.0625 36.671875 8.59375 
Q 40.09375 11.140625 42.09375 16.703125 
z
M 13.234375 30.90625 
L 42.1875 30.90625 
Q 41.609375 37.453125 38.875 40.71875 
Q 34.671875 45.796875 27.984375 45.796875 
Q 21.921875 45.796875 17.796875 41.75 
Q 13.671875 37.703125 13.234375 30.90625 
z
" id="ArialMT-101"/>
      <path d="M 8.890625 0 
L 8.890625 10.015625 
L 18.890625 10.015625 
L 18.890625 0 
Q 18.890625 -5.515625 16.9375 -8.90625 
Q 14.984375 -12.3125 10.75 -14.15625 
L 8.296875 -10.40625 
Q 11.078125 -9.1875 12.390625 -6.8125 
Q 13.71875 -4.4375 13.875 0 
z
" id="ArialMT-44"/>
      <path id="ArialMT-32"/>
      <path d="M -28.609375 79.984375 
L -21.390625 79.984375 
L -9.421875 61.625 
L -16.21875 61.625 
L -25 73.578125 
L -33.796875 61.625 
L -40.578125 61.625 
z
M -25 56 
z
" id="DejaVuSans-770"/>
      <path d="M 41.796875 8.203125 
Q 38.1875 3.46875 33.25 1.015625 
Q 28.328125 -1.421875 22.3125 -1.421875 
Q 14.109375 -1.421875 9.34375 4.171875 
Q 4.59375 9.765625 4.59375 19.484375 
Q 4.59375 27.59375 7.46875 34.9375 
Q 10.359375 42.28125 15.828125 48.09375 
Q 19.4375 51.953125 23.96875 53.96875 
Q 28.515625 56 33.5 56 
Q 38.765625 56 42.796875 53.453125 
Q 46.828125 50.921875 49.03125 46.1875 
L 54.890625 75.984375 
L 63.921875 75.984375 
L 49.125 0 
L 40.09375 0 
z
M 13.921875 21.09375 
Q 13.921875 14.015625 17.109375 10.0625 
Q 20.3125 6.109375 25.984375 6.109375 
Q 30.171875 6.109375 33.765625 8.125 
Q 37.359375 10.15625 40.09375 14.109375 
Q 42.96875 18.21875 44.625 23.578125 
Q 46.296875 28.953125 46.296875 34.1875 
Q 46.296875 40.96875 43.09375 44.765625 
Q 39.890625 48.578125 34.28125 48.578125 
Q 30.03125 48.578125 26.359375 46.578125 
Q 22.703125 44.578125 20.125 40.828125 
Q 17.28125 36.765625 15.59375 31.390625 
Q 13.921875 26.03125 13.921875 21.09375 
z
" id="DejaVuSans-Oblique-100"/>
     </defs>
     <g style="fill:#262626;" transform="translate(196.093911 392.778516)scale(0.18 -0.18)">
      <use transform="translate(0 0.53125)" xlink:href="#ArialMT-68"/>
      <use transform="translate(72.216797 0.53125)" xlink:href="#ArialMT-105"/>
      <use transform="translate(94.433594 0.53125)" xlink:href="#ArialMT-115"/>
      <use transform="translate(144.433594 0.53125)" xlink:href="#ArialMT-116"/>
      <use transform="translate(172.216797 0.53125)" xlink:href="#ArialMT-97"/>
      <use transform="translate(227.832031 0.53125)" xlink:href="#ArialMT-110"/>
      <use transform="translate(283.447266 0.53125)" xlink:href="#ArialMT-99"/>
      <use transform="translate(333.447266 0.53125)" xlink:href="#ArialMT-101"/>
      <use transform="translate(389.0625 0.53125)" xlink:href="#ArialMT-44"/>
      <use transform="translate(416.845703 0.53125)" xlink:href="#ArialMT-32"/>
      <use transform="translate(509.076172 33.015625)" xlink:href="#DejaVuSans-770"/>
      <use transform="translate(444.628906 0.53125)" xlink:href="#DejaVuSans-Oblique-100"/>
     </g>
    </g>
   </g>
   <g id="matplotlib.axis_2">
    <g id="ytick_1">
     <g id="line2d_6">
      <defs>
       <path d="M 0 0 
L -9 0 
" id="mfed0cc856b" style="stroke:#262626;stroke-width:1.875;"/>
      </defs>
      <g>
       <use style="fill:#262626;stroke:#262626;stroke-width:1.875;" x="74.728125" xlink:href="#mfed0cc856b" y="307.200739"/>
      </g>
     </g>
     <g id="text_5">
      <!-- −10 -->
      <defs>
       <path d="M 52.828125 31.203125 
L 5.5625 31.203125 
L 5.5625 39.40625 
L 52.828125 39.40625 
z
" id="ArialMT-8722"/>
      </defs>
      <g style="fill:#262626;" transform="translate(34.24 313.105934)scale(0.165 -0.165)">
       <use xlink:href="#ArialMT-8722"/>
       <use x="58.398438" xlink:href="#ArialMT-49"/>
       <use x="114.013672" xlink:href="#ArialMT-48"/>
      </g>
     </g>
    </g>
    <g id="ytick_2">
     <g id="line2d_7">
      <g>
       <use style="fill:#262626;stroke:#262626;stroke-width:1.875;" x="74.728125" xlink:href="#mfed0cc856b" y="267.743011"/>
      </g>
     </g>
     <g id="text_6">
      <!-- −5 -->
      <defs>
       <path d="M 4.15625 18.75 
L 13.375 19.53125 
Q 14.40625 12.796875 18.140625 9.390625 
Q 21.875 6 27.15625 6 
Q 33.5 6 37.890625 10.78125 
Q 42.28125 15.578125 42.28125 23.484375 
Q 42.28125 31 38.0625 35.34375 
Q 33.84375 39.703125 27 39.703125 
Q 22.75 39.703125 19.328125 37.765625 
Q 15.921875 35.84375 13.96875 32.765625 
L 5.71875 33.84375 
L 12.640625 70.609375 
L 48.25 70.609375 
L 48.25 62.203125 
L 19.671875 62.203125 
L 15.828125 42.96875 
Q 22.265625 47.46875 29.34375 47.46875 
Q 38.71875 47.46875 45.15625 40.96875 
Q 51.609375 34.46875 51.609375 24.265625 
Q 51.609375 14.546875 45.953125 7.46875 
Q 39.0625 -1.21875 27.15625 -1.21875 
Q 17.390625 -1.21875 11.203125 4.25 
Q 5.03125 9.71875 4.15625 18.75 
z
" id="ArialMT-53"/>
      </defs>
      <g style="fill:#262626;" transform="translate(43.415547 273.648207)scale(0.165 -0.165)">
       <use xlink:href="#ArialMT-8722"/>
       <use x="58.398438" xlink:href="#ArialMT-53"/>
      </g>
     </g>
    </g>
    <g id="ytick_3">
     <g id="line2d_8">
      <g>
       <use style="fill:#262626;stroke:#262626;stroke-width:1.875;" x="74.728125" xlink:href="#mfed0cc856b" y="228.285284"/>
      </g>
     </g>
     <g id="text_7">
      <!-- 0 -->
      <g style="fill:#262626;" transform="translate(53.052578 234.190479)scale(0.165 -0.165)">
       <use xlink:href="#ArialMT-48"/>
      </g>
     </g>
    </g>
    <g id="ytick_4">
     <g id="line2d_9">
      <g>
       <use style="fill:#262626;stroke:#262626;stroke-width:1.875;" x="74.728125" xlink:href="#mfed0cc856b" y="188.827557"/>
      </g>
     </g>
     <g id="text_8">
      <!-- 5 -->
      <g style="fill:#262626;" transform="translate(53.052578 194.732752)scale(0.165 -0.165)">
       <use xlink:href="#ArialMT-53"/>
      </g>
     </g>
    </g>
    <g id="ytick_5">
     <g id="line2d_10">
      <g>
       <use style="fill:#262626;stroke:#262626;stroke-width:1.875;" x="74.728125" xlink:href="#mfed0cc856b" y="149.36983"/>
      </g>
     </g>
     <g id="text_9">
      <!-- 10 -->
      <g style="fill:#262626;" transform="translate(43.877031 155.275025)scale(0.165 -0.165)">
       <use xlink:href="#ArialMT-49"/>
       <use x="55.615234" xlink:href="#ArialMT-48"/>
      </g>
     </g>
    </g>
    <g id="ytick_6">
     <g id="line2d_11">
      <g>
       <use style="fill:#262626;stroke:#262626;stroke-width:1.875;" x="74.728125" xlink:href="#mfed0cc856b" y="109.912102"/>
      </g>
     </g>
     <g id="text_10">
      <!-- 15 -->
      <g style="fill:#262626;" transform="translate(43.877031 115.817298)scale(0.165 -0.165)">
       <use xlink:href="#ArialMT-49"/>
       <use x="55.615234" xlink:href="#ArialMT-53"/>
      </g>
     </g>
    </g>
    <g id="ytick_7">
     <g id="line2d_12">
      <g>
       <use style="fill:#262626;stroke:#262626;stroke-width:1.875;" x="74.728125" xlink:href="#mfed0cc856b" y="70.454375"/>
      </g>
     </g>
     <g id="text_11">
      <!-- 20 -->
      <g style="fill:#262626;" transform="translate(43.877031 76.35957)scale(0.165 -0.165)">
       <use xlink:href="#ArialMT-50"/>
       <use x="55.615234" xlink:href="#ArialMT-48"/>
      </g>
     </g>
    </g>
    <g id="ytick_8">
     <g id="line2d_13">
      <g>
       <use style="fill:#262626;stroke:#262626;stroke-width:1.875;" x="74.728125" xlink:href="#mfed0cc856b" y="30.996648"/>
      </g>
     </g>
     <g id="text_12">
      <!-- 25 -->
      <g style="fill:#262626;" transform="translate(43.877031 36.901843)scale(0.165 -0.165)">
       <use xlink:href="#ArialMT-50"/>
       <use x="55.615234" xlink:href="#ArialMT-53"/>
      </g>
     </g>
    </g>
    <g id="text_13">
     <!-- Force, $\hat{F}_{net}$ -->
     <defs>
      <path d="M 8.203125 0 
L 8.203125 71.578125 
L 56.5 71.578125 
L 56.5 63.140625 
L 17.671875 63.140625 
L 17.671875 40.96875 
L 51.265625 40.96875 
L 51.265625 32.515625 
L 17.671875 32.515625 
L 17.671875 0 
z
" id="ArialMT-70"/>
      <path d="M 3.328125 25.921875 
Q 3.328125 40.328125 11.328125 47.265625 
Q 18.015625 53.03125 27.640625 53.03125 
Q 38.328125 53.03125 45.109375 46.015625 
Q 51.90625 39.015625 51.90625 26.65625 
Q 51.90625 16.65625 48.90625 10.90625 
Q 45.90625 5.171875 40.15625 2 
Q 34.421875 -1.171875 27.640625 -1.171875 
Q 16.75 -1.171875 10.03125 5.8125 
Q 3.328125 12.796875 3.328125 25.921875 
z
M 12.359375 25.921875 
Q 12.359375 15.96875 16.703125 11.015625 
Q 21.046875 6.0625 27.640625 6.0625 
Q 34.1875 6.0625 38.53125 11.03125 
Q 42.875 16.015625 42.875 26.21875 
Q 42.875 35.84375 38.5 40.796875 
Q 34.125 45.75 27.640625 45.75 
Q 21.046875 45.75 16.703125 40.8125 
Q 12.359375 35.890625 12.359375 25.921875 
z
" id="ArialMT-111"/>
      <path d="M 6.5 0 
L 6.5 51.859375 
L 14.40625 51.859375 
L 14.40625 44 
Q 17.4375 49.515625 20 51.265625 
Q 22.5625 53.03125 25.640625 53.03125 
Q 30.078125 53.03125 34.671875 50.203125 
L 31.640625 42.046875 
Q 28.421875 43.953125 25.203125 43.953125 
Q 22.3125 43.953125 20.015625 42.21875 
Q 17.71875 40.484375 16.75 37.40625 
Q 15.28125 32.71875 15.28125 27.15625 
L 15.28125 0 
z
" id="ArialMT-114"/>
      <path d="M 16.890625 72.90625 
L 58.6875 72.90625 
L 57.078125 64.59375 
L 25.09375 64.59375 
L 20.90625 43.109375 
L 49.8125 43.109375 
L 48.1875 34.8125 
L 19.28125 34.8125 
L 12.5 0 
L 2.6875 0 
z
" id="DejaVuSans-Oblique-70"/>
      <path d="M 55.71875 33.015625 
L 49.3125 0 
L 40.28125 0 
L 46.6875 32.671875 
Q 47.125 34.96875 47.359375 36.71875 
Q 47.609375 38.484375 47.609375 39.5 
Q 47.609375 43.609375 45.015625 45.890625 
Q 42.4375 48.1875 37.796875 48.1875 
Q 30.5625 48.1875 25.34375 43.375 
Q 20.125 38.578125 18.5 30.328125 
L 12.5 0 
L 3.515625 0 
L 14.109375 54.6875 
L 23.09375 54.6875 
L 21.296875 46.09375 
Q 25.046875 50.828125 30.3125 53.40625 
Q 35.59375 56 41.40625 56 
Q 48.640625 56 52.609375 52.09375 
Q 56.59375 48.1875 56.59375 41.109375 
Q 56.59375 39.359375 56.375 37.359375 
Q 56.15625 35.359375 55.71875 33.015625 
z
" id="DejaVuSans-Oblique-110"/>
      <path d="M 48.09375 32.234375 
Q 48.25 33.015625 48.3125 33.84375 
Q 48.390625 34.671875 48.390625 35.5 
Q 48.390625 41.453125 44.890625 44.921875 
Q 41.40625 48.390625 35.40625 48.390625 
Q 28.71875 48.390625 23.578125 44.15625 
Q 18.453125 39.9375 15.828125 32.171875 
z
M 55.90625 25.203125 
L 14.109375 25.203125 
Q 13.8125 23.34375 13.71875 22.265625 
Q 13.625 21.1875 13.625 20.40625 
Q 13.625 13.625 17.796875 9.90625 
Q 21.96875 6.203125 29.59375 6.203125 
Q 35.453125 6.203125 40.671875 7.515625 
Q 45.90625 8.84375 50.390625 11.375 
L 48.6875 2.484375 
Q 43.84375 0.53125 38.6875 -0.4375 
Q 33.546875 -1.421875 28.21875 -1.421875 
Q 16.84375 -1.421875 10.71875 4.015625 
Q 4.59375 9.46875 4.59375 19.484375 
Q 4.59375 28.03125 7.640625 35.375 
Q 10.6875 42.71875 16.609375 48.484375 
Q 20.40625 52.09375 25.65625 54.046875 
Q 30.90625 56 36.8125 56 
Q 46.09375 56 51.578125 50.4375 
Q 57.078125 44.875 57.078125 35.5 
Q 57.078125 33.25 56.78125 30.6875 
Q 56.5 28.125 55.90625 25.203125 
z
" id="DejaVuSans-Oblique-101"/>
      <path d="M 42.28125 54.6875 
L 40.921875 47.703125 
L 23 47.703125 
L 17.1875 18.015625 
Q 16.890625 16.359375 16.75 15.234375 
Q 16.609375 14.109375 16.609375 13.484375 
Q 16.609375 10.359375 18.484375 8.9375 
Q 20.359375 7.515625 24.515625 7.515625 
L 33.59375 7.515625 
L 32.078125 0 
L 23.484375 0 
Q 15.484375 0 11.546875 3.125 
Q 7.625 6.25 7.625 12.59375 
Q 7.625 13.71875 7.765625 15.0625 
Q 7.90625 16.40625 8.203125 18.015625 
L 14.015625 47.703125 
L 6.390625 47.703125 
L 7.8125 54.6875 
L 15.28125 54.6875 
L 18.3125 70.21875 
L 27.296875 70.21875 
L 24.3125 54.6875 
z
" id="DejaVuSans-Oblique-116"/>
     </defs>
     <g style="fill:#262626;" transform="translate(26.6625 222.883125)rotate(-90)scale(0.18 -0.18)">
      <use transform="translate(0 0.609375)" xlink:href="#ArialMT-70"/>
      <use transform="translate(61.083984 0.609375)" xlink:href="#ArialMT-111"/>
      <use transform="translate(116.699219 0.609375)" xlink:href="#ArialMT-114"/>
      <use transform="translate(150 0.609375)" xlink:href="#ArialMT-99"/>
      <use transform="translate(200 0.609375)" xlink:href="#ArialMT-101"/>
      <use transform="translate(255.615234 0.609375)" xlink:href="#ArialMT-44"/>
      <use transform="translate(283.398438 0.609375)" xlink:href="#ArialMT-32"/>
      <use transform="translate(372.139648 30.015625)" xlink:href="#DejaVuSans-770"/>
      <use transform="translate(311.181641 0.609375)" xlink:href="#DejaVuSans-Oblique-70"/>
      <use transform="translate(369.658203 -15.796875)scale(0.7)" xlink:href="#DejaVuSans-Oblique-110"/>
      <use transform="translate(414.023438 -15.796875)scale(0.7)" xlink:href="#DejaVuSans-Oblique-101"/>
      <use transform="translate(457.089844 -15.796875)scale(0.7)" xlink:href="#DejaVuSans-Oblique-116"/>
     </g>
    </g>
   </g>
   <g id="line2d_14">
    <path clip-path="url(#pf0a8f8312b)" d="M 182.300408 154.900121 
L 188.341127 152.723191 
L 194.381846 151.034224 
L 200.422565 149.83322 
L 206.463284 149.120178 
L 212.504003 148.895099 
L 218.544722 149.157982 
L 224.585441 149.908828 
L 230.62616 151.147637 
L 236.666879 152.874408 
L 242.707598 155.089142 
L 248.748316 157.791839 
L 254.789035 160.982498 
L 260.829754 164.66112 
L 266.870473 168.827704 
L 272.911192 173.482252 
L 278.951911 178.624761 
L 284.99263 184.255234 
L 291.033349 190.373669 
L 297.074068 196.980067 
L 303.114787 204.074427 
L 309.155506 211.65675 
L 315.196225 219.727036 
L 321.236944 228.285284 
" style="fill:none;stroke:#1f77b4;stroke-dasharray:2.25,0;stroke-dashoffset:0;stroke-width:2.25;"/>
    <defs>
     <path d="M -0.49999 0.49999 
L 0.50001 0.49999 
L 0.50001 -0.50001 
L -0.49999 -0.50001 
z
" id="m193a8be0ba"/>
    </defs>
    <g clip-path="url(#pf0a8f8312b)">
     <use style="fill:#1f77b4;" x="182.300408" xlink:href="#m193a8be0ba" y="154.900121"/>
     <use style="fill:#1f77b4;" x="188.341127" xlink:href="#m193a8be0ba" y="152.723191"/>
     <use style="fill:#1f77b4;" x="194.381846" xlink:href="#m193a8be0ba" y="151.034224"/>
     <use style="fill:#1f77b4;" x="200.422565" xlink:href="#m193a8be0ba" y="149.83322"/>
     <use style="fill:#1f77b4;" x="206.463284" xlink:href="#m193a8be0ba" y="149.120178"/>
     <use style="fill:#1f77b4;" x="212.504003" xlink:href="#m193a8be0ba" y="148.895099"/>
     <use style="fill:#1f77b4;" x="218.544722" xlink:href="#m193a8be0ba" y="149.157982"/>
     <use style="fill:#1f77b4;" x="224.585441" xlink:href="#m193a8be0ba" y="149.908828"/>
     <use style="fill:#1f77b4;" x="230.62616" xlink:href="#m193a8be0ba" y="151.147637"/>
     <use style="fill:#1f77b4;" x="236.666879" xlink:href="#m193a8be0ba" y="152.874408"/>
     <use style="fill:#1f77b4;" x="242.707598" xlink:href="#m193a8be0ba" y="155.089142"/>
     <use style="fill:#1f77b4;" x="248.748316" xlink:href="#m193a8be0ba" y="157.791839"/>
     <use style="fill:#1f77b4;" x="254.789035" xlink:href="#m193a8be0ba" y="160.982498"/>
     <use style="fill:#1f77b4;" x="260.829754" xlink:href="#m193a8be0ba" y="164.66112"/>
     <use style="fill:#1f77b4;" x="266.870473" xlink:href="#m193a8be0ba" y="168.827704"/>
     <use style="fill:#1f77b4;" x="272.911192" xlink:href="#m193a8be0ba" y="173.482252"/>
     <use style="fill:#1f77b4;" x="278.951911" xlink:href="#m193a8be0ba" y="178.624761"/>
     <use style="fill:#1f77b4;" x="284.99263" xlink:href="#m193a8be0ba" y="184.255234"/>
     <use style="fill:#1f77b4;" x="291.033349" xlink:href="#m193a8be0ba" y="190.373669"/>
     <use style="fill:#1f77b4;" x="297.074068" xlink:href="#m193a8be0ba" y="196.980067"/>
     <use style="fill:#1f77b4;" x="303.114787" xlink:href="#m193a8be0ba" y="204.074427"/>
     <use style="fill:#1f77b4;" x="309.155506" xlink:href="#m193a8be0ba" y="211.65675"/>
     <use style="fill:#1f77b4;" x="315.196225" xlink:href="#m193a8be0ba" y="219.727036"/>
     <use style="fill:#1f77b4;" x="321.236944" xlink:href="#m193a8be0ba" y="228.285284"/>
    </g>
   </g>
   <g id="line2d_15">
    <path clip-path="url(#pf0a8f8312b)" d="M 182.300408 154.900121 
L 188.341127 152.723191 
L 194.381846 151.034224 
L 200.422565 149.83322 
L 206.463284 149.120178 
L 212.504003 148.895099 
L 218.544722 149.157982 
L 224.585441 149.908828 
L 230.62616 151.147637 
L 236.666879 152.874408 
L 242.707598 155.089142 
L 248.748316 157.791839 
L 254.789035 160.982498 
L 260.829754 164.66112 
L 266.870473 228.285284 
L 272.911192 228.285284 
L 278.951911 228.285284 
L 284.99263 228.285284 
L 291.033349 228.285284 
L 297.074068 228.285284 
L 303.114787 228.285284 
L 309.155506 228.285284 
L 315.196225 228.285284 
L 321.236944 228.285284 
" style="fill:none;stroke:#1f77b4;stroke-dasharray:0,2.25;stroke-dashoffset:0;stroke-width:2.25;"/>
    <defs>
     <path d="M 0 4.5 
C 1.193414 4.5 2.338109 4.025852 3.181981 3.181981 
C 4.025852 2.338109 4.5 1.193414 4.5 0 
C 4.5 -1.193414 4.025852 -2.338109 3.181981 -3.181981 
C 2.338109 -4.025852 1.193414 -4.5 0 -4.5 
C -1.193414 -4.5 -2.338109 -4.025852 -3.181981 -3.181981 
C -4.025852 -2.338109 -4.5 -1.193414 -4.5 0 
C -4.5 1.193414 -4.025852 2.338109 -3.181981 3.181981 
C -2.338109 4.025852 -1.193414 4.5 0 4.5 
z
" id="ma2f96f5339" style="stroke:#ffffff;stroke-width:0.75;"/>
    </defs>
    <g clip-path="url(#pf0a8f8312b)">
     <use style="fill:#1f77b4;stroke:#ffffff;stroke-width:0.75;" x="182.300408" xlink:href="#ma2f96f5339" y="154.900121"/>
     <use style="fill:#1f77b4;stroke:#ffffff;stroke-width:0.75;" x="188.341127" xlink:href="#ma2f96f5339" y="152.723191"/>
     <use style="fill:#1f77b4;stroke:#ffffff;stroke-width:0.75;" x="194.381846" xlink:href="#ma2f96f5339" y="151.034224"/>
     <use style="fill:#1f77b4;stroke:#ffffff;stroke-width:0.75;" x="200.422565" xlink:href="#ma2f96f5339" y="149.83322"/>
     <use style="fill:#1f77b4;stroke:#ffffff;stroke-width:0.75;" x="206.463284" xlink:href="#ma2f96f5339" y="149.120178"/>
     <use style="fill:#1f77b4;stroke:#ffffff;stroke-width:0.75;" x="212.504003" xlink:href="#ma2f96f5339" y="148.895099"/>
     <use style="fill:#1f77b4;stroke:#ffffff;stroke-width:0.75;" x="218.544722" xlink:href="#ma2f96f5339" y="149.157982"/>
     <use style="fill:#1f77b4;stroke:#ffffff;stroke-width:0.75;" x="224.585441" xlink:href="#ma2f96f5339" y="149.908828"/>
     <use style="fill:#1f77b4;stroke:#ffffff;stroke-width:0.75;" x="230.62616" xlink:href="#ma2f96f5339" y="151.147637"/>
     <use style="fill:#1f77b4;stroke:#ffffff;stroke-width:0.75;" x="236.666879" xlink:href="#ma2f96f5339" y="152.874408"/>
     <use style="fill:#1f77b4;stroke:#ffffff;stroke-width:0.75;" x="242.707598" xlink:href="#ma2f96f5339" y="155.089142"/>
     <use style="fill:#1f77b4;stroke:#ffffff;stroke-width:0.75;" x="248.748316" xlink:href="#ma2f96f5339" y="157.791839"/>
     <use style="fill:#1f77b4;stroke:#ffffff;stroke-width:0.75;" x="254.789035" xlink:href="#ma2f96f5339" y="160.982498"/>
     <use style="fill:#1f77b4;stroke:#ffffff;stroke-width:0.75;" x="260.829754" xlink:href="#ma2f96f5339" y="164.66112"/>
     <use style="fill:#1f77b4;stroke:#ffffff;stroke-width:0.75;" x="266.870473" xlink:href="#ma2f96f5339" y="228.285284"/>
     <use style="fill:#1f77b4;stroke:#ffffff;stroke-width:0.75;" x="272.911192" xlink:href="#ma2f96f5339" y="228.285284"/>
     <use style="fill:#1f77b4;stroke:#ffffff;stroke-width:0.75;" x="278.951911" xlink:href="#ma2f96f5339" y="228.285284"/>
     <use style="fill:#1f77b4;stroke:#ffffff;stroke-width:0.75;" x="284.99263" xlink:href="#ma2f96f5339" y="228.285284"/>
     <use style="fill:#1f77b4;stroke:#ffffff;stroke-width:0.75;" x="291.033349" xlink:href="#ma2f96f5339" y="228.285284"/>
     <use style="fill:#1f77b4;stroke:#ffffff;stroke-width:0.75;" x="297.074068" xlink:href="#ma2f96f5339" y="228.285284"/>
     <use style="fill:#1f77b4;stroke:#ffffff;stroke-width:0.75;" x="303.114787" xlink:href="#ma2f96f5339" y="228.285284"/>
     <use style="fill:#1f77b4;stroke:#ffffff;stroke-width:0.75;" x="309.155506" xlink:href="#ma2f96f5339" y="228.285284"/>
     <use style="fill:#1f77b4;stroke:#ffffff;stroke-width:0.75;" x="315.196225" xlink:href="#ma2f96f5339" y="228.285284"/>
     <use style="fill:#1f77b4;stroke:#ffffff;stroke-width:0.75;" x="321.236944" xlink:href="#ma2f96f5339" y="228.285284"/>
    </g>
   </g>
   <g id="line2d_16">
    <path clip-path="url(#pf0a8f8312b)" d="M 115.243527 278.463983 
L 127.358238 265.561835 
L 139.47295 253.634274 
L 151.587662 242.681302 
L 163.702374 232.702917 
L 175.817086 223.699119 
L 187.931798 215.66991 
L 200.046509 208.615288 
L 212.161221 202.535254 
L 224.275933 197.429808 
L 236.390645 193.29895 
L 248.505357 190.14268 
L 260.620069 187.960997 
L 272.73478 186.753903 
L 284.849492 186.521396 
L 296.964204 187.263476 
L 309.078916 188.980145 
L 321.193628 191.671401 
L 333.30834 195.337246 
L 345.423051 199.977678 
L 357.537763 205.592698 
L 369.652475 212.182305 
L 381.767187 219.746501 
L 393.881899 228.285284 
" style="fill:none;stroke:#ff7f0e;stroke-dasharray:2.25,0;stroke-dashoffset:0;stroke-width:2.25;"/>
    <defs>
     <path d="M -0.49999 0.49999 
L 0.50001 0.49999 
L 0.50001 -0.50001 
L -0.49999 -0.50001 
z
" id="mcea522681b"/>
    </defs>
    <g clip-path="url(#pf0a8f8312b)">
     <use style="fill:#ff7f0e;" x="115.243527" xlink:href="#mcea522681b" y="278.463983"/>
     <use style="fill:#ff7f0e;" x="127.358238" xlink:href="#mcea522681b" y="265.561835"/>
     <use style="fill:#ff7f0e;" x="139.47295" xlink:href="#mcea522681b" y="253.634274"/>
     <use style="fill:#ff7f0e;" x="151.587662" xlink:href="#mcea522681b" y="242.681302"/>
     <use style="fill:#ff7f0e;" x="163.702374" xlink:href="#mcea522681b" y="232.702917"/>
     <use style="fill:#ff7f0e;" x="175.817086" xlink:href="#mcea522681b" y="223.699119"/>
     <use style="fill:#ff7f0e;" x="187.931798" xlink:href="#mcea522681b" y="215.66991"/>
     <use style="fill:#ff7f0e;" x="200.046509" xlink:href="#mcea522681b" y="208.615288"/>
     <use style="fill:#ff7f0e;" x="212.161221" xlink:href="#mcea522681b" y="202.535254"/>
     <use style="fill:#ff7f0e;" x="224.275933" xlink:href="#mcea522681b" y="197.429808"/>
     <use style="fill:#ff7f0e;" x="236.390645" xlink:href="#mcea522681b" y="193.29895"/>
     <use style="fill:#ff7f0e;" x="248.505357" xlink:href="#mcea522681b" y="190.14268"/>
     <use style="fill:#ff7f0e;" x="260.620069" xlink:href="#mcea522681b" y="187.960997"/>
     <use style="fill:#ff7f0e;" x="272.73478" xlink:href="#mcea522681b" y="186.753903"/>
     <use style="fill:#ff7f0e;" x="284.849492" xlink:href="#mcea522681b" y="186.521396"/>
     <use style="fill:#ff7f0e;" x="296.964204" xlink:href="#mcea522681b" y="187.263476"/>
     <use style="fill:#ff7f0e;" x="309.078916" xlink:href="#mcea522681b" y="188.980145"/>
     <use style="fill:#ff7f0e;" x="321.193628" xlink:href="#mcea522681b" y="191.671401"/>
     <use style="fill:#ff7f0e;" x="333.30834" xlink:href="#mcea522681b" y="195.337246"/>
     <use style="fill:#ff7f0e;" x="345.423051" xlink:href="#mcea522681b" y="199.977678"/>
     <use style="fill:#ff7f0e;" x="357.537763" xlink:href="#mcea522681b" y="205.592698"/>
     <use style="fill:#ff7f0e;" x="369.652475" xlink:href="#mcea522681b" y="212.182305"/>
     <use style="fill:#ff7f0e;" x="381.767187" xlink:href="#mcea522681b" y="219.746501"/>
     <use style="fill:#ff7f0e;" x="393.881899" xlink:href="#mcea522681b" y="228.285284"/>
    </g>
   </g>
   <g id="line2d_17">
    <path clip-path="url(#pf0a8f8312b)" d="M 115.243527 278.463983 
L 127.358238 265.561835 
L 139.47295 253.634274 
L 151.587662 242.681302 
L 163.702374 232.702917 
L 175.817086 223.699119 
L 187.931798 215.66991 
L 200.046509 208.615288 
L 212.161221 202.535254 
L 224.275933 197.429808 
L 236.390645 193.29895 
L 248.505357 190.14268 
L 260.620069 187.960997 
L 272.73478 186.753903 
L 284.849492 186.521396 
L 296.964204 187.263476 
L 309.078916 188.980145 
L 321.193628 191.671401 
L 333.30834 195.337246 
L 345.423051 199.977678 
L 357.537763 205.592698 
L 369.652475 212.182305 
L 381.767187 219.746501 
L 393.881899 228.285284 
" style="fill:none;stroke:#ff7f0e;stroke-dasharray:0,2.25;stroke-dashoffset:0;stroke-width:2.25;"/>
    <defs>
     <path d="M 0 4.5 
C 1.193414 4.5 2.338109 4.025852 3.181981 3.181981 
C 4.025852 2.338109 4.5 1.193414 4.5 0 
C 4.5 -1.193414 4.025852 -2.338109 3.181981 -3.181981 
C 2.338109 -4.025852 1.193414 -4.5 0 -4.5 
C -1.193414 -4.5 -2.338109 -4.025852 -3.181981 -3.181981 
C -4.025852 -2.338109 -4.5 -1.193414 -4.5 0 
C -4.5 1.193414 -4.025852 2.338109 -3.181981 3.181981 
C -2.338109 4.025852 -1.193414 4.5 0 4.5 
z
" id="m06fc094f7c" style="stroke:#ffffff;stroke-width:0.75;"/>
    </defs>
    <g clip-path="url(#pf0a8f8312b)">
     <use style="fill:#ff7f0e;stroke:#ffffff;stroke-width:0.75;" x="115.243527" xlink:href="#m06fc094f7c" y="278.463983"/>
     <use style="fill:#ff7f0e;stroke:#ffffff;stroke-width:0.75;" x="127.358238" xlink:href="#m06fc094f7c" y="265.561835"/>
     <use style="fill:#ff7f0e;stroke:#ffffff;stroke-width:0.75;" x="139.47295" xlink:href="#m06fc094f7c" y="253.634274"/>
     <use style="fill:#ff7f0e;stroke:#ffffff;stroke-width:0.75;" x="151.587662" xlink:href="#m06fc094f7c" y="242.681302"/>
     <use style="fill:#ff7f0e;stroke:#ffffff;stroke-width:0.75;" x="163.702374" xlink:href="#m06fc094f7c" y="232.702917"/>
     <use style="fill:#ff7f0e;stroke:#ffffff;stroke-width:0.75;" x="175.817086" xlink:href="#m06fc094f7c" y="223.699119"/>
     <use style="fill:#ff7f0e;stroke:#ffffff;stroke-width:0.75;" x="187.931798" xlink:href="#m06fc094f7c" y="215.66991"/>
     <use style="fill:#ff7f0e;stroke:#ffffff;stroke-width:0.75;" x="200.046509" xlink:href="#m06fc094f7c" y="208.615288"/>
     <use style="fill:#ff7f0e;stroke:#ffffff;stroke-width:0.75;" x="212.161221" xlink:href="#m06fc094f7c" y="202.535254"/>
     <use style="fill:#ff7f0e;stroke:#ffffff;stroke-width:0.75;" x="224.275933" xlink:href="#m06fc094f7c" y="197.429808"/>
     <use style="fill:#ff7f0e;stroke:#ffffff;stroke-width:0.75;" x="236.390645" xlink:href="#m06fc094f7c" y="193.29895"/>
     <use style="fill:#ff7f0e;stroke:#ffffff;stroke-width:0.75;" x="248.505357" xlink:href="#m06fc094f7c" y="190.14268"/>
     <use style="fill:#ff7f0e;stroke:#ffffff;stroke-width:0.75;" x="260.620069" xlink:href="#m06fc094f7c" y="187.960997"/>
     <use style="fill:#ff7f0e;stroke:#ffffff;stroke-width:0.75;" x="272.73478" xlink:href="#m06fc094f7c" y="186.753903"/>
     <use style="fill:#ff7f0e;stroke:#ffffff;stroke-width:0.75;" x="284.849492" xlink:href="#m06fc094f7c" y="186.521396"/>
     <use style="fill:#ff7f0e;stroke:#ffffff;stroke-width:0.75;" x="296.964204" xlink:href="#m06fc094f7c" y="187.263476"/>
     <use style="fill:#ff7f0e;stroke:#ffffff;stroke-width:0.75;" x="309.078916" xlink:href="#m06fc094f7c" y="188.980145"/>
     <use style="fill:#ff7f0e;stroke:#ffffff;stroke-width:0.75;" x="321.193628" xlink:href="#m06fc094f7c" y="191.671401"/>
     <use style="fill:#ff7f0e;stroke:#ffffff;stroke-width:0.75;" x="333.30834" xlink:href="#m06fc094f7c" y="195.337246"/>
     <use style="fill:#ff7f0e;stroke:#ffffff;stroke-width:0.75;" x="345.423051" xlink:href="#m06fc094f7c" y="199.977678"/>
     <use style="fill:#ff7f0e;stroke:#ffffff;stroke-width:0.75;" x="357.537763" xlink:href="#m06fc094f7c" y="205.592698"/>
     <use style="fill:#ff7f0e;stroke:#ffffff;stroke-width:0.75;" x="369.652475" xlink:href="#m06fc094f7c" y="212.182305"/>
     <use style="fill:#ff7f0e;stroke:#ffffff;stroke-width:0.75;" x="381.767187" xlink:href="#m06fc094f7c" y="219.746501"/>
     <use style="fill:#ff7f0e;stroke:#ffffff;stroke-width:0.75;" x="393.881899" xlink:href="#m06fc094f7c" y="228.285284"/>
    </g>
   </g>
   <g id="line2d_18"/>
   <g id="line2d_19"/>
   <g id="line2d_20"/>
   <g id="line2d_21"/>
   <g id="line2d_22">
    <path clip-path="url(#pf0a8f8312b)" d="M 89.925924 326.929602 
L 100.189755 307.834109 
L 110.453587 288.738615 
L 120.717419 269.643121 
L 130.98125 250.547628 
L 141.245082 231.452134 
L 151.508913 212.35664 
L 161.772745 193.261147 
L 172.036577 174.165653 
L 182.300408 155.070159 
" style="fill:none;stroke:#2ca02c;stroke-dasharray:8.325,3.6;stroke-dashoffset:0;stroke-width:2.25;"/>
   </g>
   <g id="patch_3">
    <path d="M 74.728125 341.72625 
L 74.728125 16.2 
" style="fill:none;stroke:#262626;stroke-linecap:square;stroke-linejoin:miter;stroke-width:1.875;"/>
   </g>
   <g id="patch_4">
    <path d="M 74.728125 341.72625 
L 409.079698 341.72625 
" style="fill:none;stroke:#262626;stroke-linecap:square;stroke-linejoin:miter;stroke-width:1.875;"/>
   </g>
  </g>
  <g id="legend_1">
   <g id="text_14">
    <!-- Tilt angle, $\theta$ -->
    <defs>
     <path d="M 25.921875 0 
L 25.921875 63.140625 
L 2.34375 63.140625 
L 2.34375 71.578125 
L 59.078125 71.578125 
L 59.078125 63.140625 
L 35.40625 63.140625 
L 35.40625 0 
z
" id="ArialMT-84"/>
     <path d="M 6.390625 0 
L 6.390625 71.578125 
L 15.1875 71.578125 
L 15.1875 0 
z
" id="ArialMT-108"/>
     <path d="M 4.984375 -4.296875 
L 13.53125 -5.5625 
Q 14.0625 -9.515625 16.5 -11.328125 
Q 19.78125 -13.765625 25.4375 -13.765625 
Q 31.546875 -13.765625 34.859375 -11.328125 
Q 38.1875 -8.890625 39.359375 -4.5 
Q 40.046875 -1.8125 39.984375 6.78125 
Q 34.234375 0 25.640625 0 
Q 14.9375 0 9.078125 7.71875 
Q 3.21875 15.4375 3.21875 26.21875 
Q 3.21875 33.640625 5.90625 39.90625 
Q 8.59375 46.1875 13.6875 49.609375 
Q 18.796875 53.03125 25.6875 53.03125 
Q 34.859375 53.03125 40.828125 45.609375 
L 40.828125 51.859375 
L 48.921875 51.859375 
L 48.921875 7.03125 
Q 48.921875 -5.078125 46.453125 -10.125 
Q 44 -15.1875 38.640625 -18.109375 
Q 33.296875 -21.046875 25.484375 -21.046875 
Q 16.21875 -21.046875 10.5 -16.875 
Q 4.78125 -12.703125 4.984375 -4.296875 
z
M 12.25 26.859375 
Q 12.25 16.65625 16.296875 11.96875 
Q 20.359375 7.28125 26.46875 7.28125 
Q 32.515625 7.28125 36.609375 11.9375 
Q 40.71875 16.609375 40.71875 26.5625 
Q 40.71875 36.078125 36.5 40.90625 
Q 32.28125 45.75 26.3125 45.75 
Q 20.453125 45.75 16.34375 40.984375 
Q 12.25 36.234375 12.25 26.859375 
z
" id="ArialMT-103"/>
     <path d="M 45.515625 34.671875 
L 14.453125 34.671875 
Q 12.359375 20.0625 14.5 13.875 
Q 17.1875 6.25 24.46875 6.25 
Q 31.78125 6.25 37.359375 13.921875 
Q 42.234375 20.65625 45.515625 34.671875 
z
M 47.015625 42.96875 
Q 48.34375 56.84375 46.625 61.71875 
Q 43.953125 69.4375 36.765625 69.4375 
Q 29.296875 69.4375 23.828125 61.8125 
Q 19.53125 55.671875 16.15625 42.96875 
z
M 38.1875 76.765625 
Q 49.90625 76.765625 54.59375 66.40625 
Q 59.28125 56.109375 55.71875 37.84375 
Q 52.203125 19.625 43.453125 9.28125 
Q 34.765625 -1.125 23.046875 -1.125 
Q 11.28125 -1.125 6.640625 9.28125 
Q 2 19.625 5.515625 37.84375 
Q 9.078125 56.109375 17.71875 66.40625 
Q 26.421875 76.765625 38.1875 76.765625 
z
" id="DejaVuSans-Oblique-952"/>
    </defs>
    <g style="fill:#262626;" transform="translate(450.123125 144.843633)scale(0.18 -0.18)">
     <use transform="translate(0 0.234375)" xlink:href="#ArialMT-84"/>
     <use transform="translate(61.083984 0.234375)" xlink:href="#ArialMT-105"/>
     <use transform="translate(83.300781 0.234375)" xlink:href="#ArialMT-108"/>
     <use transform="translate(105.517578 0.234375)" xlink:href="#ArialMT-116"/>
     <use transform="translate(133.300781 0.234375)" xlink:href="#ArialMT-32"/>
     <use transform="translate(161.083984 0.234375)" xlink:href="#ArialMT-97"/>
     <use transform="translate(216.699219 0.234375)" xlink:href="#ArialMT-110"/>
     <use transform="translate(272.314453 0.234375)" xlink:href="#ArialMT-103"/>
     <use transform="translate(327.929688 0.234375)" xlink:href="#ArialMT-108"/>
     <use transform="translate(350.146484 0.234375)" xlink:href="#ArialMT-101"/>
     <use transform="translate(405.761719 0.234375)" xlink:href="#ArialMT-44"/>
     <use transform="translate(433.544922 0.234375)" xlink:href="#ArialMT-32"/>
     <use transform="translate(461.328125 0.234375)" xlink:href="#DejaVuSans-Oblique-952"/>
    </g>
   </g>
   <g id="line2d_23">
    <path d="M 436.923125 164.162695 
L 469.923125 164.162695 
" style="fill:none;stroke:#1f77b4;stroke-linecap:round;stroke-width:2.25;"/>
   </g>
   <g id="line2d_24"/>
   <g id="text_15">
    <!-- 3° -->
    <defs>
     <path d="M 4.203125 18.890625 
L 12.984375 20.0625 
Q 14.5 12.59375 18.140625 9.296875 
Q 21.78125 6 27 6 
Q 33.203125 6 37.46875 10.296875 
Q 41.75 14.59375 41.75 20.953125 
Q 41.75 27 37.796875 30.921875 
Q 33.84375 34.859375 27.734375 34.859375 
Q 25.25 34.859375 21.53125 33.890625 
L 22.515625 41.609375 
Q 23.390625 41.5 23.921875 41.5 
Q 29.546875 41.5 34.03125 44.421875 
Q 38.53125 47.359375 38.53125 53.46875 
Q 38.53125 58.296875 35.25 61.46875 
Q 31.984375 64.65625 26.8125 64.65625 
Q 21.6875 64.65625 18.265625 61.421875 
Q 14.84375 58.203125 13.875 51.765625 
L 5.078125 53.328125 
Q 6.6875 62.15625 12.390625 67.015625 
Q 18.109375 71.875 26.609375 71.875 
Q 32.46875 71.875 37.390625 69.359375 
Q 42.328125 66.84375 44.9375 62.5 
Q 47.5625 58.15625 47.5625 53.265625 
Q 47.5625 48.640625 45.0625 44.828125 
Q 42.578125 41.015625 37.703125 38.765625 
Q 44.046875 37.3125 47.5625 32.6875 
Q 51.078125 28.078125 51.078125 21.140625 
Q 51.078125 11.765625 44.234375 5.25 
Q 37.40625 -1.265625 26.953125 -1.265625 
Q 17.53125 -1.265625 11.296875 4.34375 
Q 5.078125 9.96875 4.203125 18.890625 
z
" id="ArialMT-51"/>
     <path d="M 6.25 59.28125 
Q 6.25 64.890625 10.21875 68.84375 
Q 14.203125 72.796875 19.78125 72.796875 
Q 25.4375 72.796875 29.390625 68.84375 
Q 33.34375 64.890625 33.34375 59.28125 
Q 33.34375 53.65625 29.359375 49.671875 
Q 25.390625 45.703125 19.78125 45.703125 
Q 14.203125 45.703125 10.21875 49.65625 
Q 6.25 53.609375 6.25 59.28125 
z
M 11.578125 59.28125 
Q 11.578125 55.859375 13.984375 53.4375 
Q 16.40625 51.03125 19.828125 51.03125 
Q 23.1875 51.03125 25.609375 53.4375 
Q 28.03125 55.859375 28.03125 59.28125 
Q 28.03125 62.703125 25.609375 65.109375 
Q 23.1875 67.53125 19.828125 67.53125 
Q 16.40625 67.53125 13.984375 65.109375 
Q 11.578125 62.703125 11.578125 59.28125 
z
" id="ArialMT-176"/>
    </defs>
    <g style="fill:#262626;" transform="translate(483.123125 169.937695)scale(0.18 -0.18)">
     <use xlink:href="#ArialMT-51"/>
     <use x="55.615234" xlink:href="#ArialMT-176"/>
    </g>
   </g>
   <g id="line2d_25">
    <path d="M 436.923125 188.874258 
L 469.923125 188.874258 
" style="fill:none;stroke:#ff7f0e;stroke-linecap:round;stroke-width:2.25;"/>
   </g>
   <g id="line2d_26"/>
   <g id="text_16">
    <!-- 6° -->
    <defs>
     <path d="M 49.75 54.046875 
L 41.015625 53.375 
Q 39.84375 58.546875 37.703125 60.890625 
Q 34.125 64.65625 28.90625 64.65625 
Q 24.703125 64.65625 21.53125 62.3125 
Q 17.390625 59.28125 14.984375 53.46875 
Q 12.59375 47.65625 12.5 36.921875 
Q 15.671875 41.75 20.265625 44.09375 
Q 24.859375 46.4375 29.890625 46.4375 
Q 38.671875 46.4375 44.84375 39.96875 
Q 51.03125 33.5 51.03125 23.25 
Q 51.03125 16.5 48.125 10.71875 
Q 45.21875 4.9375 40.140625 1.859375 
Q 35.0625 -1.21875 28.609375 -1.21875 
Q 17.625 -1.21875 10.6875 6.859375 
Q 3.765625 14.9375 3.765625 33.5 
Q 3.765625 54.25 11.421875 63.671875 
Q 18.109375 71.875 29.4375 71.875 
Q 37.890625 71.875 43.28125 67.140625 
Q 48.6875 62.40625 49.75 54.046875 
z
M 13.875 23.1875 
Q 13.875 18.65625 15.796875 14.5 
Q 17.71875 10.359375 21.1875 8.171875 
Q 24.65625 6 28.46875 6 
Q 34.03125 6 38.03125 10.484375 
Q 42.046875 14.984375 42.046875 22.703125 
Q 42.046875 30.125 38.078125 34.390625 
Q 34.125 38.671875 28.125 38.671875 
Q 22.171875 38.671875 18.015625 34.390625 
Q 13.875 30.125 13.875 23.1875 
z
" id="ArialMT-54"/>
    </defs>
    <g style="fill:#262626;" transform="translate(483.123125 194.649258)scale(0.18 -0.18)">
     <use xlink:href="#ArialMT-54"/>
     <use x="55.615234" xlink:href="#ArialMT-176"/>
    </g>
   </g>
   <g id="text_17">
    <!-- Backing -->
    <defs>
     <path d="M 7.328125 0 
L 7.328125 71.578125 
L 34.1875 71.578125 
Q 42.390625 71.578125 47.34375 69.40625 
Q 52.296875 67.234375 55.09375 62.71875 
Q 57.90625 58.203125 57.90625 53.265625 
Q 57.90625 48.6875 55.421875 44.625 
Q 52.9375 40.578125 47.90625 38.09375 
Q 54.390625 36.1875 57.875 31.59375 
Q 61.375 27 61.375 20.75 
Q 61.375 15.71875 59.25 11.390625 
Q 57.125 7.078125 54 4.734375 
Q 50.875 2.390625 46.15625 1.1875 
Q 41.453125 0 34.625 0 
z
M 16.796875 41.5 
L 32.28125 41.5 
Q 38.578125 41.5 41.3125 42.328125 
Q 44.921875 43.40625 46.75 45.890625 
Q 48.578125 48.390625 48.578125 52.15625 
Q 48.578125 55.71875 46.875 58.421875 
Q 45.171875 61.140625 41.984375 62.140625 
Q 38.8125 63.140625 31.109375 63.140625 
L 16.796875 63.140625 
z
M 16.796875 8.453125 
L 34.625 8.453125 
Q 39.203125 8.453125 41.0625 8.796875 
Q 44.34375 9.375 46.53125 10.734375 
Q 48.734375 12.109375 50.140625 14.71875 
Q 51.5625 17.328125 51.5625 20.75 
Q 51.5625 24.75 49.515625 27.703125 
Q 47.46875 30.671875 43.828125 31.859375 
Q 40.1875 33.0625 33.34375 33.0625 
L 16.796875 33.0625 
z
" id="ArialMT-66"/>
     <path d="M 6.640625 0 
L 6.640625 71.578125 
L 15.4375 71.578125 
L 15.4375 30.765625 
L 36.234375 51.859375 
L 47.609375 51.859375 
L 27.78125 32.625 
L 49.609375 0 
L 38.765625 0 
L 21.625 26.515625 
L 15.4375 20.5625 
L 15.4375 0 
z
" id="ArialMT-107"/>
    </defs>
    <g style="fill:#262626;" transform="translate(450.123125 219.36082)scale(0.18 -0.18)">
     <use xlink:href="#ArialMT-66"/>
     <use x="66.699219" xlink:href="#ArialMT-97"/>
     <use x="122.314453" xlink:href="#ArialMT-99"/>
     <use x="172.314453" xlink:href="#ArialMT-107"/>
     <use x="222.314453" xlink:href="#ArialMT-105"/>
     <use x="244.53125" xlink:href="#ArialMT-110"/>
     <use x="300.146484" xlink:href="#ArialMT-103"/>
    </g>
   </g>
   <g id="line2d_27">
    <path d="M 436.923125 238.50832 
L 469.923125 238.50832 
" style="fill:none;stroke:#333333;stroke-dasharray:2.25,0;stroke-dashoffset:0;stroke-width:2.25;"/>
   </g>
   <g id="line2d_28">
    <defs>
     <path d="M -0.49999 0.49999 
L 0.50001 0.49999 
L 0.50001 -0.50001 
L -0.49999 -0.50001 
z
" id="mcd90091bc4"/>
    </defs>
    <g>
     <use style="fill:#333333;" x="453.423125" xlink:href="#mcd90091bc4" y="238.50832"/>
    </g>
   </g>
   <g id="text_18">
    <!-- Stiff -->
    <defs>
     <path d="M 4.5 23 
L 13.421875 23.78125 
Q 14.0625 18.40625 16.375 14.96875 
Q 18.703125 11.53125 23.578125 9.40625 
Q 28.46875 7.28125 34.578125 7.28125 
Q 39.984375 7.28125 44.140625 8.890625 
Q 48.296875 10.5 50.3125 13.296875 
Q 52.34375 16.109375 52.34375 19.4375 
Q 52.34375 22.796875 50.390625 25.3125 
Q 48.4375 27.828125 43.953125 29.546875 
Q 41.0625 30.671875 31.203125 33.03125 
Q 21.34375 35.40625 17.390625 37.5 
Q 12.25 40.1875 9.734375 44.15625 
Q 7.234375 48.140625 7.234375 53.078125 
Q 7.234375 58.5 10.296875 63.203125 
Q 13.375 67.921875 19.28125 70.359375 
Q 25.203125 72.796875 32.421875 72.796875 
Q 40.375 72.796875 46.453125 70.234375 
Q 52.546875 67.671875 55.8125 62.6875 
Q 59.078125 57.71875 59.328125 51.421875 
L 50.25 50.734375 
Q 49.515625 57.515625 45.28125 60.984375 
Q 41.0625 64.453125 32.8125 64.453125 
Q 24.21875 64.453125 20.28125 61.296875 
Q 16.359375 58.15625 16.359375 53.71875 
Q 16.359375 49.859375 19.140625 47.359375 
Q 21.875 44.875 33.421875 42.265625 
Q 44.96875 39.65625 49.265625 37.703125 
Q 55.515625 34.8125 58.484375 30.390625 
Q 61.46875 25.984375 61.46875 20.21875 
Q 61.46875 14.5 58.203125 9.4375 
Q 54.9375 4.390625 48.796875 1.578125 
Q 42.671875 -1.21875 35.015625 -1.21875 
Q 25.296875 -1.21875 18.71875 1.609375 
Q 12.15625 4.4375 8.421875 10.125 
Q 4.6875 15.828125 4.5 23 
z
" id="ArialMT-83"/>
     <path d="M 8.6875 0 
L 8.6875 45.015625 
L 0.921875 45.015625 
L 0.921875 51.859375 
L 8.6875 51.859375 
L 8.6875 57.375 
Q 8.6875 62.59375 9.625 65.140625 
Q 10.890625 68.5625 14.078125 70.671875 
Q 17.28125 72.796875 23.046875 72.796875 
Q 26.765625 72.796875 31.25 71.921875 
L 29.9375 64.265625 
Q 27.203125 64.75 24.75 64.75 
Q 20.75 64.75 19.09375 63.03125 
Q 17.4375 61.328125 17.4375 56.640625 
L 17.4375 51.859375 
L 27.546875 51.859375 
L 27.546875 45.015625 
L 17.4375 45.015625 
L 17.4375 0 
z
" id="ArialMT-102"/>
    </defs>
    <g style="fill:#262626;" transform="translate(483.123125 244.28332)scale(0.18 -0.18)">
     <use xlink:href="#ArialMT-83"/>
     <use x="66.699219" xlink:href="#ArialMT-116"/>
     <use x="94.482422" xlink:href="#ArialMT-105"/>
     <use x="116.699219" xlink:href="#ArialMT-102"/>
     <use x="144.466797" xlink:href="#ArialMT-102"/>
    </g>
   </g>
   <g id="line2d_29">
    <path d="M 436.923125 263.219883 
L 469.923125 263.219883 
" style="fill:none;stroke:#333333;stroke-dasharray:0,2.25;stroke-dashoffset:0;stroke-width:2.25;"/>
   </g>
   <g id="line2d_30">
    <defs>
     <path d="M 0 4.5 
C 1.193414 4.5 2.338109 4.025852 3.181981 3.181981 
C 4.025852 2.338109 4.5 1.193414 4.5 0 
C 4.5 -1.193414 4.025852 -2.338109 3.181981 -3.181981 
C 2.338109 -4.025852 1.193414 -4.5 0 -4.5 
C -1.193414 -4.5 -2.338109 -4.025852 -3.181981 -3.181981 
C -4.025852 -2.338109 -4.5 -1.193414 -4.5 0 
C -4.5 1.193414 -4.025852 2.338109 -3.181981 3.181981 
C -2.338109 4.025852 -1.193414 4.5 0 4.5 
z
" id="m58e4df4b7a" style="stroke:#333333;"/>
    </defs>
    <g>
     <use style="fill:#333333;stroke:#333333;" x="453.423125" xlink:href="#m58e4df4b7a" y="263.219883"/>
    </g>
   </g>
   <g id="text_19">
    <!-- Soft -->
    <g style="fill:#262626;" transform="translate(483.123125 268.994883)scale(0.18 -0.18)">
     <use xlink:href="#ArialMT-83"/>
     <use x="66.699219" xlink:href="#ArialMT-111"/>
     <use x="122.314453" xlink:href="#ArialMT-102"/>
     <use x="150.097656" xlink:href="#ArialMT-116"/>
    </g>
   </g>
  </g>
 </g>
 <defs>
  <clipPath id="pf0a8f8312b">
   <rect height="325.52625" width="334.351573" x="74.728125" y="16.2"/>
  </clipPath>
 </defs>
</svg>
