<?xml version="1.0" encoding="utf-8" standalone="no"?>
<!DOCTYPE svg PUBLIC "-//W3C//DTD SVG 1.1//EN"
  "http://www.w3.org/Graphics/SVG/1.1/DTD/svg11.dtd">
<!-- Created with matplotlib (https://matplotlib.org/) -->
<svg height="406.071328pt" version="1.1" viewBox="0 0 559.113125 406.071328" width="559.113125pt" xmlns="http://www.w3.org/2000/svg" xmlns:xlink="http://www.w3.org/1999/xlink">
 <defs>
  <style type="text/css">
*{stroke-linecap:butt;stroke-linejoin:round;}
  </style>
 </defs>
 <g id="figure_1">
  <g id="patch_1">
   <path d="M 0 406.071328 
L 559.113125 406.071328 
L 559.113125 0 
L 0 0 
z
" style="fill:none;"/>
  </g>
  <g id="axes_1">
   <g id="patch_2">
    <path d="M 74.728125 350.82 
L 409.079698 350.82 
L 409.079698 16.2 
L 74.728125 16.2 
z
" style="fill:none;"/>
   </g>
   <g id="line2d_1">
    <path clip-path="url(#p446660ec27)" d="M 74.728125 213.557267 
L 409.079698 213.557267 
" style="fill:none;stroke:#000000;stroke-dasharray:2.25,2.25;stroke-dashoffset:0;stroke-width:2.25;"/>
   </g>
   <g id="matplotlib.axis_1">
    <g id="xtick_1">
     <g id="line2d_2">
      <defs>
       <path d="M 0 0 
L 0 9 
" id="m0b892b50b2" style="stroke:#262626;stroke-width:1.875;"/>
      </defs>
      <g>
       <use style="fill:#262626;stroke:#262626;stroke-width:1.875;" x="129.572355" xlink:href="#m0b892b50b2" y="350.82"/>
      </g>
     </g>
     <g id="text_1">
      <!-- 5 -->
      <defs>
       <path d="M 4.15625 18.75 
L 13.375 19.53125 
Q 14.40625 12.796875 18.140625 9.390625 
Q 21.875 6 27.15625 6 
Q 33.5 6 37.890625 10.78125 
Q 42.28125 15.578125 42.28125 23.484375 
Q 42.28125 31 38.0625 35.34375 
Q 33.84375 39.703125 27 39.703125 
Q 22.75 39.703125 19.328125 37.765625 
Q 15.921875 35.84375 13.96875 32.765625 
L 5.71875 33.84375 
L 12.640625 70.609375 
L 48.25 70.609375 
L 48.25 62.203125 
L 19.671875 62.203125 
L 15.828125 42.96875 
Q 22.265625 47.46875 29.34375 47.46875 
Q 38.71875 47.46875 45.15625 40.96875 
Q 51.609375 34.46875 51.609375 24.265625 
Q 51.609375 14.546875 45.953125 7.46875 
Q 39.0625 -1.21875 27.15625 -1.21875 
Q 17.390625 -1.21875 11.203125 4.25 
Q 5.03125 9.71875 4.15625 18.75 
z
" id="ArialMT-53"/>
      </defs>
      <g style="fill:#262626;" transform="translate(124.984582 375.130391)scale(0.165 -0.165)">
       <use xlink:href="#ArialMT-53"/>
      </g>
     </g>
    </g>
    <g id="xtick_2">
     <g id="line2d_3">
      <g>
       <use style="fill:#262626;stroke:#262626;stroke-width:1.875;" x="195.649741" xlink:href="#m0b892b50b2" y="350.82"/>
      </g>
     </g>
     <g id="text_2">
      <!-- 10 -->
      <defs>
       <path d="M 37.25 0 
L 28.46875 0 
L 28.46875 56 
Q 25.296875 52.984375 20.140625 49.953125 
Q 14.984375 46.921875 10.890625 45.40625 
L 10.890625 53.90625 
Q 18.265625 57.375 23.78125 62.296875 
Q 29.296875 67.234375 31.59375 71.875 
L 37.25 71.875 
z
" id="ArialMT-49"/>
       <path d="M 4.15625 35.296875 
Q 4.15625 48 6.765625 55.734375 
Q 9.375 63.484375 14.515625 67.671875 
Q 19.671875 71.875 27.484375 71.875 
Q 33.25 71.875 37.59375 69.546875 
Q 41.9375 67.234375 44.765625 62.859375 
Q 47.609375 58.5 49.21875 52.21875 
Q 50.828125 45.953125 50.828125 35.296875 
Q 50.828125 22.703125 48.234375 14.96875 
Q 45.65625 7.234375 40.5 3 
Q 35.359375 -1.21875 27.484375 -1.21875 
Q 17.140625 -1.21875 11.234375 6.203125 
Q 4.15625 15.140625 4.15625 35.296875 
z
M 13.1875 35.296875 
Q 13.1875 17.671875 17.3125 11.828125 
Q 21.4375 6 27.484375 6 
Q 33.546875 6 37.671875 11.859375 
Q 41.796875 17.71875 41.796875 35.296875 
Q 41.796875 52.984375 37.671875 58.78125 
Q 33.546875 64.59375 27.390625 64.59375 
Q 21.34375 64.59375 17.71875 59.46875 
Q 13.1875 52.9375 13.1875 35.296875 
z
" id="ArialMT-48"/>
      </defs>
      <g style="fill:#262626;" transform="translate(186.474194 375.130391)scale(0.165 -0.165)">
       <use xlink:href="#ArialMT-49"/>
       <use x="55.615234" xlink:href="#ArialMT-48"/>
      </g>
     </g>
    </g>
    <g id="xtick_3">
     <g id="line2d_4">
      <g>
       <use style="fill:#262626;stroke:#262626;stroke-width:1.875;" x="261.727127" xlink:href="#m0b892b50b2" y="350.82"/>
      </g>
     </g>
     <g id="text_3">
      <!-- 15 -->
      <g style="fill:#262626;" transform="translate(252.55158 375.130391)scale(0.165 -0.165)">
       <use xlink:href="#ArialMT-49"/>
       <use x="55.615234" xlink:href="#ArialMT-53"/>
      </g>
     </g>
    </g>
    <g id="xtick_4">
     <g id="line2d_5">
      <g>
       <use style="fill:#262626;stroke:#262626;stroke-width:1.875;" x="327.804513" xlink:href="#m0b892b50b2" y="350.82"/>
      </g>
     </g>
     <g id="text_4">
      <!-- 20 -->
      <defs>
       <path d="M 50.34375 8.453125 
L 50.34375 0 
L 3.03125 0 
Q 2.9375 3.171875 4.046875 6.109375 
Q 5.859375 10.9375 9.828125 15.625 
Q 13.8125 20.3125 21.34375 26.46875 
Q 33.015625 36.03125 37.109375 41.625 
Q 41.21875 47.21875 41.21875 52.203125 
Q 41.21875 57.421875 37.46875 61 
Q 33.734375 64.59375 27.734375 64.59375 
Q 21.390625 64.59375 17.578125 60.78125 
Q 13.765625 56.984375 13.71875 50.25 
L 4.6875 51.171875 
Q 5.609375 61.28125 11.65625 66.578125 
Q 17.71875 71.875 27.9375 71.875 
Q 38.234375 71.875 44.234375 66.15625 
Q 50.25 60.453125 50.25 52 
Q 50.25 47.703125 48.484375 43.546875 
Q 46.734375 39.40625 42.65625 34.8125 
Q 38.578125 30.21875 29.109375 22.21875 
Q 21.1875 15.578125 18.9375 13.203125 
Q 16.703125 10.84375 15.234375 8.453125 
z
" id="ArialMT-50"/>
      </defs>
      <g style="fill:#262626;" transform="translate(318.628966 375.130391)scale(0.165 -0.165)">
       <use xlink:href="#ArialMT-50"/>
       <use x="55.615234" xlink:href="#ArialMT-48"/>
      </g>
     </g>
    </g>
    <g id="xtick_5">
     <g id="line2d_6">
      <g>
       <use style="fill:#262626;stroke:#262626;stroke-width:1.875;" x="393.881899" xlink:href="#m0b892b50b2" y="350.82"/>
      </g>
     </g>
     <g id="text_5">
      <!-- 25 -->
      <g style="fill:#262626;" transform="translate(384.706352 375.130391)scale(0.165 -0.165)">
       <use xlink:href="#ArialMT-50"/>
       <use x="55.615234" xlink:href="#ArialMT-53"/>
      </g>
     </g>
    </g>
    <g id="text_6">
     <!-- Hairs in contact, n -->
     <defs>
      <path d="M 8.015625 0 
L 8.015625 71.578125 
L 17.484375 71.578125 
L 17.484375 42.1875 
L 54.6875 42.1875 
L 54.6875 71.578125 
L 64.15625 71.578125 
L 64.15625 0 
L 54.6875 0 
L 54.6875 33.734375 
L 17.484375 33.734375 
L 17.484375 0 
z
" id="ArialMT-72"/>
      <path d="M 40.4375 6.390625 
Q 35.546875 2.25 31.03125 0.53125 
Q 26.515625 -1.171875 21.34375 -1.171875 
Q 12.796875 -1.171875 8.203125 3 
Q 3.609375 7.171875 3.609375 13.671875 
Q 3.609375 17.484375 5.34375 20.625 
Q 7.078125 23.78125 9.890625 25.6875 
Q 12.703125 27.59375 16.21875 28.5625 
Q 18.796875 29.25 24.03125 29.890625 
Q 34.671875 31.15625 39.703125 32.90625 
Q 39.75 34.71875 39.75 35.203125 
Q 39.75 40.578125 37.25 42.78125 
Q 33.890625 45.75 27.25 45.75 
Q 21.046875 45.75 18.09375 43.578125 
Q 15.140625 41.40625 13.71875 35.890625 
L 5.125 37.0625 
Q 6.296875 42.578125 8.984375 45.96875 
Q 11.671875 49.359375 16.75 51.1875 
Q 21.828125 53.03125 28.515625 53.03125 
Q 35.15625 53.03125 39.296875 51.46875 
Q 43.453125 49.90625 45.40625 47.53125 
Q 47.359375 45.171875 48.140625 41.546875 
Q 48.578125 39.3125 48.578125 33.453125 
L 48.578125 21.734375 
Q 48.578125 9.46875 49.140625 6.21875 
Q 49.703125 2.984375 51.375 0 
L 42.1875 0 
Q 40.828125 2.734375 40.4375 6.390625 
z
M 39.703125 26.03125 
Q 34.90625 24.078125 25.34375 22.703125 
Q 19.921875 21.921875 17.671875 20.9375 
Q 15.4375 19.96875 14.203125 18.09375 
Q 12.984375 16.21875 12.984375 13.921875 
Q 12.984375 10.40625 15.640625 8.0625 
Q 18.3125 5.71875 23.4375 5.71875 
Q 28.515625 5.71875 32.46875 7.9375 
Q 36.421875 10.15625 38.28125 14.015625 
Q 39.703125 17 39.703125 22.796875 
z
" id="ArialMT-97"/>
      <path d="M 6.640625 61.46875 
L 6.640625 71.578125 
L 15.4375 71.578125 
L 15.4375 61.46875 
z
M 6.640625 0 
L 6.640625 51.859375 
L 15.4375 51.859375 
L 15.4375 0 
z
" id="ArialMT-105"/>
      <path d="M 6.5 0 
L 6.5 51.859375 
L 14.40625 51.859375 
L 14.40625 44 
Q 17.4375 49.515625 20 51.265625 
Q 22.5625 53.03125 25.640625 53.03125 
Q 30.078125 53.03125 34.671875 50.203125 
L 31.640625 42.046875 
Q 28.421875 43.953125 25.203125 43.953125 
Q 22.3125 43.953125 20.015625 42.21875 
Q 17.71875 40.484375 16.75 37.40625 
Q 15.28125 32.71875 15.28125 27.15625 
L 15.28125 0 
z
" id="ArialMT-114"/>
      <path d="M 3.078125 15.484375 
L 11.765625 16.84375 
Q 12.5 11.625 15.84375 8.84375 
Q 19.1875 6.0625 25.203125 6.0625 
Q 31.25 6.0625 34.171875 8.515625 
Q 37.109375 10.984375 37.109375 14.3125 
Q 37.109375 17.28125 34.515625 19 
Q 32.71875 20.171875 25.53125 21.96875 
Q 15.875 24.421875 12.140625 26.203125 
Q 8.40625 27.984375 6.46875 31.125 
Q 4.546875 34.28125 4.546875 38.09375 
Q 4.546875 41.546875 6.125 44.5 
Q 7.71875 47.46875 10.453125 49.421875 
Q 12.5 50.921875 16.03125 51.96875 
Q 19.578125 53.03125 23.640625 53.03125 
Q 29.734375 53.03125 34.34375 51.265625 
Q 38.96875 49.515625 41.15625 46.5 
Q 43.359375 43.5 44.1875 38.484375 
L 35.59375 37.3125 
Q 35.015625 41.3125 32.203125 43.546875 
Q 29.390625 45.796875 24.265625 45.796875 
Q 18.21875 45.796875 15.625 43.796875 
Q 13.03125 41.796875 13.03125 39.109375 
Q 13.03125 37.40625 14.109375 36.03125 
Q 15.1875 34.625 17.484375 33.6875 
Q 18.796875 33.203125 25.25 31.453125 
Q 34.578125 28.953125 38.25 27.359375 
Q 41.9375 25.78125 44.03125 22.75 
Q 46.140625 19.734375 46.140625 15.234375 
Q 46.140625 10.84375 43.578125 6.953125 
Q 41.015625 3.078125 36.171875 0.953125 
Q 31.34375 -1.171875 25.25 -1.171875 
Q 15.140625 -1.171875 9.84375 3.03125 
Q 4.546875 7.234375 3.078125 15.484375 
z
" id="ArialMT-115"/>
      <path id="ArialMT-32"/>
      <path d="M 6.59375 0 
L 6.59375 51.859375 
L 14.5 51.859375 
L 14.5 44.484375 
Q 20.21875 53.03125 31 53.03125 
Q 35.6875 53.03125 39.625 51.34375 
Q 43.5625 49.65625 45.515625 46.921875 
Q 47.46875 44.1875 48.25 40.4375 
Q 48.734375 37.984375 48.734375 31.890625 
L 48.734375 0 
L 39.9375 0 
L 39.9375 31.546875 
Q 39.9375 36.921875 38.90625 39.578125 
Q 37.890625 42.234375 35.28125 43.8125 
Q 32.671875 45.40625 29.15625 45.40625 
Q 23.53125 45.40625 19.453125 41.84375 
Q 15.375 38.28125 15.375 28.328125 
L 15.375 0 
z
" id="ArialMT-110"/>
      <path d="M 40.4375 19 
L 49.078125 17.875 
Q 47.65625 8.9375 41.8125 3.875 
Q 35.984375 -1.171875 27.484375 -1.171875 
Q 16.84375 -1.171875 10.375 5.78125 
Q 3.90625 12.75 3.90625 25.734375 
Q 3.90625 34.125 6.6875 40.421875 
Q 9.46875 46.734375 15.15625 49.875 
Q 20.84375 53.03125 27.546875 53.03125 
Q 35.984375 53.03125 41.359375 48.75 
Q 46.734375 44.484375 48.25 36.625 
L 39.703125 35.296875 
Q 38.484375 40.53125 35.375 43.15625 
Q 32.28125 45.796875 27.875 45.796875 
Q 21.234375 45.796875 17.078125 41.03125 
Q 12.9375 36.28125 12.9375 25.984375 
Q 12.9375 15.53125 16.9375 10.796875 
Q 20.953125 6.0625 27.390625 6.0625 
Q 32.5625 6.0625 36.03125 9.234375 
Q 39.5 12.40625 40.4375 19 
z
" id="ArialMT-99"/>
      <path d="M 3.328125 25.921875 
Q 3.328125 40.328125 11.328125 47.265625 
Q 18.015625 53.03125 27.640625 53.03125 
Q 38.328125 53.03125 45.109375 46.015625 
Q 51.90625 39.015625 51.90625 26.65625 
Q 51.90625 16.65625 48.90625 10.90625 
Q 45.90625 5.171875 40.15625 2 
Q 34.421875 -1.171875 27.640625 -1.171875 
Q 16.75 -1.171875 10.03125 5.8125 
Q 3.328125 12.796875 3.328125 25.921875 
z
M 12.359375 25.921875 
Q 12.359375 15.96875 16.703125 11.015625 
Q 21.046875 6.0625 27.640625 6.0625 
Q 34.1875 6.0625 38.53125 11.03125 
Q 42.875 16.015625 42.875 26.21875 
Q 42.875 35.84375 38.5 40.796875 
Q 34.125 45.75 27.640625 45.75 
Q 21.046875 45.75 16.703125 40.8125 
Q 12.359375 35.890625 12.359375 25.921875 
z
" id="ArialMT-111"/>
      <path d="M 25.78125 7.859375 
L 27.046875 0.09375 
Q 23.34375 -0.6875 20.40625 -0.6875 
Q 15.625 -0.6875 12.984375 0.828125 
Q 10.359375 2.34375 9.28125 4.8125 
Q 8.203125 7.28125 8.203125 15.1875 
L 8.203125 45.015625 
L 1.765625 45.015625 
L 1.765625 51.859375 
L 8.203125 51.859375 
L 8.203125 64.703125 
L 16.9375 69.96875 
L 16.9375 51.859375 
L 25.78125 51.859375 
L 25.78125 45.015625 
L 16.9375 45.015625 
L 16.9375 14.703125 
Q 16.9375 10.9375 17.40625 9.859375 
Q 17.875 8.796875 18.921875 8.15625 
Q 19.96875 7.515625 21.921875 7.515625 
Q 23.390625 7.515625 25.78125 7.859375 
z
" id="ArialMT-116"/>
      <path d="M 8.890625 0 
L 8.890625 10.015625 
L 18.890625 10.015625 
L 18.890625 0 
Q 18.890625 -5.515625 16.9375 -8.90625 
Q 14.984375 -12.3125 10.75 -14.15625 
L 8.296875 -10.40625 
Q 11.078125 -9.1875 12.390625 -6.8125 
Q 13.71875 -4.4375 13.875 0 
z
" id="ArialMT-44"/>
     </defs>
     <g style="fill:#262626;" transform="translate(169.877193 395.293828)scale(0.18 -0.18)">
      <use xlink:href="#ArialMT-72"/>
      <use x="72.216797" xlink:href="#ArialMT-97"/>
      <use x="127.832031" xlink:href="#ArialMT-105"/>
      <use x="150.048828" xlink:href="#ArialMT-114"/>
      <use x="183.349609" xlink:href="#ArialMT-115"/>
      <use x="233.349609" xlink:href="#ArialMT-32"/>
      <use x="261.132812" xlink:href="#ArialMT-105"/>
      <use x="283.349609" xlink:href="#ArialMT-110"/>
      <use x="338.964844" xlink:href="#ArialMT-32"/>
      <use x="366.748047" xlink:href="#ArialMT-99"/>
      <use x="416.748047" xlink:href="#ArialMT-111"/>
      <use x="472.363281" xlink:href="#ArialMT-110"/>
      <use x="527.978516" xlink:href="#ArialMT-116"/>
      <use x="555.761719" xlink:href="#ArialMT-97"/>
      <use x="611.376953" xlink:href="#ArialMT-99"/>
      <use x="661.376953" xlink:href="#ArialMT-116"/>
      <use x="689.160156" xlink:href="#ArialMT-44"/>
      <use x="716.943359" xlink:href="#ArialMT-32"/>
      <use x="744.726562" xlink:href="#ArialMT-110"/>
     </g>
    </g>
   </g>
   <g id="matplotlib.axis_2">
    <g id="ytick_1">
     <g id="line2d_7">
      <defs>
       <path d="M 0 0 
L -9 0 
" id="mdf923ff054" style="stroke:#262626;stroke-width:1.875;"/>
      </defs>
      <g>
       <use style="fill:#262626;stroke:#262626;stroke-width:1.875;" x="74.728125" xlink:href="#mdf923ff054" y="286.416174"/>
      </g>
     </g>
     <g id="text_7">
      <!-- −10 -->
      <defs>
       <path d="M 52.828125 31.203125 
L 5.5625 31.203125 
L 5.5625 39.40625 
L 52.828125 39.40625 
z
" id="ArialMT-8722"/>
      </defs>
      <g style="fill:#262626;" transform="translate(34.24 292.321369)scale(0.165 -0.165)">
       <use xlink:href="#ArialMT-8722"/>
       <use x="58.398438" xlink:href="#ArialMT-49"/>
       <use x="114.013672" xlink:href="#ArialMT-48"/>
      </g>
     </g>
    </g>
    <g id="ytick_2">
     <g id="line2d_8">
      <g>
       <use style="fill:#262626;stroke:#262626;stroke-width:1.875;" x="74.728125" xlink:href="#mdf923ff054" y="213.557267"/>
      </g>
     </g>
     <g id="text_8">
      <!-- 0 -->
      <g style="fill:#262626;" transform="translate(53.052578 219.462462)scale(0.165 -0.165)">
       <use xlink:href="#ArialMT-48"/>
      </g>
     </g>
    </g>
    <g id="ytick_3">
     <g id="line2d_9">
      <g>
       <use style="fill:#262626;stroke:#262626;stroke-width:1.875;" x="74.728125" xlink:href="#mdf923ff054" y="140.69836"/>
      </g>
     </g>
     <g id="text_9">
      <!-- 10 -->
      <g style="fill:#262626;" transform="translate(43.877031 146.603556)scale(0.165 -0.165)">
       <use xlink:href="#ArialMT-49"/>
       <use x="55.615234" xlink:href="#ArialMT-48"/>
      </g>
     </g>
    </g>
    <g id="ytick_4">
     <g id="line2d_10">
      <g>
       <use style="fill:#262626;stroke:#262626;stroke-width:1.875;" x="74.728125" xlink:href="#mdf923ff054" y="67.839453"/>
      </g>
     </g>
     <g id="text_10">
      <!-- 20 -->
      <g style="fill:#262626;" transform="translate(43.877031 73.744649)scale(0.165 -0.165)">
       <use xlink:href="#ArialMT-50"/>
       <use x="55.615234" xlink:href="#ArialMT-48"/>
      </g>
     </g>
    </g>
    <g id="text_11">
     <!-- Force, $\hat{F}_{net}$ -->
     <defs>
      <path d="M 8.203125 0 
L 8.203125 71.578125 
L 56.5 71.578125 
L 56.5 63.140625 
L 17.671875 63.140625 
L 17.671875 40.96875 
L 51.265625 40.96875 
L 51.265625 32.515625 
L 17.671875 32.515625 
L 17.671875 0 
z
" id="ArialMT-70"/>
      <path d="M 42.09375 16.703125 
L 51.171875 15.578125 
Q 49.03125 7.625 43.21875 3.21875 
Q 37.40625 -1.171875 28.375 -1.171875 
Q 17 -1.171875 10.328125 5.828125 
Q 3.65625 12.84375 3.65625 25.484375 
Q 3.65625 38.578125 10.390625 45.796875 
Q 17.140625 53.03125 27.875 53.03125 
Q 38.28125 53.03125 44.875 45.953125 
Q 51.46875 38.875 51.46875 26.03125 
Q 51.46875 25.25 51.421875 23.6875 
L 12.75 23.6875 
Q 13.234375 15.140625 17.578125 10.59375 
Q 21.921875 6.0625 28.421875 6.0625 
Q 33.25 6.0625 36.671875 8.59375 
Q 40.09375 11.140625 42.09375 16.703125 
z
M 13.234375 30.90625 
L 42.1875 30.90625 
Q 41.609375 37.453125 38.875 40.71875 
Q 34.671875 45.796875 27.984375 45.796875 
Q 21.921875 45.796875 17.796875 41.75 
Q 13.671875 37.703125 13.234375 30.90625 
z
" id="ArialMT-101"/>
      <path d="M -28.609375 79.984375 
L -21.390625 79.984375 
L -9.421875 61.625 
L -16.21875 61.625 
L -25 73.578125 
L -33.796875 61.625 
L -40.578125 61.625 
z
M -25 56 
z
" id="DejaVuSans-770"/>
      <path d="M 16.890625 72.90625 
L 58.6875 72.90625 
L 57.078125 64.59375 
L 25.09375 64.59375 
L 20.90625 43.109375 
L 49.8125 43.109375 
L 48.1875 34.8125 
L 19.28125 34.8125 
L 12.5 0 
L 2.6875 0 
z
" id="DejaVuSans-Oblique-70"/>
      <path d="M 55.71875 33.015625 
L 49.3125 0 
L 40.28125 0 
L 46.6875 32.671875 
Q 47.125 34.96875 47.359375 36.71875 
Q 47.609375 38.484375 47.609375 39.5 
Q 47.609375 43.609375 45.015625 45.890625 
Q 42.4375 48.1875 37.796875 48.1875 
Q 30.5625 48.1875 25.34375 43.375 
Q 20.125 38.578125 18.5 30.328125 
L 12.5 0 
L 3.515625 0 
L 14.109375 54.6875 
L 23.09375 54.6875 
L 21.296875 46.09375 
Q 25.046875 50.828125 30.3125 53.40625 
Q 35.59375 56 41.40625 56 
Q 48.640625 56 52.609375 52.09375 
Q 56.59375 48.1875 56.59375 41.109375 
Q 56.59375 39.359375 56.375 37.359375 
Q 56.15625 35.359375 55.71875 33.015625 
z
" id="DejaVuSans-Oblique-110"/>
      <path d="M 48.09375 32.234375 
Q 48.25 33.015625 48.3125 33.84375 
Q 48.390625 34.671875 48.390625 35.5 
Q 48.390625 41.453125 44.890625 44.921875 
Q 41.40625 48.390625 35.40625 48.390625 
Q 28.71875 48.390625 23.578125 44.15625 
Q 18.453125 39.9375 15.828125 32.171875 
z
M 55.90625 25.203125 
L 14.109375 25.203125 
Q 13.8125 23.34375 13.71875 22.265625 
Q 13.625 21.1875 13.625 20.40625 
Q 13.625 13.625 17.796875 9.90625 
Q 21.96875 6.203125 29.59375 6.203125 
Q 35.453125 6.203125 40.671875 7.515625 
Q 45.90625 8.84375 50.390625 11.375 
L 48.6875 2.484375 
Q 43.84375 0.53125 38.6875 -0.4375 
Q 33.546875 -1.421875 28.21875 -1.421875 
Q 16.84375 -1.421875 10.71875 4.015625 
Q 4.59375 9.46875 4.59375 19.484375 
Q 4.59375 28.03125 7.640625 35.375 
Q 10.6875 42.71875 16.609375 48.484375 
Q 20.40625 52.09375 25.65625 54.046875 
Q 30.90625 56 36.8125 56 
Q 46.09375 56 51.578125 50.4375 
Q 57.078125 44.875 57.078125 35.5 
Q 57.078125 33.25 56.78125 30.6875 
Q 56.5 28.125 55.90625 25.203125 
z
" id="DejaVuSans-Oblique-101"/>
      <path d="M 42.28125 54.6875 
L 40.921875 47.703125 
L 23 47.703125 
L 17.1875 18.015625 
Q 16.890625 16.359375 16.75 15.234375 
Q 16.609375 14.109375 16.609375 13.484375 
Q 16.609375 10.359375 18.484375 8.9375 
Q 20.359375 7.515625 24.515625 7.515625 
L 33.59375 7.515625 
L 32.078125 0 
L 23.484375 0 
Q 15.484375 0 11.546875 3.125 
Q 7.625 6.25 7.625 12.59375 
Q 7.625 13.71875 7.765625 15.0625 
Q 7.90625 16.40625 8.203125 18.015625 
L 14.015625 47.703125 
L 6.390625 47.703125 
L 7.8125 54.6875 
L 15.28125 54.6875 
L 18.3125 70.21875 
L 27.296875 70.21875 
L 24.3125 54.6875 
z
" id="DejaVuSans-Oblique-116"/>
     </defs>
     <g style="fill:#262626;" transform="translate(26.6625 227.43)rotate(-90)scale(0.18 -0.18)">
      <use transform="translate(0 0.609375)" xlink:href="#ArialMT-70"/>
      <use transform="translate(61.083984 0.609375)" xlink:href="#ArialMT-111"/>
      <use transform="translate(116.699219 0.609375)" xlink:href="#ArialMT-114"/>
      <use transform="translate(150 0.609375)" xlink:href="#ArialMT-99"/>
      <use transform="translate(200 0.609375)" xlink:href="#ArialMT-101"/>
      <use transform="translate(255.615234 0.609375)" xlink:href="#ArialMT-44"/>
      <use transform="translate(283.398438 0.609375)" xlink:href="#ArialMT-32"/>
      <use transform="translate(372.139648 30.015625)" xlink:href="#DejaVuSans-770"/>
      <use transform="translate(311.181641 0.609375)" xlink:href="#DejaVuSans-Oblique-70"/>
      <use transform="translate(369.658203 -15.796875)scale(0.7)" xlink:href="#DejaVuSans-Oblique-110"/>
      <use transform="translate(414.023438 -15.796875)scale(0.7)" xlink:href="#DejaVuSans-Oblique-101"/>
      <use transform="translate(457.089844 -15.796875)scale(0.7)" xlink:href="#DejaVuSans-Oblique-116"/>
     </g>
    </g>
   </g>
   <g id="line2d_11">
    <path clip-path="url(#p446660ec27)" d="M 89.925924 199.23976 
L 103.141401 192.462417 
L 116.356878 185.939348 
L 129.572355 179.670553 
L 142.787832 173.656032 
L 156.00331 167.895785 
L 169.218787 162.389811 
L 182.434264 157.138112 
L 195.649741 152.140687 
L 208.865218 147.397535 
L 222.080696 142.908658 
L 235.296173 138.674054 
L 248.51165 134.693724 
L 261.727127 130.967668 
L 274.942604 127.495886 
L 288.158081 124.278378 
L 301.373559 121.315144 
L 314.589036 118.606184 
L 327.804513 116.151498 
L 341.01999 113.951086 
L 354.235467 112.004947 
L 367.450944 110.313083 
L 380.666422 108.875492 
L 393.881899 107.692175 
" style="fill:none;stroke:#1f77b4;stroke-dasharray:2.25,0;stroke-dashoffset:0;stroke-width:2.25;"/>
    <defs>
     <path d="M -0.49999 0.49999 
L 0.50001 0.49999 
L 0.50001 -0.50001 
L -0.49999 -0.50001 
z
" id="m23bca7bcfc"/>
    </defs>
    <g clip-path="url(#p446660ec27)">
     <use style="fill:#1f77b4;" x="89.925924" xlink:href="#m23bca7bcfc" y="199.23976"/>
     <use style="fill:#1f77b4;" x="103.141401" xlink:href="#m23bca7bcfc" y="192.462417"/>
     <use style="fill:#1f77b4;" x="116.356878" xlink:href="#m23bca7bcfc" y="185.939348"/>
     <use style="fill:#1f77b4;" x="129.572355" xlink:href="#m23bca7bcfc" y="179.670553"/>
     <use style="fill:#1f77b4;" x="142.787832" xlink:href="#m23bca7bcfc" y="173.656032"/>
     <use style="fill:#1f77b4;" x="156.00331" xlink:href="#m23bca7bcfc" y="167.895785"/>
     <use style="fill:#1f77b4;" x="169.218787" xlink:href="#m23bca7bcfc" y="162.389811"/>
     <use style="fill:#1f77b4;" x="182.434264" xlink:href="#m23bca7bcfc" y="157.138112"/>
     <use style="fill:#1f77b4;" x="195.649741" xlink:href="#m23bca7bcfc" y="152.140687"/>
     <use style="fill:#1f77b4;" x="208.865218" xlink:href="#m23bca7bcfc" y="147.397535"/>
     <use style="fill:#1f77b4;" x="222.080696" xlink:href="#m23bca7bcfc" y="142.908658"/>
     <use style="fill:#1f77b4;" x="235.296173" xlink:href="#m23bca7bcfc" y="138.674054"/>
     <use style="fill:#1f77b4;" x="248.51165" xlink:href="#m23bca7bcfc" y="134.693724"/>
     <use style="fill:#1f77b4;" x="261.727127" xlink:href="#m23bca7bcfc" y="130.967668"/>
     <use style="fill:#1f77b4;" x="274.942604" xlink:href="#m23bca7bcfc" y="127.495886"/>
     <use style="fill:#1f77b4;" x="288.158081" xlink:href="#m23bca7bcfc" y="124.278378"/>
     <use style="fill:#1f77b4;" x="301.373559" xlink:href="#m23bca7bcfc" y="121.315144"/>
     <use style="fill:#1f77b4;" x="314.589036" xlink:href="#m23bca7bcfc" y="118.606184"/>
     <use style="fill:#1f77b4;" x="327.804513" xlink:href="#m23bca7bcfc" y="116.151498"/>
     <use style="fill:#1f77b4;" x="341.01999" xlink:href="#m23bca7bcfc" y="113.951086"/>
     <use style="fill:#1f77b4;" x="354.235467" xlink:href="#m23bca7bcfc" y="112.004947"/>
     <use style="fill:#1f77b4;" x="367.450944" xlink:href="#m23bca7bcfc" y="110.313083"/>
     <use style="fill:#1f77b4;" x="380.666422" xlink:href="#m23bca7bcfc" y="108.875492"/>
     <use style="fill:#1f77b4;" x="393.881899" xlink:href="#m23bca7bcfc" y="107.692175"/>
    </g>
   </g>
   <g id="line2d_12">
    <path clip-path="url(#p446660ec27)" d="M 89.925924 213.557267 
L 103.141401 213.557267 
L 116.356878 213.557267 
L 129.572355 213.557267 
L 142.787832 213.557267 
L 156.00331 213.557267 
L 169.218787 213.557267 
L 182.434264 213.557267 
L 195.649741 213.557267 
L 208.865218 213.557267 
L 222.080696 213.557267 
L 235.296173 213.557267 
L 248.51165 213.557267 
L 261.727127 213.557267 
L 274.942604 213.557267 
L 288.158081 213.557267 
L 301.373559 213.557267 
L 314.589036 213.557267 
L 327.804513 116.151498 
L 341.01999 113.951086 
L 354.235467 112.004947 
L 367.450944 110.313083 
L 380.666422 108.875492 
L 393.881899 107.692175 
" style="fill:none;stroke:#1f77b4;stroke-dasharray:0,2.25;stroke-dashoffset:0;stroke-width:2.25;"/>
    <defs>
     <path d="M 0 4.5 
C 1.193414 4.5 2.338109 4.025852 3.181981 3.181981 
C 4.025852 2.338109 4.5 1.193414 4.5 0 
C 4.5 -1.193414 4.025852 -2.338109 3.181981 -3.181981 
C 2.338109 -4.025852 1.193414 -4.5 0 -4.5 
C -1.193414 -4.5 -2.338109 -4.025852 -3.181981 -3.181981 
C -4.025852 -2.338109 -4.5 -1.193414 -4.5 0 
C -4.5 1.193414 -4.025852 2.338109 -3.181981 3.181981 
C -2.338109 4.025852 -1.193414 4.5 0 4.5 
z
" id="m361859ca00" style="stroke:#ffffff;stroke-width:0.75;"/>
    </defs>
    <g clip-path="url(#p446660ec27)">
     <use style="fill:#1f77b4;stroke:#ffffff;stroke-width:0.75;" x="89.925924" xlink:href="#m361859ca00" y="213.557267"/>
     <use style="fill:#1f77b4;stroke:#ffffff;stroke-width:0.75;" x="103.141401" xlink:href="#m361859ca00" y="213.557267"/>
     <use style="fill:#1f77b4;stroke:#ffffff;stroke-width:0.75;" x="116.356878" xlink:href="#m361859ca00" y="213.557267"/>
     <use style="fill:#1f77b4;stroke:#ffffff;stroke-width:0.75;" x="129.572355" xlink:href="#m361859ca00" y="213.557267"/>
     <use style="fill:#1f77b4;stroke:#ffffff;stroke-width:0.75;" x="142.787832" xlink:href="#m361859ca00" y="213.557267"/>
     <use style="fill:#1f77b4;stroke:#ffffff;stroke-width:0.75;" x="156.00331" xlink:href="#m361859ca00" y="213.557267"/>
     <use style="fill:#1f77b4;stroke:#ffffff;stroke-width:0.75;" x="169.218787" xlink:href="#m361859ca00" y="213.557267"/>
     <use style="fill:#1f77b4;stroke:#ffffff;stroke-width:0.75;" x="182.434264" xlink:href="#m361859ca00" y="213.557267"/>
     <use style="fill:#1f77b4;stroke:#ffffff;stroke-width:0.75;" x="195.649741" xlink:href="#m361859ca00" y="213.557267"/>
     <use style="fill:#1f77b4;stroke:#ffffff;stroke-width:0.75;" x="208.865218" xlink:href="#m361859ca00" y="213.557267"/>
     <use style="fill:#1f77b4;stroke:#ffffff;stroke-width:0.75;" x="222.080696" xlink:href="#m361859ca00" y="213.557267"/>
     <use style="fill:#1f77b4;stroke:#ffffff;stroke-width:0.75;" x="235.296173" xlink:href="#m361859ca00" y="213.557267"/>
     <use style="fill:#1f77b4;stroke:#ffffff;stroke-width:0.75;" x="248.51165" xlink:href="#m361859ca00" y="213.557267"/>
     <use style="fill:#1f77b4;stroke:#ffffff;stroke-width:0.75;" x="261.727127" xlink:href="#m361859ca00" y="213.557267"/>
     <use style="fill:#1f77b4;stroke:#ffffff;stroke-width:0.75;" x="274.942604" xlink:href="#m361859ca00" y="213.557267"/>
     <use style="fill:#1f77b4;stroke:#ffffff;stroke-width:0.75;" x="288.158081" xlink:href="#m361859ca00" y="213.557267"/>
     <use style="fill:#1f77b4;stroke:#ffffff;stroke-width:0.75;" x="301.373559" xlink:href="#m361859ca00" y="213.557267"/>
     <use style="fill:#1f77b4;stroke:#ffffff;stroke-width:0.75;" x="314.589036" xlink:href="#m361859ca00" y="213.557267"/>
     <use style="fill:#1f77b4;stroke:#ffffff;stroke-width:0.75;" x="327.804513" xlink:href="#m361859ca00" y="116.151498"/>
     <use style="fill:#1f77b4;stroke:#ffffff;stroke-width:0.75;" x="341.01999" xlink:href="#m361859ca00" y="113.951086"/>
     <use style="fill:#1f77b4;stroke:#ffffff;stroke-width:0.75;" x="354.235467" xlink:href="#m361859ca00" y="112.004947"/>
     <use style="fill:#1f77b4;stroke:#ffffff;stroke-width:0.75;" x="367.450944" xlink:href="#m361859ca00" y="110.313083"/>
     <use style="fill:#1f77b4;stroke:#ffffff;stroke-width:0.75;" x="380.666422" xlink:href="#m361859ca00" y="108.875492"/>
     <use style="fill:#1f77b4;stroke:#ffffff;stroke-width:0.75;" x="393.881899" xlink:href="#m361859ca00" y="107.692175"/>
    </g>
   </g>
   <g id="line2d_13">
    <path clip-path="url(#p446660ec27)" d="M 89.925924 199.999486 
L 103.141401 194.741595 
L 116.356878 190.497704 
L 129.572355 187.267814 
L 142.787832 185.051923 
L 156.00331 183.850032 
L 169.218787 183.662142 
L 182.434264 184.488251 
L 195.649741 186.32836 
L 208.865218 189.18247 
L 222.080696 193.050579 
L 235.296173 197.932688 
L 248.51165 203.828798 
L 261.727127 210.738907 
L 274.942604 218.663016 
L 288.158081 227.601125 
L 301.373559 237.553235 
L 314.589036 248.519344 
L 327.804513 260.499453 
L 341.01999 273.493563 
L 354.235467 287.501672 
L 367.450944 302.523781 
L 380.666422 318.559891 
L 393.881899 335.61 
" style="fill:none;stroke:#ff7f0e;stroke-dasharray:2.25,0;stroke-dashoffset:0;stroke-width:2.25;"/>
    <defs>
     <path d="M -0.49999 0.49999 
L 0.50001 0.49999 
L 0.50001 -0.50001 
L -0.49999 -0.50001 
z
" id="m16bf188bd5"/>
    </defs>
    <g clip-path="url(#p446660ec27)">
     <use style="fill:#ff7f0e;" x="89.925924" xlink:href="#m16bf188bd5" y="199.999486"/>
     <use style="fill:#ff7f0e;" x="103.141401" xlink:href="#m16bf188bd5" y="194.741595"/>
     <use style="fill:#ff7f0e;" x="116.356878" xlink:href="#m16bf188bd5" y="190.497704"/>
     <use style="fill:#ff7f0e;" x="129.572355" xlink:href="#m16bf188bd5" y="187.267814"/>
     <use style="fill:#ff7f0e;" x="142.787832" xlink:href="#m16bf188bd5" y="185.051923"/>
     <use style="fill:#ff7f0e;" x="156.00331" xlink:href="#m16bf188bd5" y="183.850032"/>
     <use style="fill:#ff7f0e;" x="169.218787" xlink:href="#m16bf188bd5" y="183.662142"/>
     <use style="fill:#ff7f0e;" x="182.434264" xlink:href="#m16bf188bd5" y="184.488251"/>
     <use style="fill:#ff7f0e;" x="195.649741" xlink:href="#m16bf188bd5" y="186.32836"/>
     <use style="fill:#ff7f0e;" x="208.865218" xlink:href="#m16bf188bd5" y="189.18247"/>
     <use style="fill:#ff7f0e;" x="222.080696" xlink:href="#m16bf188bd5" y="193.050579"/>
     <use style="fill:#ff7f0e;" x="235.296173" xlink:href="#m16bf188bd5" y="197.932688"/>
     <use style="fill:#ff7f0e;" x="248.51165" xlink:href="#m16bf188bd5" y="203.828798"/>
     <use style="fill:#ff7f0e;" x="261.727127" xlink:href="#m16bf188bd5" y="210.738907"/>
     <use style="fill:#ff7f0e;" x="274.942604" xlink:href="#m16bf188bd5" y="218.663016"/>
     <use style="fill:#ff7f0e;" x="288.158081" xlink:href="#m16bf188bd5" y="227.601125"/>
     <use style="fill:#ff7f0e;" x="301.373559" xlink:href="#m16bf188bd5" y="237.553235"/>
     <use style="fill:#ff7f0e;" x="314.589036" xlink:href="#m16bf188bd5" y="248.519344"/>
     <use style="fill:#ff7f0e;" x="327.804513" xlink:href="#m16bf188bd5" y="260.499453"/>
     <use style="fill:#ff7f0e;" x="341.01999" xlink:href="#m16bf188bd5" y="273.493563"/>
     <use style="fill:#ff7f0e;" x="354.235467" xlink:href="#m16bf188bd5" y="287.501672"/>
     <use style="fill:#ff7f0e;" x="367.450944" xlink:href="#m16bf188bd5" y="302.523781"/>
     <use style="fill:#ff7f0e;" x="380.666422" xlink:href="#m16bf188bd5" y="318.559891"/>
     <use style="fill:#ff7f0e;" x="393.881899" xlink:href="#m16bf188bd5" y="335.61"/>
    </g>
   </g>
   <g id="line2d_14">
    <path clip-path="url(#p446660ec27)" d="M 89.925924 199.999486 
L 103.141401 194.741595 
L 116.356878 190.497704 
L 129.572355 187.267814 
L 142.787832 185.051923 
L 156.00331 183.850032 
L 169.218787 183.662142 
L 182.434264 184.488251 
L 195.649741 186.32836 
L 208.865218 189.18247 
L 222.080696 193.050579 
L 235.296173 197.932688 
L 248.51165 203.828798 
L 261.727127 210.738907 
L 274.942604 218.663016 
L 288.158081 227.601125 
L 301.373559 237.553235 
L 314.589036 248.519344 
L 327.804513 260.499453 
L 341.01999 273.493563 
L 354.235467 287.501672 
L 367.450944 302.523781 
L 380.666422 318.559891 
L 393.881899 335.61 
" style="fill:none;stroke:#ff7f0e;stroke-dasharray:0,2.25;stroke-dashoffset:0;stroke-width:2.25;"/>
    <defs>
     <path d="M 0 4.5 
C 1.193414 4.5 2.338109 4.025852 3.181981 3.181981 
C 4.025852 2.338109 4.5 1.193414 4.5 0 
C 4.5 -1.193414 4.025852 -2.338109 3.181981 -3.181981 
C 2.338109 -4.025852 1.193414 -4.5 0 -4.5 
C -1.193414 -4.5 -2.338109 -4.025852 -3.181981 -3.181981 
C -4.025852 -2.338109 -4.5 -1.193414 -4.5 0 
C -4.5 1.193414 -4.025852 2.338109 -3.181981 3.181981 
C -2.338109 4.025852 -1.193414 4.5 0 4.5 
z
" id="mba09f9cf0b" style="stroke:#ffffff;stroke-width:0.75;"/>
    </defs>
    <g clip-path="url(#p446660ec27)">
     <use style="fill:#ff7f0e;stroke:#ffffff;stroke-width:0.75;" x="89.925924" xlink:href="#mba09f9cf0b" y="199.999486"/>
     <use style="fill:#ff7f0e;stroke:#ffffff;stroke-width:0.75;" x="103.141401" xlink:href="#mba09f9cf0b" y="194.741595"/>
     <use style="fill:#ff7f0e;stroke:#ffffff;stroke-width:0.75;" x="116.356878" xlink:href="#mba09f9cf0b" y="190.497704"/>
     <use style="fill:#ff7f0e;stroke:#ffffff;stroke-width:0.75;" x="129.572355" xlink:href="#mba09f9cf0b" y="187.267814"/>
     <use style="fill:#ff7f0e;stroke:#ffffff;stroke-width:0.75;" x="142.787832" xlink:href="#mba09f9cf0b" y="185.051923"/>
     <use style="fill:#ff7f0e;stroke:#ffffff;stroke-width:0.75;" x="156.00331" xlink:href="#mba09f9cf0b" y="183.850032"/>
     <use style="fill:#ff7f0e;stroke:#ffffff;stroke-width:0.75;" x="169.218787" xlink:href="#mba09f9cf0b" y="183.662142"/>
     <use style="fill:#ff7f0e;stroke:#ffffff;stroke-width:0.75;" x="182.434264" xlink:href="#mba09f9cf0b" y="184.488251"/>
     <use style="fill:#ff7f0e;stroke:#ffffff;stroke-width:0.75;" x="195.649741" xlink:href="#mba09f9cf0b" y="186.32836"/>
     <use style="fill:#ff7f0e;stroke:#ffffff;stroke-width:0.75;" x="208.865218" xlink:href="#mba09f9cf0b" y="189.18247"/>
     <use style="fill:#ff7f0e;stroke:#ffffff;stroke-width:0.75;" x="222.080696" xlink:href="#mba09f9cf0b" y="193.050579"/>
     <use style="fill:#ff7f0e;stroke:#ffffff;stroke-width:0.75;" x="235.296173" xlink:href="#mba09f9cf0b" y="197.932688"/>
     <use style="fill:#ff7f0e;stroke:#ffffff;stroke-width:0.75;" x="248.51165" xlink:href="#mba09f9cf0b" y="203.828798"/>
     <use style="fill:#ff7f0e;stroke:#ffffff;stroke-width:0.75;" x="261.727127" xlink:href="#mba09f9cf0b" y="210.738907"/>
     <use style="fill:#ff7f0e;stroke:#ffffff;stroke-width:0.75;" x="274.942604" xlink:href="#mba09f9cf0b" y="218.663016"/>
     <use style="fill:#ff7f0e;stroke:#ffffff;stroke-width:0.75;" x="288.158081" xlink:href="#mba09f9cf0b" y="227.601125"/>
     <use style="fill:#ff7f0e;stroke:#ffffff;stroke-width:0.75;" x="301.373559" xlink:href="#mba09f9cf0b" y="237.553235"/>
     <use style="fill:#ff7f0e;stroke:#ffffff;stroke-width:0.75;" x="314.589036" xlink:href="#mba09f9cf0b" y="248.519344"/>
     <use style="fill:#ff7f0e;stroke:#ffffff;stroke-width:0.75;" x="327.804513" xlink:href="#mba09f9cf0b" y="260.499453"/>
     <use style="fill:#ff7f0e;stroke:#ffffff;stroke-width:0.75;" x="341.01999" xlink:href="#mba09f9cf0b" y="273.493563"/>
     <use style="fill:#ff7f0e;stroke:#ffffff;stroke-width:0.75;" x="354.235467" xlink:href="#mba09f9cf0b" y="287.501672"/>
     <use style="fill:#ff7f0e;stroke:#ffffff;stroke-width:0.75;" x="367.450944" xlink:href="#mba09f9cf0b" y="302.523781"/>
     <use style="fill:#ff7f0e;stroke:#ffffff;stroke-width:0.75;" x="380.666422" xlink:href="#mba09f9cf0b" y="318.559891"/>
     <use style="fill:#ff7f0e;stroke:#ffffff;stroke-width:0.75;" x="393.881899" xlink:href="#mba09f9cf0b" y="335.61"/>
    </g>
   </g>
   <g id="line2d_15"/>
   <g id="line2d_16"/>
   <g id="line2d_17"/>
   <g id="line2d_18"/>
   <g id="line2d_19">
    <path clip-path="url(#p446660ec27)" d="M 89.925924 31.41 
L 103.141401 31.41 
L 116.356878 31.41 
L 129.572355 31.41 
L 142.787832 31.41 
L 156.00331 31.41 
L 169.218787 31.41 
L 182.434264 31.41 
L 195.649741 31.41 
L 208.865218 31.41 
L 222.080696 31.41 
L 235.296173 31.41 
L 248.51165 31.41 
L 261.727127 31.41 
L 274.942604 31.41 
L 288.158081 31.41 
L 301.373559 31.41 
L 314.589036 31.41 
L 327.804513 31.41 
L 341.01999 31.41 
L 354.235467 31.41 
L 367.450944 31.41 
L 380.666422 31.41 
L 393.881899 31.41 
" style="fill:none;stroke:#d62728;stroke-dasharray:8.325,3.6;stroke-dashoffset:0;stroke-width:2.25;"/>
   </g>
   <g id="patch_3">
    <path d="M 74.728125 350.82 
L 74.728125 16.2 
" style="fill:none;stroke:#262626;stroke-linecap:square;stroke-linejoin:miter;stroke-width:1.875;"/>
   </g>
   <g id="patch_4">
    <path d="M 74.728125 350.82 
L 409.079698 350.82 
" style="fill:none;stroke:#262626;stroke-linecap:square;stroke-linejoin:miter;stroke-width:1.875;"/>
   </g>
  </g>
  <g id="legend_1">
   <g id="text_12">
    <!-- Tilt angle, $\theta$ -->
    <defs>
     <path d="M 25.921875 0 
L 25.921875 63.140625 
L 2.34375 63.140625 
L 2.34375 71.578125 
L 59.078125 71.578125 
L 59.078125 63.140625 
L 35.40625 63.140625 
L 35.40625 0 
z
" id="ArialMT-84"/>
     <path d="M 6.390625 0 
L 6.390625 71.578125 
L 15.1875 71.578125 
L 15.1875 0 
z
" id="ArialMT-108"/>
     <path d="M 4.984375 -4.296875 
L 13.53125 -5.5625 
Q 14.0625 -9.515625 16.5 -11.328125 
Q 19.78125 -13.765625 25.4375 -13.765625 
Q 31.546875 -13.765625 34.859375 -11.328125 
Q 38.1875 -8.890625 39.359375 -4.5 
Q 40.046875 -1.8125 39.984375 6.78125 
Q 34.234375 0 25.640625 0 
Q 14.9375 0 9.078125 7.71875 
Q 3.21875 15.4375 3.21875 26.21875 
Q 3.21875 33.640625 5.90625 39.90625 
Q 8.59375 46.1875 13.6875 49.609375 
Q 18.796875 53.03125 25.6875 53.03125 
Q 34.859375 53.03125 40.828125 45.609375 
L 40.828125 51.859375 
L 48.921875 51.859375 
L 48.921875 7.03125 
Q 48.921875 -5.078125 46.453125 -10.125 
Q 44 -15.1875 38.640625 -18.109375 
Q 33.296875 -21.046875 25.484375 -21.046875 
Q 16.21875 -21.046875 10.5 -16.875 
Q 4.78125 -12.703125 4.984375 -4.296875 
z
M 12.25 26.859375 
Q 12.25 16.65625 16.296875 11.96875 
Q 20.359375 7.28125 26.46875 7.28125 
Q 32.515625 7.28125 36.609375 11.9375 
Q 40.71875 16.609375 40.71875 26.5625 
Q 40.71875 36.078125 36.5 40.90625 
Q 32.28125 45.75 26.3125 45.75 
Q 20.453125 45.75 16.34375 40.984375 
Q 12.25 36.234375 12.25 26.859375 
z
" id="ArialMT-103"/>
     <path d="M 45.515625 34.671875 
L 14.453125 34.671875 
Q 12.359375 20.0625 14.5 13.875 
Q 17.1875 6.25 24.46875 6.25 
Q 31.78125 6.25 37.359375 13.921875 
Q 42.234375 20.65625 45.515625 34.671875 
z
M 47.015625 42.96875 
Q 48.34375 56.84375 46.625 61.71875 
Q 43.953125 69.4375 36.765625 69.4375 
Q 29.296875 69.4375 23.828125 61.8125 
Q 19.53125 55.671875 16.15625 42.96875 
z
M 38.1875 76.765625 
Q 49.90625 76.765625 54.59375 66.40625 
Q 59.28125 56.109375 55.71875 37.84375 
Q 52.203125 19.625 43.453125 9.28125 
Q 34.765625 -1.125 23.046875 -1.125 
Q 11.28125 -1.125 6.640625 9.28125 
Q 2 19.625 5.515625 37.84375 
Q 9.078125 56.109375 17.71875 66.40625 
Q 26.421875 76.765625 38.1875 76.765625 
z
" id="DejaVuSans-Oblique-952"/>
    </defs>
    <g style="fill:#262626;" transform="translate(450.123125 146.101289)scale(0.18 -0.18)">
     <use transform="translate(0 0.234375)" xlink:href="#ArialMT-84"/>
     <use transform="translate(61.083984 0.234375)" xlink:href="#ArialMT-105"/>
     <use transform="translate(83.300781 0.234375)" xlink:href="#ArialMT-108"/>
     <use transform="translate(105.517578 0.234375)" xlink:href="#ArialMT-116"/>
     <use transform="translate(133.300781 0.234375)" xlink:href="#ArialMT-32"/>
     <use transform="translate(161.083984 0.234375)" xlink:href="#ArialMT-97"/>
     <use transform="translate(216.699219 0.234375)" xlink:href="#ArialMT-110"/>
     <use transform="translate(272.314453 0.234375)" xlink:href="#ArialMT-103"/>
     <use transform="translate(327.929688 0.234375)" xlink:href="#ArialMT-108"/>
     <use transform="translate(350.146484 0.234375)" xlink:href="#ArialMT-101"/>
     <use transform="translate(405.761719 0.234375)" xlink:href="#ArialMT-44"/>
     <use transform="translate(433.544922 0.234375)" xlink:href="#ArialMT-32"/>
     <use transform="translate(461.328125 0.234375)" xlink:href="#DejaVuSans-Oblique-952"/>
    </g>
   </g>
   <g id="line2d_20">
    <path d="M 436.923125 165.420352 
L 469.923125 165.420352 
" style="fill:none;stroke:#1f77b4;stroke-linecap:round;stroke-width:2.25;"/>
   </g>
   <g id="line2d_21"/>
   <g id="text_13">
    <!-- 2° -->
    <defs>
     <path d="M 6.25 59.28125 
Q 6.25 64.890625 10.21875 68.84375 
Q 14.203125 72.796875 19.78125 72.796875 
Q 25.4375 72.796875 29.390625 68.84375 
Q 33.34375 64.890625 33.34375 59.28125 
Q 33.34375 53.65625 29.359375 49.671875 
Q 25.390625 45.703125 19.78125 45.703125 
Q 14.203125 45.703125 10.21875 49.65625 
Q 6.25 53.609375 6.25 59.28125 
z
M 11.578125 59.28125 
Q 11.578125 55.859375 13.984375 53.4375 
Q 16.40625 51.03125 19.828125 51.03125 
Q 23.1875 51.03125 25.609375 53.4375 
Q 28.03125 55.859375 28.03125 59.28125 
Q 28.03125 62.703125 25.609375 65.109375 
Q 23.1875 67.53125 19.828125 67.53125 
Q 16.40625 67.53125 13.984375 65.109375 
Q 11.578125 62.703125 11.578125 59.28125 
z
" id="ArialMT-176"/>
    </defs>
    <g style="fill:#262626;" transform="translate(483.123125 171.195352)scale(0.18 -0.18)">
     <use xlink:href="#ArialMT-50"/>
     <use x="55.615234" xlink:href="#ArialMT-176"/>
    </g>
   </g>
   <g id="line2d_22">
    <path d="M 436.923125 190.131914 
L 469.923125 190.131914 
" style="fill:none;stroke:#ff7f0e;stroke-linecap:round;stroke-width:2.25;"/>
   </g>
   <g id="line2d_23"/>
   <g id="text_14">
    <!-- 8° -->
    <defs>
     <path d="M 17.671875 38.8125 
Q 12.203125 40.828125 9.5625 44.53125 
Q 6.9375 48.25 6.9375 53.421875 
Q 6.9375 61.234375 12.546875 66.546875 
Q 18.171875 71.875 27.484375 71.875 
Q 36.859375 71.875 42.578125 66.421875 
Q 48.296875 60.984375 48.296875 53.171875 
Q 48.296875 48.1875 45.671875 44.5 
Q 43.0625 40.828125 37.75 38.8125 
Q 44.34375 36.671875 47.78125 31.875 
Q 51.21875 27.09375 51.21875 20.453125 
Q 51.21875 11.28125 44.71875 5.03125 
Q 38.234375 -1.21875 27.640625 -1.21875 
Q 17.046875 -1.21875 10.546875 5.046875 
Q 4.046875 11.328125 4.046875 20.703125 
Q 4.046875 27.6875 7.59375 32.390625 
Q 11.140625 37.109375 17.671875 38.8125 
z
M 15.921875 53.71875 
Q 15.921875 48.640625 19.1875 45.40625 
Q 22.46875 42.1875 27.6875 42.1875 
Q 32.765625 42.1875 36.015625 45.375 
Q 39.265625 48.578125 39.265625 53.21875 
Q 39.265625 58.0625 35.90625 61.359375 
Q 32.5625 64.65625 27.59375 64.65625 
Q 22.5625 64.65625 19.234375 61.421875 
Q 15.921875 58.203125 15.921875 53.71875 
z
M 13.09375 20.65625 
Q 13.09375 16.890625 14.875 13.375 
Q 16.65625 9.859375 20.171875 7.921875 
Q 23.6875 6 27.734375 6 
Q 34.03125 6 38.125 10.046875 
Q 42.234375 14.109375 42.234375 20.359375 
Q 42.234375 26.703125 38.015625 30.859375 
Q 33.796875 35.015625 27.4375 35.015625 
Q 21.234375 35.015625 17.15625 30.90625 
Q 13.09375 26.8125 13.09375 20.65625 
z
" id="ArialMT-56"/>
    </defs>
    <g style="fill:#262626;" transform="translate(483.123125 195.906914)scale(0.18 -0.18)">
     <use xlink:href="#ArialMT-56"/>
     <use x="55.615234" xlink:href="#ArialMT-176"/>
    </g>
   </g>
   <g id="text_15">
    <!-- Backing -->
    <defs>
     <path d="M 7.328125 0 
L 7.328125 71.578125 
L 34.1875 71.578125 
Q 42.390625 71.578125 47.34375 69.40625 
Q 52.296875 67.234375 55.09375 62.71875 
Q 57.90625 58.203125 57.90625 53.265625 
Q 57.90625 48.6875 55.421875 44.625 
Q 52.9375 40.578125 47.90625 38.09375 
Q 54.390625 36.1875 57.875 31.59375 
Q 61.375 27 61.375 20.75 
Q 61.375 15.71875 59.25 11.390625 
Q 57.125 7.078125 54 4.734375 
Q 50.875 2.390625 46.15625 1.1875 
Q 41.453125 0 34.625 0 
z
M 16.796875 41.5 
L 32.28125 41.5 
Q 38.578125 41.5 41.3125 42.328125 
Q 44.921875 43.40625 46.75 45.890625 
Q 48.578125 48.390625 48.578125 52.15625 
Q 48.578125 55.71875 46.875 58.421875 
Q 45.171875 61.140625 41.984375 62.140625 
Q 38.8125 63.140625 31.109375 63.140625 
L 16.796875 63.140625 
z
M 16.796875 8.453125 
L 34.625 8.453125 
Q 39.203125 8.453125 41.0625 8.796875 
Q 44.34375 9.375 46.53125 10.734375 
Q 48.734375 12.109375 50.140625 14.71875 
Q 51.5625 17.328125 51.5625 20.75 
Q 51.5625 24.75 49.515625 27.703125 
Q 47.46875 30.671875 43.828125 31.859375 
Q 40.1875 33.0625 33.34375 33.0625 
L 16.796875 33.0625 
z
" id="ArialMT-66"/>
     <path d="M 6.640625 0 
L 6.640625 71.578125 
L 15.4375 71.578125 
L 15.4375 30.765625 
L 36.234375 51.859375 
L 47.609375 51.859375 
L 27.78125 32.625 
L 49.609375 0 
L 38.765625 0 
L 21.625 26.515625 
L 15.4375 20.5625 
L 15.4375 0 
z
" id="ArialMT-107"/>
    </defs>
    <g style="fill:#262626;" transform="translate(450.123125 220.618477)scale(0.18 -0.18)">
     <use xlink:href="#ArialMT-66"/>
     <use x="66.699219" xlink:href="#ArialMT-97"/>
     <use x="122.314453" xlink:href="#ArialMT-99"/>
     <use x="172.314453" xlink:href="#ArialMT-107"/>
     <use x="222.314453" xlink:href="#ArialMT-105"/>
     <use x="244.53125" xlink:href="#ArialMT-110"/>
     <use x="300.146484" xlink:href="#ArialMT-103"/>
    </g>
   </g>
   <g id="line2d_24">
    <path d="M 436.923125 239.765977 
L 469.923125 239.765977 
" style="fill:none;stroke:#333333;stroke-dasharray:2.25,0;stroke-dashoffset:0;stroke-width:2.25;"/>
   </g>
   <g id="line2d_25">
    <defs>
     <path d="M -0.49999 0.49999 
L 0.50001 0.49999 
L 0.50001 -0.50001 
L -0.49999 -0.50001 
z
" id="m69c5da84dc"/>
    </defs>
    <g>
     <use style="fill:#333333;" x="453.423125" xlink:href="#m69c5da84dc" y="239.765977"/>
    </g>
   </g>
   <g id="text_16">
    <!-- Stiff -->
    <defs>
     <path d="M 4.5 23 
L 13.421875 23.78125 
Q 14.0625 18.40625 16.375 14.96875 
Q 18.703125 11.53125 23.578125 9.40625 
Q 28.46875 7.28125 34.578125 7.28125 
Q 39.984375 7.28125 44.140625 8.890625 
Q 48.296875 10.5 50.3125 13.296875 
Q 52.34375 16.109375 52.34375 19.4375 
Q 52.34375 22.796875 50.390625 25.3125 
Q 48.4375 27.828125 43.953125 29.546875 
Q 41.0625 30.671875 31.203125 33.03125 
Q 21.34375 35.40625 17.390625 37.5 
Q 12.25 40.1875 9.734375 44.15625 
Q 7.234375 48.140625 7.234375 53.078125 
Q 7.234375 58.5 10.296875 63.203125 
Q 13.375 67.921875 19.28125 70.359375 
Q 25.203125 72.796875 32.421875 72.796875 
Q 40.375 72.796875 46.453125 70.234375 
Q 52.546875 67.671875 55.8125 62.6875 
Q 59.078125 57.71875 59.328125 51.421875 
L 50.25 50.734375 
Q 49.515625 57.515625 45.28125 60.984375 
Q 41.0625 64.453125 32.8125 64.453125 
Q 24.21875 64.453125 20.28125 61.296875 
Q 16.359375 58.15625 16.359375 53.71875 
Q 16.359375 49.859375 19.140625 47.359375 
Q 21.875 44.875 33.421875 42.265625 
Q 44.96875 39.65625 49.265625 37.703125 
Q 55.515625 34.8125 58.484375 30.390625 
Q 61.46875 25.984375 61.46875 20.21875 
Q 61.46875 14.5 58.203125 9.4375 
Q 54.9375 4.390625 48.796875 1.578125 
Q 42.671875 -1.21875 35.015625 -1.21875 
Q 25.296875 -1.21875 18.71875 1.609375 
Q 12.15625 4.4375 8.421875 10.125 
Q 4.6875 15.828125 4.5 23 
z
" id="ArialMT-83"/>
     <path d="M 8.6875 0 
L 8.6875 45.015625 
L 0.921875 45.015625 
L 0.921875 51.859375 
L 8.6875 51.859375 
L 8.6875 57.375 
Q 8.6875 62.59375 9.625 65.140625 
Q 10.890625 68.5625 14.078125 70.671875 
Q 17.28125 72.796875 23.046875 72.796875 
Q 26.765625 72.796875 31.25 71.921875 
L 29.9375 64.265625 
Q 27.203125 64.75 24.75 64.75 
Q 20.75 64.75 19.09375 63.03125 
Q 17.4375 61.328125 17.4375 56.640625 
L 17.4375 51.859375 
L 27.546875 51.859375 
L 27.546875 45.015625 
L 17.4375 45.015625 
L 17.4375 0 
z
" id="ArialMT-102"/>
    </defs>
    <g style="fill:#262626;" transform="translate(483.123125 245.540977)scale(0.18 -0.18)">
     <use xlink:href="#ArialMT-83"/>
     <use x="66.699219" xlink:href="#ArialMT-116"/>
     <use x="94.482422" xlink:href="#ArialMT-105"/>
     <use x="116.699219" xlink:href="#ArialMT-102"/>
     <use x="144.466797" xlink:href="#ArialMT-102"/>
    </g>
   </g>
   <g id="line2d_26">
    <path d="M 436.923125 264.477539 
L 469.923125 264.477539 
" style="fill:none;stroke:#333333;stroke-dasharray:0,2.25;stroke-dashoffset:0;stroke-width:2.25;"/>
   </g>
   <g id="line2d_27">
    <defs>
     <path d="M 0 4.5 
C 1.193414 4.5 2.338109 4.025852 3.181981 3.181981 
C 4.025852 2.338109 4.5 1.193414 4.5 0 
C 4.5 -1.193414 4.025852 -2.338109 3.181981 -3.181981 
C 2.338109 -4.025852 1.193414 -4.5 0 -4.5 
C -1.193414 -4.5 -2.338109 -4.025852 -3.181981 -3.181981 
C -4.025852 -2.338109 -4.5 -1.193414 -4.5 0 
C -4.5 1.193414 -4.025852 2.338109 -3.181981 3.181981 
C -2.338109 4.025852 -1.193414 4.5 0 4.5 
z
" id="mc9c4646cdf" style="stroke:#333333;"/>
    </defs>
    <g>
     <use style="fill:#333333;stroke:#333333;" x="453.423125" xlink:href="#mc9c4646cdf" y="264.477539"/>
    </g>
   </g>
   <g id="text_17">
    <!-- Soft -->
    <g style="fill:#262626;" transform="translate(483.123125 270.252539)scale(0.18 -0.18)">
     <use xlink:href="#ArialMT-83"/>
     <use x="66.699219" xlink:href="#ArialMT-111"/>
     <use x="122.314453" xlink:href="#ArialMT-102"/>
     <use x="150.097656" xlink:href="#ArialMT-116"/>
    </g>
   </g>
  </g>
 </g>
 <defs>
  <clipPath id="p446660ec27">
   <rect height="334.62" width="334.351573" x="74.728125" y="16.2"/>
  </clipPath>
 </defs>
</svg>
