<?xml version="1.0" encoding="utf-8" standalone="no"?>
<!DOCTYPE svg PUBLIC "-//W3C//DTD SVG 1.1//EN"
  "http://www.w3.org/Graphics/SVG/1.1/DTD/svg11.dtd">
<!-- Created with matplotlib (https://matplotlib.org/) -->
<svg height="399.835531pt" version="1.1" viewBox="0 0 557.892591 399.835531" width="557.892591pt" xmlns="http://www.w3.org/2000/svg" xmlns:xlink="http://www.w3.org/1999/xlink">
 <defs>
  <style type="text/css">
*{stroke-linecap:butt;stroke-linejoin:round;}
  </style>
 </defs>
 <g id="figure_1">
  <g id="patch_1">
   <path d="M 0 399.835531 
L 557.892591 399.835531 
L 557.892591 0 
L 0 0 
z
" style="fill:none;"/>
  </g>
  <g id="axes_1">
   <g id="patch_2">
    <path d="M 74.19 338.920531 
L 405.08062 338.920531 
L 405.08062 16.2 
L 74.19 16.2 
z
" style="fill:none;"/>
   </g>
   <g id="matplotlib.axis_1">
    <g id="xtick_1">
     <g id="line2d_1">
      <defs>
       <path d="M 0 0 
L 0 9 
" id="m3356dd2024" style="stroke:#262626;stroke-width:1.875;"/>
      </defs>
      <g>
       <use style="fill:#262626;stroke:#262626;stroke-width:1.875;" x="89.230483" xlink:href="#m3356dd2024" y="338.920531"/>
      </g>
     </g>
     <g id="text_1">
      <!-- $\mathdefault{10^{0}}$ -->
      <defs>
       <path d="M 37.25 0 
L 28.46875 0 
L 28.46875 56 
Q 25.296875 52.984375 20.140625 49.953125 
Q 14.984375 46.921875 10.890625 45.40625 
L 10.890625 53.90625 
Q 18.265625 57.375 23.78125 62.296875 
Q 29.296875 67.234375 31.59375 71.875 
L 37.25 71.875 
z
" id="ArialMT-49"/>
       <path d="M 4.15625 35.296875 
Q 4.15625 48 6.765625 55.734375 
Q 9.375 63.484375 14.515625 67.671875 
Q 19.671875 71.875 27.484375 71.875 
Q 33.25 71.875 37.59375 69.546875 
Q 41.9375 67.234375 44.765625 62.859375 
Q 47.609375 58.5 49.21875 52.21875 
Q 50.828125 45.953125 50.828125 35.296875 
Q 50.828125 22.703125 48.234375 14.96875 
Q 45.65625 7.234375 40.5 3 
Q 35.359375 -1.21875 27.484375 -1.21875 
Q 17.140625 -1.21875 11.234375 6.203125 
Q 4.15625 15.140625 4.15625 35.296875 
z
M 13.1875 35.296875 
Q 13.1875 17.671875 17.3125 11.828125 
Q 21.4375 6 27.484375 6 
Q 33.546875 6 37.671875 11.859375 
Q 41.796875 17.71875 41.796875 35.296875 
Q 41.796875 52.984375 37.671875 58.78125 
Q 33.546875 64.59375 27.390625 64.59375 
Q 21.34375 64.59375 17.71875 59.46875 
Q 13.1875 52.9375 13.1875 35.296875 
z
" id="ArialMT-48"/>
      </defs>
      <g style="fill:#262626;" transform="translate(76.277983 368.436156)scale(0.165 -0.165)">
       <use transform="translate(0 0.99375)" xlink:href="#ArialMT-49"/>
       <use transform="translate(55.615234 0.99375)" xlink:href="#ArialMT-48"/>
       <use transform="translate(112.972813 70.6875)scale(0.7)" xlink:href="#ArialMT-48"/>
      </g>
     </g>
    </g>
    <g id="xtick_2">
     <g id="line2d_2">
      <g>
       <use style="fill:#262626;stroke:#262626;stroke-width:1.875;" x="189.500367" xlink:href="#m3356dd2024" y="338.920531"/>
      </g>
     </g>
     <g id="text_2">
      <!-- $\mathdefault{10^{1}}$ -->
      <g style="fill:#262626;" transform="translate(176.547867 368.436156)scale(0.165 -0.165)">
       <use transform="translate(0 0.99375)" xlink:href="#ArialMT-49"/>
       <use transform="translate(55.615234 0.99375)" xlink:href="#ArialMT-48"/>
       <use transform="translate(112.972813 70.6875)scale(0.7)" xlink:href="#ArialMT-49"/>
      </g>
     </g>
    </g>
    <g id="xtick_3">
     <g id="line2d_3">
      <g>
       <use style="fill:#262626;stroke:#262626;stroke-width:1.875;" x="289.770252" xlink:href="#m3356dd2024" y="338.920531"/>
      </g>
     </g>
     <g id="text_3">
      <!-- $\mathdefault{10^{2}}$ -->
      <defs>
       <path d="M 50.34375 8.453125 
L 50.34375 0 
L 3.03125 0 
Q 2.9375 3.171875 4.046875 6.109375 
Q 5.859375 10.9375 9.828125 15.625 
Q 13.8125 20.3125 21.34375 26.46875 
Q 33.015625 36.03125 37.109375 41.625 
Q 41.21875 47.21875 41.21875 52.203125 
Q 41.21875 57.421875 37.46875 61 
Q 33.734375 64.59375 27.734375 64.59375 
Q 21.390625 64.59375 17.578125 60.78125 
Q 13.765625 56.984375 13.71875 50.25 
L 4.6875 51.171875 
Q 5.609375 61.28125 11.65625 66.578125 
Q 17.71875 71.875 27.9375 71.875 
Q 38.234375 71.875 44.234375 66.15625 
Q 50.25 60.453125 50.25 52 
Q 50.25 47.703125 48.484375 43.546875 
Q 46.734375 39.40625 42.65625 34.8125 
Q 38.578125 30.21875 29.109375 22.21875 
Q 21.1875 15.578125 18.9375 13.203125 
Q 16.703125 10.84375 15.234375 8.453125 
z
" id="ArialMT-50"/>
      </defs>
      <g style="fill:#262626;" transform="translate(276.817752 368.436156)scale(0.165 -0.165)">
       <use transform="translate(0 0.99375)" xlink:href="#ArialMT-49"/>
       <use transform="translate(55.615234 0.99375)" xlink:href="#ArialMT-48"/>
       <use transform="translate(112.972813 70.6875)scale(0.7)" xlink:href="#ArialMT-50"/>
      </g>
     </g>
    </g>
    <g id="xtick_4">
     <g id="line2d_4">
      <g>
       <use style="fill:#262626;stroke:#262626;stroke-width:1.875;" x="390.040137" xlink:href="#m3356dd2024" y="338.920531"/>
      </g>
     </g>
     <g id="text_4">
      <!-- $\mathdefault{10^{3}}$ -->
      <defs>
       <path d="M 4.203125 18.890625 
L 12.984375 20.0625 
Q 14.5 12.59375 18.140625 9.296875 
Q 21.78125 6 27 6 
Q 33.203125 6 37.46875 10.296875 
Q 41.75 14.59375 41.75 20.953125 
Q 41.75 27 37.796875 30.921875 
Q 33.84375 34.859375 27.734375 34.859375 
Q 25.25 34.859375 21.53125 33.890625 
L 22.515625 41.609375 
Q 23.390625 41.5 23.921875 41.5 
Q 29.546875 41.5 34.03125 44.421875 
Q 38.53125 47.359375 38.53125 53.46875 
Q 38.53125 58.296875 35.25 61.46875 
Q 31.984375 64.65625 26.8125 64.65625 
Q 21.6875 64.65625 18.265625 61.421875 
Q 14.84375 58.203125 13.875 51.765625 
L 5.078125 53.328125 
Q 6.6875 62.15625 12.390625 67.015625 
Q 18.109375 71.875 26.609375 71.875 
Q 32.46875 71.875 37.390625 69.359375 
Q 42.328125 66.84375 44.9375 62.5 
Q 47.5625 58.15625 47.5625 53.265625 
Q 47.5625 48.640625 45.0625 44.828125 
Q 42.578125 41.015625 37.703125 38.765625 
Q 44.046875 37.3125 47.5625 32.6875 
Q 51.078125 28.078125 51.078125 21.140625 
Q 51.078125 11.765625 44.234375 5.25 
Q 37.40625 -1.265625 26.953125 -1.265625 
Q 17.53125 -1.265625 11.296875 4.34375 
Q 5.078125 9.96875 4.203125 18.890625 
z
" id="ArialMT-51"/>
      </defs>
      <g style="fill:#262626;" transform="translate(377.087637 368.436156)scale(0.165 -0.165)">
       <use transform="translate(0 0.99375)" xlink:href="#ArialMT-49"/>
       <use transform="translate(55.615234 0.99375)" xlink:href="#ArialMT-48"/>
       <use transform="translate(112.972813 70.6875)scale(0.7)" xlink:href="#ArialMT-51"/>
      </g>
     </g>
    </g>
    <g id="xtick_5">
     <g id="line2d_5">
      <defs>
       <path d="M 0 0 
L 0 6 
" id="ma60645e95f" style="stroke:#262626;stroke-width:1.5;"/>
      </defs>
      <g>
       <use style="fill:#262626;stroke:#262626;stroke-width:1.5;" x="73.698481" xlink:href="#ma60645e95f" y="338.920531"/>
      </g>
     </g>
    </g>
    <g id="xtick_6">
     <g id="line2d_6">
      <g>
       <use style="fill:#262626;stroke:#262626;stroke-width:1.5;" x="79.513327" xlink:href="#ma60645e95f" y="338.920531"/>
      </g>
     </g>
    </g>
    <g id="xtick_7">
     <g id="line2d_7">
      <g>
       <use style="fill:#262626;stroke:#262626;stroke-width:1.5;" x="84.642384" xlink:href="#ma60645e95f" y="338.920531"/>
      </g>
     </g>
    </g>
    <g id="xtick_8">
     <g id="line2d_8">
      <g>
       <use style="fill:#262626;stroke:#262626;stroke-width:1.5;" x="119.414726" xlink:href="#ma60645e95f" y="338.920531"/>
      </g>
     </g>
    </g>
    <g id="xtick_9">
     <g id="line2d_9">
      <g>
       <use style="fill:#262626;stroke:#262626;stroke-width:1.5;" x="137.071376" xlink:href="#ma60645e95f" y="338.920531"/>
      </g>
     </g>
    </g>
    <g id="xtick_10">
     <g id="line2d_10">
      <g>
       <use style="fill:#262626;stroke:#262626;stroke-width:1.5;" x="149.598969" xlink:href="#ma60645e95f" y="338.920531"/>
      </g>
     </g>
    </g>
    <g id="xtick_11">
     <g id="line2d_11">
      <g>
       <use style="fill:#262626;stroke:#262626;stroke-width:1.5;" x="159.316124" xlink:href="#ma60645e95f" y="338.920531"/>
      </g>
     </g>
    </g>
    <g id="xtick_12">
     <g id="line2d_12">
      <g>
       <use style="fill:#262626;stroke:#262626;stroke-width:1.5;" x="167.255619" xlink:href="#ma60645e95f" y="338.920531"/>
      </g>
     </g>
    </g>
    <g id="xtick_13">
     <g id="line2d_13">
      <g>
       <use style="fill:#262626;stroke:#262626;stroke-width:1.5;" x="173.968366" xlink:href="#ma60645e95f" y="338.920531"/>
      </g>
     </g>
    </g>
    <g id="xtick_14">
     <g id="line2d_14">
      <g>
       <use style="fill:#262626;stroke:#262626;stroke-width:1.5;" x="179.783212" xlink:href="#ma60645e95f" y="338.920531"/>
      </g>
     </g>
    </g>
    <g id="xtick_15">
     <g id="line2d_15">
      <g>
       <use style="fill:#262626;stroke:#262626;stroke-width:1.5;" x="184.912269" xlink:href="#ma60645e95f" y="338.920531"/>
      </g>
     </g>
    </g>
    <g id="xtick_16">
     <g id="line2d_16">
      <g>
       <use style="fill:#262626;stroke:#262626;stroke-width:1.5;" x="219.68461" xlink:href="#ma60645e95f" y="338.920531"/>
      </g>
     </g>
    </g>
    <g id="xtick_17">
     <g id="line2d_17">
      <g>
       <use style="fill:#262626;stroke:#262626;stroke-width:1.5;" x="237.341261" xlink:href="#ma60645e95f" y="338.920531"/>
      </g>
     </g>
    </g>
    <g id="xtick_18">
     <g id="line2d_18">
      <g>
       <use style="fill:#262626;stroke:#262626;stroke-width:1.5;" x="249.868853" xlink:href="#ma60645e95f" y="338.920531"/>
      </g>
     </g>
    </g>
    <g id="xtick_19">
     <g id="line2d_19">
      <g>
       <use style="fill:#262626;stroke:#262626;stroke-width:1.5;" x="259.586009" xlink:href="#ma60645e95f" y="338.920531"/>
      </g>
     </g>
    </g>
    <g id="xtick_20">
     <g id="line2d_20">
      <g>
       <use style="fill:#262626;stroke:#262626;stroke-width:1.5;" x="267.525504" xlink:href="#ma60645e95f" y="338.920531"/>
      </g>
     </g>
    </g>
    <g id="xtick_21">
     <g id="line2d_21">
      <g>
       <use style="fill:#262626;stroke:#262626;stroke-width:1.5;" x="274.23825" xlink:href="#ma60645e95f" y="338.920531"/>
      </g>
     </g>
    </g>
    <g id="xtick_22">
     <g id="line2d_22">
      <g>
       <use style="fill:#262626;stroke:#262626;stroke-width:1.5;" x="280.053096" xlink:href="#ma60645e95f" y="338.920531"/>
      </g>
     </g>
    </g>
    <g id="xtick_23">
     <g id="line2d_23">
      <g>
       <use style="fill:#262626;stroke:#262626;stroke-width:1.5;" x="285.182154" xlink:href="#ma60645e95f" y="338.920531"/>
      </g>
     </g>
    </g>
    <g id="xtick_24">
     <g id="line2d_24">
      <g>
       <use style="fill:#262626;stroke:#262626;stroke-width:1.5;" x="319.954495" xlink:href="#ma60645e95f" y="338.920531"/>
      </g>
     </g>
    </g>
    <g id="xtick_25">
     <g id="line2d_25">
      <g>
       <use style="fill:#262626;stroke:#262626;stroke-width:1.5;" x="337.611145" xlink:href="#ma60645e95f" y="338.920531"/>
      </g>
     </g>
    </g>
    <g id="xtick_26">
     <g id="line2d_26">
      <g>
       <use style="fill:#262626;stroke:#262626;stroke-width:1.5;" x="350.138738" xlink:href="#ma60645e95f" y="338.920531"/>
      </g>
     </g>
    </g>
    <g id="xtick_27">
     <g id="line2d_27">
      <g>
       <use style="fill:#262626;stroke:#262626;stroke-width:1.5;" x="359.855894" xlink:href="#ma60645e95f" y="338.920531"/>
      </g>
     </g>
    </g>
    <g id="xtick_28">
     <g id="line2d_28">
      <g>
       <use style="fill:#262626;stroke:#262626;stroke-width:1.5;" x="367.795388" xlink:href="#ma60645e95f" y="338.920531"/>
      </g>
     </g>
    </g>
    <g id="xtick_29">
     <g id="line2d_29">
      <g>
       <use style="fill:#262626;stroke:#262626;stroke-width:1.5;" x="374.508135" xlink:href="#ma60645e95f" y="338.920531"/>
      </g>
     </g>
    </g>
    <g id="xtick_30">
     <g id="line2d_30">
      <g>
       <use style="fill:#262626;stroke:#262626;stroke-width:1.5;" x="380.322981" xlink:href="#ma60645e95f" y="338.920531"/>
      </g>
     </g>
    </g>
    <g id="xtick_31">
     <g id="line2d_31">
      <g>
       <use style="fill:#262626;stroke:#262626;stroke-width:1.5;" x="385.452039" xlink:href="#ma60645e95f" y="338.920531"/>
      </g>
     </g>
    </g>
    <g id="text_5">
     <!-- Stiffness ratio, $k_b/k_h$ -->
     <defs>
      <path d="M 4.5 23 
L 13.421875 23.78125 
Q 14.0625 18.40625 16.375 14.96875 
Q 18.703125 11.53125 23.578125 9.40625 
Q 28.46875 7.28125 34.578125 7.28125 
Q 39.984375 7.28125 44.140625 8.890625 
Q 48.296875 10.5 50.3125 13.296875 
Q 52.34375 16.109375 52.34375 19.4375 
Q 52.34375 22.796875 50.390625 25.3125 
Q 48.4375 27.828125 43.953125 29.546875 
Q 41.0625 30.671875 31.203125 33.03125 
Q 21.34375 35.40625 17.390625 37.5 
Q 12.25 40.1875 9.734375 44.15625 
Q 7.234375 48.140625 7.234375 53.078125 
Q 7.234375 58.5 10.296875 63.203125 
Q 13.375 67.921875 19.28125 70.359375 
Q 25.203125 72.796875 32.421875 72.796875 
Q 40.375 72.796875 46.453125 70.234375 
Q 52.546875 67.671875 55.8125 62.6875 
Q 59.078125 57.71875 59.328125 51.421875 
L 50.25 50.734375 
Q 49.515625 57.515625 45.28125 60.984375 
Q 41.0625 64.453125 32.8125 64.453125 
Q 24.21875 64.453125 20.28125 61.296875 
Q 16.359375 58.15625 16.359375 53.71875 
Q 16.359375 49.859375 19.140625 47.359375 
Q 21.875 44.875 33.421875 42.265625 
Q 44.96875 39.65625 49.265625 37.703125 
Q 55.515625 34.8125 58.484375 30.390625 
Q 61.46875 25.984375 61.46875 20.21875 
Q 61.46875 14.5 58.203125 9.4375 
Q 54.9375 4.390625 48.796875 1.578125 
Q 42.671875 -1.21875 35.015625 -1.21875 
Q 25.296875 -1.21875 18.71875 1.609375 
Q 12.15625 4.4375 8.421875 10.125 
Q 4.6875 15.828125 4.5 23 
z
" id="ArialMT-83"/>
      <path d="M 25.78125 7.859375 
L 27.046875 0.09375 
Q 23.34375 -0.6875 20.40625 -0.6875 
Q 15.625 -0.6875 12.984375 0.828125 
Q 10.359375 2.34375 9.28125 4.8125 
Q 8.203125 7.28125 8.203125 15.1875 
L 8.203125 45.015625 
L 1.765625 45.015625 
L 1.765625 51.859375 
L 8.203125 51.859375 
L 8.203125 64.703125 
L 16.9375 69.96875 
L 16.9375 51.859375 
L 25.78125 51.859375 
L 25.78125 45.015625 
L 16.9375 45.015625 
L 16.9375 14.703125 
Q 16.9375 10.9375 17.40625 9.859375 
Q 17.875 8.796875 18.921875 8.15625 
Q 19.96875 7.515625 21.921875 7.515625 
Q 23.390625 7.515625 25.78125 7.859375 
z
" id="ArialMT-116"/>
      <path d="M 6.640625 61.46875 
L 6.640625 71.578125 
L 15.4375 71.578125 
L 15.4375 61.46875 
z
M 6.640625 0 
L 6.640625 51.859375 
L 15.4375 51.859375 
L 15.4375 0 
z
" id="ArialMT-105"/>
      <path d="M 8.6875 0 
L 8.6875 45.015625 
L 0.921875 45.015625 
L 0.921875 51.859375 
L 8.6875 51.859375 
L 8.6875 57.375 
Q 8.6875 62.59375 9.625 65.140625 
Q 10.890625 68.5625 14.078125 70.671875 
Q 17.28125 72.796875 23.046875 72.796875 
Q 26.765625 72.796875 31.25 71.921875 
L 29.9375 64.265625 
Q 27.203125 64.75 24.75 64.75 
Q 20.75 64.75 19.09375 63.03125 
Q 17.4375 61.328125 17.4375 56.640625 
L 17.4375 51.859375 
L 27.546875 51.859375 
L 27.546875 45.015625 
L 17.4375 45.015625 
L 17.4375 0 
z
" id="ArialMT-102"/>
      <path d="M 6.59375 0 
L 6.59375 51.859375 
L 14.5 51.859375 
L 14.5 44.484375 
Q 20.21875 53.03125 31 53.03125 
Q 35.6875 53.03125 39.625 51.34375 
Q 43.5625 49.65625 45.515625 46.921875 
Q 47.46875 44.1875 48.25 40.4375 
Q 48.734375 37.984375 48.734375 31.890625 
L 48.734375 0 
L 39.9375 0 
L 39.9375 31.546875 
Q 39.9375 36.921875 38.90625 39.578125 
Q 37.890625 42.234375 35.28125 43.8125 
Q 32.671875 45.40625 29.15625 45.40625 
Q 23.53125 45.40625 19.453125 41.84375 
Q 15.375 38.28125 15.375 28.328125 
L 15.375 0 
z
" id="ArialMT-110"/>
      <path d="M 42.09375 16.703125 
L 51.171875 15.578125 
Q 49.03125 7.625 43.21875 3.21875 
Q 37.40625 -1.171875 28.375 -1.171875 
Q 17 -1.171875 10.328125 5.828125 
Q 3.65625 12.84375 3.65625 25.484375 
Q 3.65625 38.578125 10.390625 45.796875 
Q 17.140625 53.03125 27.875 53.03125 
Q 38.28125 53.03125 44.875 45.953125 
Q 51.46875 38.875 51.46875 26.03125 
Q 51.46875 25.25 51.421875 23.6875 
L 12.75 23.6875 
Q 13.234375 15.140625 17.578125 10.59375 
Q 21.921875 6.0625 28.421875 6.0625 
Q 33.25 6.0625 36.671875 8.59375 
Q 40.09375 11.140625 42.09375 16.703125 
z
M 13.234375 30.90625 
L 42.1875 30.90625 
Q 41.609375 37.453125 38.875 40.71875 
Q 34.671875 45.796875 27.984375 45.796875 
Q 21.921875 45.796875 17.796875 41.75 
Q 13.671875 37.703125 13.234375 30.90625 
z
" id="ArialMT-101"/>
      <path d="M 3.078125 15.484375 
L 11.765625 16.84375 
Q 12.5 11.625 15.84375 8.84375 
Q 19.1875 6.0625 25.203125 6.0625 
Q 31.25 6.0625 34.171875 8.515625 
Q 37.109375 10.984375 37.109375 14.3125 
Q 37.109375 17.28125 34.515625 19 
Q 32.71875 20.171875 25.53125 21.96875 
Q 15.875 24.421875 12.140625 26.203125 
Q 8.40625 27.984375 6.46875 31.125 
Q 4.546875 34.28125 4.546875 38.09375 
Q 4.546875 41.546875 6.125 44.5 
Q 7.71875 47.46875 10.453125 49.421875 
Q 12.5 50.921875 16.03125 51.96875 
Q 19.578125 53.03125 23.640625 53.03125 
Q 29.734375 53.03125 34.34375 51.265625 
Q 38.96875 49.515625 41.15625 46.5 
Q 43.359375 43.5 44.1875 38.484375 
L 35.59375 37.3125 
Q 35.015625 41.3125 32.203125 43.546875 
Q 29.390625 45.796875 24.265625 45.796875 
Q 18.21875 45.796875 15.625 43.796875 
Q 13.03125 41.796875 13.03125 39.109375 
Q 13.03125 37.40625 14.109375 36.03125 
Q 15.1875 34.625 17.484375 33.6875 
Q 18.796875 33.203125 25.25 31.453125 
Q 34.578125 28.953125 38.25 27.359375 
Q 41.9375 25.78125 44.03125 22.75 
Q 46.140625 19.734375 46.140625 15.234375 
Q 46.140625 10.84375 43.578125 6.953125 
Q 41.015625 3.078125 36.171875 0.953125 
Q 31.34375 -1.171875 25.25 -1.171875 
Q 15.140625 -1.171875 9.84375 3.03125 
Q 4.546875 7.234375 3.078125 15.484375 
z
" id="ArialMT-115"/>
      <path id="ArialMT-32"/>
      <path d="M 6.5 0 
L 6.5 51.859375 
L 14.40625 51.859375 
L 14.40625 44 
Q 17.4375 49.515625 20 51.265625 
Q 22.5625 53.03125 25.640625 53.03125 
Q 30.078125 53.03125 34.671875 50.203125 
L 31.640625 42.046875 
Q 28.421875 43.953125 25.203125 43.953125 
Q 22.3125 43.953125 20.015625 42.21875 
Q 17.71875 40.484375 16.75 37.40625 
Q 15.28125 32.71875 15.28125 27.15625 
L 15.28125 0 
z
" id="ArialMT-114"/>
      <path d="M 40.4375 6.390625 
Q 35.546875 2.25 31.03125 0.53125 
Q 26.515625 -1.171875 21.34375 -1.171875 
Q 12.796875 -1.171875 8.203125 3 
Q 3.609375 7.171875 3.609375 13.671875 
Q 3.609375 17.484375 5.34375 20.625 
Q 7.078125 23.78125 9.890625 25.6875 
Q 12.703125 27.59375 16.21875 28.5625 
Q 18.796875 29.25 24.03125 29.890625 
Q 34.671875 31.15625 39.703125 32.90625 
Q 39.75 34.71875 39.75 35.203125 
Q 39.75 40.578125 37.25 42.78125 
Q 33.890625 45.75 27.25 45.75 
Q 21.046875 45.75 18.09375 43.578125 
Q 15.140625 41.40625 13.71875 35.890625 
L 5.125 37.0625 
Q 6.296875 42.578125 8.984375 45.96875 
Q 11.671875 49.359375 16.75 51.1875 
Q 21.828125 53.03125 28.515625 53.03125 
Q 35.15625 53.03125 39.296875 51.46875 
Q 43.453125 49.90625 45.40625 47.53125 
Q 47.359375 45.171875 48.140625 41.546875 
Q 48.578125 39.3125 48.578125 33.453125 
L 48.578125 21.734375 
Q 48.578125 9.46875 49.140625 6.21875 
Q 49.703125 2.984375 51.375 0 
L 42.1875 0 
Q 40.828125 2.734375 40.4375 6.390625 
z
M 39.703125 26.03125 
Q 34.90625 24.078125 25.34375 22.703125 
Q 19.921875 21.921875 17.671875 20.9375 
Q 15.4375 19.96875 14.203125 18.09375 
Q 12.984375 16.21875 12.984375 13.921875 
Q 12.984375 10.40625 15.640625 8.0625 
Q 18.3125 5.71875 23.4375 5.71875 
Q 28.515625 5.71875 32.46875 7.9375 
Q 36.421875 10.15625 38.28125 14.015625 
Q 39.703125 17 39.703125 22.796875 
z
" id="ArialMT-97"/>
      <path d="M 3.328125 25.921875 
Q 3.328125 40.328125 11.328125 47.265625 
Q 18.015625 53.03125 27.640625 53.03125 
Q 38.328125 53.03125 45.109375 46.015625 
Q 51.90625 39.015625 51.90625 26.65625 
Q 51.90625 16.65625 48.90625 10.90625 
Q 45.90625 5.171875 40.15625 2 
Q 34.421875 -1.171875 27.640625 -1.171875 
Q 16.75 -1.171875 10.03125 5.8125 
Q 3.328125 12.796875 3.328125 25.921875 
z
M 12.359375 25.921875 
Q 12.359375 15.96875 16.703125 11.015625 
Q 21.046875 6.0625 27.640625 6.0625 
Q 34.1875 6.0625 38.53125 11.03125 
Q 42.875 16.015625 42.875 26.21875 
Q 42.875 35.84375 38.5 40.796875 
Q 34.125 45.75 27.640625 45.75 
Q 21.046875 45.75 16.703125 40.8125 
Q 12.359375 35.890625 12.359375 25.921875 
z
" id="ArialMT-111"/>
      <path d="M 8.890625 0 
L 8.890625 10.015625 
L 18.890625 10.015625 
L 18.890625 0 
Q 18.890625 -5.515625 16.9375 -8.90625 
Q 14.984375 -12.3125 10.75 -14.15625 
L 8.296875 -10.40625 
Q 11.078125 -9.1875 12.390625 -6.8125 
Q 13.71875 -4.4375 13.875 0 
z
" id="ArialMT-44"/>
      <path d="M 18.3125 75.984375 
L 27.296875 75.984375 
L 18.703125 31.6875 
L 49.515625 54.6875 
L 61.1875 54.6875 
L 26.8125 28.515625 
L 51.90625 0 
L 41.015625 0 
L 17.671875 26.703125 
L 12.5 0 
L 3.515625 0 
z
" id="DejaVuSans-Oblique-107"/>
      <path d="M 49.515625 33.40625 
Q 49.515625 40.484375 46.265625 44.484375 
Q 43.015625 48.484375 37.3125 48.484375 
Q 33.15625 48.484375 29.515625 46.453125 
Q 25.875 44.4375 23.1875 40.578125 
Q 20.359375 36.53125 18.71875 31.171875 
Q 17.09375 25.828125 17.09375 20.515625 
Q 17.09375 13.765625 20.28125 9.9375 
Q 23.484375 6.109375 29.109375 6.109375 
Q 33.34375 6.109375 36.953125 8.078125 
Q 40.578125 10.0625 43.3125 13.921875 
Q 46.09375 17.921875 47.796875 23.234375 
Q 49.515625 28.5625 49.515625 33.40625 
z
M 21.578125 46.390625 
Q 24.90625 50.875 29.90625 53.4375 
Q 34.90625 56 40.375 56 
Q 48.78125 56 53.734375 50.328125 
Q 58.6875 44.671875 58.6875 35.015625 
Q 58.6875 27.09375 55.78125 19.671875 
Q 52.875 12.25 47.515625 6.5 
Q 44 2.6875 39.40625 0.625 
Q 34.8125 -1.421875 29.78125 -1.421875 
Q 24.46875 -1.421875 20.5625 1.015625 
Q 16.65625 3.46875 14.203125 8.296875 
L 12.59375 0 
L 3.609375 0 
L 18.40625 75.984375 
L 27.390625 75.984375 
z
" id="DejaVuSans-Oblique-98"/>
      <path d="M 25.390625 72.90625 
L 33.6875 72.90625 
L 8.296875 -9.28125 
L 0 -9.28125 
z
" id="DejaVuSans-47"/>
      <path d="M 55.71875 33.015625 
L 49.3125 0 
L 40.28125 0 
L 46.6875 32.671875 
Q 47.125 34.96875 47.359375 36.71875 
Q 47.609375 38.484375 47.609375 39.5 
Q 47.609375 43.609375 45.015625 45.890625 
Q 42.4375 48.1875 37.796875 48.1875 
Q 30.5625 48.1875 25.265625 43.296875 
Q 19.96875 38.421875 18.40625 30.328125 
L 12.5 0 
L 3.515625 0 
L 18.3125 75.984375 
L 27.296875 75.984375 
L 21.484375 46.09375 
Q 24.90625 50.6875 30.21875 53.34375 
Q 35.546875 56 41.40625 56 
Q 48.640625 56 52.609375 52.09375 
Q 56.59375 48.1875 56.59375 41.109375 
Q 56.59375 39.359375 56.375 37.359375 
Q 56.15625 35.359375 55.71875 33.015625 
z
" id="DejaVuSans-Oblique-104"/>
     </defs>
     <g style="fill:#262626;" transform="translate(158.09531 389.058031)scale(0.18 -0.18)">
      <use transform="translate(0 0.015625)" xlink:href="#ArialMT-83"/>
      <use transform="translate(66.699219 0.015625)" xlink:href="#ArialMT-116"/>
      <use transform="translate(94.482422 0.015625)" xlink:href="#ArialMT-105"/>
      <use transform="translate(116.699219 0.015625)" xlink:href="#ArialMT-102"/>
      <use transform="translate(144.482422 0.015625)" xlink:href="#ArialMT-102"/>
      <use transform="translate(172.265625 0.015625)" xlink:href="#ArialMT-110"/>
      <use transform="translate(227.880859 0.015625)" xlink:href="#ArialMT-101"/>
      <use transform="translate(283.496094 0.015625)" xlink:href="#ArialMT-115"/>
      <use transform="translate(333.496094 0.015625)" xlink:href="#ArialMT-115"/>
      <use transform="translate(383.496094 0.015625)" xlink:href="#ArialMT-32"/>
      <use transform="translate(411.279297 0.015625)" xlink:href="#ArialMT-114"/>
      <use transform="translate(444.580078 0.015625)" xlink:href="#ArialMT-97"/>
      <use transform="translate(500.195312 0.015625)" xlink:href="#ArialMT-116"/>
      <use transform="translate(527.978516 0.015625)" xlink:href="#ArialMT-105"/>
      <use transform="translate(550.195312 0.015625)" xlink:href="#ArialMT-111"/>
      <use transform="translate(605.810547 0.015625)" xlink:href="#ArialMT-44"/>
      <use transform="translate(633.59375 0.015625)" xlink:href="#ArialMT-32"/>
      <use transform="translate(661.376953 0.015625)" xlink:href="#DejaVuSans-Oblique-107"/>
      <use transform="translate(719.287109 -16.390625)scale(0.7)" xlink:href="#DejaVuSans-Oblique-98"/>
      <use transform="translate(766.455078 0.015625)" xlink:href="#DejaVuSans-47"/>
      <use transform="translate(800.146484 0.015625)" xlink:href="#DejaVuSans-Oblique-107"/>
      <use transform="translate(858.056641 -16.390625)scale(0.7)" xlink:href="#DejaVuSans-Oblique-104"/>
     </g>
    </g>
   </g>
   <g id="matplotlib.axis_2">
    <g id="ytick_1">
     <g id="line2d_32">
      <defs>
       <path d="M 0 0 
L -9 0 
" id="mea15a6d115" style="stroke:#262626;stroke-width:1.875;"/>
      </defs>
      <g>
       <use style="fill:#262626;stroke:#262626;stroke-width:1.875;" x="74.19" xlink:href="#mea15a6d115" y="303.717968"/>
      </g>
     </g>
     <g id="text_6">
      <!-- $\mathdefault{10^{-3}}$ -->
      <defs>
       <path d="M 52.828125 31.203125 
L 5.5625 31.203125 
L 5.5625 39.40625 
L 52.828125 39.40625 
z
" id="ArialMT-8722"/>
      </defs>
      <g style="fill:#262626;" transform="translate(29.02 312.22578)scale(0.165 -0.165)">
       <use transform="translate(0 0.99375)" xlink:href="#ArialMT-49"/>
       <use transform="translate(55.615234 0.99375)" xlink:href="#ArialMT-48"/>
       <use transform="translate(112.972813 70.6875)scale(0.7)" xlink:href="#ArialMT-8722"/>
       <use transform="translate(153.851719 70.6875)scale(0.7)" xlink:href="#ArialMT-51"/>
      </g>
     </g>
    </g>
    <g id="ytick_2">
     <g id="line2d_33">
      <g>
       <use style="fill:#262626;stroke:#262626;stroke-width:1.875;" x="74.19" xlink:href="#mea15a6d115" y="231.129565"/>
      </g>
     </g>
     <g id="text_7">
      <!-- $\mathdefault{10^{-2}}$ -->
      <g style="fill:#262626;" transform="translate(29.02 239.637378)scale(0.165 -0.165)">
       <use transform="translate(0 0.99375)" xlink:href="#ArialMT-49"/>
       <use transform="translate(55.615234 0.99375)" xlink:href="#ArialMT-48"/>
       <use transform="translate(112.972813 70.6875)scale(0.7)" xlink:href="#ArialMT-8722"/>
       <use transform="translate(153.851719 70.6875)scale(0.7)" xlink:href="#ArialMT-50"/>
      </g>
     </g>
    </g>
    <g id="ytick_3">
     <g id="line2d_34">
      <g>
       <use style="fill:#262626;stroke:#262626;stroke-width:1.875;" x="74.19" xlink:href="#mea15a6d115" y="158.541163"/>
      </g>
     </g>
     <g id="text_8">
      <!-- $\mathdefault{10^{-1}}$ -->
      <g style="fill:#262626;" transform="translate(29.02 167.048975)scale(0.165 -0.165)">
       <use transform="translate(0 0.99375)" xlink:href="#ArialMT-49"/>
       <use transform="translate(55.615234 0.99375)" xlink:href="#ArialMT-48"/>
       <use transform="translate(112.972813 70.6875)scale(0.7)" xlink:href="#ArialMT-8722"/>
       <use transform="translate(153.851719 70.6875)scale(0.7)" xlink:href="#ArialMT-49"/>
      </g>
     </g>
    </g>
    <g id="ytick_4">
     <g id="line2d_35">
      <g>
       <use style="fill:#262626;stroke:#262626;stroke-width:1.875;" x="74.19" xlink:href="#mea15a6d115" y="85.952761"/>
      </g>
     </g>
     <g id="text_9">
      <!-- $\mathdefault{10^{0}}$ -->
      <g style="fill:#262626;" transform="translate(35.785 94.460573)scale(0.165 -0.165)">
       <use transform="translate(0 0.99375)" xlink:href="#ArialMT-49"/>
       <use transform="translate(55.615234 0.99375)" xlink:href="#ArialMT-48"/>
       <use transform="translate(112.972813 70.6875)scale(0.7)" xlink:href="#ArialMT-48"/>
      </g>
     </g>
    </g>
    <g id="ytick_5">
     <g id="line2d_36">
      <defs>
       <path d="M 0 0 
L -6 0 
" id="m939b32971e" style="stroke:#262626;stroke-width:1.5;"/>
      </defs>
      <g>
       <use style="fill:#262626;stroke:#262626;stroke-width:1.5;" x="74.19" xlink:href="#m939b32971e" y="332.603797"/>
      </g>
     </g>
    </g>
    <g id="ytick_6">
     <g id="line2d_37">
      <g>
       <use style="fill:#262626;stroke:#262626;stroke-width:1.5;" x="74.19" xlink:href="#m939b32971e" y="325.569254"/>
      </g>
     </g>
    </g>
    <g id="ytick_7">
     <g id="line2d_38">
      <g>
       <use style="fill:#262626;stroke:#262626;stroke-width:1.5;" x="74.19" xlink:href="#m939b32971e" y="319.821614"/>
      </g>
     </g>
    </g>
    <g id="ytick_8">
     <g id="line2d_39">
      <g>
       <use style="fill:#262626;stroke:#262626;stroke-width:1.5;" x="74.19" xlink:href="#m939b32971e" y="314.962053"/>
      </g>
     </g>
    </g>
    <g id="ytick_9">
     <g id="line2d_40">
      <g>
       <use style="fill:#262626;stroke:#262626;stroke-width:1.5;" x="74.19" xlink:href="#m939b32971e" y="310.752511"/>
      </g>
     </g>
    </g>
    <g id="ytick_10">
     <g id="line2d_41">
      <g>
       <use style="fill:#262626;stroke:#262626;stroke-width:1.5;" x="74.19" xlink:href="#m939b32971e" y="307.039431"/>
      </g>
     </g>
    </g>
    <g id="ytick_11">
     <g id="line2d_42">
      <g>
       <use style="fill:#262626;stroke:#262626;stroke-width:1.5;" x="74.19" xlink:href="#m939b32971e" y="281.866681"/>
      </g>
     </g>
    </g>
    <g id="ytick_12">
     <g id="line2d_43">
      <g>
       <use style="fill:#262626;stroke:#262626;stroke-width:1.5;" x="74.19" xlink:href="#m939b32971e" y="269.084498"/>
      </g>
     </g>
    </g>
    <g id="ytick_13">
     <g id="line2d_44">
      <g>
       <use style="fill:#262626;stroke:#262626;stroke-width:1.5;" x="74.19" xlink:href="#m939b32971e" y="260.015395"/>
      </g>
     </g>
    </g>
    <g id="ytick_14">
     <g id="line2d_45">
      <g>
       <use style="fill:#262626;stroke:#262626;stroke-width:1.5;" x="74.19" xlink:href="#m939b32971e" y="252.980852"/>
      </g>
     </g>
    </g>
    <g id="ytick_15">
     <g id="line2d_46">
      <g>
       <use style="fill:#262626;stroke:#262626;stroke-width:1.5;" x="74.19" xlink:href="#m939b32971e" y="247.233212"/>
      </g>
     </g>
    </g>
    <g id="ytick_16">
     <g id="line2d_47">
      <g>
       <use style="fill:#262626;stroke:#262626;stroke-width:1.5;" x="74.19" xlink:href="#m939b32971e" y="242.373651"/>
      </g>
     </g>
    </g>
    <g id="ytick_17">
     <g id="line2d_48">
      <g>
       <use style="fill:#262626;stroke:#262626;stroke-width:1.5;" x="74.19" xlink:href="#m939b32971e" y="238.164108"/>
      </g>
     </g>
    </g>
    <g id="ytick_18">
     <g id="line2d_49">
      <g>
       <use style="fill:#262626;stroke:#262626;stroke-width:1.5;" x="74.19" xlink:href="#m939b32971e" y="234.451028"/>
      </g>
     </g>
    </g>
    <g id="ytick_19">
     <g id="line2d_50">
      <g>
       <use style="fill:#262626;stroke:#262626;stroke-width:1.5;" x="74.19" xlink:href="#m939b32971e" y="209.278279"/>
      </g>
     </g>
    </g>
    <g id="ytick_20">
     <g id="line2d_51">
      <g>
       <use style="fill:#262626;stroke:#262626;stroke-width:1.5;" x="74.19" xlink:href="#m939b32971e" y="196.496096"/>
      </g>
     </g>
    </g>
    <g id="ytick_21">
     <g id="line2d_52">
      <g>
       <use style="fill:#262626;stroke:#262626;stroke-width:1.5;" x="74.19" xlink:href="#m939b32971e" y="187.426992"/>
      </g>
     </g>
    </g>
    <g id="ytick_22">
     <g id="line2d_53">
      <g>
       <use style="fill:#262626;stroke:#262626;stroke-width:1.5;" x="74.19" xlink:href="#m939b32971e" y="180.392449"/>
      </g>
     </g>
    </g>
    <g id="ytick_23">
     <g id="line2d_54">
      <g>
       <use style="fill:#262626;stroke:#262626;stroke-width:1.5;" x="74.19" xlink:href="#m939b32971e" y="174.644809"/>
      </g>
     </g>
    </g>
    <g id="ytick_24">
     <g id="line2d_55">
      <g>
       <use style="fill:#262626;stroke:#262626;stroke-width:1.5;" x="74.19" xlink:href="#m939b32971e" y="169.785249"/>
      </g>
     </g>
    </g>
    <g id="ytick_25">
     <g id="line2d_56">
      <g>
       <use style="fill:#262626;stroke:#262626;stroke-width:1.5;" x="74.19" xlink:href="#m939b32971e" y="165.575706"/>
      </g>
     </g>
    </g>
    <g id="ytick_26">
     <g id="line2d_57">
      <g>
       <use style="fill:#262626;stroke:#262626;stroke-width:1.5;" x="74.19" xlink:href="#m939b32971e" y="161.862626"/>
      </g>
     </g>
    </g>
    <g id="ytick_27">
     <g id="line2d_58">
      <g>
       <use style="fill:#262626;stroke:#262626;stroke-width:1.5;" x="74.19" xlink:href="#m939b32971e" y="136.689877"/>
      </g>
     </g>
    </g>
    <g id="ytick_28">
     <g id="line2d_59">
      <g>
       <use style="fill:#262626;stroke:#262626;stroke-width:1.5;" x="74.19" xlink:href="#m939b32971e" y="123.907693"/>
      </g>
     </g>
    </g>
    <g id="ytick_29">
     <g id="line2d_60">
      <g>
       <use style="fill:#262626;stroke:#262626;stroke-width:1.5;" x="74.19" xlink:href="#m939b32971e" y="114.83859"/>
      </g>
     </g>
    </g>
    <g id="ytick_30">
     <g id="line2d_61">
      <g>
       <use style="fill:#262626;stroke:#262626;stroke-width:1.5;" x="74.19" xlink:href="#m939b32971e" y="107.804047"/>
      </g>
     </g>
    </g>
    <g id="ytick_31">
     <g id="line2d_62">
      <g>
       <use style="fill:#262626;stroke:#262626;stroke-width:1.5;" x="74.19" xlink:href="#m939b32971e" y="102.056407"/>
      </g>
     </g>
    </g>
    <g id="ytick_32">
     <g id="line2d_63">
      <g>
       <use style="fill:#262626;stroke:#262626;stroke-width:1.5;" x="74.19" xlink:href="#m939b32971e" y="97.196846"/>
      </g>
     </g>
    </g>
    <g id="ytick_33">
     <g id="line2d_64">
      <g>
       <use style="fill:#262626;stroke:#262626;stroke-width:1.5;" x="74.19" xlink:href="#m939b32971e" y="92.987304"/>
      </g>
     </g>
    </g>
    <g id="ytick_34">
     <g id="line2d_65">
      <g>
       <use style="fill:#262626;stroke:#262626;stroke-width:1.5;" x="74.19" xlink:href="#m939b32971e" y="89.274224"/>
      </g>
     </g>
    </g>
    <g id="ytick_35">
     <g id="line2d_66">
      <g>
       <use style="fill:#262626;stroke:#262626;stroke-width:1.5;" x="74.19" xlink:href="#m939b32971e" y="64.101474"/>
      </g>
     </g>
    </g>
    <g id="ytick_36">
     <g id="line2d_67">
      <g>
       <use style="fill:#262626;stroke:#262626;stroke-width:1.5;" x="74.19" xlink:href="#m939b32971e" y="51.319291"/>
      </g>
     </g>
    </g>
    <g id="ytick_37">
     <g id="line2d_68">
      <g>
       <use style="fill:#262626;stroke:#262626;stroke-width:1.5;" x="74.19" xlink:href="#m939b32971e" y="42.250188"/>
      </g>
     </g>
    </g>
    <g id="ytick_38">
     <g id="line2d_69">
      <g>
       <use style="fill:#262626;stroke:#262626;stroke-width:1.5;" x="74.19" xlink:href="#m939b32971e" y="35.215645"/>
      </g>
     </g>
    </g>
    <g id="ytick_39">
     <g id="line2d_70">
      <g>
       <use style="fill:#262626;stroke:#262626;stroke-width:1.5;" x="74.19" xlink:href="#m939b32971e" y="29.468005"/>
      </g>
     </g>
    </g>
    <g id="ytick_40">
     <g id="line2d_71">
      <g>
       <use style="fill:#262626;stroke:#262626;stroke-width:1.5;" x="74.19" xlink:href="#m939b32971e" y="24.608444"/>
      </g>
     </g>
    </g>
    <g id="ytick_41">
     <g id="line2d_72">
      <g>
       <use style="fill:#262626;stroke:#262626;stroke-width:1.5;" x="74.19" xlink:href="#m939b32971e" y="20.398901"/>
      </g>
     </g>
    </g>
    <g id="ytick_42">
     <g id="line2d_73">
      <g>
       <use style="fill:#262626;stroke:#262626;stroke-width:1.5;" x="74.19" xlink:href="#m939b32971e" y="16.685821"/>
      </g>
     </g>
    </g>
    <g id="text_10">
     <!-- Critical angle, $\theta_c$ ($\degree$) -->
     <defs>
      <path d="M 58.796875 25.09375 
L 68.265625 22.703125 
Q 65.28125 11.03125 57.546875 4.90625 
Q 49.8125 -1.21875 38.625 -1.21875 
Q 27.046875 -1.21875 19.796875 3.484375 
Q 12.546875 8.203125 8.765625 17.140625 
Q 4.984375 26.078125 4.984375 36.328125 
Q 4.984375 47.515625 9.25 55.828125 
Q 13.53125 64.15625 21.40625 68.46875 
Q 29.296875 72.796875 38.765625 72.796875 
Q 49.515625 72.796875 56.828125 67.328125 
Q 64.15625 61.859375 67.046875 51.953125 
L 57.71875 49.75 
Q 55.21875 57.5625 50.484375 61.125 
Q 45.75 64.703125 38.578125 64.703125 
Q 30.328125 64.703125 24.78125 60.734375 
Q 19.234375 56.78125 16.984375 50.109375 
Q 14.75 43.453125 14.75 36.375 
Q 14.75 27.25 17.40625 20.4375 
Q 20.0625 13.625 25.671875 10.25 
Q 31.296875 6.890625 37.84375 6.890625 
Q 45.796875 6.890625 51.3125 11.46875 
Q 56.84375 16.0625 58.796875 25.09375 
z
" id="ArialMT-67"/>
      <path d="M 40.4375 19 
L 49.078125 17.875 
Q 47.65625 8.9375 41.8125 3.875 
Q 35.984375 -1.171875 27.484375 -1.171875 
Q 16.84375 -1.171875 10.375 5.78125 
Q 3.90625 12.75 3.90625 25.734375 
Q 3.90625 34.125 6.6875 40.421875 
Q 9.46875 46.734375 15.15625 49.875 
Q 20.84375 53.03125 27.546875 53.03125 
Q 35.984375 53.03125 41.359375 48.75 
Q 46.734375 44.484375 48.25 36.625 
L 39.703125 35.296875 
Q 38.484375 40.53125 35.375 43.15625 
Q 32.28125 45.796875 27.875 45.796875 
Q 21.234375 45.796875 17.078125 41.03125 
Q 12.9375 36.28125 12.9375 25.984375 
Q 12.9375 15.53125 16.9375 10.796875 
Q 20.953125 6.0625 27.390625 6.0625 
Q 32.5625 6.0625 36.03125 9.234375 
Q 39.5 12.40625 40.4375 19 
z
" id="ArialMT-99"/>
      <path d="M 6.390625 0 
L 6.390625 71.578125 
L 15.1875 71.578125 
L 15.1875 0 
z
" id="ArialMT-108"/>
      <path d="M 4.984375 -4.296875 
L 13.53125 -5.5625 
Q 14.0625 -9.515625 16.5 -11.328125 
Q 19.78125 -13.765625 25.4375 -13.765625 
Q 31.546875 -13.765625 34.859375 -11.328125 
Q 38.1875 -8.890625 39.359375 -4.5 
Q 40.046875 -1.8125 39.984375 6.78125 
Q 34.234375 0 25.640625 0 
Q 14.9375 0 9.078125 7.71875 
Q 3.21875 15.4375 3.21875 26.21875 
Q 3.21875 33.640625 5.90625 39.90625 
Q 8.59375 46.1875 13.6875 49.609375 
Q 18.796875 53.03125 25.6875 53.03125 
Q 34.859375 53.03125 40.828125 45.609375 
L 40.828125 51.859375 
L 48.921875 51.859375 
L 48.921875 7.03125 
Q 48.921875 -5.078125 46.453125 -10.125 
Q 44 -15.1875 38.640625 -18.109375 
Q 33.296875 -21.046875 25.484375 -21.046875 
Q 16.21875 -21.046875 10.5 -16.875 
Q 4.78125 -12.703125 4.984375 -4.296875 
z
M 12.25 26.859375 
Q 12.25 16.65625 16.296875 11.96875 
Q 20.359375 7.28125 26.46875 7.28125 
Q 32.515625 7.28125 36.609375 11.9375 
Q 40.71875 16.609375 40.71875 26.5625 
Q 40.71875 36.078125 36.5 40.90625 
Q 32.28125 45.75 26.3125 45.75 
Q 20.453125 45.75 16.34375 40.984375 
Q 12.25 36.234375 12.25 26.859375 
z
" id="ArialMT-103"/>
      <path d="M 45.515625 34.671875 
L 14.453125 34.671875 
Q 12.359375 20.0625 14.5 13.875 
Q 17.1875 6.25 24.46875 6.25 
Q 31.78125 6.25 37.359375 13.921875 
Q 42.234375 20.65625 45.515625 34.671875 
z
M 47.015625 42.96875 
Q 48.34375 56.84375 46.625 61.71875 
Q 43.953125 69.4375 36.765625 69.4375 
Q 29.296875 69.4375 23.828125 61.8125 
Q 19.53125 55.671875 16.15625 42.96875 
z
M 38.1875 76.765625 
Q 49.90625 76.765625 54.59375 66.40625 
Q 59.28125 56.109375 55.71875 37.84375 
Q 52.203125 19.625 43.453125 9.28125 
Q 34.765625 -1.125 23.046875 -1.125 
Q 11.28125 -1.125 6.640625 9.28125 
Q 2 19.625 5.515625 37.84375 
Q 9.078125 56.109375 17.71875 66.40625 
Q 26.421875 76.765625 38.1875 76.765625 
z
" id="DejaVuSans-Oblique-952"/>
      <path d="M 53.609375 52.59375 
L 51.8125 43.703125 
Q 48.578125 46.046875 44.9375 47.21875 
Q 41.3125 48.390625 37.40625 48.390625 
Q 33.109375 48.390625 29.21875 46.875 
Q 25.34375 45.359375 22.703125 42.578125 
Q 18.5 38.328125 16.203125 32.609375 
Q 13.921875 26.90625 13.921875 20.796875 
Q 13.921875 13.421875 17.609375 9.8125 
Q 21.296875 6.203125 28.8125 6.203125 
Q 32.515625 6.203125 36.6875 7.328125 
Q 40.875 8.453125 45.40625 10.6875 
L 43.703125 1.8125 
Q 39.796875 0.203125 35.671875 -0.609375 
Q 31.546875 -1.421875 27.203125 -1.421875 
Q 16.3125 -1.421875 10.453125 4.015625 
Q 4.59375 9.46875 4.59375 19.578125 
Q 4.59375 28.078125 7.640625 35.234375 
Q 10.6875 42.390625 16.703125 48.09375 
Q 20.796875 52 26.3125 54 
Q 31.84375 56 38.375 56 
Q 42.1875 56 45.9375 55.140625 
Q 49.703125 54.296875 53.609375 52.59375 
z
" id="DejaVuSans-Oblique-99"/>
      <path d="M 23.390625 -21.046875 
Q 16.109375 -11.859375 11.078125 0.4375 
Q 6.0625 12.75 6.0625 25.921875 
Q 6.0625 37.546875 9.8125 48.1875 
Q 14.203125 60.546875 23.390625 72.796875 
L 29.6875 72.796875 
Q 23.78125 62.640625 21.875 58.296875 
Q 18.890625 51.5625 17.1875 44.234375 
Q 15.09375 35.109375 15.09375 25.875 
Q 15.09375 2.390625 29.6875 -21.046875 
z
" id="ArialMT-40"/>
      <path d="M 25 67.921875 
Q 21.09375 67.921875 18.40625 65.203125 
Q 15.71875 62.5 15.71875 58.59375 
Q 15.71875 54.734375 18.40625 52.078125 
Q 21.09375 49.421875 25 49.421875 
Q 28.90625 49.421875 31.59375 52.078125 
Q 34.28125 54.734375 34.28125 58.59375 
Q 34.28125 62.453125 31.5625 65.1875 
Q 28.859375 67.921875 25 67.921875 
z
M 25 74.21875 
Q 28.125 74.21875 31 73.015625 
Q 33.890625 71.828125 35.984375 69.578125 
Q 38.234375 67.390625 39.359375 64.59375 
Q 40.484375 61.8125 40.484375 58.59375 
Q 40.484375 52.15625 35.96875 47.6875 
Q 31.453125 43.21875 24.90625 43.21875 
Q 18.3125 43.21875 13.90625 47.609375 
Q 9.515625 52 9.515625 58.59375 
Q 9.515625 65.140625 14 69.671875 
Q 18.5 74.21875 25 74.21875 
z
" id="DejaVuSans-176"/>
      <path d="M 12.359375 -21.046875 
L 6.0625 -21.046875 
Q 20.65625 2.390625 20.65625 25.875 
Q 20.65625 35.0625 18.5625 44.09375 
Q 16.890625 51.421875 13.921875 58.15625 
Q 12.015625 62.546875 6.0625 72.796875 
L 12.359375 72.796875 
Q 21.53125 60.546875 25.921875 48.1875 
Q 29.6875 37.546875 29.6875 25.921875 
Q 29.6875 12.75 24.625 0.4375 
Q 19.578125 -11.859375 12.359375 -21.046875 
z
" id="ArialMT-41"/>
     </defs>
     <g style="fill:#262626;" transform="translate(21.06 256.850266)rotate(-90)scale(0.18 -0.18)">
      <use transform="translate(0 0.234375)" xlink:href="#ArialMT-67"/>
      <use transform="translate(72.216797 0.234375)" xlink:href="#ArialMT-114"/>
      <use transform="translate(105.517578 0.234375)" xlink:href="#ArialMT-105"/>
      <use transform="translate(127.734375 0.234375)" xlink:href="#ArialMT-116"/>
      <use transform="translate(155.517578 0.234375)" xlink:href="#ArialMT-105"/>
      <use transform="translate(177.734375 0.234375)" xlink:href="#ArialMT-99"/>
      <use transform="translate(227.734375 0.234375)" xlink:href="#ArialMT-97"/>
      <use transform="translate(283.349609 0.234375)" xlink:href="#ArialMT-108"/>
      <use transform="translate(305.566406 0.234375)" xlink:href="#ArialMT-32"/>
      <use transform="translate(333.349609 0.234375)" xlink:href="#ArialMT-97"/>
      <use transform="translate(388.964844 0.234375)" xlink:href="#ArialMT-110"/>
      <use transform="translate(444.580078 0.234375)" xlink:href="#ArialMT-103"/>
      <use transform="translate(500.195312 0.234375)" xlink:href="#ArialMT-108"/>
      <use transform="translate(522.412109 0.234375)" xlink:href="#ArialMT-101"/>
      <use transform="translate(578.027344 0.234375)" xlink:href="#ArialMT-44"/>
      <use transform="translate(605.810547 0.234375)" xlink:href="#ArialMT-32"/>
      <use transform="translate(633.59375 0.234375)" xlink:href="#DejaVuSans-Oblique-952"/>
      <use transform="translate(694.775391 -16.171875)scale(0.7)" xlink:href="#DejaVuSans-Oblique-99"/>
      <use transform="translate(735.996094 0.234375)" xlink:href="#ArialMT-32"/>
      <use transform="translate(763.779297 0.234375)" xlink:href="#ArialMT-40"/>
      <use transform="translate(797.080078 0.234375)" xlink:href="#DejaVuSans-176"/>
      <use transform="translate(847.080078 0.234375)" xlink:href="#ArialMT-41"/>
     </g>
    </g>
   </g>
   <g id="line2d_74">
    <path clip-path="url(#pba864b624d)" d="M 89.230483 176.098649 
L 92.268964 176.325651 
L 95.307445 176.567254 
L 98.345927 176.824277 
L 101.384408 177.097566 
L 104.422889 177.387996 
L 107.461371 177.696471 
L 110.499852 178.023918 
L 113.538334 178.371291 
L 116.576815 178.739564 
L 119.615296 179.129729 
L 122.653778 179.542793 
L 125.692259 179.979777 
L 128.73074 180.441707 
L 131.769222 180.929613 
L 134.807703 181.444522 
L 137.846184 181.987456 
L 140.884666 182.559422 
L 143.923147 183.161407 
L 146.961628 183.794375 
L 150.00011 184.459256 
L 153.038591 185.156943 
L 156.077073 185.888283 
L 159.115554 186.654072 
L 162.154035 187.455048 
L 165.192517 188.291882 
L 168.230998 189.165179 
L 171.269479 190.075465 
L 174.307961 191.023188 
L 177.346442 192.008711 
L 180.384923 193.032309 
L 183.423405 194.094165 
L 186.461886 195.194373 
L 189.500367 196.332932 
L 192.538849 197.509746 
L 195.57733 198.724631 
L 198.615811 199.977309 
L 201.654293 201.267416 
L 204.692774 202.594502 
L 207.731256 203.95804 
L 210.769737 205.357424 
L 213.808218 206.791979 
L 216.8467 208.260969 
L 219.885181 209.763595 
L 222.923662 211.299009 
L 225.962144 212.866319 
L 229.000625 214.464592 
L 232.039106 216.092866 
L 235.077588 217.750151 
L 238.116069 219.43544 
L 241.15455 221.147712 
L 244.193032 222.88594 
L 247.231513 224.649093 
L 250.269995 226.436145 
L 253.308476 228.246077 
L 256.346957 230.07788 
L 259.385439 231.930564 
L 262.42392 233.803153 
L 265.462401 235.694697 
L 268.500883 237.604267 
L 271.539364 239.530961 
L 274.577845 241.473903 
L 277.616327 243.432248 
L 280.654808 245.405179 
L 283.693289 247.391911 
L 286.731771 249.391688 
L 289.770252 251.403787 
L 292.808734 253.427514 
L 295.847215 255.462209 
L 298.885696 257.50724 
L 301.924178 259.562004 
L 304.962659 261.625931 
L 308.00114 263.698476 
L 311.039622 265.779123 
L 314.078103 267.867385 
L 317.116584 269.962798 
L 320.155066 272.064925 
L 323.193547 274.173351 
L 326.232028 276.287687 
L 329.27051 278.407564 
L 332.308991 280.532635 
L 335.347472 282.662573 
L 338.385954 284.797071 
L 341.424435 286.935837 
L 344.462917 289.078601 
L 347.501398 291.225106 
L 350.539879 293.375111 
L 353.578361 295.528392 
L 356.616842 297.684736 
L 359.655323 299.843946 
L 362.693805 302.005834 
L 365.732286 304.170226 
L 368.770767 306.336958 
L 371.809249 308.505878 
L 374.84773 310.676842 
L 377.886211 312.849716 
L 380.924693 315.024374 
L 383.963174 317.200698 
L 387.001656 319.378579 
L 390.040137 321.557913 
" style="fill:none;stroke:#66c2a5;stroke-linecap:round;stroke-width:2.25;"/>
   </g>
   <g id="line2d_75">
    <path clip-path="url(#pba864b624d)" d="M 89.230483 248.687057 
L 92.268964 248.709831 
L 95.307445 248.734232 
L 98.345927 248.760376 
L 101.384408 248.788385 
L 104.422889 248.818391 
L 107.461371 248.850533 
L 110.499852 248.884962 
L 113.538334 248.921837 
L 116.576815 248.961329 
L 119.615296 249.00362 
L 122.653778 249.048905 
L 125.692259 249.09739 
L 128.73074 249.149296 
L 131.769222 249.204858 
L 134.807703 249.264328 
L 137.846184 249.32797 
L 140.884666 249.396069 
L 143.923147 249.468927 
L 146.961628 249.546863 
L 150.00011 249.630218 
L 153.038591 249.719353 
L 156.077073 249.81465 
L 159.115554 249.916514 
L 162.154035 250.025376 
L 165.192517 250.141689 
L 168.230998 250.265932 
L 171.269479 250.398612 
L 174.307961 250.540263 
L 177.346442 250.691447 
L 180.384923 250.852755 
L 183.423405 251.024809 
L 186.461886 251.208258 
L 189.500367 251.403787 
L 192.538849 251.612106 
L 195.57733 251.833962 
L 198.615811 252.070129 
L 201.654293 252.321412 
L 204.692774 252.588648 
L 207.731256 252.872702 
L 210.769737 253.174466 
L 213.808218 253.494861 
L 216.8467 253.83483 
L 219.885181 254.19534 
L 222.923662 254.577377 
L 225.962144 254.981943 
L 229.000625 255.410055 
L 232.039106 255.862736 
L 235.077588 256.341016 
L 238.116069 256.845924 
L 241.15455 257.378485 
L 244.193032 257.93971 
L 247.231513 258.530596 
L 250.269995 259.152115 
L 253.308476 259.805211 
L 256.346957 260.490792 
L 259.385439 261.209721 
L 262.42392 261.962815 
L 265.462401 262.750831 
L 268.500883 263.574469 
L 271.539364 264.434357 
L 274.577845 265.33105 
L 277.616327 266.265026 
L 280.654808 267.236679 
L 283.693289 268.246317 
L 286.731771 269.294156 
L 289.770252 270.380324 
L 292.808734 271.504854 
L 295.847215 272.667685 
L 298.885696 273.868665 
L 301.924178 275.107549 
L 304.962659 276.384006 
L 308.00114 277.697617 
L 311.039622 279.047881 
L 314.078103 280.434221 
L 317.116584 281.855988 
L 320.155066 283.312466 
L 323.193547 284.802878 
L 326.232028 286.326394 
L 329.27051 287.882138 
L 332.308991 289.46919 
L 335.347472 291.086598 
L 338.385954 292.733382 
L 341.424435 294.408541 
L 344.462917 296.111057 
L 347.501398 297.839906 
L 350.539879 299.594057 
L 353.578361 301.372481 
L 356.616842 303.174157 
L 359.655323 304.998073 
L 362.693805 306.843229 
L 365.732286 308.708645 
L 368.770767 310.593362 
L 371.809249 312.496441 
L 374.84773 314.416971 
L 377.886211 316.354067 
L 380.924693 318.306871 
L 383.963174 320.274557 
L 387.001656 322.256328 
L 390.040137 324.251416 
" style="fill:none;stroke:#66c2a5;stroke-dasharray:9,3.375;stroke-dashoffset:0;stroke-width:2.25;"/>
   </g>
   <g id="line2d_76">
    <path clip-path="url(#pba864b624d)" d="M 89.230483 103.509727 
L 92.268964 103.736736 
L 95.307445 103.978347 
L 98.345927 104.235378 
L 101.384408 104.508676 
L 104.422889 104.799115 
L 107.461371 105.107598 
L 110.499852 105.435056 
L 113.538334 105.782439 
L 116.576815 106.150722 
L 119.615296 106.540897 
L 122.653778 106.953973 
L 125.692259 107.390968 
L 128.73074 107.85291 
L 131.769222 108.340828 
L 134.807703 108.85575 
L 137.846184 109.398696 
L 140.884666 109.970674 
L 143.923147 110.572672 
L 146.961628 111.205653 
L 150.00011 111.870548 
L 153.038591 112.568248 
L 156.077073 113.299602 
L 159.115554 114.065404 
L 162.154035 114.866392 
L 165.192517 115.70324 
L 168.230998 116.576549 
L 171.269479 117.486848 
L 174.307961 118.434584 
L 177.346442 119.420119 
L 180.384923 120.443729 
L 183.423405 121.505597 
L 186.461886 122.605816 
L 189.500367 123.744385 
L 192.538849 124.92121 
L 195.57733 126.136105 
L 198.615811 127.388792 
L 201.654293 128.678908 
L 204.692774 130.006003 
L 207.731256 131.369548 
L 210.769737 132.76894 
L 213.808218 134.203503 
L 216.8467 135.672499 
L 219.885181 137.175131 
L 222.923662 138.710551 
L 225.962144 140.277866 
L 229.000625 141.876144 
L 232.039106 143.504422 
L 235.077588 145.161712 
L 238.116069 146.847004 
L 241.15455 148.55928 
L 244.193032 150.297511 
L 247.231513 152.060667 
L 250.269995 153.847721 
L 253.308476 155.657655 
L 256.346957 157.489461 
L 259.385439 159.342146 
L 262.42392 161.214738 
L 265.462401 163.106283 
L 268.500883 165.015855 
L 271.539364 166.942549 
L 274.577845 168.885493 
L 277.616327 170.843838 
L 280.654808 172.81677 
L 283.693289 174.803503 
L 286.731771 176.80328 
L 289.770252 178.81538 
L 292.808734 180.839108 
L 295.847215 182.873804 
L 298.885696 184.918834 
L 301.924178 186.973599 
L 304.962659 189.037526 
L 308.00114 191.110071 
L 311.039622 193.190719 
L 314.078103 195.278981 
L 317.116584 197.374394 
L 320.155066 199.476521 
L 323.193547 201.584948 
L 326.232028 203.699284 
L 329.27051 205.819161 
L 332.308991 207.944232 
L 335.347472 210.074171 
L 338.385954 212.208668 
L 341.424435 214.347434 
L 344.462917 216.490198 
L 347.501398 218.636703 
L 350.539879 220.786709 
L 353.578361 222.93999 
L 356.616842 225.096334 
L 359.655323 227.255543 
L 362.693805 229.417431 
L 365.732286 231.581823 
L 368.770767 233.748556 
L 371.809249 235.917476 
L 374.84773 238.08844 
L 377.886211 240.261314 
L 380.924693 242.435971 
L 383.963174 244.612296 
L 387.001656 246.790176 
L 390.040137 248.96951 
" style="fill:none;stroke:#fc8d62;stroke-linecap:round;stroke-width:2.25;"/>
   </g>
   <g id="line2d_77">
    <path clip-path="url(#pba864b624d)" d="M 89.230483 176.098649 
L 92.268964 176.121423 
L 95.307445 176.145825 
L 98.345927 176.171968 
L 101.384408 176.199977 
L 104.422889 176.229983 
L 107.461371 176.262125 
L 110.499852 176.296554 
L 113.538334 176.333429 
L 116.576815 176.372922 
L 119.615296 176.415213 
L 122.653778 176.460497 
L 125.692259 176.508982 
L 128.73074 176.560889 
L 131.769222 176.616451 
L 134.807703 176.67592 
L 137.846184 176.739563 
L 140.884666 176.807662 
L 143.923147 176.88052 
L 146.961628 176.958456 
L 150.00011 177.041811 
L 153.038591 177.130946 
L 156.077073 177.226242 
L 159.115554 177.328107 
L 162.154035 177.436969 
L 165.192517 177.553282 
L 168.230998 177.677525 
L 171.269479 177.810205 
L 174.307961 177.951856 
L 177.346442 178.10304 
L 180.384923 178.264349 
L 183.423405 178.436402 
L 186.461886 178.619852 
L 189.500367 178.81538 
L 192.538849 179.0237 
L 195.57733 179.245556 
L 198.615811 179.481722 
L 201.654293 179.733006 
L 204.692774 180.000242 
L 207.731256 180.284295 
L 210.769737 180.58606 
L 213.808218 180.906455 
L 216.8467 181.246424 
L 219.885181 181.606934 
L 222.923662 181.988971 
L 225.962144 182.393537 
L 229.000625 182.821649 
L 232.039106 183.27433 
L 235.077588 183.75261 
L 238.116069 184.257519 
L 241.15455 184.790079 
L 244.193032 185.351305 
L 247.231513 185.942191 
L 250.269995 186.56371 
L 253.308476 187.216807 
L 256.346957 187.902387 
L 259.385439 188.621317 
L 262.42392 189.37441 
L 265.462401 190.162427 
L 268.500883 190.986065 
L 271.539364 191.845952 
L 274.577845 192.742646 
L 277.616327 193.676622 
L 280.654808 194.648275 
L 283.693289 195.657913 
L 286.731771 196.705753 
L 289.770252 197.791921 
L 292.808734 198.91645 
L 295.847215 200.079281 
L 298.885696 201.280261 
L 301.924178 202.519146 
L 304.962659 203.795603 
L 308.00114 205.109214 
L 311.039622 206.459478 
L 314.078103 207.845818 
L 317.116584 209.267585 
L 320.155066 210.724063 
L 323.193547 212.214475 
L 326.232028 213.737992 
L 329.27051 215.293735 
L 332.308991 216.880787 
L 335.347472 218.498195 
L 338.385954 220.14498 
L 341.424435 221.820138 
L 344.462917 223.522655 
L 347.501398 225.251503 
L 350.539879 227.005654 
L 353.578361 228.784079 
L 356.616842 230.585755 
L 359.655323 232.40967 
L 362.693805 234.254827 
L 365.732286 236.120243 
L 368.770767 238.00496 
L 371.809249 239.908039 
L 374.84773 241.828569 
L 377.886211 243.765665 
L 380.924693 245.718469 
L 383.963174 247.686155 
L 387.001656 249.667925 
L 390.040137 251.663014 
" style="fill:none;stroke:#fc8d62;stroke-dasharray:9,3.375;stroke-dashoffset:0;stroke-width:2.25;"/>
   </g>
   <g id="line2d_78">
    <path clip-path="url(#pba864b624d)" d="M 89.230483 30.869115 
L 92.268964 31.096873 
L 95.307445 31.33927 
L 98.345927 31.597124 
L 101.384408 31.871281 
L 104.422889 32.162618 
L 107.461371 32.472037 
L 110.499852 32.800467 
L 113.538334 33.14886 
L 116.576815 33.518189 
L 119.615296 33.909447 
L 122.653778 34.323639 
L 125.692259 34.761785 
L 128.73074 35.224907 
L 131.769222 35.714036 
L 134.807703 36.230195 
L 137.846184 36.774402 
L 140.884666 37.347662 
L 143.923147 37.950961 
L 146.961628 38.585255 
L 150.00011 39.251474 
L 153.038591 39.950506 
L 156.077073 40.683192 
L 159.115554 41.450325 
L 162.154035 42.252637 
L 165.192517 43.090798 
L 168.230998 43.965405 
L 171.269479 44.876983 
L 174.307961 45.825973 
L 177.346442 46.812734 
L 180.384923 47.837539 
L 183.423405 48.900567 
L 186.461886 50.001909 
L 189.500367 51.141559 
L 192.538849 52.319423 
L 195.57733 53.535311 
L 198.615811 54.788946 
L 201.654293 56.079962 
L 204.692774 57.407909 
L 207.731256 58.772258 
L 210.769737 60.172405 
L 213.808218 61.607676 
L 216.8467 63.077333 
L 219.885181 64.58058 
L 222.923662 66.116571 
L 225.962144 67.684414 
L 229.000625 69.28318 
L 232.039106 70.911905 
L 235.077588 72.569605 
L 238.116069 74.255274 
L 241.15455 75.967892 
L 244.193032 77.706435 
L 247.231513 79.469874 
L 250.269995 81.257185 
L 253.308476 83.06735 
L 256.346957 84.899365 
L 259.385439 86.752238 
L 262.42392 88.624998 
L 265.462401 90.516695 
L 268.500883 92.426401 
L 271.539364 94.353217 
L 274.577845 96.296268 
L 277.616327 98.25471 
L 280.654808 100.227727 
L 283.693289 102.214536 
L 286.731771 104.214381 
L 289.770252 106.22654 
L 292.808734 108.250321 
L 295.847215 110.285063 
L 298.885696 112.330135 
L 301.924178 114.384936 
L 304.962659 116.448895 
L 308.00114 118.521468 
L 311.039622 120.602141 
L 314.078103 122.690425 
L 317.116584 124.785857 
L 320.155066 126.888001 
L 323.193547 128.996442 
L 326.232028 131.110791 
L 329.27051 133.23068 
L 332.308991 135.355761 
L 335.347472 137.485708 
L 338.385954 139.620213 
L 341.424435 141.758986 
L 344.462917 143.901756 
L 347.501398 146.048266 
L 350.539879 148.198276 
L 353.578361 150.351561 
L 356.616842 152.507908 
L 359.655323 154.667121 
L 362.693805 156.829011 
L 365.732286 158.993405 
L 368.770767 161.16014 
L 371.809249 163.329062 
L 374.84773 165.500027 
L 377.886211 167.672902 
L 380.924693 169.847561 
L 383.963174 172.023887 
L 387.001656 174.201768 
L 390.040137 176.381103 
" style="fill:none;stroke:#8da0cb;stroke-linecap:round;stroke-width:2.25;"/>
   </g>
   <g id="line2d_79">
    <path clip-path="url(#pba864b624d)" d="M 89.230483 103.509727 
L 92.268964 103.532501 
L 95.307445 103.556904 
L 98.345927 103.583048 
L 101.384408 103.611058 
L 104.422889 103.641065 
L 107.461371 103.673208 
L 110.499852 103.707638 
L 113.538334 103.744515 
L 116.576815 103.784008 
L 119.615296 103.826301 
L 122.653778 103.871587 
L 125.692259 103.920073 
L 128.73074 103.971981 
L 131.769222 104.027545 
L 134.807703 104.087017 
L 137.846184 104.150661 
L 140.884666 104.218763 
L 143.923147 104.291622 
L 146.961628 104.369561 
L 150.00011 104.452919 
L 153.038591 104.542056 
L 156.077073 104.637356 
L 159.115554 104.739224 
L 162.154035 104.848089 
L 165.192517 104.964405 
L 168.230998 105.088652 
L 171.269479 105.221336 
L 174.307961 105.362992 
L 177.346442 105.51418 
L 180.384923 105.675493 
L 183.423405 105.847551 
L 186.461886 106.031006 
L 189.500367 106.22654 
L 192.538849 106.434865 
L 195.57733 106.656727 
L 198.615811 106.8929 
L 201.654293 107.14419 
L 204.692774 107.411433 
L 207.731256 107.695494 
L 210.769737 107.997266 
L 213.808218 108.317669 
L 216.8467 108.657647 
L 219.885181 109.018165 
L 222.923662 109.400211 
L 225.962144 109.804786 
L 229.000625 110.232907 
L 232.039106 110.685598 
L 235.077588 111.163888 
L 238.116069 111.668807 
L 241.15455 112.201377 
L 244.193032 112.762613 
L 247.231513 113.35351 
L 250.269995 113.97504 
L 253.308476 114.628147 
L 256.346957 115.313739 
L 259.385439 116.032679 
L 262.42392 116.785784 
L 265.462401 117.573812 
L 268.500883 118.39746 
L 271.539364 119.257359 
L 274.577845 120.154062 
L 277.616327 121.088049 
L 280.654808 122.059713 
L 283.693289 123.06936 
L 286.731771 124.117209 
L 289.770252 125.203387 
L 292.808734 126.327926 
L 295.847215 127.490766 
L 298.885696 128.691754 
L 301.924178 129.930647 
L 304.962659 131.207111 
L 308.00114 132.520729 
L 311.039622 133.871 
L 314.078103 135.257347 
L 317.116584 136.679119 
L 320.155066 138.135603 
L 323.193547 139.62602 
L 326.232028 141.149542 
L 329.27051 142.70529 
L 332.308991 144.292346 
L 335.347472 145.909758 
L 338.385954 147.556545 
L 341.424435 149.231707 
L 344.462917 150.934227 
L 347.501398 152.663078 
L 350.539879 154.417231 
L 353.578361 156.195658 
L 356.616842 157.997336 
L 359.655323 159.821253 
L 362.693805 161.666411 
L 365.732286 163.531829 
L 368.770767 165.416547 
L 371.809249 167.319628 
L 374.84773 169.240159 
L 377.886211 171.177255 
L 380.924693 173.13006 
L 383.963174 175.097747 
L 387.001656 177.079518 
L 390.040137 179.074607 
" style="fill:none;stroke:#8da0cb;stroke-dasharray:9,3.375;stroke-dashoffset:0;stroke-width:2.25;"/>
   </g>
   <g id="line2d_80"/>
   <g id="line2d_81"/>
   <g id="line2d_82"/>
   <g id="line2d_83"/>
   <g id="line2d_84"/>
   <g id="patch_3">
    <path d="M 74.19 338.920531 
L 74.19 16.2 
" style="fill:none;stroke:#262626;stroke-linecap:square;stroke-linejoin:miter;stroke-width:1.875;"/>
   </g>
   <g id="patch_4">
    <path d="M 74.19 338.920531 
L 405.08062 338.920531 
" style="fill:none;stroke:#262626;stroke-linecap:square;stroke-linejoin:miter;stroke-width:1.875;"/>
   </g>
  </g>
  <g id="legend_1">
   <g id="patch_5">
    <path d="M 458.512904 293.612453 
L 546.342591 293.612453 
Q 549.642591 293.612453 549.642591 290.312453 
L 549.642591 109.523078 
Q 549.642591 106.223078 546.342591 106.223078 
L 458.512904 106.223078 
Q 455.212904 106.223078 455.212904 109.523078 
L 455.212904 290.312453 
Q 455.212904 293.612453 458.512904 293.612453 
z
" style="fill:#ffffff;opacity:0.8;stroke:#cccccc;stroke-linejoin:miter;stroke-width:1.5;"/>
   </g>
   <g id="text_11">
    <!-- $\hat{f}_{p}$ -->
    <defs>
     <path d="M -28.609375 79.984375 
L -21.390625 79.984375 
L -9.421875 61.625 
L -16.21875 61.625 
L -25 73.578125 
L -33.796875 61.625 
L -40.578125 61.625 
z
M -25 56 
z
" id="DejaVuSans-770"/>
     <path d="M 47.796875 75.984375 
L 46.390625 68.5 
L 37.796875 68.5 
Q 32.90625 68.5 30.6875 66.578125 
Q 28.46875 64.65625 27.390625 59.515625 
L 26.421875 54.6875 
L 41.21875 54.6875 
L 39.890625 47.703125 
L 25.09375 47.703125 
L 15.828125 0 
L 6.78125 0 
L 16.109375 47.703125 
L 7.515625 47.703125 
L 8.796875 54.6875 
L 17.390625 54.6875 
L 18.109375 58.5 
Q 19.96875 68.171875 24.625 72.078125 
Q 29.296875 75.984375 39.3125 75.984375 
z
" id="DejaVuSans-Oblique-102"/>
     <path d="M 49.609375 33.6875 
Q 49.609375 40.875 46.484375 44.671875 
Q 43.359375 48.484375 37.5 48.484375 
Q 33.5 48.484375 29.859375 46.4375 
Q 26.21875 44.390625 23.390625 40.484375 
Q 20.609375 36.625 18.9375 31.15625 
Q 17.28125 25.6875 17.28125 20.3125 
Q 17.28125 13.484375 20.40625 9.796875 
Q 23.53125 6.109375 29.296875 6.109375 
Q 33.546875 6.109375 37.1875 8.109375 
Q 40.828125 10.109375 43.40625 13.921875 
Q 46.1875 17.921875 47.890625 23.34375 
Q 49.609375 28.765625 49.609375 33.6875 
z
M 21.78125 46.390625 
Q 25.390625 51.125 30.296875 53.5625 
Q 35.203125 56 41.21875 56 
Q 49.609375 56 54.25 50.5 
Q 58.890625 45.015625 58.890625 35.109375 
Q 58.890625 27 56 19.65625 
Q 53.125 12.3125 47.703125 6.5 
Q 44.09375 2.640625 39.546875 0.609375 
Q 35.015625 -1.421875 29.984375 -1.421875 
Q 24.171875 -1.421875 20.21875 1 
Q 16.265625 3.421875 14.3125 8.203125 
L 8.6875 -20.796875 
L -0.296875 -20.796875 
L 14.40625 54.6875 
L 23.390625 54.6875 
z
" id="DejaVuSans-Oblique-112"/>
    </defs>
    <g style="fill:#262626;" transform="translate(475.012904 133.163078)scale(0.18 -0.18)">
     <use transform="translate(47.379395 33.015625)" xlink:href="#DejaVuSans-770"/>
     <use transform="translate(0 0.53125)" xlink:href="#DejaVuSans-Oblique-102"/>
     <use transform="translate(36.162109 -15.875)scale(0.7)" xlink:href="#DejaVuSans-Oblique-112"/>
    </g>
   </g>
   <g id="line2d_85">
    <path d="M 461.812904 154.102141 
L 494.812904 154.102141 
" style="fill:none;stroke:#66c2a5;stroke-linecap:round;stroke-width:2.25;"/>
   </g>
   <g id="line2d_86"/>
   <g id="text_12">
    <!-- 0.01 -->
    <defs>
     <path d="M 9.078125 0 
L 9.078125 10.015625 
L 19.09375 10.015625 
L 19.09375 0 
z
" id="ArialMT-46"/>
    </defs>
    <g style="fill:#262626;" transform="translate(508.012904 159.877141)scale(0.18 -0.18)">
     <use xlink:href="#ArialMT-48"/>
     <use x="55.615234" xlink:href="#ArialMT-46"/>
     <use x="83.398438" xlink:href="#ArialMT-48"/>
     <use x="139.013672" xlink:href="#ArialMT-49"/>
    </g>
   </g>
   <g id="line2d_87">
    <path d="M 461.812904 178.813703 
L 494.812904 178.813703 
" style="fill:none;stroke:#fc8d62;stroke-linecap:round;stroke-width:2.25;"/>
   </g>
   <g id="line2d_88"/>
   <g id="text_13">
    <!-- 0.1 -->
    <g style="fill:#262626;" transform="translate(508.012904 184.588703)scale(0.18 -0.18)">
     <use xlink:href="#ArialMT-48"/>
     <use x="55.615234" xlink:href="#ArialMT-46"/>
     <use x="83.398438" xlink:href="#ArialMT-49"/>
    </g>
   </g>
   <g id="line2d_89">
    <path d="M 461.812904 203.525266 
L 494.812904 203.525266 
" style="fill:none;stroke:#8da0cb;stroke-linecap:round;stroke-width:2.25;"/>
   </g>
   <g id="line2d_90"/>
   <g id="text_14">
    <!-- 1.0 -->
    <g style="fill:#262626;" transform="translate(508.012904 209.300266)scale(0.18 -0.18)">
     <use xlink:href="#ArialMT-49"/>
     <use x="55.615234" xlink:href="#ArialMT-46"/>
     <use x="83.398438" xlink:href="#ArialMT-48"/>
    </g>
   </g>
   <g id="text_15">
    <!-- $N_t$ -->
    <defs>
     <path d="M 16.890625 72.90625 
L 30.171875 72.90625 
L 50.296875 10.40625 
L 62.5 72.90625 
L 72.125 72.90625 
L 57.90625 0 
L 44.578125 0 
L 24.515625 62.890625 
L 12.3125 0 
L 2.6875 0 
z
" id="DejaVuSans-Oblique-78"/>
     <path d="M 42.28125 54.6875 
L 40.921875 47.703125 
L 23 47.703125 
L 17.1875 18.015625 
Q 16.890625 16.359375 16.75 15.234375 
Q 16.609375 14.109375 16.609375 13.484375 
Q 16.609375 10.359375 18.484375 8.9375 
Q 20.359375 7.515625 24.515625 7.515625 
L 33.59375 7.515625 
L 32.078125 0 
L 23.484375 0 
Q 15.484375 0 11.546875 3.125 
Q 7.625 6.25 7.625 12.59375 
Q 7.625 13.71875 7.765625 15.0625 
Q 7.90625 16.40625 8.203125 18.015625 
L 14.015625 47.703125 
L 6.390625 47.703125 
L 7.8125 54.6875 
L 15.28125 54.6875 
L 18.3125 70.21875 
L 27.296875 70.21875 
L 24.3125 54.6875 
z
" id="DejaVuSans-Oblique-116"/>
    </defs>
    <g style="fill:#262626;" transform="translate(475.012904 234.011828)scale(0.18 -0.18)">
     <use transform="translate(0 0.09375)" xlink:href="#DejaVuSans-Oblique-78"/>
     <use transform="translate(74.804688 -16.3125)scale(0.7)" xlink:href="#DejaVuSans-Oblique-116"/>
    </g>
   </g>
   <g id="line2d_91">
    <path d="M 461.812904 252.948391 
L 494.812904 252.948391 
" style="fill:none;stroke:#333333;stroke-linecap:round;stroke-width:2.25;"/>
   </g>
   <g id="line2d_92"/>
   <g id="text_16">
    <!-- 10 -->
    <g style="fill:#262626;" transform="translate(508.012904 258.723391)scale(0.18 -0.18)">
     <use xlink:href="#ArialMT-49"/>
     <use x="55.615234" xlink:href="#ArialMT-48"/>
    </g>
   </g>
   <g id="line2d_93">
    <path d="M 461.812904 277.659953 
L 494.812904 277.659953 
" style="fill:none;stroke:#333333;stroke-dasharray:9,3.375;stroke-dashoffset:0;stroke-width:2.25;"/>
   </g>
   <g id="line2d_94"/>
   <g id="text_17">
    <!-- 100 -->
    <g style="fill:#262626;" transform="translate(508.012904 283.434953)scale(0.18 -0.18)">
     <use xlink:href="#ArialMT-49"/>
     <use x="55.615234" xlink:href="#ArialMT-48"/>
     <use x="111.230469" xlink:href="#ArialMT-48"/>
    </g>
   </g>
  </g>
 </g>
 <defs>
  <clipPath id="pba864b624d">
   <rect height="322.720531" width="330.89062" x="74.19" y="16.2"/>
  </clipPath>
 </defs>
</svg>
