<?xml version="1.0" encoding="utf-8" standalone="no"?>
<!DOCTYPE svg PUBLIC "-//W3C//DTD SVG 1.1//EN"
  "http://www.w3.org/Graphics/SVG/1.1/DTD/svg11.dtd">
<!-- Created with matplotlib (https://matplotlib.org/) -->
<svg height="440.231766pt" version="1.1" viewBox="0 0 557.673727 440.231766" width="557.673727pt" xmlns="http://www.w3.org/2000/svg" xmlns:xlink="http://www.w3.org/1999/xlink">
 <defs>
  <style type="text/css">
*{stroke-linecap:butt;stroke-linejoin:round;}
  </style>
 </defs>
 <g id="figure_1">
  <g id="patch_1">
   <path d="M 0 440.231766 
L 557.673727 440.231766 
L 557.673727 -0 
L 0 -0 
z
" style="fill:none;"/>
  </g>
  <g id="axes_1">
   <g id="patch_2">
    <path d="M 66.705 383.622 
L 422.379028 383.622 
L 422.379028 42.078 
L 66.705 42.078 
z
" style="fill:none;"/>
   </g>
   <g id="matplotlib.axis_1">
    <g id="xtick_1">
     <g id="line2d_1">
      <defs>
       <path d="M 0 0 
L 0 9 
" id="m842074ff72" style="stroke:#262626;stroke-width:1.875;"/>
      </defs>
      <g>
       <use style="fill:#262626;stroke:#262626;stroke-width:1.875;" x="82.872001" xlink:href="#m842074ff72" y="383.622"/>
      </g>
     </g>
     <g id="text_1">
      <!-- 0 -->
      <defs>
       <path d="M 4.15625 35.296875 
Q 4.15625 48 6.765625 55.734375 
Q 9.375 63.484375 14.515625 67.671875 
Q 19.671875 71.875 27.484375 71.875 
Q 33.25 71.875 37.59375 69.546875 
Q 41.9375 67.234375 44.765625 62.859375 
Q 47.609375 58.5 49.21875 52.21875 
Q 50.828125 45.953125 50.828125 35.296875 
Q 50.828125 22.703125 48.234375 14.96875 
Q 45.65625 7.234375 40.5 3 
Q 35.359375 -1.21875 27.484375 -1.21875 
Q 17.140625 -1.21875 11.234375 6.203125 
Q 4.15625 15.140625 4.15625 35.296875 
z
M 13.1875 35.296875 
Q 13.1875 17.671875 17.3125 11.828125 
Q 21.4375 6 27.484375 6 
Q 33.546875 6 37.671875 11.859375 
Q 41.796875 17.71875 41.796875 35.296875 
Q 41.796875 52.984375 37.671875 58.78125 
Q 33.546875 64.59375 27.390625 64.59375 
Q 21.34375 64.59375 17.71875 59.46875 
Q 13.1875 52.9375 13.1875 35.296875 
z
" id="ArialMT-48"/>
      </defs>
      <g style="fill:#262626;" transform="translate(78.284228 407.932391)scale(0.165 -0.165)">
       <use xlink:href="#ArialMT-48"/>
      </g>
     </g>
    </g>
    <g id="xtick_2">
     <g id="line2d_2">
      <g>
       <use style="fill:#262626;stroke:#262626;stroke-width:1.875;" x="134.123396" xlink:href="#m842074ff72" y="383.622"/>
      </g>
     </g>
     <g id="text_2">
      <!-- 0.1 -->
      <defs>
       <path d="M 9.078125 0 
L 9.078125 10.015625 
L 19.09375 10.015625 
L 19.09375 0 
z
" id="ArialMT-46"/>
       <path d="M 37.25 0 
L 28.46875 0 
L 28.46875 56 
Q 25.296875 52.984375 20.140625 49.953125 
Q 14.984375 46.921875 10.890625 45.40625 
L 10.890625 53.90625 
Q 18.265625 57.375 23.78125 62.296875 
Q 29.296875 67.234375 31.59375 71.875 
L 37.25 71.875 
z
" id="ArialMT-49"/>
      </defs>
      <g style="fill:#262626;" transform="translate(122.655896 407.932391)scale(0.165 -0.165)">
       <use xlink:href="#ArialMT-48"/>
       <use x="55.615234" xlink:href="#ArialMT-46"/>
       <use x="83.398438" xlink:href="#ArialMT-49"/>
      </g>
     </g>
    </g>
    <g id="xtick_3">
     <g id="line2d_3">
      <g>
       <use style="fill:#262626;stroke:#262626;stroke-width:1.875;" x="226.375906" xlink:href="#m842074ff72" y="383.622"/>
      </g>
     </g>
     <g id="text_3">
      <!-- 1 -->
      <g style="fill:#262626;" transform="translate(221.788132 407.932391)scale(0.165 -0.165)">
       <use xlink:href="#ArialMT-49"/>
      </g>
     </g>
    </g>
    <g id="xtick_4">
     <g id="line2d_4">
      <g>
       <use style="fill:#262626;stroke:#262626;stroke-width:1.875;" x="318.628416" xlink:href="#m842074ff72" y="383.622"/>
      </g>
     </g>
     <g id="text_4">
      <!-- 10 -->
      <g style="fill:#262626;" transform="translate(309.452869 407.932391)scale(0.165 -0.165)">
       <use xlink:href="#ArialMT-49"/>
       <use x="55.615234" xlink:href="#ArialMT-48"/>
      </g>
     </g>
    </g>
    <g id="xtick_5">
     <g id="line2d_5">
      <g>
       <use style="fill:#262626;stroke:#262626;stroke-width:1.875;" x="410.880926" xlink:href="#m842074ff72" y="383.622"/>
      </g>
     </g>
     <g id="text_5">
      <!-- 100 -->
      <g style="fill:#262626;" transform="translate(397.117605 407.932391)scale(0.165 -0.165)">
       <use xlink:href="#ArialMT-49"/>
       <use x="55.615234" xlink:href="#ArialMT-48"/>
       <use x="111.230469" xlink:href="#ArialMT-48"/>
      </g>
     </g>
    </g>
    <g id="xtick_6">
     <g id="line2d_6">
      <defs>
       <path d="M 0 0 
L 0 6 
" id="m30603bc0a8" style="stroke:#262626;stroke-width:1.5;"/>
      </defs>
      <g>
       <use style="fill:#262626;stroke:#262626;stroke-width:1.5;" x="82.872001" xlink:href="#m30603bc0a8" y="383.622"/>
      </g>
     </g>
    </g>
    <g id="xtick_7">
     <g id="line2d_7">
      <g>
       <use style="fill:#262626;stroke:#262626;stroke-width:1.5;" x="161.894168" xlink:href="#m30603bc0a8" y="383.622"/>
      </g>
     </g>
    </g>
    <g id="xtick_8">
     <g id="line2d_8">
      <g>
       <use style="fill:#262626;stroke:#262626;stroke-width:1.5;" x="178.139029" xlink:href="#m30603bc0a8" y="383.622"/>
      </g>
     </g>
    </g>
    <g id="xtick_9">
     <g id="line2d_9">
      <g>
       <use style="fill:#262626;stroke:#262626;stroke-width:1.5;" x="189.664941" xlink:href="#m30603bc0a8" y="383.622"/>
      </g>
     </g>
    </g>
    <g id="xtick_10">
     <g id="line2d_10">
      <g>
       <use style="fill:#262626;stroke:#262626;stroke-width:1.5;" x="198.605133" xlink:href="#m30603bc0a8" y="383.622"/>
      </g>
     </g>
    </g>
    <g id="xtick_11">
     <g id="line2d_11">
      <g>
       <use style="fill:#262626;stroke:#262626;stroke-width:1.5;" x="205.909802" xlink:href="#m30603bc0a8" y="383.622"/>
      </g>
     </g>
    </g>
    <g id="xtick_12">
     <g id="line2d_12">
      <g>
       <use style="fill:#262626;stroke:#262626;stroke-width:1.5;" x="212.085811" xlink:href="#m30603bc0a8" y="383.622"/>
      </g>
     </g>
    </g>
    <g id="xtick_13">
     <g id="line2d_13">
      <g>
       <use style="fill:#262626;stroke:#262626;stroke-width:1.5;" x="217.435714" xlink:href="#m30603bc0a8" y="383.622"/>
      </g>
     </g>
    </g>
    <g id="xtick_14">
     <g id="line2d_14">
      <g>
       <use style="fill:#262626;stroke:#262626;stroke-width:1.5;" x="222.154662" xlink:href="#m30603bc0a8" y="383.622"/>
      </g>
     </g>
    </g>
    <g id="xtick_15">
     <g id="line2d_15">
      <g>
       <use style="fill:#262626;stroke:#262626;stroke-width:1.5;" x="254.146678" xlink:href="#m30603bc0a8" y="383.622"/>
      </g>
     </g>
    </g>
    <g id="xtick_16">
     <g id="line2d_16">
      <g>
       <use style="fill:#262626;stroke:#262626;stroke-width:1.5;" x="270.391539" xlink:href="#m30603bc0a8" y="383.622"/>
      </g>
     </g>
    </g>
    <g id="xtick_17">
     <g id="line2d_17">
      <g>
       <use style="fill:#262626;stroke:#262626;stroke-width:1.5;" x="281.917451" xlink:href="#m30603bc0a8" y="383.622"/>
      </g>
     </g>
    </g>
    <g id="xtick_18">
     <g id="line2d_18">
      <g>
       <use style="fill:#262626;stroke:#262626;stroke-width:1.5;" x="290.857643" xlink:href="#m30603bc0a8" y="383.622"/>
      </g>
     </g>
    </g>
    <g id="xtick_19">
     <g id="line2d_19">
      <g>
       <use style="fill:#262626;stroke:#262626;stroke-width:1.5;" x="298.162312" xlink:href="#m30603bc0a8" y="383.622"/>
      </g>
     </g>
    </g>
    <g id="xtick_20">
     <g id="line2d_20">
      <g>
       <use style="fill:#262626;stroke:#262626;stroke-width:1.5;" x="304.338321" xlink:href="#m30603bc0a8" y="383.622"/>
      </g>
     </g>
    </g>
    <g id="xtick_21">
     <g id="line2d_21">
      <g>
       <use style="fill:#262626;stroke:#262626;stroke-width:1.5;" x="309.688224" xlink:href="#m30603bc0a8" y="383.622"/>
      </g>
     </g>
    </g>
    <g id="xtick_22">
     <g id="line2d_22">
      <g>
       <use style="fill:#262626;stroke:#262626;stroke-width:1.5;" x="314.407172" xlink:href="#m30603bc0a8" y="383.622"/>
      </g>
     </g>
    </g>
    <g id="xtick_23">
     <g id="line2d_23">
      <g>
       <use style="fill:#262626;stroke:#262626;stroke-width:1.5;" x="346.399188" xlink:href="#m30603bc0a8" y="383.622"/>
      </g>
     </g>
    </g>
    <g id="xtick_24">
     <g id="line2d_24">
      <g>
       <use style="fill:#262626;stroke:#262626;stroke-width:1.5;" x="362.644049" xlink:href="#m30603bc0a8" y="383.622"/>
      </g>
     </g>
    </g>
    <g id="xtick_25">
     <g id="line2d_25">
      <g>
       <use style="fill:#262626;stroke:#262626;stroke-width:1.5;" x="374.169961" xlink:href="#m30603bc0a8" y="383.622"/>
      </g>
     </g>
    </g>
    <g id="xtick_26">
     <g id="line2d_26">
      <g>
       <use style="fill:#262626;stroke:#262626;stroke-width:1.5;" x="383.110153" xlink:href="#m30603bc0a8" y="383.622"/>
      </g>
     </g>
    </g>
    <g id="xtick_27">
     <g id="line2d_27">
      <g>
       <use style="fill:#262626;stroke:#262626;stroke-width:1.5;" x="390.414822" xlink:href="#m30603bc0a8" y="383.622"/>
      </g>
     </g>
    </g>
    <g id="xtick_28">
     <g id="line2d_28">
      <g>
       <use style="fill:#262626;stroke:#262626;stroke-width:1.5;" x="396.590831" xlink:href="#m30603bc0a8" y="383.622"/>
      </g>
     </g>
    </g>
    <g id="xtick_29">
     <g id="line2d_29">
      <g>
       <use style="fill:#262626;stroke:#262626;stroke-width:1.5;" x="401.940734" xlink:href="#m30603bc0a8" y="383.622"/>
      </g>
     </g>
    </g>
    <g id="xtick_30">
     <g id="line2d_30">
      <g>
       <use style="fill:#262626;stroke:#262626;stroke-width:1.5;" x="406.659682" xlink:href="#m30603bc0a8" y="383.622"/>
      </g>
     </g>
    </g>
    <g id="text_6">
     <!-- Tilt angle, $\theta$ ($\degree$) -->
     <defs>
      <path d="M 25.921875 0 
L 25.921875 63.140625 
L 2.34375 63.140625 
L 2.34375 71.578125 
L 59.078125 71.578125 
L 59.078125 63.140625 
L 35.40625 63.140625 
L 35.40625 0 
z
" id="ArialMT-84"/>
      <path d="M 6.640625 61.46875 
L 6.640625 71.578125 
L 15.4375 71.578125 
L 15.4375 61.46875 
z
M 6.640625 0 
L 6.640625 51.859375 
L 15.4375 51.859375 
L 15.4375 0 
z
" id="ArialMT-105"/>
      <path d="M 6.390625 0 
L 6.390625 71.578125 
L 15.1875 71.578125 
L 15.1875 0 
z
" id="ArialMT-108"/>
      <path d="M 25.78125 7.859375 
L 27.046875 0.09375 
Q 23.34375 -0.6875 20.40625 -0.6875 
Q 15.625 -0.6875 12.984375 0.828125 
Q 10.359375 2.34375 9.28125 4.8125 
Q 8.203125 7.28125 8.203125 15.1875 
L 8.203125 45.015625 
L 1.765625 45.015625 
L 1.765625 51.859375 
L 8.203125 51.859375 
L 8.203125 64.703125 
L 16.9375 69.96875 
L 16.9375 51.859375 
L 25.78125 51.859375 
L 25.78125 45.015625 
L 16.9375 45.015625 
L 16.9375 14.703125 
Q 16.9375 10.9375 17.40625 9.859375 
Q 17.875 8.796875 18.921875 8.15625 
Q 19.96875 7.515625 21.921875 7.515625 
Q 23.390625 7.515625 25.78125 7.859375 
z
" id="ArialMT-116"/>
      <path id="ArialMT-32"/>
      <path d="M 40.4375 6.390625 
Q 35.546875 2.25 31.03125 0.53125 
Q 26.515625 -1.171875 21.34375 -1.171875 
Q 12.796875 -1.171875 8.203125 3 
Q 3.609375 7.171875 3.609375 13.671875 
Q 3.609375 17.484375 5.34375 20.625 
Q 7.078125 23.78125 9.890625 25.6875 
Q 12.703125 27.59375 16.21875 28.5625 
Q 18.796875 29.25 24.03125 29.890625 
Q 34.671875 31.15625 39.703125 32.90625 
Q 39.75 34.71875 39.75 35.203125 
Q 39.75 40.578125 37.25 42.78125 
Q 33.890625 45.75 27.25 45.75 
Q 21.046875 45.75 18.09375 43.578125 
Q 15.140625 41.40625 13.71875 35.890625 
L 5.125 37.0625 
Q 6.296875 42.578125 8.984375 45.96875 
Q 11.671875 49.359375 16.75 51.1875 
Q 21.828125 53.03125 28.515625 53.03125 
Q 35.15625 53.03125 39.296875 51.46875 
Q 43.453125 49.90625 45.40625 47.53125 
Q 47.359375 45.171875 48.140625 41.546875 
Q 48.578125 39.3125 48.578125 33.453125 
L 48.578125 21.734375 
Q 48.578125 9.46875 49.140625 6.21875 
Q 49.703125 2.984375 51.375 0 
L 42.1875 0 
Q 40.828125 2.734375 40.4375 6.390625 
z
M 39.703125 26.03125 
Q 34.90625 24.078125 25.34375 22.703125 
Q 19.921875 21.921875 17.671875 20.9375 
Q 15.4375 19.96875 14.203125 18.09375 
Q 12.984375 16.21875 12.984375 13.921875 
Q 12.984375 10.40625 15.640625 8.0625 
Q 18.3125 5.71875 23.4375 5.71875 
Q 28.515625 5.71875 32.46875 7.9375 
Q 36.421875 10.15625 38.28125 14.015625 
Q 39.703125 17 39.703125 22.796875 
z
" id="ArialMT-97"/>
      <path d="M 6.59375 0 
L 6.59375 51.859375 
L 14.5 51.859375 
L 14.5 44.484375 
Q 20.21875 53.03125 31 53.03125 
Q 35.6875 53.03125 39.625 51.34375 
Q 43.5625 49.65625 45.515625 46.921875 
Q 47.46875 44.1875 48.25 40.4375 
Q 48.734375 37.984375 48.734375 31.890625 
L 48.734375 0 
L 39.9375 0 
L 39.9375 31.546875 
Q 39.9375 36.921875 38.90625 39.578125 
Q 37.890625 42.234375 35.28125 43.8125 
Q 32.671875 45.40625 29.15625 45.40625 
Q 23.53125 45.40625 19.453125 41.84375 
Q 15.375 38.28125 15.375 28.328125 
L 15.375 0 
z
" id="ArialMT-110"/>
      <path d="M 4.984375 -4.296875 
L 13.53125 -5.5625 
Q 14.0625 -9.515625 16.5 -11.328125 
Q 19.78125 -13.765625 25.4375 -13.765625 
Q 31.546875 -13.765625 34.859375 -11.328125 
Q 38.1875 -8.890625 39.359375 -4.5 
Q 40.046875 -1.8125 39.984375 6.78125 
Q 34.234375 0 25.640625 0 
Q 14.9375 0 9.078125 7.71875 
Q 3.21875 15.4375 3.21875 26.21875 
Q 3.21875 33.640625 5.90625 39.90625 
Q 8.59375 46.1875 13.6875 49.609375 
Q 18.796875 53.03125 25.6875 53.03125 
Q 34.859375 53.03125 40.828125 45.609375 
L 40.828125 51.859375 
L 48.921875 51.859375 
L 48.921875 7.03125 
Q 48.921875 -5.078125 46.453125 -10.125 
Q 44 -15.1875 38.640625 -18.109375 
Q 33.296875 -21.046875 25.484375 -21.046875 
Q 16.21875 -21.046875 10.5 -16.875 
Q 4.78125 -12.703125 4.984375 -4.296875 
z
M 12.25 26.859375 
Q 12.25 16.65625 16.296875 11.96875 
Q 20.359375 7.28125 26.46875 7.28125 
Q 32.515625 7.28125 36.609375 11.9375 
Q 40.71875 16.609375 40.71875 26.5625 
Q 40.71875 36.078125 36.5 40.90625 
Q 32.28125 45.75 26.3125 45.75 
Q 20.453125 45.75 16.34375 40.984375 
Q 12.25 36.234375 12.25 26.859375 
z
" id="ArialMT-103"/>
      <path d="M 42.09375 16.703125 
L 51.171875 15.578125 
Q 49.03125 7.625 43.21875 3.21875 
Q 37.40625 -1.171875 28.375 -1.171875 
Q 17 -1.171875 10.328125 5.828125 
Q 3.65625 12.84375 3.65625 25.484375 
Q 3.65625 38.578125 10.390625 45.796875 
Q 17.140625 53.03125 27.875 53.03125 
Q 38.28125 53.03125 44.875 45.953125 
Q 51.46875 38.875 51.46875 26.03125 
Q 51.46875 25.25 51.421875 23.6875 
L 12.75 23.6875 
Q 13.234375 15.140625 17.578125 10.59375 
Q 21.921875 6.0625 28.421875 6.0625 
Q 33.25 6.0625 36.671875 8.59375 
Q 40.09375 11.140625 42.09375 16.703125 
z
M 13.234375 30.90625 
L 42.1875 30.90625 
Q 41.609375 37.453125 38.875 40.71875 
Q 34.671875 45.796875 27.984375 45.796875 
Q 21.921875 45.796875 17.796875 41.75 
Q 13.671875 37.703125 13.234375 30.90625 
z
" id="ArialMT-101"/>
      <path d="M 8.890625 0 
L 8.890625 10.015625 
L 18.890625 10.015625 
L 18.890625 0 
Q 18.890625 -5.515625 16.9375 -8.90625 
Q 14.984375 -12.3125 10.75 -14.15625 
L 8.296875 -10.40625 
Q 11.078125 -9.1875 12.390625 -6.8125 
Q 13.71875 -4.4375 13.875 0 
z
" id="ArialMT-44"/>
      <path d="M 45.515625 34.671875 
L 14.453125 34.671875 
Q 12.359375 20.0625 14.5 13.875 
Q 17.1875 6.25 24.46875 6.25 
Q 31.78125 6.25 37.359375 13.921875 
Q 42.234375 20.65625 45.515625 34.671875 
z
M 47.015625 42.96875 
Q 48.34375 56.84375 46.625 61.71875 
Q 43.953125 69.4375 36.765625 69.4375 
Q 29.296875 69.4375 23.828125 61.8125 
Q 19.53125 55.671875 16.15625 42.96875 
z
M 38.1875 76.765625 
Q 49.90625 76.765625 54.59375 66.40625 
Q 59.28125 56.109375 55.71875 37.84375 
Q 52.203125 19.625 43.453125 9.28125 
Q 34.765625 -1.125 23.046875 -1.125 
Q 11.28125 -1.125 6.640625 9.28125 
Q 2 19.625 5.515625 37.84375 
Q 9.078125 56.109375 17.71875 66.40625 
Q 26.421875 76.765625 38.1875 76.765625 
z
" id="DejaVuSans-Oblique-952"/>
      <path d="M 23.390625 -21.046875 
Q 16.109375 -11.859375 11.078125 0.4375 
Q 6.0625 12.75 6.0625 25.921875 
Q 6.0625 37.546875 9.8125 48.1875 
Q 14.203125 60.546875 23.390625 72.796875 
L 29.6875 72.796875 
Q 23.78125 62.640625 21.875 58.296875 
Q 18.890625 51.5625 17.1875 44.234375 
Q 15.09375 35.109375 15.09375 25.875 
Q 15.09375 2.390625 29.6875 -21.046875 
z
" id="ArialMT-40"/>
      <path d="M 25 67.921875 
Q 21.09375 67.921875 18.40625 65.203125 
Q 15.71875 62.5 15.71875 58.59375 
Q 15.71875 54.734375 18.40625 52.078125 
Q 21.09375 49.421875 25 49.421875 
Q 28.90625 49.421875 31.59375 52.078125 
Q 34.28125 54.734375 34.28125 58.59375 
Q 34.28125 62.453125 31.5625 65.1875 
Q 28.859375 67.921875 25 67.921875 
z
M 25 74.21875 
Q 28.125 74.21875 31 73.015625 
Q 33.890625 71.828125 35.984375 69.578125 
Q 38.234375 67.390625 39.359375 64.59375 
Q 40.484375 61.8125 40.484375 58.59375 
Q 40.484375 52.15625 35.96875 47.6875 
Q 31.453125 43.21875 24.90625 43.21875 
Q 18.3125 43.21875 13.90625 47.609375 
Q 9.515625 52 9.515625 58.59375 
Q 9.515625 65.140625 14 69.671875 
Q 18.5 74.21875 25 74.21875 
z
" id="DejaVuSans-176"/>
      <path d="M 12.359375 -21.046875 
L 6.0625 -21.046875 
Q 20.65625 2.390625 20.65625 25.875 
Q 20.65625 35.0625 18.5625 44.09375 
Q 16.890625 51.421875 13.921875 58.15625 
Q 12.015625 62.546875 6.0625 72.796875 
L 12.359375 72.796875 
Q 21.53125 60.546875 25.921875 48.1875 
Q 29.6875 37.546875 29.6875 25.921875 
Q 29.6875 12.75 24.625 0.4375 
Q 19.578125 -11.859375 12.359375 -21.046875 
z
" id="ArialMT-41"/>
     </defs>
     <g style="fill:#262626;" transform="translate(184.512014 429.071766)scale(0.18 -0.18)">
      <use transform="translate(0 0.234375)" xlink:href="#ArialMT-84"/>
      <use transform="translate(61.083984 0.234375)" xlink:href="#ArialMT-105"/>
      <use transform="translate(83.300781 0.234375)" xlink:href="#ArialMT-108"/>
      <use transform="translate(105.517578 0.234375)" xlink:href="#ArialMT-116"/>
      <use transform="translate(133.300781 0.234375)" xlink:href="#ArialMT-32"/>
      <use transform="translate(161.083984 0.234375)" xlink:href="#ArialMT-97"/>
      <use transform="translate(216.699219 0.234375)" xlink:href="#ArialMT-110"/>
      <use transform="translate(272.314453 0.234375)" xlink:href="#ArialMT-103"/>
      <use transform="translate(327.929688 0.234375)" xlink:href="#ArialMT-108"/>
      <use transform="translate(350.146484 0.234375)" xlink:href="#ArialMT-101"/>
      <use transform="translate(405.761719 0.234375)" xlink:href="#ArialMT-44"/>
      <use transform="translate(433.544922 0.234375)" xlink:href="#ArialMT-32"/>
      <use transform="translate(461.328125 0.234375)" xlink:href="#DejaVuSans-Oblique-952"/>
      <use transform="translate(522.509766 0.234375)" xlink:href="#ArialMT-32"/>
      <use transform="translate(550.292969 0.234375)" xlink:href="#ArialMT-40"/>
      <use transform="translate(583.59375 0.234375)" xlink:href="#DejaVuSans-176"/>
      <use transform="translate(633.59375 0.234375)" xlink:href="#ArialMT-41"/>
     </g>
    </g>
   </g>
   <g id="matplotlib.axis_2">
    <g id="ytick_1">
     <g id="line2d_31">
      <defs>
       <path d="M 0 0 
L -9 0 
" id="mb932c51020" style="stroke:#262626;stroke-width:1.875;"/>
      </defs>
      <g>
       <use style="fill:#262626;stroke:#262626;stroke-width:1.875;" x="66.705" xlink:href="#mb932c51020" y="351.346977"/>
      </g>
     </g>
     <g id="text_7">
      <!-- $\mathdefault{10^{0}}$ -->
      <g style="fill:#262626;" transform="translate(28.3 359.854789)scale(0.165 -0.165)">
       <use transform="translate(0 0.99375)" xlink:href="#ArialMT-49"/>
       <use transform="translate(55.615234 0.99375)" xlink:href="#ArialMT-48"/>
       <use transform="translate(112.972813 70.6875)scale(0.7)" xlink:href="#ArialMT-48"/>
      </g>
     </g>
    </g>
    <g id="ytick_2">
     <g id="line2d_32">
      <g>
       <use style="fill:#262626;stroke:#262626;stroke-width:1.875;" x="66.705" xlink:href="#mb932c51020" y="204.474852"/>
      </g>
     </g>
     <g id="text_8">
      <!-- $\mathdefault{10^{1}}$ -->
      <g style="fill:#262626;" transform="translate(28.3 212.982664)scale(0.165 -0.165)">
       <use transform="translate(0 0.99375)" xlink:href="#ArialMT-49"/>
       <use transform="translate(55.615234 0.99375)" xlink:href="#ArialMT-48"/>
       <use transform="translate(112.972813 70.6875)scale(0.7)" xlink:href="#ArialMT-49"/>
      </g>
     </g>
    </g>
    <g id="ytick_3">
     <g id="line2d_33">
      <g>
       <use style="fill:#262626;stroke:#262626;stroke-width:1.875;" x="66.705" xlink:href="#mb932c51020" y="57.602727"/>
      </g>
     </g>
     <g id="text_9">
      <!-- $\mathdefault{10^{2}}$ -->
      <defs>
       <path d="M 50.34375 8.453125 
L 50.34375 0 
L 3.03125 0 
Q 2.9375 3.171875 4.046875 6.109375 
Q 5.859375 10.9375 9.828125 15.625 
Q 13.8125 20.3125 21.34375 26.46875 
Q 33.015625 36.03125 37.109375 41.625 
Q 41.21875 47.21875 41.21875 52.203125 
Q 41.21875 57.421875 37.46875 61 
Q 33.734375 64.59375 27.734375 64.59375 
Q 21.390625 64.59375 17.578125 60.78125 
Q 13.765625 56.984375 13.71875 50.25 
L 4.6875 51.171875 
Q 5.609375 61.28125 11.65625 66.578125 
Q 17.71875 71.875 27.9375 71.875 
Q 38.234375 71.875 44.234375 66.15625 
Q 50.25 60.453125 50.25 52 
Q 50.25 47.703125 48.484375 43.546875 
Q 46.734375 39.40625 42.65625 34.8125 
Q 38.578125 30.21875 29.109375 22.21875 
Q 21.1875 15.578125 18.9375 13.203125 
Q 16.703125 10.84375 15.234375 8.453125 
z
" id="ArialMT-50"/>
      </defs>
      <g style="fill:#262626;" transform="translate(28.3 66.110539)scale(0.165 -0.165)">
       <use transform="translate(0 0.99375)" xlink:href="#ArialMT-49"/>
       <use transform="translate(55.615234 0.99375)" xlink:href="#ArialMT-48"/>
       <use transform="translate(112.972813 70.6875)scale(0.7)" xlink:href="#ArialMT-50"/>
      </g>
     </g>
    </g>
    <g id="ytick_4">
     <g id="line2d_34">
      <defs>
       <path d="M 0 0 
L -6 0 
" id="me28c47df55" style="stroke:#262626;stroke-width:1.5;"/>
      </defs>
      <g>
       <use style="fill:#262626;stroke:#262626;stroke-width:1.5;" x="66.705" xlink:href="#me28c47df55" y="383.930374"/>
      </g>
     </g>
    </g>
    <g id="ytick_5">
     <g id="line2d_35">
      <g>
       <use style="fill:#262626;stroke:#262626;stroke-width:1.5;" x="66.705" xlink:href="#me28c47df55" y="374.097757"/>
      </g>
     </g>
    </g>
    <g id="ytick_6">
     <g id="line2d_36">
      <g>
       <use style="fill:#262626;stroke:#262626;stroke-width:1.5;" x="66.705" xlink:href="#me28c47df55" y="365.580356"/>
      </g>
     </g>
    </g>
    <g id="ytick_7">
     <g id="line2d_37">
      <g>
       <use style="fill:#262626;stroke:#262626;stroke-width:1.5;" x="66.705" xlink:href="#me28c47df55" y="358.067477"/>
      </g>
     </g>
    </g>
    <g id="ytick_8">
     <g id="line2d_38">
      <g>
       <use style="fill:#262626;stroke:#262626;stroke-width:1.5;" x="66.705" xlink:href="#me28c47df55" y="307.134062"/>
      </g>
     </g>
    </g>
    <g id="ytick_9">
     <g id="line2d_39">
      <g>
       <use style="fill:#262626;stroke:#262626;stroke-width:1.5;" x="66.705" xlink:href="#me28c47df55" y="281.271164"/>
      </g>
     </g>
    </g>
    <g id="ytick_10">
     <g id="line2d_40">
      <g>
       <use style="fill:#262626;stroke:#262626;stroke-width:1.5;" x="66.705" xlink:href="#me28c47df55" y="262.921147"/>
      </g>
     </g>
    </g>
    <g id="ytick_11">
     <g id="line2d_41">
      <g>
       <use style="fill:#262626;stroke:#262626;stroke-width:1.5;" x="66.705" xlink:href="#me28c47df55" y="248.687767"/>
      </g>
     </g>
    </g>
    <g id="ytick_12">
     <g id="line2d_42">
      <g>
       <use style="fill:#262626;stroke:#262626;stroke-width:1.5;" x="66.705" xlink:href="#me28c47df55" y="237.058249"/>
      </g>
     </g>
    </g>
    <g id="ytick_13">
     <g id="line2d_43">
      <g>
       <use style="fill:#262626;stroke:#262626;stroke-width:1.5;" x="66.705" xlink:href="#me28c47df55" y="227.225632"/>
      </g>
     </g>
    </g>
    <g id="ytick_14">
     <g id="line2d_44">
      <g>
       <use style="fill:#262626;stroke:#262626;stroke-width:1.5;" x="66.705" xlink:href="#me28c47df55" y="218.708231"/>
      </g>
     </g>
    </g>
    <g id="ytick_15">
     <g id="line2d_45">
      <g>
       <use style="fill:#262626;stroke:#262626;stroke-width:1.5;" x="66.705" xlink:href="#me28c47df55" y="211.195352"/>
      </g>
     </g>
    </g>
    <g id="ytick_16">
     <g id="line2d_46">
      <g>
       <use style="fill:#262626;stroke:#262626;stroke-width:1.5;" x="66.705" xlink:href="#me28c47df55" y="160.261937"/>
      </g>
     </g>
    </g>
    <g id="ytick_17">
     <g id="line2d_47">
      <g>
       <use style="fill:#262626;stroke:#262626;stroke-width:1.5;" x="66.705" xlink:href="#me28c47df55" y="134.399039"/>
      </g>
     </g>
    </g>
    <g id="ytick_18">
     <g id="line2d_48">
      <g>
       <use style="fill:#262626;stroke:#262626;stroke-width:1.5;" x="66.705" xlink:href="#me28c47df55" y="116.049022"/>
      </g>
     </g>
    </g>
    <g id="ytick_19">
     <g id="line2d_49">
      <g>
       <use style="fill:#262626;stroke:#262626;stroke-width:1.5;" x="66.705" xlink:href="#me28c47df55" y="101.815642"/>
      </g>
     </g>
    </g>
    <g id="ytick_20">
     <g id="line2d_50">
      <g>
       <use style="fill:#262626;stroke:#262626;stroke-width:1.5;" x="66.705" xlink:href="#me28c47df55" y="90.186124"/>
      </g>
     </g>
    </g>
    <g id="ytick_21">
     <g id="line2d_51">
      <g>
       <use style="fill:#262626;stroke:#262626;stroke-width:1.5;" x="66.705" xlink:href="#me28c47df55" y="80.353507"/>
      </g>
     </g>
    </g>
    <g id="ytick_22">
     <g id="line2d_52">
      <g>
       <use style="fill:#262626;stroke:#262626;stroke-width:1.5;" x="66.705" xlink:href="#me28c47df55" y="71.836106"/>
      </g>
     </g>
    </g>
    <g id="ytick_23">
     <g id="line2d_53">
      <g>
       <use style="fill:#262626;stroke:#262626;stroke-width:1.5;" x="66.705" xlink:href="#me28c47df55" y="64.323227"/>
      </g>
     </g>
    </g>
    <g id="text_10">
     <!-- Reversibility, $F_{max}/F_{adh}$ -->
     <defs>
      <path d="M 7.859375 0 
L 7.859375 71.578125 
L 39.59375 71.578125 
Q 49.171875 71.578125 54.140625 69.640625 
Q 59.125 67.71875 62.109375 62.828125 
Q 65.09375 57.953125 65.09375 52.046875 
Q 65.09375 44.4375 60.15625 39.203125 
Q 55.21875 33.984375 44.921875 32.5625 
Q 48.6875 30.765625 50.640625 29 
Q 54.78125 25.203125 58.5 19.484375 
L 70.953125 0 
L 59.03125 0 
L 49.5625 14.890625 
Q 45.40625 21.34375 42.71875 24.75 
Q 40.046875 28.171875 37.921875 29.53125 
Q 35.796875 30.90625 33.59375 31.453125 
Q 31.984375 31.78125 28.328125 31.78125 
L 17.328125 31.78125 
L 17.328125 0 
z
M 17.328125 39.984375 
L 37.703125 39.984375 
Q 44.1875 39.984375 47.84375 41.328125 
Q 51.515625 42.671875 53.421875 45.625 
Q 55.328125 48.578125 55.328125 52.046875 
Q 55.328125 57.125 51.640625 60.390625 
Q 47.953125 63.671875 39.984375 63.671875 
L 17.328125 63.671875 
z
" id="ArialMT-82"/>
      <path d="M 21 0 
L 1.265625 51.859375 
L 10.546875 51.859375 
L 21.6875 20.796875 
Q 23.484375 15.765625 25 10.359375 
Q 26.171875 14.453125 28.265625 20.21875 
L 39.796875 51.859375 
L 48.828125 51.859375 
L 29.203125 0 
z
" id="ArialMT-118"/>
      <path d="M 6.5 0 
L 6.5 51.859375 
L 14.40625 51.859375 
L 14.40625 44 
Q 17.4375 49.515625 20 51.265625 
Q 22.5625 53.03125 25.640625 53.03125 
Q 30.078125 53.03125 34.671875 50.203125 
L 31.640625 42.046875 
Q 28.421875 43.953125 25.203125 43.953125 
Q 22.3125 43.953125 20.015625 42.21875 
Q 17.71875 40.484375 16.75 37.40625 
Q 15.28125 32.71875 15.28125 27.15625 
L 15.28125 0 
z
" id="ArialMT-114"/>
      <path d="M 3.078125 15.484375 
L 11.765625 16.84375 
Q 12.5 11.625 15.84375 8.84375 
Q 19.1875 6.0625 25.203125 6.0625 
Q 31.25 6.0625 34.171875 8.515625 
Q 37.109375 10.984375 37.109375 14.3125 
Q 37.109375 17.28125 34.515625 19 
Q 32.71875 20.171875 25.53125 21.96875 
Q 15.875 24.421875 12.140625 26.203125 
Q 8.40625 27.984375 6.46875 31.125 
Q 4.546875 34.28125 4.546875 38.09375 
Q 4.546875 41.546875 6.125 44.5 
Q 7.71875 47.46875 10.453125 49.421875 
Q 12.5 50.921875 16.03125 51.96875 
Q 19.578125 53.03125 23.640625 53.03125 
Q 29.734375 53.03125 34.34375 51.265625 
Q 38.96875 49.515625 41.15625 46.5 
Q 43.359375 43.5 44.1875 38.484375 
L 35.59375 37.3125 
Q 35.015625 41.3125 32.203125 43.546875 
Q 29.390625 45.796875 24.265625 45.796875 
Q 18.21875 45.796875 15.625 43.796875 
Q 13.03125 41.796875 13.03125 39.109375 
Q 13.03125 37.40625 14.109375 36.03125 
Q 15.1875 34.625 17.484375 33.6875 
Q 18.796875 33.203125 25.25 31.453125 
Q 34.578125 28.953125 38.25 27.359375 
Q 41.9375 25.78125 44.03125 22.75 
Q 46.140625 19.734375 46.140625 15.234375 
Q 46.140625 10.84375 43.578125 6.953125 
Q 41.015625 3.078125 36.171875 0.953125 
Q 31.34375 -1.171875 25.25 -1.171875 
Q 15.140625 -1.171875 9.84375 3.03125 
Q 4.546875 7.234375 3.078125 15.484375 
z
" id="ArialMT-115"/>
      <path d="M 14.703125 0 
L 6.546875 0 
L 6.546875 71.578125 
L 15.328125 71.578125 
L 15.328125 46.046875 
Q 20.90625 53.03125 29.546875 53.03125 
Q 34.328125 53.03125 38.59375 51.09375 
Q 42.875 49.171875 45.625 45.671875 
Q 48.390625 42.1875 49.953125 37.25 
Q 51.515625 32.328125 51.515625 26.703125 
Q 51.515625 13.375 44.921875 6.09375 
Q 38.328125 -1.171875 29.109375 -1.171875 
Q 19.921875 -1.171875 14.703125 6.5 
z
M 14.59375 26.3125 
Q 14.59375 17 17.140625 12.84375 
Q 21.296875 6.0625 28.375 6.0625 
Q 34.125 6.0625 38.328125 11.0625 
Q 42.53125 16.0625 42.53125 25.984375 
Q 42.53125 36.140625 38.5 40.96875 
Q 34.46875 45.796875 28.765625 45.796875 
Q 23 45.796875 18.796875 40.796875 
Q 14.59375 35.796875 14.59375 26.3125 
z
" id="ArialMT-98"/>
      <path d="M 6.203125 -19.96875 
L 5.21875 -11.71875 
Q 8.109375 -12.5 10.25 -12.5 
Q 13.1875 -12.5 14.9375 -11.515625 
Q 16.703125 -10.546875 17.828125 -8.796875 
Q 18.65625 -7.46875 20.515625 -2.25 
Q 20.75 -1.515625 21.296875 -0.09375 
L 1.609375 51.859375 
L 11.078125 51.859375 
L 21.875 21.828125 
Q 23.96875 16.109375 25.640625 9.8125 
Q 27.15625 15.875 29.25 21.625 
L 40.328125 51.859375 
L 49.125 51.859375 
L 29.390625 -0.875 
Q 26.21875 -9.421875 24.46875 -12.640625 
Q 22.125 -17 19.09375 -19.015625 
Q 16.0625 -21.046875 11.859375 -21.046875 
Q 9.328125 -21.046875 6.203125 -19.96875 
z
" id="ArialMT-121"/>
      <path d="M 16.890625 72.90625 
L 58.6875 72.90625 
L 57.078125 64.59375 
L 25.09375 64.59375 
L 20.90625 43.109375 
L 49.8125 43.109375 
L 48.1875 34.8125 
L 19.28125 34.8125 
L 12.5 0 
L 2.6875 0 
z
" id="DejaVuSans-Oblique-70"/>
      <path d="M 89.796875 33.015625 
L 83.40625 0 
L 74.421875 0 
L 80.71875 32.71875 
Q 81.109375 34.8125 81.296875 36.328125 
Q 81.5 37.84375 81.5 38.921875 
Q 81.5 43.3125 79.046875 45.75 
Q 76.609375 48.1875 72.21875 48.1875 
Q 65.671875 48.1875 60.546875 43.28125 
Q 55.421875 38.375 53.90625 30.515625 
L 47.90625 0 
L 38.921875 0 
L 45.3125 32.71875 
Q 45.703125 34.515625 45.890625 36.046875 
Q 46.09375 37.59375 46.09375 38.8125 
Q 46.09375 43.265625 43.65625 45.71875 
Q 41.21875 48.1875 36.921875 48.1875 
Q 30.28125 48.1875 25.140625 43.28125 
Q 20.015625 38.375 18.5 30.515625 
L 12.5 0 
L 3.515625 0 
L 14.203125 54.6875 
L 23.1875 54.6875 
L 21.484375 46.1875 
Q 25.140625 50.984375 30.046875 53.484375 
Q 34.96875 56 40.578125 56 
Q 46.53125 56 50.359375 52.875 
Q 54.203125 49.75 54.984375 44.1875 
Q 59.078125 49.953125 64.46875 52.96875 
Q 69.875 56 75.875 56 
Q 82.90625 56 86.734375 51.953125 
Q 90.578125 47.90625 90.578125 40.484375 
Q 90.578125 38.875 90.375 36.9375 
Q 90.1875 35.015625 89.796875 33.015625 
z
" id="DejaVuSans-Oblique-109"/>
      <path d="M 53.71875 31.203125 
L 47.609375 0 
L 38.625 0 
L 40.28125 8.296875 
Q 36.328125 3.421875 31.265625 1 
Q 26.21875 -1.421875 20.015625 -1.421875 
Q 13.03125 -1.421875 8.5625 2.84375 
Q 4.109375 7.125 4.109375 13.8125 
Q 4.109375 23.390625 11.75 28.953125 
Q 19.390625 34.515625 32.8125 34.515625 
L 45.3125 34.515625 
L 45.796875 36.921875 
Q 45.90625 37.3125 45.953125 37.765625 
Q 46 38.234375 46 39.203125 
Q 46 43.5625 42.453125 45.96875 
Q 38.921875 48.390625 32.515625 48.390625 
Q 28.125 48.390625 23.5 47.265625 
Q 18.890625 46.140625 14.015625 43.890625 
L 15.578125 52.203125 
Q 20.65625 54.109375 25.515625 55.046875 
Q 30.375 56 34.90625 56 
Q 44.578125 56 49.625 51.796875 
Q 54.6875 47.609375 54.6875 39.59375 
Q 54.6875 37.984375 54.4375 35.8125 
Q 54.203125 33.640625 53.71875 31.203125 
z
M 44 27.484375 
L 35.015625 27.484375 
Q 23.96875 27.484375 18.671875 24.53125 
Q 13.375 21.578125 13.375 15.375 
Q 13.375 11.078125 16.078125 8.640625 
Q 18.796875 6.203125 23.578125 6.203125 
Q 30.90625 6.203125 36.375 11.453125 
Q 41.84375 16.703125 43.609375 25.484375 
z
" id="DejaVuSans-Oblique-97"/>
      <path d="M 60.015625 54.6875 
L 34.90625 27.875 
L 50.296875 0 
L 39.984375 0 
L 28.421875 21.6875 
L 8.296875 0 
L -2.59375 0 
L 24.3125 28.8125 
L 10.015625 54.6875 
L 20.3125 54.6875 
L 30.8125 34.90625 
L 49.125 54.6875 
z
" id="DejaVuSans-Oblique-120"/>
      <path d="M 25.390625 72.90625 
L 33.6875 72.90625 
L 8.296875 -9.28125 
L 0 -9.28125 
z
" id="DejaVuSans-47"/>
      <path d="M 41.796875 8.203125 
Q 38.1875 3.46875 33.25 1.015625 
Q 28.328125 -1.421875 22.3125 -1.421875 
Q 14.109375 -1.421875 9.34375 4.171875 
Q 4.59375 9.765625 4.59375 19.484375 
Q 4.59375 27.59375 7.46875 34.9375 
Q 10.359375 42.28125 15.828125 48.09375 
Q 19.4375 51.953125 23.96875 53.96875 
Q 28.515625 56 33.5 56 
Q 38.765625 56 42.796875 53.453125 
Q 46.828125 50.921875 49.03125 46.1875 
L 54.890625 75.984375 
L 63.921875 75.984375 
L 49.125 0 
L 40.09375 0 
z
M 13.921875 21.09375 
Q 13.921875 14.015625 17.109375 10.0625 
Q 20.3125 6.109375 25.984375 6.109375 
Q 30.171875 6.109375 33.765625 8.125 
Q 37.359375 10.15625 40.09375 14.109375 
Q 42.96875 18.21875 44.625 23.578125 
Q 46.296875 28.953125 46.296875 34.1875 
Q 46.296875 40.96875 43.09375 44.765625 
Q 39.890625 48.578125 34.28125 48.578125 
Q 30.03125 48.578125 26.359375 46.578125 
Q 22.703125 44.578125 20.125 40.828125 
Q 17.28125 36.765625 15.59375 31.390625 
Q 13.921875 26.03125 13.921875 21.09375 
z
" id="DejaVuSans-Oblique-100"/>
      <path d="M 55.71875 33.015625 
L 49.3125 0 
L 40.28125 0 
L 46.6875 32.671875 
Q 47.125 34.96875 47.359375 36.71875 
Q 47.609375 38.484375 47.609375 39.5 
Q 47.609375 43.609375 45.015625 45.890625 
Q 42.4375 48.1875 37.796875 48.1875 
Q 30.5625 48.1875 25.265625 43.296875 
Q 19.96875 38.421875 18.40625 30.328125 
L 12.5 0 
L 3.515625 0 
L 18.3125 75.984375 
L 27.296875 75.984375 
L 21.484375 46.09375 
Q 24.90625 50.6875 30.21875 53.34375 
Q 35.546875 56 41.40625 56 
Q 48.640625 56 52.609375 52.09375 
Q 56.59375 48.1875 56.59375 41.109375 
Q 56.59375 39.359375 56.375 37.359375 
Q 56.15625 35.359375 55.71875 33.015625 
z
" id="DejaVuSans-Oblique-104"/>
     </defs>
     <g style="fill:#262626;" transform="translate(20.34 305.82)rotate(-90)scale(0.18 -0.18)">
      <use transform="translate(0 0.09375)" xlink:href="#ArialMT-82"/>
      <use transform="translate(72.216797 0.09375)" xlink:href="#ArialMT-101"/>
      <use transform="translate(127.832031 0.09375)" xlink:href="#ArialMT-118"/>
      <use transform="translate(177.832031 0.09375)" xlink:href="#ArialMT-101"/>
      <use transform="translate(233.447266 0.09375)" xlink:href="#ArialMT-114"/>
      <use transform="translate(266.748047 0.09375)" xlink:href="#ArialMT-115"/>
      <use transform="translate(316.748047 0.09375)" xlink:href="#ArialMT-105"/>
      <use transform="translate(338.964844 0.09375)" xlink:href="#ArialMT-98"/>
      <use transform="translate(394.580078 0.09375)" xlink:href="#ArialMT-105"/>
      <use transform="translate(416.796875 0.09375)" xlink:href="#ArialMT-108"/>
      <use transform="translate(439.013672 0.09375)" xlink:href="#ArialMT-105"/>
      <use transform="translate(461.230469 0.09375)" xlink:href="#ArialMT-116"/>
      <use transform="translate(489.013672 0.09375)" xlink:href="#ArialMT-121"/>
      <use transform="translate(539.013672 0.09375)" xlink:href="#ArialMT-44"/>
      <use transform="translate(566.796875 0.09375)" xlink:href="#ArialMT-32"/>
      <use transform="translate(594.580078 0.09375)" xlink:href="#DejaVuSans-Oblique-70"/>
      <use transform="translate(652.099609 -16.3125)scale(0.7)" xlink:href="#DejaVuSans-Oblique-109"/>
      <use transform="translate(720.288086 -16.3125)scale(0.7)" xlink:href="#DejaVuSans-Oblique-97"/>
      <use transform="translate(763.183594 -16.3125)scale(0.7)" xlink:href="#DejaVuSans-Oblique-120"/>
      <use transform="translate(807.34375 0.09375)" xlink:href="#DejaVuSans-47"/>
      <use transform="translate(841.035156 0.09375)" xlink:href="#DejaVuSans-Oblique-70"/>
      <use transform="translate(898.554688 -16.3125)scale(0.7)" xlink:href="#DejaVuSans-Oblique-97"/>
      <use transform="translate(941.450195 -16.3125)scale(0.7)" xlink:href="#DejaVuSans-Oblique-100"/>
      <use transform="translate(985.883789 -16.3125)scale(0.7)" xlink:href="#DejaVuSans-Oblique-104"/>
     </g>
    </g>
   </g>
   <g id="line2d_54">
    <path clip-path="url(#p23ad0654ab)" d="M 82.872001 351.346977 
L 87.997141 346.129576 
L 93.12228 340.44709 
L 98.24742 334.208415 
L 103.372559 327.292744 
L 108.497699 319.535058 
L 113.622838 310.701522 
L 118.747977 301.923962 
L 123.873117 294.451455 
L 128.998256 287.974981 
L 134.123396 282.282535 
L 141.100027 273.10821 
L 148.076659 264.264027 
L 155.05329 255.799014 
L 162.029922 247.766891 
L 169.006554 240.22564 
L 175.983185 233.236732 
L 182.959817 226.863972 
L 189.936448 221.171925 
L 196.91308 216.223941 
L 203.889711 212.079838 
L 210.866343 208.793384 
L 217.842975 206.409743 
L 224.819606 204.963122 
L 231.796238 204.474867 
L 238.772869 204.952207 
L 245.749501 206.387796 
L 252.726132 208.760122 
L 259.702764 212.034697 
L 266.679396 216.165908 
L 273.656027 221.099279 
L 280.632659 226.773916 
L 287.60929 233.124879 
L 294.585922 240.08529 
L 301.562553 247.588006 
L 308.539185 255.566775 
L 315.515817 263.956785 
L 322.492448 272.694572 
L 329.46908 281.717218 
L 336.445711 290.960736 
L 343.422343 300.35747 
L 350.398974 309.832217 
L 357.375606 319.296545 
L 364.352237 328.640519 
L 371.328869 337.720421 
L 378.305501 346.340104 
L 385.282132 354.221594 
L 392.258764 360.956396 
L 399.235395 365.918989 
L 406.212027 368.097273 
" style="fill:none;stroke:#1f77b4;stroke-linecap:round;stroke-width:2.25;"/>
   </g>
   <g id="line2d_55">
    <path clip-path="url(#p23ad0654ab)" d="M 82.872001 351.346977 
L 87.997141 272.717461 
L 93.12228 229.603441 
L 98.24742 204.830053 
L 103.372559 187.56032 
L 108.497699 174.398155 
L 113.622838 163.830932 
L 118.747977 155.051837 
L 123.873117 147.57933 
L 128.998256 141.102856 
L 134.123396 135.41041 
L 141.100027 126.236085 
L 148.076659 117.391902 
L 155.05329 108.926889 
L 162.029922 100.894766 
L 169.006554 93.353515 
L 175.983185 86.364607 
L 182.959817 79.991847 
L 189.936448 74.2998 
L 196.91308 69.351816 
L 203.889711 65.207713 
L 210.866343 61.921259 
L 217.842975 59.537618 
L 224.819606 58.090997 
L 231.796238 57.602742 
L 238.772869 58.080082 
L 245.749501 59.515671 
L 252.726132 61.887997 
L 259.702764 65.162572 
L 266.679396 69.293783 
L 273.656027 74.227154 
L 280.632659 79.901791 
L 287.60929 86.252754 
L 294.585922 93.213165 
L 301.562553 100.715881 
L 308.539185 108.69465 
L 315.515817 117.08466 
L 322.492448 125.822447 
L 329.46908 134.845093 
L 336.445711 144.088611 
L 343.422343 153.485345 
L 350.398974 162.960092 
L 357.375606 172.42442 
L 364.352237 181.768394 
L 371.328869 190.848296 
L 378.305501 199.467979 
L 385.282132 207.349469 
L 392.258764 214.084271 
L 399.235395 219.046864 
L 406.212027 221.225148 
" style="fill:none;stroke:#1f77b4;stroke-dasharray:9,3.375;stroke-dashoffset:0;stroke-width:2.25;"/>
   </g>
   <g id="line2d_56">
    <path clip-path="url(#p23ad0654ab)" d="M 82.872001 351.346977 
L 87.997141 350.33708 
L 93.12228 349.310936 
L 98.24742 348.268014 
L 103.372559 347.207756 
L 108.497699 346.129576 
L 113.622838 345.032858 
L 118.747977 343.916953 
L 123.873117 342.781178 
L 128.998256 341.624812 
L 134.123396 340.447095 
L 141.100027 338.145049 
L 148.076659 335.292223 
L 155.05329 331.721572 
L 162.029922 327.193555 
L 169.006554 321.348551 
L 175.983185 313.612317 
L 182.959817 303.837375 
L 189.936448 294.076231 
L 196.91308 284.552867 
L 203.889711 275.305539 
L 210.866343 266.377267 
L 217.842975 257.815931 
L 224.819606 249.674166 
L 231.796238 242.009001 
L 238.772869 234.881174 
L 245.749501 228.354062 
L 252.726132 222.492196 
L 259.702764 217.359354 
L 266.679396 213.016283 
L 273.656027 209.518154 
L 280.632659 206.911905 
L 287.60929 205.233697 
L 294.585922 204.506679 
L 301.562553 204.739292 
L 308.539185 205.924216 
L 315.515817 208.038014 
L 322.492448 211.041345 
L 329.46908 214.879543 
L 336.445711 219.483176 
L 343.422343 224.768144 
L 350.398974 230.634731 
L 357.375606 236.964907 
L 364.352237 243.616964 
L 371.328869 250.416131 
L 378.305501 257.139049 
L 385.282132 263.488399 
L 392.258764 269.050672 
L 399.235395 273.222529 
L 406.212027 275.072061 
" style="fill:none;stroke:#ff7f0e;stroke-linecap:round;stroke-width:2.25;"/>
   </g>
   <g id="line2d_57">
    <path clip-path="url(#p23ad0654ab)" d="M 82.872001 351.346977 
L 87.997141 339.247216 
L 93.12228 324.301908 
L 98.24742 304.858639 
L 103.372559 286.729926 
L 108.497699 272.717469 
L 113.622838 261.308492 
L 118.747977 251.696035 
L 123.873117 243.398417 
L 128.998256 236.104942 
L 134.123396 229.603471 
L 141.100027 218.911801 
L 148.076659 208.297428 
L 155.05329 197.774343 
L 162.029922 187.358912 
L 169.006554 177.070225 
L 175.983185 166.930456 
L 182.959817 156.96525 
L 189.936448 147.204106 
L 196.91308 137.680742 
L 203.889711 128.433414 
L 210.866343 119.505142 
L 217.842975 110.943806 
L 224.819606 102.802041 
L 231.796238 95.136876 
L 238.772869 88.009049 
L 245.749501 81.481937 
L 252.726132 75.620071 
L 259.702764 70.487229 
L 266.679396 66.144158 
L 273.656027 62.646029 
L 280.632659 60.03978 
L 287.60929 58.361572 
L 294.585922 57.634554 
L 301.562553 57.867167 
L 308.539185 59.052091 
L 315.515817 61.165889 
L 322.492448 64.16922 
L 329.46908 68.007418 
L 336.445711 72.611051 
L 343.422343 77.896019 
L 350.398974 83.762606 
L 357.375606 90.092782 
L 364.352237 96.744839 
L 371.328869 103.544006 
L 378.305501 110.266924 
L 385.282132 116.616275 
L 392.258764 122.178547 
L 399.235395 126.350404 
L 406.212027 128.199936 
" style="fill:none;stroke:#ff7f0e;stroke-dasharray:9,3.375;stroke-dashoffset:0;stroke-width:2.25;"/>
   </g>
   <g id="line2d_58">
    <path clip-path="url(#p23ad0654ab)" d="M 82.872001 351.346977 
L 87.997141 350.844027 
L 93.12228 350.33708 
L 98.24742 349.826071 
L 103.372559 349.310936 
L 108.497699 348.791607 
L 113.622838 348.268015 
L 118.747977 347.740089 
L 123.873117 347.207757 
L 128.998256 346.670946 
L 134.123396 346.129578 
L 141.100027 345.08696 
L 148.076659 343.823391 
L 155.05329 342.286102 
L 162.029922 340.406757 
L 169.006554 338.095279 
L 175.983185 335.230286 
L 182.959817 331.64363 
L 189.936448 327.094 
L 196.91308 321.218756 
L 203.889711 313.438042 
L 210.866343 303.646385 
L 217.842975 293.889915 
L 224.819606 284.372064 
L 231.796238 275.131223 
L 238.772869 266.210565 
L 245.749501 257.65813 
L 252.726132 249.526718 
L 259.702764 241.873517 
L 266.679396 234.759394 
L 273.656027 228.247795 
L 280.632659 222.403202 
L 287.60929 217.289145 
L 294.585922 212.965801 
L 301.562553 209.487256 
L 308.539185 206.898581 
L 315.515817 205.23288 
L 322.492448 204.50848 
L 329.46908 204.726396 
L 336.445711 205.868086 
L 343.422343 207.89337 
L 350.398974 210.738176 
L 357.375606 214.311534 
L 364.352237 218.490918 
L 371.328869 223.114604 
L 378.305501 227.969046 
L 385.282132 232.768052 
L 392.258764 237.118164 
L 399.235395 240.459624 
L 406.212027 241.96079 
" style="fill:none;stroke:#2ca02c;stroke-linecap:round;stroke-width:2.25;"/>
   </g>
   <g id="line2d_59">
    <path clip-path="url(#p23ad0654ab)" d="M 82.872001 351.346977 
L 87.997141 345.583573 
L 93.12228 339.247216 
L 98.24742 332.211285 
L 103.372559 324.30191 
L 108.497699 315.271083 
L 113.622838 304.858648 
L 118.747977 295.136734 
L 123.873117 286.729941 
L 128.998256 279.327575 
L 134.123396 272.717492 
L 141.100027 261.820001 
L 148.076659 250.961965 
L 155.05329 240.150706 
L 162.029922 229.394864 
L 169.006554 218.704617 
L 175.983185 208.091934 
L 182.959817 197.570853 
L 189.936448 187.157803 
L 196.91308 176.871937 
L 203.889711 166.735511 
L 210.866343 156.77426 
L 217.842975 147.01779 
L 224.819606 137.499939 
L 231.796238 128.259099 
L 238.772869 119.33844 
L 245.749501 110.786005 
L 252.726132 102.654593 
L 259.702764 95.001392 
L 266.679396 87.887269 
L 273.656027 81.37567 
L 280.632659 75.531077 
L 287.60929 70.41702 
L 294.585922 66.093676 
L 301.562553 62.615131 
L 308.539185 60.026457 
L 315.515817 58.360755 
L 322.492448 57.636355 
L 329.46908 57.854271 
L 336.445711 58.995961 
L 343.422343 61.021245 
L 350.398974 63.866051 
L 357.375606 67.439409 
L 364.352237 71.618793 
L 371.328869 76.242479 
L 378.305501 81.096921 
L 385.282132 85.895927 
L 392.258764 90.246039 
L 399.235395 93.587499 
L 406.212027 95.088665 
" style="fill:none;stroke:#2ca02c;stroke-dasharray:9,3.375;stroke-dashoffset:0;stroke-width:2.25;"/>
   </g>
   <g id="line2d_60">
    <path clip-path="url(#p23ad0654ab)" d="M 82.872001 351.346977 
L 87.997141 351.246704 
L 93.12228 351.146272 
L 98.24742 351.045683 
L 103.372559 350.944935 
L 108.497699 350.844027 
L 113.622838 350.742959 
L 118.747977 350.641732 
L 123.873117 350.540343 
L 128.998256 350.438792 
L 134.123396 350.33708 
L 141.100027 350.14316 
L 148.076659 349.911582 
L 155.05329 349.634855 
L 162.029922 349.303918 
L 169.006554 348.907781 
L 175.983185 348.433066 
L 182.959817 347.863412 
L 189.936448 347.178706 
L 196.91308 346.354069 
L 203.889711 345.358484 
L 210.866343 344.152929 
L 217.842975 342.687749 
L 224.819606 340.898899 
L 231.796238 338.702365 
L 238.772869 335.985627 
L 245.749501 332.594015 
L 252.726132 328.307767 
L 259.702764 322.800943 
L 266.679396 315.56164 
L 273.656027 306.074083 
L 280.632659 296.276361 
L 287.60929 286.712798 
L 294.585922 277.422022 
L 301.562553 268.447747 
L 308.539185 259.838916 
L 315.515817 251.649616 
L 322.492448 243.938624 
L 329.46908 236.768465 
L 336.445711 230.203773 
L 343.422343 224.308761 
L 350.398974 219.143548 
L 357.375606 214.759093 
L 364.352237 211.190476 
L 371.328869 208.448339 
L 378.305501 206.508437 
L 385.282132 205.299736 
L 392.258764 204.692858 
L 399.235395 204.495199 
L 406.212027 204.474852 
" style="fill:none;stroke:#d62728;stroke-linecap:round;stroke-width:2.25;"/>
   </g>
   <g id="line2d_61">
    <path clip-path="url(#p23ad0654ab)" d="M 82.872001 351.346977 
L 87.997141 350.235205 
L 93.12228 349.103711 
L 98.24742 347.951783 
L 103.372559 346.778669 
L 108.497699 345.583574 
L 113.622838 344.36566 
L 118.747977 343.124039 
L 123.873117 341.857768 
L 128.998256 340.565849 
L 134.123396 339.247223 
L 141.100027 336.661173 
L 148.076659 333.439991 
L 155.05329 329.381202 
L 162.029922 324.187552 
L 169.006554 317.398566 
L 175.983185 308.246255 
L 182.959817 297.268923 
L 189.936448 286.304195 
L 196.91308 275.366406 
L 203.889711 264.460607 
L 210.866343 253.592783 
L 217.842975 242.770014 
L 224.819606 232.000666 
L 231.796238 221.294617 
L 238.772869 210.663506 
L 245.749501 200.121019 
L 252.726132 189.683221 
L 259.702764 179.368905 
L 266.679396 169.199995 
L 273.656027 159.201958 
L 280.632659 149.404236 
L 287.60929 139.840673 
L 294.585922 130.549897 
L 301.562553 121.575622 
L 308.539185 112.966791 
L 315.515817 104.777491 
L 322.492448 97.066499 
L 329.46908 89.89634 
L 336.445711 83.331648 
L 343.422343 77.436636 
L 350.398974 72.271423 
L 357.375606 67.886968 
L 364.352237 64.318351 
L 371.328869 61.576214 
L 378.305501 59.636312 
L 385.282132 58.427611 
L 392.258764 57.820733 
L 399.235395 57.623074 
L 406.212027 57.602727 
" style="fill:none;stroke:#d62728;stroke-dasharray:9,3.375;stroke-dashoffset:0;stroke-width:2.25;"/>
   </g>
   <g id="line2d_62">
    <path clip-path="url(#p23ad0654ab)" d="M 82.872001 351.346977 
L 87.997141 351.29686 
L 93.12228 351.246704 
L 98.24742 351.196508 
L 103.372559 351.146273 
L 108.497699 351.095998 
L 113.622838 351.045683 
L 118.747977 350.995329 
L 123.873117 350.944935 
L 128.998256 350.894501 
L 134.123396 350.844027 
L 141.100027 350.747908 
L 148.076659 350.633317 
L 155.05329 350.49666 
L 162.029922 350.333627 
L 169.006554 350.139038 
L 175.983185 349.906659 
L 182.959817 349.628972 
L 189.936448 349.296884 
L 196.91308 348.899364 
L 203.889711 348.422983 
L 210.866343 347.851321 
L 217.842975 347.164192 
L 224.819606 346.336623 
L 231.796238 345.337486 
L 238.772869 344.127618 
L 245.749501 342.657198 
L 252.726132 340.861977 
L 259.702764 338.657709 
L 266.679396 335.931625 
L 273.656027 332.52883 
L 280.632659 328.229477 
L 287.60929 322.707979 
L 294.585922 315.45398 
L 301.562553 305.973923 
L 308.539185 296.216178 
L 315.515817 286.706407 
L 322.492448 277.487685 
L 329.46908 268.609331 
L 336.445711 260.127182 
L 343.422343 252.103513 
L 350.398974 244.606417 
L 357.375606 237.708381 
L 364.352237 231.48383 
L 371.328869 226.005501 
L 378.305501 221.33999 
L 385.282132 217.543976 
L 392.258764 214.665763 
L 399.235395 212.765266 
L 406.212027 211.99097 
" style="fill:none;stroke:#9467bd;stroke-linecap:round;stroke-width:2.25;"/>
   </g>
   <g id="line2d_63">
    <path clip-path="url(#p23ad0654ab)" d="M 82.872001 351.346977 
L 87.997141 350.793513 
L 93.12228 350.235205 
L 98.24742 349.671967 
L 103.372559 349.103712 
L 108.497699 348.530348 
L 113.622838 347.951784 
L 118.747977 347.367924 
L 123.873117 346.77867 
L 128.998256 346.183922 
L 134.123396 345.583577 
L 141.100027 344.425795 
L 148.076659 343.019824 
L 155.05329 341.304993 
L 162.029922 339.202006 
L 169.006554 336.605134 
L 175.983185 333.369849 
L 182.959817 329.292255 
L 189.936448 324.072743 
L 196.91308 317.246644 
L 203.889711 308.037671 
L 210.866343 297.056445 
L 217.842975 286.092656 
L 224.819606 275.156084 
L 231.796238 264.251875 
L 238.772869 253.386139 
L 245.749501 242.566131 
L 252.726132 231.800456 
L 259.702764 221.099315 
L 266.679396 210.47479 
L 273.656027 199.941173 
L 280.632659 189.515348 
L 287.60929 179.217223 
L 294.585922 169.070218 
L 301.562553 159.101799 
L 308.539185 149.344053 
L 315.515817 139.834282 
L 322.492448 130.61556 
L 329.46908 121.737206 
L 336.445711 113.255057 
L 343.422343 105.231388 
L 350.398974 97.734292 
L 357.375606 90.836256 
L 364.352237 84.611705 
L 371.328869 79.133376 
L 378.305501 74.467865 
L 385.282132 70.671851 
L 392.258764 67.793638 
L 399.235395 65.893141 
L 406.212027 65.118845 
" style="fill:none;stroke:#9467bd;stroke-dasharray:9,3.375;stroke-dashoffset:0;stroke-width:2.25;"/>
   </g>
   <g id="line2d_64"/>
   <g id="line2d_65"/>
   <g id="line2d_66"/>
   <g id="line2d_67"/>
   <g id="line2d_68"/>
   <g id="line2d_69"/>
   <g id="line2d_70"/>
   <g id="patch_3">
    <path d="M 66.705 383.622 
L 66.705 42.078 
" style="fill:none;stroke:#262626;stroke-linecap:square;stroke-linejoin:miter;stroke-width:1.875;"/>
   </g>
   <g id="patch_4">
    <path d="M 66.705 383.622 
L 422.379028 383.622 
" style="fill:none;stroke:#262626;stroke-linecap:square;stroke-linejoin:miter;stroke-width:1.875;"/>
   </g>
  </g>
  <g id="axes_2">
   <g id="patch_5">
    <path d="M 453.151 73.8 
L 539.551 73.8 
L 539.551 16.2 
L 453.151 16.2 
z
" style="fill:none;"/>
   </g>
   <g id="matplotlib.axis_3">
    <g id="xtick_31">
     <g id="line2d_71">
      <g>
       <use style="fill:#262626;stroke:#262626;stroke-width:1.875;" x="457.078273" xlink:href="#m842074ff72" y="73.8"/>
      </g>
     </g>
     <g id="text_11">
      <!-- $\mathdefault{10^{-2}}$ -->
      <defs>
       <path d="M 52.828125 31.203125 
L 5.5625 31.203125 
L 5.5625 39.40625 
L 52.828125 39.40625 
z
" id="ArialMT-8722"/>
      </defs>
      <g style="fill:#262626;" transform="translate(442.228273 101.76875)scale(0.15 -0.15)">
       <use transform="translate(0 0.99375)" xlink:href="#ArialMT-49"/>
       <use transform="translate(55.615234 0.99375)" xlink:href="#ArialMT-48"/>
       <use transform="translate(112.972813 70.6875)scale(0.7)" xlink:href="#ArialMT-8722"/>
       <use transform="translate(153.851719 70.6875)scale(0.7)" xlink:href="#ArialMT-50"/>
      </g>
     </g>
    </g>
    <g id="xtick_32">
     <g id="line2d_72">
      <g>
       <use style="fill:#262626;stroke:#262626;stroke-width:1.875;" x="535.623727" xlink:href="#m842074ff72" y="73.8"/>
      </g>
     </g>
     <g id="text_12">
      <!-- $\mathdefault{10^{-1}}$ -->
      <g style="fill:#262626;" transform="translate(520.773727 101.76875)scale(0.15 -0.15)">
       <use transform="translate(0 0.99375)" xlink:href="#ArialMT-49"/>
       <use transform="translate(55.615234 0.99375)" xlink:href="#ArialMT-48"/>
       <use transform="translate(112.972813 70.6875)scale(0.7)" xlink:href="#ArialMT-8722"/>
       <use transform="translate(153.851719 70.6875)scale(0.7)" xlink:href="#ArialMT-49"/>
      </g>
     </g>
    </g>
    <g id="xtick_33">
     <g id="line2d_73">
      <g>
       <use style="fill:#262626;stroke:#262626;stroke-width:1.5;" x="480.722811" xlink:href="#m30603bc0a8" y="73.8"/>
      </g>
     </g>
    </g>
    <g id="xtick_34">
     <g id="line2d_74">
      <g>
       <use style="fill:#262626;stroke:#262626;stroke-width:1.5;" x="494.553979" xlink:href="#m30603bc0a8" y="73.8"/>
      </g>
     </g>
    </g>
    <g id="xtick_35">
     <g id="line2d_75">
      <g>
       <use style="fill:#262626;stroke:#262626;stroke-width:1.5;" x="504.367348" xlink:href="#m30603bc0a8" y="73.8"/>
      </g>
     </g>
    </g>
    <g id="xtick_36">
     <g id="line2d_76">
      <g>
       <use style="fill:#262626;stroke:#262626;stroke-width:1.5;" x="511.979189" xlink:href="#m30603bc0a8" y="73.8"/>
      </g>
     </g>
    </g>
    <g id="xtick_37">
     <g id="line2d_77">
      <g>
       <use style="fill:#262626;stroke:#262626;stroke-width:1.5;" x="518.198516" xlink:href="#m30603bc0a8" y="73.8"/>
      </g>
     </g>
    </g>
    <g id="xtick_38">
     <g id="line2d_78">
      <g>
       <use style="fill:#262626;stroke:#262626;stroke-width:1.5;" x="523.456882" xlink:href="#m30603bc0a8" y="73.8"/>
      </g>
     </g>
    </g>
    <g id="xtick_39">
     <g id="line2d_79">
      <g>
       <use style="fill:#262626;stroke:#262626;stroke-width:1.5;" x="528.011886" xlink:href="#m30603bc0a8" y="73.8"/>
      </g>
     </g>
    </g>
    <g id="xtick_40">
     <g id="line2d_80">
      <g>
       <use style="fill:#262626;stroke:#262626;stroke-width:1.5;" x="532.029684" xlink:href="#m30603bc0a8" y="73.8"/>
      </g>
     </g>
    </g>
    <g id="text_13">
     <!-- $\hat{f}_p$ -->
     <defs>
      <path d="M -28.609375 79.984375 
L -21.390625 79.984375 
L -9.421875 61.625 
L -16.21875 61.625 
L -25 73.578125 
L -33.796875 61.625 
L -40.578125 61.625 
z
M -25 56 
z
" id="DejaVuSans-770"/>
      <path d="M 47.796875 75.984375 
L 46.390625 68.5 
L 37.796875 68.5 
Q 32.90625 68.5 30.6875 66.578125 
Q 28.46875 64.65625 27.390625 59.515625 
L 26.421875 54.6875 
L 41.21875 54.6875 
L 39.890625 47.703125 
L 25.09375 47.703125 
L 15.828125 0 
L 6.78125 0 
L 16.109375 47.703125 
L 7.515625 47.703125 
L 8.796875 54.6875 
L 17.390625 54.6875 
L 18.109375 58.5 
Q 19.96875 68.171875 24.625 72.078125 
Q 29.296875 75.984375 39.3125 75.984375 
z
" id="DejaVuSans-Oblique-102"/>
      <path d="M 49.609375 33.6875 
Q 49.609375 40.875 46.484375 44.671875 
Q 43.359375 48.484375 37.5 48.484375 
Q 33.5 48.484375 29.859375 46.4375 
Q 26.21875 44.390625 23.390625 40.484375 
Q 20.609375 36.625 18.9375 31.15625 
Q 17.28125 25.6875 17.28125 20.3125 
Q 17.28125 13.484375 20.40625 9.796875 
Q 23.53125 6.109375 29.296875 6.109375 
Q 33.546875 6.109375 37.1875 8.109375 
Q 40.828125 10.109375 43.40625 13.921875 
Q 46.1875 17.921875 47.890625 23.34375 
Q 49.609375 28.765625 49.609375 33.6875 
z
M 21.78125 46.390625 
Q 25.390625 51.125 30.296875 53.5625 
Q 35.203125 56 41.21875 56 
Q 49.609375 56 54.25 50.5 
Q 58.890625 45.015625 58.890625 35.109375 
Q 58.890625 27 56 19.65625 
Q 53.125 12.3125 47.703125 6.5 
Q 44.09375 2.640625 39.546875 0.609375 
Q 35.015625 -1.421875 29.984375 -1.421875 
Q 24.171875 -1.421875 20.21875 1 
Q 16.265625 3.421875 14.3125 8.203125 
L 8.6875 -20.796875 
L -0.296875 -20.796875 
L 14.40625 54.6875 
L 23.390625 54.6875 
z
" id="DejaVuSans-Oblique-112"/>
     </defs>
     <g style="fill:#262626;" transform="translate(488.791 105.09)scale(0.18 -0.18)">
      <use transform="translate(47.379395 33.015625)" xlink:href="#DejaVuSans-770"/>
      <use transform="translate(0 0.53125)" xlink:href="#DejaVuSans-Oblique-102"/>
      <use transform="translate(36.162109 -15.875)scale(0.7)" xlink:href="#DejaVuSans-Oblique-112"/>
     </g>
    </g>
   </g>
   <g id="matplotlib.axis_4">
    <g id="ytick_24">
     <g id="line2d_81">
      <g>
       <use style="fill:#262626;stroke:#262626;stroke-width:1.875;" x="453.151" xlink:href="#mb932c51020" y="51.760154"/>
      </g>
     </g>
     <g id="text_14">
      <!-- 5 -->
      <defs>
       <path d="M 4.15625 18.75 
L 13.375 19.53125 
Q 14.40625 12.796875 18.140625 9.390625 
Q 21.875 6 27.15625 6 
Q 33.5 6 37.890625 10.78125 
Q 42.28125 15.578125 42.28125 23.484375 
Q 42.28125 31 38.0625 35.34375 
Q 33.84375 39.703125 27 39.703125 
Q 22.75 39.703125 19.328125 37.765625 
Q 15.921875 35.84375 13.96875 32.765625 
L 5.71875 33.84375 
L 12.640625 70.609375 
L 48.25 70.609375 
L 48.25 62.203125 
L 19.671875 62.203125 
L 15.828125 42.96875 
Q 22.265625 47.46875 29.34375 47.46875 
Q 38.71875 47.46875 45.15625 40.96875 
Q 51.609375 34.46875 51.609375 24.265625 
Q 51.609375 14.546875 45.953125 7.46875 
Q 39.0625 -1.21875 27.15625 -1.21875 
Q 17.390625 -1.21875 11.203125 4.25 
Q 5.03125 9.71875 4.15625 18.75 
z
" id="ArialMT-53"/>
      </defs>
      <g style="fill:#262626;" transform="translate(432.309594 57.128513)scale(0.15 -0.15)">
       <use xlink:href="#ArialMT-53"/>
      </g>
     </g>
    </g>
    <g id="ytick_25">
     <g id="line2d_82">
      <g>
       <use style="fill:#262626;stroke:#262626;stroke-width:1.875;" x="453.151" xlink:href="#mb932c51020" y="26.563444"/>
      </g>
     </g>
     <g id="text_15">
      <!-- 10 -->
      <g style="fill:#262626;" transform="translate(423.968188 31.931803)scale(0.15 -0.15)">
       <use xlink:href="#ArialMT-49"/>
       <use x="55.615234" xlink:href="#ArialMT-48"/>
      </g>
     </g>
    </g>
    <g id="text_16">
     <!-- $\theta_{max}$ -->
     <g style="fill:#262626;" transform="translate(422.390688 64.53)rotate(-90)scale(0.18 -0.18)">
      <use transform="translate(0 0.234375)" xlink:href="#DejaVuSans-Oblique-952"/>
      <use transform="translate(61.181641 -16.171875)scale(0.7)" xlink:href="#DejaVuSans-Oblique-109"/>
      <use transform="translate(129.370117 -16.171875)scale(0.7)" xlink:href="#DejaVuSans-Oblique-97"/>
      <use transform="translate(172.265625 -16.171875)scale(0.7)" xlink:href="#DejaVuSans-Oblique-120"/>
     </g>
    </g>
   </g>
   <g id="line2d_83">
    <path clip-path="url(#pf3ed5c58ba)" d="M 457.078273 71.181818 
L 459.092259 70.830538 
L 461.106245 70.457884 
L 463.120231 70.062554 
L 465.134217 69.643166 
L 467.148203 69.198255 
L 469.162189 68.726265 
L 471.176175 68.225545 
L 473.190161 67.694344 
L 475.204147 67.130801 
L 477.218133 66.532944 
L 479.232119 65.898677 
L 481.246105 65.225777 
L 483.260091 64.511882 
L 485.274077 63.754486 
L 487.288063 62.950926 
L 489.302049 62.098377 
L 491.316035 61.193836 
L 493.330021 60.234112 
L 495.344007 59.215816 
L 497.357993 58.135348 
L 499.371979 56.988879 
L 501.385965 55.772338 
L 503.399951 54.481397 
L 505.413937 53.111449 
L 507.427923 51.657595 
L 509.441909 50.114616 
L 511.455895 48.476954 
L 513.469881 46.738685 
L 515.483867 44.893493 
L 517.497853 42.93464 
L 519.511839 40.85493 
L 521.525825 38.646673 
L 523.539811 36.301643 
L 525.553797 33.811035 
L 527.567783 31.165407 
L 529.581769 28.354626 
L 531.595755 25.367801 
L 533.609741 22.193203 
L 535.623727 18.818182 
" style="fill:none;stroke:#7f7f7f;stroke-linecap:round;stroke-width:2.25;"/>
   </g>
   <g id="patch_6">
    <path d="M 453.151 73.8 
L 453.151 16.2 
" style="fill:none;stroke:#262626;stroke-linecap:square;stroke-linejoin:miter;stroke-width:1.875;"/>
   </g>
   <g id="patch_7">
    <path d="M 539.551 73.8 
L 539.551 16.2 
" style="fill:none;stroke:#262626;stroke-linecap:square;stroke-linejoin:miter;stroke-width:1.875;"/>
   </g>
   <g id="patch_8">
    <path d="M 453.151 73.8 
L 539.551 73.8 
" style="fill:none;stroke:#262626;stroke-linecap:square;stroke-linejoin:miter;stroke-width:1.875;"/>
   </g>
   <g id="patch_9">
    <path d="M 453.151 16.2 
L 539.551 16.2 
" style="fill:none;stroke:#262626;stroke-linecap:square;stroke-linejoin:miter;stroke-width:1.875;"/>
   </g>
  </g>
  <g id="legend_1">
   <g id="text_17">
    <!-- $\hat{f}_{p}$ -->
    <g style="fill:#262626;" transform="translate(474.79404 222.109266)scale(0.18 -0.18)">
     <use transform="translate(47.379395 33.015625)" xlink:href="#DejaVuSans-770"/>
     <use transform="translate(0 0.53125)" xlink:href="#DejaVuSans-Oblique-102"/>
     <use transform="translate(36.162109 -15.875)scale(0.7)" xlink:href="#DejaVuSans-Oblique-112"/>
    </g>
   </g>
   <g id="line2d_84">
    <path d="M 461.59404 243.048328 
L 494.59404 243.048328 
" style="fill:none;stroke:#1f77b4;stroke-linecap:round;stroke-width:2.25;"/>
   </g>
   <g id="line2d_85"/>
   <g id="text_18">
    <!-- 0.01 -->
    <g style="fill:#262626;" transform="translate(507.79404 248.823328)scale(0.18 -0.18)">
     <use xlink:href="#ArialMT-48"/>
     <use x="55.615234" xlink:href="#ArialMT-46"/>
     <use x="83.398438" xlink:href="#ArialMT-48"/>
     <use x="139.013672" xlink:href="#ArialMT-49"/>
    </g>
   </g>
   <g id="line2d_86">
    <path d="M 461.59404 267.759891 
L 494.59404 267.759891 
" style="fill:none;stroke:#ff7f0e;stroke-linecap:round;stroke-width:2.25;"/>
   </g>
   <g id="line2d_87"/>
   <g id="text_19">
    <!-- 0.05 -->
    <g style="fill:#262626;" transform="translate(507.79404 273.534891)scale(0.18 -0.18)">
     <use xlink:href="#ArialMT-48"/>
     <use x="55.615234" xlink:href="#ArialMT-46"/>
     <use x="83.398438" xlink:href="#ArialMT-48"/>
     <use x="139.013672" xlink:href="#ArialMT-53"/>
    </g>
   </g>
   <g id="line2d_88">
    <path d="M 461.59404 292.471453 
L 494.59404 292.471453 
" style="fill:none;stroke:#2ca02c;stroke-linecap:round;stroke-width:2.25;"/>
   </g>
   <g id="line2d_89"/>
   <g id="text_20">
    <!-- 0.1 -->
    <g style="fill:#262626;" transform="translate(507.79404 298.246453)scale(0.18 -0.18)">
     <use xlink:href="#ArialMT-48"/>
     <use x="55.615234" xlink:href="#ArialMT-46"/>
     <use x="83.398438" xlink:href="#ArialMT-49"/>
    </g>
   </g>
   <g id="line2d_90">
    <path d="M 461.59404 317.183016 
L 494.59404 317.183016 
" style="fill:none;stroke:#d62728;stroke-linecap:round;stroke-width:2.25;"/>
   </g>
   <g id="line2d_91"/>
   <g id="text_21">
    <!-- 0.5 -->
    <g style="fill:#262626;" transform="translate(507.79404 322.958016)scale(0.18 -0.18)">
     <use xlink:href="#ArialMT-48"/>
     <use x="55.615234" xlink:href="#ArialMT-46"/>
     <use x="83.398438" xlink:href="#ArialMT-53"/>
    </g>
   </g>
   <g id="line2d_92">
    <path d="M 461.59404 341.894578 
L 494.59404 341.894578 
" style="fill:none;stroke:#9467bd;stroke-linecap:round;stroke-width:2.25;"/>
   </g>
   <g id="line2d_93"/>
   <g id="text_22">
    <!-- 1.0 -->
    <g style="fill:#262626;" transform="translate(507.79404 347.669578)scale(0.18 -0.18)">
     <use xlink:href="#ArialMT-49"/>
     <use x="55.615234" xlink:href="#ArialMT-46"/>
     <use x="83.398438" xlink:href="#ArialMT-48"/>
    </g>
   </g>
   <g id="text_23">
    <!-- $N_t$ -->
    <defs>
     <path d="M 16.890625 72.90625 
L 30.171875 72.90625 
L 50.296875 10.40625 
L 62.5 72.90625 
L 72.125 72.90625 
L 57.90625 0 
L 44.578125 0 
L 24.515625 62.890625 
L 12.3125 0 
L 2.6875 0 
z
" id="DejaVuSans-Oblique-78"/>
     <path d="M 42.28125 54.6875 
L 40.921875 47.703125 
L 23 47.703125 
L 17.1875 18.015625 
Q 16.890625 16.359375 16.75 15.234375 
Q 16.609375 14.109375 16.609375 13.484375 
Q 16.609375 10.359375 18.484375 8.9375 
Q 20.359375 7.515625 24.515625 7.515625 
L 33.59375 7.515625 
L 32.078125 0 
L 23.484375 0 
Q 15.484375 0 11.546875 3.125 
Q 7.625 6.25 7.625 12.59375 
Q 7.625 13.71875 7.765625 15.0625 
Q 7.90625 16.40625 8.203125 18.015625 
L 14.015625 47.703125 
L 6.390625 47.703125 
L 7.8125 54.6875 
L 15.28125 54.6875 
L 18.3125 70.21875 
L 27.296875 70.21875 
L 24.3125 54.6875 
z
" id="DejaVuSans-Oblique-116"/>
    </defs>
    <g style="fill:#262626;" transform="translate(474.79404 372.381141)scale(0.18 -0.18)">
     <use transform="translate(0 0.09375)" xlink:href="#DejaVuSans-Oblique-78"/>
     <use transform="translate(74.804688 -16.3125)scale(0.7)" xlink:href="#DejaVuSans-Oblique-116"/>
    </g>
   </g>
   <g id="line2d_94">
    <path d="M 461.59404 391.317703 
L 494.59404 391.317703 
" style="fill:none;stroke:#333333;stroke-linecap:round;stroke-width:2.25;"/>
   </g>
   <g id="line2d_95"/>
   <g id="text_24">
    <!-- 10 -->
    <g style="fill:#262626;" transform="translate(507.79404 397.092703)scale(0.18 -0.18)">
     <use xlink:href="#ArialMT-49"/>
     <use x="55.615234" xlink:href="#ArialMT-48"/>
    </g>
   </g>
   <g id="line2d_96">
    <path d="M 461.59404 416.029266 
L 494.59404 416.029266 
" style="fill:none;stroke:#333333;stroke-dasharray:9,3.375;stroke-dashoffset:0;stroke-width:2.25;"/>
   </g>
   <g id="line2d_97"/>
   <g id="text_25">
    <!-- 100 -->
    <g style="fill:#262626;" transform="translate(507.79404 421.804266)scale(0.18 -0.18)">
     <use xlink:href="#ArialMT-49"/>
     <use x="55.615234" xlink:href="#ArialMT-48"/>
     <use x="111.230469" xlink:href="#ArialMT-48"/>
    </g>
   </g>
  </g>
 </g>
 <defs>
  <clipPath id="p23ad0654ab">
   <rect height="341.544" width="355.674028" x="66.705" y="42.078"/>
  </clipPath>
  <clipPath id="pf3ed5c58ba">
   <rect height="57.6" width="86.4" x="453.151" y="16.2"/>
  </clipPath>
 </defs>
</svg>
